<svg xmlns="http://www.w3.org/2000/svg" width="280" height="76" viewBox="0 0 280 76">
  <path id="chantham_house_grey" data-name="chantham house grey" d="M1967.381-882.7l-.84,1.993a29.6,29.6,0,0,1,16.1,38.742,29.878,29.878,0,0,1-38.924,15.988l-.84,1.993a32.065,32.065,0,0,0,41.865-17.1,31.677,31.677,0,0,0-17.222-41.568c-.047,0-.093-.046-.14-.046m-11.2,63.488h-2.147c0,5.422-5.461,9.824-12.182,9.824v2.132h26.51v-2.132c-6.721,0-12.181-4.4-12.181-9.824m.327-12.327a4.343,4.343,0,0,0-1.54-1.2,4.24,4.24,0,0,1-1.68-1.344,2.743,2.743,0,0,1-.187-2.41c.14-.556.187-.742,0-1.066-.14-.185-.28-.232-.887-.232a2.582,2.582,0,0,1-2.333-1.019,2.886,2.886,0,0,1,.093-2.688c.327-.741.373-.973.233-1.159a1.729,1.729,0,0,0-.793-.185,2.731,2.731,0,0,1-2.287-1.019c-1.027-1.437-.374-2.641.187-3.661l.233-.417a1.523,1.523,0,0,0-.047-1.761c-.467-.649-2.287-.834-3.734-1.02a5.761,5.761,0,0,0-.887-.093,9.18,9.18,0,0,1-5.881-2.827c-.047-.046-.093-.046-.093-.093-2.287-2.41-3.967-3.939-6.208-3.2-3.034.973-3.174,4.958-2.707,8.156a27.355,27.355,0,0,0,16.335,20.668c4.294,1.576,7.981,1.529,11.061-.093a2.788,2.788,0,0,0,1.493-1.668,2.541,2.541,0,0,0-.373-1.668Zm-20.116-17.934a1.6,1.6,0,0,1-1.914,1.112,1.585,1.585,0,0,1-1.12-1.9,1.576,1.576,0,0,1,1.914-1.112h0A1.5,1.5,0,0,1,1936.391-849.471Zm18.715-31.234h-.093a27.523,27.523,0,0,0-27.07,22.8,6.016,6.016,0,0,1,2.054-1.159c3.734-1.2,6.347,1.529,8.448,3.754h0a.046.046,0,0,0,.047.046,3.126,3.126,0,0,0,2.24,1.066,2.419,2.419,0,0,0,1.68-.51,3.9,3.9,0,0,0,.933-1.854,4.562,4.562,0,0,1,.887-1.854,2.973,2.973,0,0,1,2.38-.834c.653,0,.793-.046.933-.185.093-.093.047-.232-.047-.788a2.615,2.615,0,0,1,.373-2.549,2.889,2.889,0,0,1,2.707-.6,2.565,2.565,0,0,0,.84.046c.14-.139.14-.371.14-.88a3.038,3.038,0,0,1,.747-2.317c1.26-1.344,3.034-.927,4.014-.7a1.367,1.367,0,0,0,1.354-.371,5.986,5.986,0,0,0,.047-2.41,22.5,22.5,0,0,1-.14-2.5c.093-2.5,1.12-5.978,3.874-7.461a.046.046,0,0,0,.047-.046A30.015,30.015,0,0,0,1955.106-880.705Zm.887,4.217a1.534,1.534,0,0,1-1.914,1.066,1.52,1.52,0,0,1-1.073-1.9,1.534,1.534,0,0,1,1.914-1.066h0A1.557,1.557,0,0,1,1955.993-876.488Zm13.3-.324q-4.411-2.572-6.861-1.251c-2.053,1.112-2.66,4.078-2.707,5.607a17.785,17.785,0,0,0,.14,2.224c.14,1.529.28,2.873-.373,3.8a3.365,3.365,0,0,1-3.641,1.251c-1.4-.324-1.68-.185-1.913.093-.14.139-.14.371-.14.834a3.519,3.519,0,0,1-.653,2.271,2.85,2.85,0,0,1-2.8.7,2.567,2.567,0,0,0-.84-.046c0,.046.093.371.14.556a2.8,2.8,0,0,1-.327,2.641,3.1,3.1,0,0,1-2.614,1.02c-.467,0-.7,0-.793.139a3.916,3.916,0,0,0-.42,1.019,5.646,5.646,0,0,1-1.54,2.827c-.093.046-.14.139-.233.185.14,0,.233.046.373.046,2.053.232,4.154.51,5.181,1.854a3.63,3.63,0,0,1,.233,4.032l-.233.417c-.56,1.019-.56,1.112-.327,1.437a3.68,3.68,0,0,0,.653.093,2.911,2.911,0,0,1,2.38,1.02,3.182,3.182,0,0,1,.047,3.337,3.607,3.607,0,0,0-.233.649,2.107,2.107,0,0,0,.513.046,2.9,2.9,0,0,1,2.614,1.2,3.124,3.124,0,0,1,.28,2.873c-.14.463-.14.556-.093.649a2.32,2.32,0,0,0,.887.6,6.308,6.308,0,0,1,2.287,1.854,4.207,4.207,0,0,1,.607,3.337,4.814,4.814,0,0,1-2.567,3.059,6.629,6.629,0,0,1-.84.371,27.508,27.508,0,0,0,14.468-4.31c3.78-2.363,4.481-4.449,3.921-5.561-.7-1.39-2.287-1.483-4.994-1.576-.513,0-1.027-.046-1.587-.046a4.711,4.711,0,0,1-3.5-1.529,3.987,3.987,0,0,1-.84-2.966,5.535,5.535,0,0,1,1.26-2.688,2.268,2.268,0,0,0,.513-.927c0-.139-.14-.324-.42-.649a3.09,3.09,0,0,1-.887-2.641,2.719,2.719,0,0,1,1.867-1.946,2.507,2.507,0,0,0,.513-.232,7.237,7.237,0,0,0-.607-.6,3.015,3.015,0,0,1-1.26-2.6,3.438,3.438,0,0,1,1.307-1.993c.373-.278.513-.417.513-.6.093-.51,0-.7-1.167-1.576a3.345,3.345,0,0,1-1.354-3.568c.327-1.112,1.4-1.9,2.707-2.78.607-.417,1.213-.881,1.773-1.344a9.459,9.459,0,0,0,.793-.7c1.727-1.483,4.341-3.707,4.2-5.978-.047-1.2-1.214-2.6-3.407-3.939m5.6,4.449c-.047,3.1-2.987,5.607-4.947,7.276-.28.232-.513.463-.747.649a20.833,20.833,0,0,1-2.007,1.529,6.832,6.832,0,0,0-1.867,1.576c-.187.649.513,1.2.607,1.251,1.12.834,2.334,1.761,2.007,3.615a3.156,3.156,0,0,1-1.26,1.9c-.374.324-.56.463-.56.7a2.651,2.651,0,0,0,.607.649,2.909,2.909,0,0,1,1.26,2.5,2.4,2.4,0,0,1-1.773,1.9c-.513.232-.56.278-.607.371-.047.232.047.324.42.834a2.775,2.775,0,0,1,.887,2.317,4.279,4.279,0,0,1-.933,1.9,3.494,3.494,0,0,0-.84,1.715,1.653,1.653,0,0,0,.373,1.3,2.542,2.542,0,0,0,1.96.741c.513.046,1.027.046,1.494.046,2.707.046,5.554.139,6.861,2.734a5.2,5.2,0,0,1,.373,1.112,27.148,27.148,0,0,0-1.307-36.61Zm.42,8.99a1.52,1.52,0,0,1-1.073-1.9,1.534,1.534,0,0,1,1.914-1.066,1.521,1.521,0,0,1,1.073,1.9,1.571,1.571,0,0,1-1.914,1.066Zm34.491-15.061c7.328,0,12.321,4.263,13.488,10.427H2016.9a7.125,7.125,0,0,0-7.094-4.727c-4.947,0-8.261,4.31-8.261,10.2,0,5.839,3.314,10.2,8.261,10.2a7.164,7.164,0,0,0,7.094-4.773h6.441c-1.167,6.21-6.207,10.473-13.535,10.473-8.308,0-14.842-6.488-14.842-15.9s6.581-15.9,14.842-15.9m127.135,40.363v5.607h-14.7v6.719h13.348v5.515h-13.348v7.322h14.7v5.654h-21.1v-30.817Zm-42.332,22.059c.84,2.688,3.127,3.985,6.161,3.985,3.127,0,5.227-1.39,5.227-3.846,0-1.854-1.12-2.873-3.78-3.476l-5.554-1.251c-4.434-1.02-7.888-3.383-7.888-8.434,0-5.561,4.667-9.5,11.155-9.5,7.094,0,11.155,3.707,12.181,8.944h-6.441c-.7-2.039-2.474-3.661-5.694-3.661-2.94,0-4.9,1.39-4.9,3.615,0,1.761,1.167,2.827,3.5,3.383l5.647,1.3c5.041,1.159,8.121,4.032,8.121,8.666,0,5.978-4.947,9.593-11.528,9.593-6.907,0-11.855-3.429-12.881-9.268Zm-35.424-3.615v-18.444h6.487v17.749c0,5.283,2.333,7.785,6.441,7.785s6.441-2.5,6.441-7.785v-17.749h6.487v18.444c0,8.481-5.087,12.883-12.882,12.883s-12.975-4.4-12.975-12.883m-18.156-18.954c-8.634,0-14.655,6.673-14.655,15.9,0,9.176,6.021,15.9,14.655,15.9s14.7-6.719,14.7-15.9C2055.731-831.908,2049.664-838.581,2041.029-838.581Zm0,26.09c-4.9,0-8.074-4.171-8.074-10.2s3.174-10.2,8.074-10.2c4.947,0,8.168,4.171,8.168,10.2C2049.244-816.615,2045.977-812.491,2041.029-812.491ZM2023.2-838.071v30.817h-6.487v-12.929h-14.048v12.929h-6.487v-30.817h6.487v12.234h14.048v-12.234Zm166.526-9.037-7.7-20.112v20.112h-6.067v-30.817h7.7l8.308,21.734,8.261-21.734h7.561v30.817h-6.114V-867.22l-7.561,20.112Zm-28.1-30.817h-6.441l-11.9,30.817h6.487l2.707-7.415H2164.1l2.8,7.415h6.581Zm-7.094,17.934,3.78-10.241,3.781,10.241Zm-13.722-17.934v30.817h-6.487v-12.976h-14.048v12.976h-6.487v-30.817h6.487v12.234h14.048v-12.234Zm-56.473,0h26.51v5.607h-9.988v25.21h-6.534v-25.21h-9.941v-5.607Zm-9.008,0h-6.441l-11.854,30.817h6.487l2.707-7.415h11.622l2.8,7.415h6.581Zm-7.047,17.934,3.78-10.241,3.781,10.241Zm-13.768-17.934v30.817h-6.488v-12.976h-14.048v12.976h-6.441v-30.817h6.487v12.234h14.048v-12.234Z" transform="translate(-1927.789 882.698)" fill="#777"/>
</svg>
