<svg xmlns="http://www.w3.org/2000/svg" width="1920" height="346" viewBox="0 0 1920 346">
  <path id="Footer" d="M1643.828,894.023q0,166.337.085,332.676c0,3.278-.462,4.164-4.018,4.163q-955.978-.157-1911.956,0c-3.545,0-4.03-.864-4.027-4.156q.16-149.853.087-299.707c1.136-.259,2.259-.6,3.409-.762,31.643-4.48,63.41-4.758,95.252-2.892C-123.526,926.5-70.669,936.5-17.668,945.487c40.415,6.854,80.995,12.255,122.051,13.32,35.93.932,71.578-2.654,107.1-7.223,50.758-6.529,101.385-5.118,152.034.738,35.4,4.095,70.76,8.505,106.411,10.125a481.476,481.476,0,0,0,122.116-10.133c38.167-8.08,74.941-20.7,111.552-33.8,59.761-21.382,121.206-32.866,184.742-33.583,64.073-.723,127.863,4.487,191.7,8.535,65.037,4.125,129.878,2.987,194.592-4.714,46.185-5.5,92.087-3.464,137.811,4.744,28.985,5.2,57.9,10.953,87.17,14.342,35.256,4.08,70.519,3.775,105.6-1.912C1618.572,903.758,1632.247,902.154,1643.828,894.023Z" transform="translate(276.087 -884.861)" fill="#071932"/>
</svg>
