<svg xmlns="http://www.w3.org/2000/svg" width="490.001" height="363" viewBox="0 0 490.001 363">
  <g id="our_aproach" data-name="our aproach" transform="translate(5175 19708.999)">
    <path id="Path_6660" data-name="Path 6660" d="M295.806,41.292c18.762,4.069,37.524,9.821,53.625,20.343,43.685,28.761,58.806,85.441,93.67,124.584,15.262,16.976,34.584,31.427,42.7,52.892,6.3,16.976,4.62,35.776,1.68,53.734a448.34,448.34,0,0,1-10.641,48.964c-2.66,9.961-5.741,19.922-11.481,28.48-17.222,25.534-52.505,30.3-83.168,30.164a512.389,512.389,0,0,1-93.67-9.54c-15.4-3.087-30.943-6.734-46.625-7.857-34.023-2.385-67.627,7.576-101.37,13.469s-70.707,7.3-99.83-10.663A87.106,87.106,0,0,1,.516,321.325c-1.82-19.221,2.8-38.161,7.841-56.82q9.661-35.776,21.282-71.271C35.659,175.136,42.1,156.9,51.9,140.342,95.585,66.967,215.718,24.036,295.806,41.292Z" transform="translate(-5175.11 -19746.488)" fill="#e8eaec"/>
    <g id="Group_10758" data-name="Group 10758" transform="translate(39.47 -12.135)">
      <ellipse id="Ellipse_122" data-name="Ellipse 122" cx="14" cy="14" rx="14" ry="14" transform="translate(-4952.47 -19653.865)" fill="#071932"/>
      <ellipse id="Ellipse_123" data-name="Ellipse 123" cx="11.879" cy="11.879" rx="11.879" ry="11.879" transform="translate(-4950.349 -19651.744)" fill="#fff"/>
      <path id="Path_6277" data-name="Path 6277" d="M159.833,110.992v8.421l5.581-3.158" transform="translate(-5097.784 -19759.053)" fill="none" stroke="#071932" stroke-linecap="round" stroke-linejoin="round" stroke-width="2"/>
    </g>
    <g id="Group_10761" data-name="Group 10761" transform="translate(195.543 9.381)">
      <path id="Path_6278" data-name="Path 6278" d="M114.2,225.133h-4.659v178.7L99.352,406v1.8h25.03V406l-10.186-2.17Z" transform="translate(-5355.21 -19764.184)" fill="#b4b9c1"/>
      <path id="Path_6279" data-name="Path 6279" d="M202.66,403.835v-178.7H198v178.7L187.815,406v1.8h25.03V406Z" transform="translate(-5355.073 -19764.184)" fill="#b4b9c1"/>
      <path id="Path_6680" data-name="Path 6680" d="M0,0H153V102.577H0Z" transform="translate(-5275.543 -19635.381)" fill="#505d6f"/>
      <rect id="Rectangle_3390" data-name="Rectangle 3390" width="93.731" height="144.154" transform="translate(-5126.966 -19630.957) rotate(90)" fill="#fff"/>
      <g id="Group_10582" data-name="Group 10582" transform="translate(-5262.359 -19613.574)" style="isolation: isolate">
        <path id="Path_6282" data-name="Path 6282" d="M217.308,260.08H92.852v-69.7h1v68.7H217.308Z" transform="translate(-92.852 -190.379)" fill="#d7dade"/>
      </g>
      <rect id="Rectangle_3391" data-name="Rectangle 3391" width="5.373" height="10.068" transform="translate(-5255.859 -19555.521)" fill="#d7dade" style="isolation: isolate"/>
      <rect id="Rectangle_3392" data-name="Rectangle 3392" width="5.373" height="2.931" transform="translate(-5255.859 -19555.52)" fill="#828b98"/>
      <rect id="Rectangle_3393" data-name="Rectangle 3393" width="5.373" height="26.175" transform="translate(-5244.859 -19571.617)" fill="#d7dade" style="isolation: isolate"/>
      <rect id="Rectangle_3394" data-name="Rectangle 3394" width="5.373" height="7.621" transform="translate(-5244.859 -19571.613)" fill="#828b98"/>
      <rect id="Rectangle_3395" data-name="Rectangle 3395" width="5.373" height="20.136" transform="translate(-5233.878 -19565.584)" fill="#d7dade" style="isolation: isolate"/>
      <rect id="Rectangle_3396" data-name="Rectangle 3396" width="5.373" height="5.863" transform="translate(-5233.878 -19565.578)" fill="#828b98"/>
      <rect id="Rectangle_3397" data-name="Rectangle 3397" width="5.373" height="29.393" transform="translate(-5222.898 -19574.834)" fill="#d7dade" style="isolation: isolate"/>
      <rect id="Rectangle_3398" data-name="Rectangle 3398" width="5.373" height="8.558" transform="translate(-5222.898 -19574.828)" fill="#828b98"/>
      <rect id="Rectangle_3399" data-name="Rectangle 3399" width="5.373" height="37.937" transform="translate(-5211.917 -19583.371)" fill="#d7dade" style="isolation: isolate"/>
      <rect id="Rectangle_3400" data-name="Rectangle 3400" width="5.373" height="11.046" transform="translate(-5211.917 -19583.363)" fill="#828b98"/>
      <rect id="Rectangle_3401" data-name="Rectangle 3401" width="5.373" height="44.401" transform="translate(-5200.936 -19589.83)" fill="#d7dade" style="isolation: isolate"/>
      <rect id="Rectangle_3402" data-name="Rectangle 3402" width="5.373" height="12.928" transform="translate(-5200.936 -19589.822)" fill="#828b98"/>
      <rect id="Rectangle_3403" data-name="Rectangle 3403" width="5.373" height="36.926" transform="translate(-5189.955 -19582.361)" fill="#d7dade" style="isolation: isolate"/>
      <rect id="Rectangle_3404" data-name="Rectangle 3404" width="5.373" height="10.752" transform="translate(-5189.955 -19582.354)" fill="#828b98"/>
      <rect id="Rectangle_3405" data-name="Rectangle 3405" width="5.373" height="38.538" transform="translate(-5178.974 -19583.971)" fill="#d7dade" style="isolation: isolate"/>
      <rect id="Rectangle_3406" data-name="Rectangle 3406" width="5.373" height="11.221" transform="translate(-5178.974 -19583.965)" fill="#828b98"/>
      <rect id="Rectangle_3407" data-name="Rectangle 3407" width="5.373" height="48.373" transform="translate(-5167.993 -19593.797)" fill="#d7dade" style="isolation: isolate"/>
      <rect id="Rectangle_3408" data-name="Rectangle 3408" width="5.373" height="14.085" transform="translate(-5167.993 -19593.789)" fill="#828b98"/>
      <rect id="Rectangle_3409" data-name="Rectangle 3409" width="5.373" height="58.283" transform="translate(-5157.012 -19603.656)" fill="#d7dade" style="isolation: isolate"/>
      <rect id="Rectangle_3410" data-name="Rectangle 3410" width="5.373" height="16.97" transform="translate(-5157.012 -19603.656)" fill="#828b98"/>
      <rect id="Rectangle_3411" data-name="Rectangle 3411" width="5.373" height="66.948" transform="translate(-5146.014 -19612.322)" fill="#d7dade" style="isolation: isolate"/>
      <rect id="Rectangle_3412" data-name="Rectangle 3412" width="5.373" height="19.493" transform="translate(-5146.014 -19612.322)" fill="#828b98"/>
      <rect id="Rectangle_3413" data-name="Rectangle 3413" width="66.522" height="2.765" transform="translate(-5233.851 -19624.098)" fill="#071932" style="isolation: isolate"/>
    </g>
    <g id="Group_10759" data-name="Group 10759" transform="translate(16.116 2.748)">
      <path id="Path_6283" data-name="Path 6283" d="M226.322,248.1l-4.648-2.281s-1.385-3.059-1.484-3.009-8.9-1.815-8.9-1.815-.1,5.2.89,6.3,7.022,1.618,7.319,1.8.989-.432.989-.432l4.945,3.248Z" transform="translate(-5185 -19763.953)" fill="#fdb9a9"/>
      <path id="Path_6284" data-name="Path 6284" d="M277.124,208.977s-1.928-4.45-8.159-4.45-11.423,3.708-11.126,8.456-3.264,4.3-3.857,8.9,1.632,5.786,1.78,7.715-2.373,1.335-4,4.6-3.709,7.863,3.263,13.945,26.7,5.044,31,1.335,4.154-10.829,0-12.758-.3-1.632.149-5.934-3.412-5.933-3.116-9.345S284.393,209.274,277.124,208.977Z" transform="translate(-5185 -19763.953)"/>
      <path id="Path_6285" data-name="Path 6285" d="M252.91,237.842v12.232s-1.05,1.313-2.617,2.993a40.388,40.388,0,0,1-5.422,4.942c-1.875,1.358-3.765,2.288-5.295,2.093-4.845-.623-17.9-8.13-17.9-8.13l2.175-5.768s14.834,7.628,15.727,6.84S250.218,238.54,252.91,237.842Z" transform="translate(-5185 -19763.953)" fill="#071932"/>
      <path id="Path_6286" data-name="Path 6286" d="M250.293,253.067a40.388,40.388,0,0,1-5.422,4.942c-.705-5.46,5.557-12.194,5.557-12.194S250.518,249.317,250.293,253.067Z" transform="translate(-5185 -19763.953)" fill="#1f2f46" style="isolation: isolate"/>
      <path id="Path_6287" data-name="Path 6287" d="M254.626,282.143s-8.128,43.323-10.3,61.11c-2.834,23.2-14.421,57.149-14.421,57.149l4.633,1.2s16.335-28.846,19.52-54.8c12.975-26.526,14.023-59.191,14.023-59.191Z" transform="translate(-5185 -19763.953)" fill="#fdb9a9"/>
      <path id="Path_6288" data-name="Path 6288" d="M221.282,410.9a6.772,6.772,0,0,1,2.38-.6h0s2.848-1.677,5.672-8.19l3.174-.018a2.617,2.617,0,0,1,2.439,1.746,1.474,1.474,0,0,1,.09.44,17.755,17.755,0,0,1-.244,2.288,63.364,63.364,0,0,1-1.856,7.469l-.538-.137.979-4.737c.325-1.61-1.367-.055-2.151,1.568s-1.987,3.256-5.494,2.455C221.648,412.227,220,411.639,221.282,410.9Z" transform="translate(-5185 -19763.953)" fill="#071932"/>
      <path id="Path_6289" data-name="Path 6289" d="M263.067,281.452s1.009,44.067,2.565,61.918c2.028,23.288-2.287,58.9-2.287,58.9l4.78.214s10.016-31.6,7.763-57.655c7.208-28.636,1.476-60.811,1.476-60.811Z" transform="translate(-5185 -19763.953)" fill="#fdb8a8"/>
      <path id="Path_6290" data-name="Path 6290" d="M255.9,412.354a6.781,6.781,0,0,1,2.3-.859h0s2.65-1.974,4.753-8.755l3.154-.361a2.619,2.619,0,0,1,2.614,1.473,1.468,1.468,0,0,1,.136.427,17.672,17.672,0,0,1,.005,2.3,63.291,63.291,0,0,1-1.037,7.626l-.55-.078.46-4.815c.15-1.636-1.363.093-1.968,1.791s-1.624,3.452-5.2,3.034C256.412,413.63,254.711,413.223,255.9,412.354Z" transform="translate(-5185 -19763.953)" fill="#071932"/>
      <path id="Path_6291" data-name="Path 6291" d="M229.908,400.4s-3.964,8.3-6.246,9.9c0,0,3.06,1.825,6.246-2.237,4.121-5.252,5.129-3.785,5.129-3.785a14.912,14.912,0,0,0-.5-2.677C233.922,399.9,229.908,400.4,229.908,400.4Z" transform="translate(-5185 -19763.953)" fill="#fdb9a9"/>
      <path id="Path_6292" data-name="Path 6292" d="M263.831,400.334s-1.125,3.071-2.625,6.446a14.646,14.646,0,0,1-3,4.715s2.605.846,4.012-.787,3.811-7.534,6.509-6.856a6.288,6.288,0,0,0-.6-1.372C267.721,401.811,263.831,400.334,263.831,400.334Z" transform="translate(-5185 -19763.953)" fill="#fdb9a9"/>
      <g id="Group_10598" data-name="Group 10598" transform="translate(-5185 -19763.953)">
        <path id="Path_6293" data-name="Path 6293" d="M251.842,274.913s-3.218,32.069-8,64.223a339.919,339.919,0,0,1-12.857,54l9.494.791s18.2-45.1,23.736-71.207c0,0,1.978,46.285-1.187,72l8.308-.4s20.272-87.1,5.142-118.481Z" fill="#828b98"/>
        <path id="Path_6295" data-name="Path 6295" d="M264.22,322.717c-1.4,6.593-3.607,14.385-6.12,22.365-.959-15.015,2.858-41.947,2.858-41.947Z" opacity="0.2" style="isolation: isolate"/>
      </g>
      <g id="Group_10601" data-name="Group 10601" transform="translate(-5185 -19763.953)">
        <path id="Path_6296" data-name="Path 6296" d="M276.427,274.284l.068,3.623-24.781-1.43-.081-4.284Z" fill="#505d6f"/>
        <rect id="Rectangle_3414" data-name="Rectangle 3414" width="5.433" height="4.121" transform="translate(262.501 277.46) rotate(-175.965)" fill="#fff"/>
        <g id="Group_10599" data-name="Group 10599">
          <rect id="Rectangle_3415" data-name="Rectangle 3415" width="1.229" height="6.261" transform="matrix(-0.999, -0.032, 0.032, -0.999, 269.119, 279.215)" fill="#071932"/>
        </g>
        <g id="Group_10600" data-name="Group 10600">
          <rect id="Rectangle_3417" data-name="Rectangle 3417" width="1.229" height="6.261" transform="translate(253.97 277.841) rotate(-178.163)" fill="#071932"/>
        </g>
      </g>
      <g id="Group_10602" data-name="Group 10602" transform="translate(-5185 -19763.953)">
        <path id="Path_6297" data-name="Path 6297" d="M251.683,272.651l24.744,1.633c.39-6.15.834-8.039,2.686-15.374.593-2.37,1.335-5.018,2.288-8.078.51-1.635,1.072-3.39,1.7-5.28.473-1.432.983-2.955,1.545-4.559a73.322,73.322,0,0,0-10.275-2.483,79.035,79.035,0,0,0-11.114-1.17c-4.815-.037-10.35.5-10.35.5s-.788.187-1.283,5.295C251.176,247.93,250.693,255.214,251.683,272.651Z" fill="#f9fafb"/>
      </g>
      <path id="Path_6299" data-name="Path 6299" d="M265.3,242.807c6.1-.781,7.934-3.387,7.934-3.387-3.871-3.653-.655-9.981-.655-9.981l-7.343,1.371a21.456,21.456,0,0,1,.286,3.091c.056,4.458-1.96,4.5-1.96,4.5C262.276,240.817,265.3,242.807,265.3,242.807Z" transform="translate(-5185 -19763.953)" fill="#fdb9a9"/>
      <path id="Path_6300" data-name="Path 6300" d="M265.238,230.81a21.456,21.456,0,0,1,.286,3.091,8.171,8.171,0,0,0,7.057-4.462Z" transform="translate(-5185 -19763.953)" fill="#e8a090" style="isolation: isolate"/>
      <path id="Path_6301" data-name="Path 6301" d="M269.3,210.276c-6.383-.349-8.625,2.956-9.453,9.509-1.035,8.188.468,14.129,8.545,12.81C279.36,230.8,279.9,210.857,269.3,210.276Z" transform="translate(-5185 -19763.953)" fill="#fdb9a9"/>
      <path id="Path_6307" data-name="Path 6307" d="M268.231,214.941a3.328,3.328,0,0,1,2.716,1.117" transform="translate(-5185 -19763.953)" fill="none" stroke="#000" stroke-linecap="round" stroke-linejoin="round" stroke-width="0.725"/>
      <path id="Path_6308" data-name="Path 6308" d="M263.606,214.417a2.984,2.984,0,0,0-2.573.386" transform="translate(-5185 -19763.953)" fill="none" stroke="#000" stroke-linecap="round" stroke-linejoin="round" stroke-width="0.725"/>
      <path id="Path_6312" data-name="Path 6312" d="M275.684,221.418s-2.7-5.409-2.023-9.433c0,0-12.367-5.861-13.7,6.945,0,0-.611-11.469,10.376-11.122,10.97.347,10.061,16.4,4.132,20.872C274.474,228.68,277.351,224.8,275.684,221.418Z" transform="translate(-5185 -19763.953)"/>
      <path id="Path_6313" data-name="Path 6313" d="M276.333,209.669s-4.994-4.45-9.544-3.609-3.758,6.824,2.226,9.1,7.219,5.193,7.219,5.193l5.192-4.649Z" transform="translate(-5185 -19763.953)"/>
      <path id="Path_6314" data-name="Path 6314" d="M265.454,207.931s-2.126.148-1.533,3.313,5.094,4.755,9.346,6.239,3.907,3.156,3.907,3.156" transform="translate(-5185 -19763.953)" fill="none" stroke="#000" stroke-miterlimit="10" stroke-width="0.5"/>
      <path id="Path_6315" data-name="Path 6315" d="M274.568,222.708a2.805,2.805,0,0,1,3.154-2.394c1.967.324,2.687,4.437-2.287,5.144C274.722,225.56,274.361,224.847,274.568,222.708Z" transform="translate(-5185 -19763.953)" fill="#fdb9a9"/>
      <path id="Path_6316" data-name="Path 6316" d="M278.892,240.1s-7.163,5.813-13.832,5.719-9.012-7.594-9.012-7.594A38.007,38.007,0,0,1,278.892,240.1Z" transform="translate(-5185 -19763.953)" fill="#fdb9a9"/>
      <path id="Path_6317" data-name="Path 6317" d="M284.65,240.992l-3.225,38.617-6.915.577c-1.02-5.25-1.2-13.545-1.065-21.359v-.008c.18-10.6.93-20.309.93-20.309A68.024,68.024,0,0,1,284.65,240.992Z" transform="translate(-5185 -19763.953)" fill="#071932"/>
      <path id="Path_6318" data-name="Path 6318" d="M275.477,248.2l1.868,2.865-3.9,7.755c.18-10.6.93-20.309.93-20.309l5.947,5.534Z" transform="translate(-5185 -19763.953)" fill="#505d6f" style="isolation: isolate"/>
      <path id="Path_6319" data-name="Path 6319" d="M261.033,237.28l-.008.007c-.157.285-3.6,6.54-6.337,18.525a135.525,135.525,0,0,0-3.052,22.094L249,276.684s-1.245-29.91,3.914-38.842Z" transform="translate(-5185 -19763.953)" fill="#071932"/>
      <path id="Path_6320" data-name="Path 6320" d="M261.025,237.287c-.157.285-3.6,6.54-6.337,18.525l-1.23-7.718,2.587-2.279-2.587-4.935Z" transform="translate(-5185 -19763.953)" fill="#505d6f" style="isolation: isolate"/>
      <path id="Path_6321" data-name="Path 6321" d="M294.662,264.317a2.3,2.3,0,0,1-3.465,1.14,8.8,8.8,0,0,1-3.06-2.85c-.622-.893-1.455-2.235-2.31-3.653-1.83-3.067-3.735-6.472-3.735-6.472l2.558-11.49C288.332,242.754,296.042,261.347,294.662,264.317Z" transform="translate(-5185 -19763.953)" fill="#071932"/>
      <path id="Path_6322" data-name="Path 6322" d="M291.2,265.457a8.8,8.8,0,0,1-3.06-2.85c-.622-.893-1.455-2.235-2.31-3.653a34.053,34.053,0,0,1,2.168-3.45l1.86,5.228s3.262.742,3.78,2.445C293.83,263.822,292.72,264.737,291.2,265.457Z" transform="translate(-5185 -19763.953)" fill="#1f2f46" style="isolation: isolate"/>
      <g id="Group_10609" data-name="Group 10609" transform="translate(-5185 -19763.953)">
        <path id="Path_6323" data-name="Path 6323" d="M291.085,250.515,284.922,274a1.2,1.2,0,0,1-1.289.862l-16.347-2.178a.892.892,0,0,1-.764-1.136l6.164-23.484a1.2,1.2,0,0,1,1.288-.863l16.348,2.178A.891.891,0,0,1,291.085,250.515Z" fill="#828b98"/>
        <path id="Path_6324" data-name="Path 6324" d="M291.085,250.515,284.922,274a1.2,1.2,0,0,1-1.289.862l-15.6-2.079a.891.891,0,0,1-.764-1.136l6.163-23.484a1.2,1.2,0,0,1,1.288-.863l15.6,2.079A.891.891,0,0,1,291.085,250.515Z" fill="#fff" opacity="0.1"/>
        <path id="Path_6325" data-name="Path 6325" d="M279.738,259.47a1.722,1.722,0,0,0-1.846,1.236,1.275,1.275,0,0,0,1.094,1.628,1.723,1.723,0,0,0,1.847-1.236A1.275,1.275,0,0,1,279.738,259.47Z" fill="#fff"/>
      </g>
      <path id="Path_6326" data-name="Path 6326" d="M292.412,269.852c-1.1.584-3.585-.3-4.342-.6-.15-.053-.233-.09-.233-.09s-1.357-4.425,2.175-6.818a.315.315,0,0,1,.083-.045c1.125-.607,4.612.173,4.717,1.35C295.232,268.374,293.725,269.162,292.412,269.852Z" transform="translate(-5185 -19763.953)" fill="#071932"/>
      <path id="Path_6327" data-name="Path 6327" d="M290.26,266.072a5.641,5.641,0,0,1-2.19,3.18c-.15-.053-.233-.09-.233-.09s-1.357-4.425,2.175-6.818a.315.315,0,0,1,.083-.045C290.4,262.7,290.882,263.747,290.26,266.072Z" transform="translate(-5185 -19763.953)" opacity="0.2" style="isolation: isolate"/>
      <path id="Path_6328" data-name="Path 6328" d="M285.167,260.46s2.265-.1,3.308,0,.721,3.451.721,3.451l.895.484s.725,1.974-.833,2.965l-.8-.274a2.279,2.279,0,0,1-.869,1.187c-.642.395-3.807-.495-3.807-.495Z" transform="translate(-5185 -19763.953)" fill="#fdb9a9"/>
    </g>
    <g id="Group_10760" data-name="Group 10760">
      <g id="Group_10615" data-name="Group 10615" transform="translate(-5184.796 -19764.461)">
        <g id="Group_10612" data-name="Group 10612" transform="translate(160.318 271.46)">
          <path id="Path_6329" data-name="Path 6329" d="M192.962,293.759H160.837l5.328-21.454a1.173,1.173,0,0,1,1.086-.845h30.374a.649.649,0,0,1,.665.845Z" transform="translate(-160.837 -271.46)" fill="#071932"/>
          <path id="Path_6330" data-name="Path 6330" d="M192.723,292H161.965l4.676-18.89H197.4Z" transform="translate(-160.837 -271.46)" fill="#9ba3ad"/>
        </g>
        <path id="Path_6332" data-name="Path 6332" d="M178.6,292.692H146.8v1.338a1.031,1.031,0,0,0,1.025,1.037h43.6a1.031,1.031,0,0,0,1.025-1.037v-1.338Z" transform="translate(0 0.393)" fill="#071932"/>
        <path id="Path_6333" data-name="Path 6333" d="M178.6,292.692H146.8v1.338a1.031,1.031,0,0,0,1.025,1.037h43.6a1.031,1.031,0,0,0,1.025-1.037v-1.338Z" transform="translate(0 0.393)" fill="#fff" opacity="0.6" style="isolation: isolate"/>
        <path id="Path_6334" data-name="Path 6334" d="M163.9,292.692v.462h-5.6v-.462H146.8v1.338a1.037,1.037,0,0,0,1.037,1.037h30.091a1.037,1.037,0,0,0,1.037-1.037v-1.338Z" transform="translate(0 0.393)" fill="#fff" opacity="0.2" style="isolation: isolate"/>
        <g id="Group_10613" data-name="Group 10613" transform="translate(165.677 275.678)">
          <path id="Path_6335" data-name="Path 6335" d="M180.7,284.027H165.964l2.138-8.456h14.737Z" transform="translate(-165.964 -275.572)" fill="#e8eaec" style="isolation: isolate"/>
          <path id="Path_6336" data-name="Path 6336" d="M182.714,276.066H167.977l.125-.495h14.737Z" transform="translate(-165.964 -275.572)" fill="#e55235"/>
        </g>
        <g id="Group_10614" data-name="Group 10614" transform="translate(170.918 278.754)">
          <path id="Path_6337" data-name="Path 6337" d="M191.943,290.286H171.437l2.975-11.766h20.506Z" transform="translate(-171.437 -278.52)" fill="#fff" style="isolation: isolate"/>
          <path id="Path_6338" data-name="Path 6338" d="M194.743,279.208H174.238l.174-.688h20.506Z" transform="translate(-171.437 -278.52)" fill="#071932"/>
        </g>
      </g>
      <path id="Path_6339" data-name="Path 6339" d="M400.9,417.31h-4.668l-8.388-116.785h6.194Z" transform="translate(-5185 -19764.311)" fill="#b4b9c1"/>
      <path id="Path_6341" data-name="Path 6341" d="M394.368,306.048h-6.12l-.411-5.335h6.2Z" transform="translate(-5185 -19764.311)" opacity="0.2" style="isolation: isolate"/>
      <path id="Path_6342" data-name="Path 6342" d="M269.876,417.31h-4.668l6.863-116.785h6.194Z" transform="translate(-5185 -19764.311)" fill="#b4b9c1"/>
      <path id="Path_6344" data-name="Path 6344" d="M272.067,300.713h6.2l-.411,5.335h-6.12Z" transform="translate(-5185 -19764.311)" opacity="0.2" style="isolation: isolate"/>
      <path id="Path_6345" data-name="Path 6345" d="M213.187,417.31h-4.668L200.13,300.525h6.194Z" transform="translate(-5185 -19764.311)" fill="#b4b9c1"/>
      <path id="Path_6347" data-name="Path 6347" d="M206.659,306.048h-6.12l-.412-5.335h6.2Z" transform="translate(-5185 -19764.311)" opacity="0.2" style="isolation: isolate"/>
      <path id="Path_6348" data-name="Path 6348" d="M92.167,417.31H87.5l6.863-116.785h6.194Z" transform="translate(-5185 -19764.311)" fill="#b4b9c1"/>
      <path id="Path_6350" data-name="Path 6350" d="M94.359,300.713h6.2l-.411,5.335H94.023Z" transform="translate(-5185 -19764.311)" opacity="0.2" style="isolation: isolate"/>
      <path id="Rectangle_3419" data-name="Rectangle 3419" d="M0,0H310a0,0,0,0,1,0,0V4a2,2,0,0,1-2,2H2A2,2,0,0,1,0,4V0A0,0,0,0,1,0,0Z" transform="translate(-5095 -19467)" fill="#9ba3ad"/>
      <rect id="Rectangle_3421" data-name="Rectangle 3421" width="310" height="3" transform="translate(-5095 -19467)" fill="#b4b9c1" style="isolation: isolate"/>
      <path id="Path_6351" data-name="Path 6351" d="M401.266,298.067H86.555a1.577,1.577,0,0,1-1.644-1.5h0a1.577,1.577,0,0,1,1.644-1.5H401.266a1.578,1.578,0,0,1,1.645,1.5h0A1.578,1.578,0,0,1,401.266,298.067Z" transform="translate(-5184.911 -19764.066)" fill="#071932"/>
      <g id="Group_10625" data-name="Group 10625" transform="translate(-5184.805 -19764.461)">
        <g id="Group_10623" data-name="Group 10623" transform="translate(292.805 271.46)">
          <path id="Path_6353" data-name="Path 6353" d="M298.158,293.759h32.125L324.955,272.3a1.172,1.172,0,0,0-1.085-.845H293.495a.65.65,0,0,0-.665.845Z" transform="translate(-292.805 -271.46)" fill="#071932"/>
          <path id="Path_6354" data-name="Path 6354" d="M298.4,292h30.758l-4.677-18.89H293.721Z" transform="translate(-292.805 -271.46)" fill="#9ba3ad"/>
        </g>
        <path id="Path_6356" data-name="Path 6356" d="M312,292.692h31.8v1.338a1.031,1.031,0,0,1-1.025,1.037h-43.6a1.031,1.031,0,0,1-1.025-1.037v-1.338Z" transform="translate(0 0.393)" fill="#071932"/>
        <path id="Path_6357" data-name="Path 6357" d="M312,292.692h31.8v1.338a1.031,1.031,0,0,1-1.025,1.037h-43.6a1.031,1.031,0,0,1-1.025-1.037v-1.338Z" transform="translate(0 0.393)" fill="#fff" opacity="0.6" style="isolation: isolate"/>
        <path id="Path_6358" data-name="Path 6358" d="M327.219,292.692v.462h5.605v-.462h11.5v1.338a1.037,1.037,0,0,1-1.037,1.037H313.2a1.037,1.037,0,0,1-1.037-1.037v-1.338Z" transform="translate(-0.52 0.393)" fill="#fff" opacity="0.2" style="isolation: isolate"/>
        <g id="Group_10624" data-name="Group 10624" transform="translate(295.742 274.412)">
          <path id="Path_6359" data-name="Path 6359" d="M299.746,290.249h27.6l-4-15.837h-27.6Z" transform="translate(-295.742 -274.412)" fill="#fff" style="isolation: isolate"/>
          <path id="Path_6360" data-name="Path 6360" d="M295.976,275.338h27.6l-.234-.927h-27.6Z" transform="translate(-295.742 -274.412)" fill="#e55235"/>
        </g>
      </g>
    </g>
    <g id="Group_10763" data-name="Group 10763" transform="translate(-257.245 0.756)">
      <path id="Path_6361" data-name="Path 6361" d="M368.458,409l7.886-.492a.5.5,0,0,1,.55.443v.009l.773,6.221a1.243,1.243,0,0,1-1.149,1.318c-2.755.127-4.076.05-7.548.239a65.443,65.443,0,0,1-9.267.3c-2.94-.285-2.58-3.182-1.31-3.321a19.378,19.378,0,0,0,8.88-4.233A1.976,1.976,0,0,1,368.458,409Z" transform="translate(-4924.766 -19764.066)" fill="#505d6f"/>
      <path id="Path_6362" data-name="Path 6362" d="M328.275,409l7.886-.492a.5.5,0,0,1,.55.443v.009l.773,6.221a1.242,1.242,0,0,1-1.149,1.318c-2.754.127-4.076.05-7.548.239a65.438,65.438,0,0,1-9.267.3c-2.939-.285-2.579-3.182-1.31-3.321a19.373,19.373,0,0,0,8.88-4.233A1.978,1.978,0,0,1,328.275,409Z" transform="translate(-4925 -19764.066)" fill="#505d6f"/>
      <path id="Path_6363" data-name="Path 6363" d="M357.891,290.068l-6.476.971a24.743,24.743,0,0,0-4.522-.971,30.21,30.21,0,0,0-5.01,0s-2.933,1.1-2.933,3.911c0,0,6.844,1.833,9.471.733l9.47-.733Z" transform="translate(-4924.856 -19763.992)" fill="#fdb9a9"/>
      <path id="Path_6364" data-name="Path 6364" d="M373.261,265.371c-4.031,4.168-6.781,20.3-7.514,21.4s-14.664,3.116-14.664,3.116-1.466,3.046,0,5.557c0,0,17.265-.791,19.356-1.891s7.231-13.144,7.231-13.144a24.494,24.494,0,0,0-.677-8.3C375.829,266.972,373.261,265.371,373.261,265.371Z" transform="translate(-4924.784 -19763.98)" fill="#848d9a"/>
      <g id="Group_10629" data-name="Group 10629" transform="translate(-4583.023 -19538.756)">
        <path id="Path_6369" data-name="Path 6369" d="M344.471,251a9.849,9.849,0,0,0,.532.881,9.645,9.645,0,0,0,4.46,3.6,9.8,9.8,0,0,0,1.412.447,8.72,8.72,0,0,0,9.69-4.157c2.517-4.268,1.432-8.184.127-14.951a9.435,9.435,0,0,0-14.926-5.935C339.9,235.208,341.508,245.359,344.471,251Z" transform="translate(-341.805 -225.198)" fill="#fdb9a9"/>
        <path id="Path_6370" data-name="Path 6370" d="M349.463,255.482a9.8,9.8,0,0,0,1.412.447,8.771,8.771,0,0,0,7.388-1.523,10.255,10.255,0,0,0-1.764-1.963A13.587,13.587,0,0,0,349.463,255.482Z" transform="translate(-341.805 -225.198)" fill="#e8a090" style="isolation: isolate"/>
        <path id="Path_6371" data-name="Path 6371" d="M368.864,260.17c-2.531,3.816-14.652,5.318-14.652,5.318s-5.372-.106-4.714-1.942c2.837-1.237,3.921-2.98,4.066-4.9a8.873,8.873,0,0,0-.554-3.457,18.508,18.508,0,0,0-.725-1.824l8.09-9.884C358.263,254.406,364.756,257.456,368.864,260.17Z" transform="translate(-341.805 -225.198)" fill="#fdb9a9"/>
        <path id="Path_6372" data-name="Path 6372" d="M342.608,230.5c2.293-3.6,4.33-2.967,4.33-2.967,1.462-3.017,10.047-3.14,14.408-.174s5.882,8.533,5.592,12.95c-.421,6.432-4.454,12.975-4.454,12.975h-.005c-5.074,1.353-9.327.24-9.654-2.446s-3.039-4.677-3.039-4.677c-2.5.843-4.758-1.941-4.758-1.941s-2.832-2.5-2.072-5.956S340.675,233.53,342.608,230.5Z" transform="translate(-341.805 -225.198)"/>
        <path id="Path_6373" data-name="Path 6373" d="M350.693,244.386a4.46,4.46,0,0,1-1.472,3.525c-1.213.919-2.588-.769-2.9-2.824-.263-1.825.025-4.559,1.563-4.6S350.713,242.473,350.693,244.386Z" transform="translate(-341.805 -225.198)" fill="#fdb9a9"/>
        <path id="Path_6374" data-name="Path 6374" d="M346.258,244.49s.689,5.831,2.257,8.153,1.38,3.111,3.53,3.478c0,0-1.211,1.61-2.3,1.378s-.842-1.154-1.807-1.138-2.629-.654-2.454-1.65.365-1.269-.907-2.13-1.722-2.8-1.032-3.609a2.314,2.314,0,0,1,2-.556l-.1-4.342Z" transform="translate(-341.805 -225.198)"/>
      </g>
      <g id="Group_10630" data-name="Group 10630" transform="translate(-4573.124 -19509.105)">
        <path id="Path_6375" data-name="Path 6375" d="M351.677,263.548s1.955-8.785,13.748-8.7l2.994,4.35Z" transform="translate(-351.677 -254.847)" fill="#828b98"/>
      </g>
      <path id="Path_6377" data-name="Path 6377" d="M353.654,372.3c4.465,16.977,11.506,38.877,11.506,38.877l12.36-.943s-6.713-29.551-8.55-47.69c-1.137-11.2-1.036-20.464,2.241-21.181,2.065-.454,6.892-.438,13.076-.294V318.02c-17.355,3.564-34.627,10.287-35.941,15.679C346.509,341.29,349.719,357.356,353.654,372.3Z" transform="translate(-4924.774 -19764.066)" fill="#071932"/>
      <path id="Path_6378" data-name="Path 6378" d="M353.654,372.3c4.617-2.923,10.017-6.361,15.316-9.756-1.137-11.2-1.036-20.464,2.241-21.181,2.065-.454,6.892-.438,13.076-.294V318.02c-17.355,3.564-34.627,10.287-35.941,15.679C346.509,341.29,349.719,357.356,353.654,372.3Z" transform="translate(-4924.774 -19764.029)" opacity="0.2" style="isolation: isolate"/>
      <path id="Path_6379" data-name="Path 6379" d="M360.715,311.158l-2.941-8.881s-2.114-16.446-12.843-37.166c0,0,12.912-9.166,27.224-7.8,11.011,1.051,21.371,29.279,24.614,51.622Z" transform="translate(-4924.742 -19763.979)" fill="#5f6b7b"/>
      <path id="Path_6381" data-name="Path 6381" d="M360.415,315.755,359.326,307,394.7,301.18s11.569,22.921,5.906,34.155c-5.194,10.306-60.482,4.167-68.992,6.027-8.6,1.879,5.786,68.722,5.786,68.722l-12.359.943s-20.217-61.118-16.29-77.325C310.464,326.63,339.609,317.268,360.415,315.755Z" transform="translate(-4925 -19764.066)" fill="#071932"/>
      <g id="Group_10632" data-name="Group 10632" transform="translate(-4565.082 -19461.492)">
        <path id="Path_6382" data-name="Path 6382" d="M396,305.163l-16.391,2.149-.53-2.416,16.419-2.389Z" transform="translate(-359.626 -302.507)"/>
        <path id="Path_6383" data-name="Path 6383" d="M377.713,304.909l.2,2.4L362.764,309.4v-2.374Z" transform="translate(-359.626 -302.507)"/>
        <path id="Path_6384" data-name="Path 6384" d="M361.824,307.152V309.4l-2.2.293V307.52Z" transform="translate(-359.626 -302.507)"/>
      </g>
      <path id="Path_6385" data-name="Path 6385" d="M356.23,295.48a117.593,117.593,0,0,0-3.77-11.75,9.425,9.425,0,0,1,2.59-3.32S358.44,291.44,356.23,295.48Z" transform="translate(-4924.819 -19763.988)" opacity="0.2" style="isolation: isolate"/>
      <path id="Path_6386" data-name="Path 6386" d="M327.579,292.551l-5.455-.879a24.649,24.649,0,0,0-4.522-.971,30.21,30.21,0,0,0-5.01,0s-2.933,1.1-2.933,3.911c0,0,6.844,1.833,9.471.733l8.054,1.822Z" transform="translate(-4925 -19763.992)" fill="#fdb9a9"/>
      <path id="Path_6387" data-name="Path 6387" d="M344.931,265.371c-2.546,2.8-1.062,25.7-1.887,27.274s-19.912-1.6-19.912-1.6l-1.256,5.671s22.427,6.592,26.545,6.665,6.624-24.194,6.624-24.194a20.975,20.975,0,0,0-3.58-7.684A20.531,20.531,0,0,0,344.931,265.371Z" transform="translate(-4925 -19763.982)" fill="#5f6b7b"/>
      <path id="Rectangle_3422" data-name="Rectangle 3422" d="M0,0H70.068a0,0,0,0,1,0,0V4.459a6.793,6.793,0,0,1-6.793,6.793H6.794A6.794,6.794,0,0,1,0,4.459V0A0,0,0,0,1,0,0Z" transform="translate(-4513.793 -19418.766) rotate(180)" fill="#fff"/>
      <path id="Path_6389" data-name="Path 6389" d="M387.757,306.141H349.18c-1.984,0-3.452,2.151-3.005,4.4l6.9,34.713h1.593l-5.876-30.422c-.434-2.246,1.032-4.381,3.009-4.381H386.97Z" transform="translate(-4924.769 -19764.014)" fill="#263238"/>
      <path id="Path_6390" data-name="Path 6390" d="M371.21,346.47V375.8a1.706,1.706,0,0,0,1.705,1.705h7.191a1.7,1.7,0,0,0,1.705-1.705V346.47Z" transform="translate(-4924.728 -19764.039)" fill="#38475b"/>
      <circle id="Ellipse_124" data-name="Ellipse 124" cx="3.116" cy="3.116" r="3.116" transform="translate(-4513.634 -19352.988)" fill="#38475b"/>
      <path id="Path_6391" data-name="Path 6391" d="M412.462,414.194a1.558,1.558,0,1,1,1.558,1.558A1.557,1.557,0,0,1,412.462,414.194Z" transform="translate(-4924.537 -19764.066)" fill="#fff" opacity="0.2"/>
      <path id="Path_6392" data-name="Path 6392" d="M335.891,414.194a3.116,3.116,0,1,1,3.116,3.116A3.116,3.116,0,0,1,335.891,414.194Z" transform="translate(-4924.885 -19764.066)" fill="#38475b"/>
      <path id="Path_6393" data-name="Path 6393" d="M337.449,414.194a1.558,1.558,0,1,1,1.558,1.558A1.557,1.557,0,0,1,337.449,414.194Z" transform="translate(-4924.882 -19764.066)" fill="#fff" opacity="0.2"/>
      <path id="Path_6394" data-name="Path 6394" d="M373.935,400.521V367h5.156v33.524c20.077.514,32.276,7.533,34.718,9.071a.981.981,0,0,1,.455.831v2.785a.986.986,0,0,1-.986.986h0a.985.985,0,0,1-.856-.5l-1.191-2.089a112.9,112.9,0,0,0-32.14-5.321V411.8a1.275,1.275,0,0,1-1.275,1.275H375.21a1.275,1.275,0,0,1-1.275-1.275v-5.509a112.907,112.907,0,0,0-32.14,5.321L340.6,413.7a.985.985,0,0,1-.856.5h0a.985.985,0,0,1-.985-.986v-2.785a.981.981,0,0,1,.455-.831C341.659,408.054,353.859,401.035,373.935,400.521Z" transform="translate(-4924.537 -19764.066)" fill="#071932"/>
      <rect id="Rectangle_3424" data-name="Rectangle 3424" width="3.383" height="6.232" transform="translate(-4546.525 -19346.756) rotate(180)" fill="#38475b"/>
      <rect id="Rectangle_3425" data-name="Rectangle 3425" width="10.601" height="12.186" transform="translate(-4553.518 -19417.559)" fill="#071932" style="isolation: isolate"/>
      <path id="Path_6395" data-name="Path 6395" d="M338.761,343.449v3.5a1.678,1.678,0,0,0,1.543,1.789h70.815a1.672,1.672,0,0,0,1.536-1.789v-3.5a1.677,1.677,0,0,0-1.536-1.788H340.3A1.683,1.683,0,0,0,338.761,343.449Z" transform="translate(-4924.537 -19764.025)" fill="#071932"/>
      <path id="Path_6396" data-name="Path 6396" d="M371.34,345.256h41.315s13.127-21.558,13.127-57.181V274.993a9.8,9.8,0,0,0-9.865-9.734H398.4a9.8,9.8,0,0,0-9.858,9.459C388.031,293.072,385.3,332.819,371.34,345.256Z" transform="translate(-4924.537 -19763.994)" fill="#071932"/>
      <path id="Path_6397" data-name="Path 6397" d="M380.428,345.256h30.359a3.142,3.142,0,0,0,2.791-1.667c2.988-5.692,12.2-25.666,12.2-55.514V274.993a9.8,9.8,0,0,0-9.857-9.734h-15.14a9.8,9.8,0,0,0-9.858,9.459c-.455,16.4-2.688,49.871-13.109,65.689A3.114,3.114,0,0,0,380.428,345.256Z" transform="translate(-4924.537 -19763.994)" fill="#38475b"/>
      <path id="Path_6398" data-name="Path 6398" d="M338.761,343.449v3.5a1.677,1.677,0,0,0,1.535,1.789h31.736a2.267,2.267,0,0,0,2.077-2.418v-2.244a2.267,2.267,0,0,0-2.077-2.418H340.3A1.683,1.683,0,0,0,338.761,343.449Z" transform="translate(-4924.828 -19764.025)" fill="#38475b" style="isolation: isolate"/>
    </g>
    <g id="Group_10762" data-name="Group 10762" transform="translate(160.898 0.348)">
      <g id="Group_10638" data-name="Group 10638" transform="translate(-5204.435 -19504.664)">
        <path id="Path_6399" data-name="Path 6399" d="M150.11,268.63l-3.03.72-.7-2.44a2.225,2.225,0,0,1-2.14,0,12.525,12.525,0,0,1-1.33-.79c-1.35-.89-2.95-2.11-2.95-2.11l2.34-4.77s1.02.41,2.27.96c1.76.79,3.97,1.84,4.36,2.4a4.383,4.383,0,0,1,.33,2.72Z" transform="translate(-139.96 -259.24)" fill="#e8a090"/>
        <path id="Path_6400" data-name="Path 6400" d="M142.91,266.12c-1.35-.89-2.95-2.11-2.95-2.11l2.34-4.77s1.02.41,2.27.96A8.463,8.463,0,0,1,142.91,266.12Z" transform="translate(-139.96 -259.24)" opacity="0.2" style="isolation: isolate"/>
      </g>
      <path id="Path_6401" data-name="Path 6401" d="M191.963,378.787l-5.016,1.962-3.61-6.8-3.279-6.186,5.562-3.333,3.358,7.593Z" transform="translate(-5344.354 -19763.721)" fill="#fdb9a9"/>
      <path id="Path_6402" data-name="Path 6402" d="M188.978,372.023l-5.641,1.926-3.279-6.186,5.562-3.333Z" transform="translate(-5344.354 -19763.73)" fill="#e8a090" style="isolation: isolate"/>
      <path id="Path_6403" data-name="Path 6403" d="M187.938,368.314l-6.828,3.664s-25.79-45.35-29.757-44.973-41.592,24.357-53.066,15.5-.309-35.517-.309-35.517,23.736-6.784,26.31-1.567a38.68,38.68,0,0,1,1.7,4.766c.506,1.634.888,3.012.888,3.012a.025.025,0,0,0,.015-.01c.723-.292,24.167-9.9,34.633-4.753C172.156,313.679,187.938,368.314,187.938,368.314Z" transform="translate(-5344.354 -19763.77)" fill="#071932"/>
      <path id="Path_6405" data-name="Path 6405" d="M150.857,405.3l-5.351-.613-.025-7.552-.012-6.928,6.471-.305-.57,8.153Z" transform="translate(-5344.392 -19763.658)" fill="#fdb9a9"/>
      <path id="Path_6406" data-name="Path 6406" d="M151.351,398.214l-5.887-.938,0-7,6.475-.342Z" transform="translate(-5344.392 -19763.658)" fill="#e8a090" style="isolation: isolate"/>
      <path id="Path_6407" data-name="Path 6407" d="M177.773,369.725l9.989-5,1.038,4.232-7.562,3.9Z" transform="translate(-5344.354 -19763.73)" fill="#e55235"/>
      <path id="Path_6408" data-name="Path 6408" d="M116.012,342.578s1.645-.187,26.878-4.861c0,0,.569,32.271,1.766,56.323l7.772.25s11.148-53.388,9.839-61.447-10.9-9.152-10.9-9.152S134.708,336.631,116.012,342.578Z" transform="translate(-5344.396 -19763.658)" fill="#1f2f46"/>
      <path id="Path_6411" data-name="Path 6411" d="M143.229,391.889l10.6-.247-1.451,4.368-8.6.078Z" transform="translate(-5344.392 -19763.658)" fill="#e55235"/>
      <path id="Path_6412" data-name="Path 6412" d="M201.938,387.682a7.213,7.213,0,0,0-2.592-.292h0s-3.238-1.352-7.15-7.794l-3.342.439a2.783,2.783,0,0,0-2.313,2.191,1.612,1.612,0,0,0-.031.475,18.959,18.959,0,0,0,.588,2.371,67.228,67.228,0,0,0,3.032,7.588l.546-.222-1.714-4.841c-.575-1.646,1.429-.255,2.489,1.338s2.561,3.138,6.133,1.788C201.744,389.127,203.391,388.27,201.938,387.682Z" transform="translate(-5344.354 -19763.658)" fill="#071932"/>
      <path id="Path_6413" data-name="Path 6413" d="M191.345,377.884s5.369,8.152,8,9.506c0,0-2.955,2.362-6.894-1.449-5.093-4.929-5.942-3.24-5.942-3.24a15.792,15.792,0,0,1,.135-2.888C187.052,377.941,191.345,377.884,191.345,377.884Z" transform="translate(-5344.354 -19763.707)" fill="#fdb9a9"/>
      <path id="Path_6414" data-name="Path 6414" d="M158.865,414.785a7.171,7.171,0,0,0-2.448-.9h0s-2.825-2.082-5.1-9.268l-3.351-.366a2.781,2.781,0,0,0-2.766,1.58,1.54,1.54,0,0,0-.143.454,18.967,18.967,0,0,0,.008,2.443,67.245,67.245,0,0,0,1.146,8.09l.583-.086-.517-5.109c-.167-1.736,1.449.091,2.1,1.89s1.744,3.656,5.535,3.191C158.335,416.144,160.138,415.7,158.865,414.785Z" transform="translate(-5344.389 -19763.658)" fill="#071932"/>
      <path id="Path_6415" data-name="Path 6415" d="M150.9,402.755s3.282,9.193,5.518,11.133c0,0-3.43,1.593-6.353-3.044-3.779-6-5-4.556-5-4.556a15.763,15.763,0,0,1,.816-2.774C146.714,401.792,150.9,402.755,150.9,402.755Z" transform="translate(-5344.39 -19763.658)" fill="#fdb9a9"/>
      <path id="Path_6420" data-name="Path 6420" d="M131.078,264.514a1.242,1.242,0,0,0,.22.144,9.7,9.7,0,0,0,3.491,1.5c3.646.656,6.086.042,7.613-1.667h.008c2.132-2.557,2.483-6.92,1.91-12.134a19.691,19.691,0,0,0-1.44-6.052c-.009-.016-.012-.076-.021-.092-.036-.063-.065-.153-.1-.217a7.147,7.147,0,0,0-5.458-4.1,14.5,14.5,0,0,0-3.108-.2C123.99,242.092,122.979,259.071,131.078,264.514Z" transform="translate(-5344.402 -19763.953)" fill="#fdb9a9"/>
      <path id="Path_6421" data-name="Path 6421" d="M131.3,264.658a9.459,9.459,0,0,0,3.484,1.359c3.646.657,6.08-.076,7.606-1.81a10.177,10.177,0,0,1-6.494-.214A5.311,5.311,0,0,0,131.3,264.658Z" transform="translate(-5344.401 -19763.953)" fill="#e8a090" style="isolation: isolate"/>
      <path id="Path_6422" data-name="Path 6422" d="M142.88,246.239s.911,7.123-5.715,10.525c0,0-2.547,7.57-6.825,7.884-5.834.428-11.386-7.63-9.776-16.192C122.651,237.352,139.235,235.647,142.88,246.239Z" transform="translate(-5344.405 -19763.953)"/>
      <path id="Path_6423" data-name="Path 6423" d="M140.5,254.543c-.057-1.115-1.045-2.945-2.767-2.606-1.782.351-2.56,4.823,1.9,5.6C140.268,257.645,140.615,256.87,140.5,254.543Z" transform="translate(-5344.4 -19763.953)" fill="#e8a090"/>
      <path id="Path_6424" data-name="Path 6424" d="M130.057,239.247s6.737-2.058,10.642.5c4.56,2.989,6.392,6.221,1.429,11.619,0,0-11.635-3.154-15.4-2.182a41.144,41.144,0,0,0-6.438,2.216C119.115,243.874,126.172,237.887,130.057,239.247Z" transform="translate(-5344.404 -19763.953)"/>
      <path id="Path_6425" data-name="Path 6425" d="M136.465,265.466s-5.009,2.448-3.547,7.816l-12.754-5.311s6.966-.437,6.614-5.335C126.778,262.636,134.065,259.836,136.465,265.466Z" transform="translate(-5344.407 -19763.898)" fill="#fdb9a9"/>
      <path id="Path_6426" data-name="Path 6426" d="M131.8,240.627s-3.8-10.959-12.438-9.068-7.967,11.157-1.793,14.023S132.392,247.358,131.8,240.627Z" transform="translate(-5344.413 -19763.953)"/>
      <path id="Path_6427" data-name="Path 6427" d="M119.949,245.4s-7.617-.045-6.678,6.487a5.513,5.513,0,0,1,2.371-2.985s-2.306,1.765-.01,4.822c0,0-.924-1.991,2.226-3.382s11.772-1.26,10.167-5.521S119.949,245.4,119.949,245.4Z" transform="translate(-5344.414 -19763.953)"/>
      <path id="Path_6428" data-name="Path 6428" d="M130.453,240.611s-1.835-13.341-12.6-10.647" transform="translate(-5344.411 -19763.953)" fill="none" stroke="#000" stroke-linecap="round" stroke-linejoin="round" stroke-width="0.5"/>
      <path id="Path_6429" data-name="Path 6429" d="M126.171,260.25s-7.847-3.967-6.456-10.254" transform="translate(-5344.412 -19763.953)" fill="none" stroke="#000" stroke-linecap="round" stroke-linejoin="round" stroke-width="0.5"/>
      <path id="Path_6430" data-name="Path 6430" d="M119.168,245.45s-6.879-.107-7.474,4.578" transform="translate(-5344.417 -19763.953)" fill="none" stroke="#000" stroke-linecap="round" stroke-linejoin="round" stroke-width="0.5"/>
      <path id="Path_6431" data-name="Path 6431" d="M121.039,267.611l3.114-2.24s10.235,1.386,10.341,7.911S121.039,267.611,121.039,267.611Z" transform="translate(-5344.408 -19763.895)" fill="#b4b9c1"/>
      <path id="Path_6432" data-name="Path 6432" d="M119.168,267.611s7.676-1.476,18.358,5.671c0,0,3.576,15.644-11.538,36.906l-28.66-1.8S105.088,277.066,119.168,267.611Z" transform="translate(-5344.418 -19763.877)" fill="#828b98"/>
      <path id="Path_6433" data-name="Path 6433" d="M126.876,313.2l-9.754,4.9a22.069,22.069,0,0,1,8.866-7.909C126.494,311.822,126.876,313.2,126.876,313.2Z" transform="translate(-5344.412 -19763.82)" fill="#1f2f46" style="isolation: isolate"/>
      <path id="Path_6435" data-name="Path 6435" d="M136.66,287.7a54.1,54.1,0,0,1-2.02,6.53,42.969,42.969,0,0,1,.06-7.08A5.828,5.828,0,0,1,136.66,287.7Z" transform="translate(-5344.402 -19763.859)" opacity="0.2" style="isolation: isolate"/>
      <path id="Path_6436" data-name="Path 6436" d="M137.526,273.282s8.43,12.117,10.606,13.28-2.012-18.951-2.012-18.951l4.067-.884s7.21,24.184,2.373,28.337-17.863-7.91-17.863-7.91a45.148,45.148,0,0,1,0-8.308A9.3,9.3,0,0,1,137.526,273.282Z" transform="translate(-5344.394 -19763.885)" fill="#828b98"/>
      <path id="Rectangle_3426" data-name="Rectangle 3426" d="M6.794,0h56.48a6.793,6.793,0,0,1,6.793,6.793v4.459a0,0,0,0,1,0,0H0a0,0,0,0,1,0,0V6.794A6.794,6.794,0,0,1,6.794,0Z" transform="translate(-5269.859 -19429.777)" fill="#fff"/>
      <path id="Path_6438" data-name="Path 6438" d="M97.584,306.141h38.577c1.985,0,3.453,2.151,3.005,4.4l-6.9,34.713h-1.593l5.875-30.422c.434-2.246-1.032-4.381-3.009-4.381H98.371Z" transform="translate(-5344.418 -19763.801)" fill="#263238"/>
      <path id="Path_6439" data-name="Path 6439" d="M114.131,346.47V375.8a1.706,1.706,0,0,1-1.7,1.705h-7.191a1.7,1.7,0,0,1-1.705-1.705V346.47Z" transform="translate(-5344.422 -19763.732)" fill="#6a7584"/>
      <path id="Path_6440" data-name="Path 6440" d="M74.438,414.194a3.116,3.116,0,1,0-3.116,3.116A3.116,3.116,0,0,0,74.438,414.194Z" transform="translate(-5344.457 -19763.658)" fill="#6a7584"/>
      <path id="Path_6441" data-name="Path 6441" d="M72.88,414.194a1.558,1.558,0,1,0-1.558,1.558A1.558,1.558,0,0,0,72.88,414.194Z" transform="translate(-5344.457 -19763.658)" fill="#fff" opacity="0.2"/>
      <path id="Path_6442" data-name="Path 6442" d="M149.451,414.194a3.117,3.117,0,1,0-3.117,3.116A3.116,3.116,0,0,0,149.451,414.194Z" transform="translate(-5344.394 -19763.658)" fill="#6a7584"/>
      <circle id="Ellipse_125" data-name="Ellipse 125" cx="1.558" cy="1.558" r="1.558" transform="translate(-5199.618 -19351.023)" fill="#fff" opacity="0.2"/>
      <path id="Path_6443" data-name="Path 6443" d="M111.406,400.521V367H106.25v33.524c-20.077.514-32.276,7.533-34.718,9.071a.98.98,0,0,0-.454.831v2.785a.985.985,0,0,0,.985.986h0a.984.984,0,0,0,.856-.5l1.191-2.089a112.907,112.907,0,0,1,32.14-5.321V411.8a1.275,1.275,0,0,0,1.275,1.275h2.606a1.275,1.275,0,0,0,1.275-1.275v-5.509a112.907,112.907,0,0,1,32.14,5.321l1.191,2.089a.985.985,0,0,0,.856.5h0a.985.985,0,0,0,.985-.986v-2.785a.98.98,0,0,0-.454-.831C143.682,408.054,131.483,401.035,111.406,400.521Z" transform="translate(-5344.457 -19763.658)" fill="#88919d"/>
      <rect id="Rectangle_3428" data-name="Rectangle 3428" width="3.383" height="6.232" transform="translate(-5237.285 -19352.58)" fill="#6a7584"/>
      <rect id="Rectangle_3429" data-name="Rectangle 3429" width="10.601" height="12.186" transform="translate(-5240.892 -19417.285)" fill="#88919d" style="isolation: isolate"/>
      <path id="Path_6444" data-name="Path 6444" d="M146.581,343.449v3.5a1.678,1.678,0,0,1-1.544,1.789H74.222a1.673,1.673,0,0,1-1.536-1.789v-3.5a1.678,1.678,0,0,1,1.536-1.788h70.815A1.683,1.683,0,0,1,146.581,343.449Z" transform="translate(-5344.457 -19763.77)" fill="#6a7584"/>
      <path id="Path_6445" data-name="Path 6445" d="M114,345.256H72.686S59.559,323.7,59.559,288.075V274.993a9.8,9.8,0,0,1,9.866-9.734H86.943a9.8,9.8,0,0,1,9.858,9.459C97.31,293.072,100.047,332.819,114,345.256Z" transform="translate(-5344.457 -19763.855)" fill="#919ba8"/>
      <path id="Path_6446" data-name="Path 6446" d="M104.913,345.256H74.554a3.143,3.143,0,0,1-2.791-1.667c-2.988-5.692-12.2-25.666-12.2-55.514V274.993a9.8,9.8,0,0,1,9.858-9.734h15.14a9.8,9.8,0,0,1,9.857,9.459c.455,16.4,2.688,49.871,13.11,65.689A3.115,3.115,0,0,1,104.913,345.256Z" transform="translate(-5344.457 -19763.855)" fill="#fff" opacity="0.2"/>
      <path id="Path_6447" data-name="Path 6447" d="M146.581,343.449v3.5a1.677,1.677,0,0,1-1.536,1.789H113.309a2.267,2.267,0,0,1-2.076-2.418v-2.244a2.267,2.267,0,0,1,2.076-2.418h31.728A1.683,1.683,0,0,1,146.581,343.449Z" transform="translate(-5344.407 -19763.77)" fill="#6a7584" style="isolation: isolate"/>
    </g>
    <path id="Rectangle_3517" data-name="Rectangle 3517" d="M.5,0h489a.5.5,0,0,1,.5.5v0a.5.5,0,0,1-.5.5H.5A.5.5,0,0,1,0,.5v0A.5.5,0,0,1,.5,0Z" transform="translate(-5175 -19347)" fill="#2e3552"/>
  </g>
</svg>
