<svg xmlns="http://www.w3.org/2000/svg" width="490" height="363" viewBox="0 0 490 363">
  <g id="our_clients" data-name="our clients" transform="translate(4263 19709)">
    <path id="Path_6661" data-name="Path 6661" d="M480.423,223.306c-8.679,14.371-24.357,25.549-28.7,41.271-1.96,6.756-1.4,13.88-2.38,20.881-3.5,24.443-24.217,44.588-49.134,56.134-1.12.491-2.1.983-3.22,1.474-16.378,7-34.016,10.809-51.934,13.143-10.919,1.474-21.977,2.334-33.036,3.071-45.635,3.194-91.269,4.3-137.184,3.439-22.117-.368-44.655-1.351-65.512-7.738-1.12-.368-2.1-.614-3.22-.983-16.938-5.65-31.916-15.108-45.215-26.04l-.56-.491c-19.738-16.214-36.256-35.867-46.754-57.73a134.271,134.271,0,0,1-7.419-99c6.3-19.53,17.218-37.955,18.9-58.1,1.26-15.108-2.8-30.462-.14-45.447,5.6-29.848,37.1-51.712,70.412-59.082S163.78,4.913,197.8,9.089c16.658,2.088,36.116,7.738,52.494,3.194C270.447,6.879,287.525,0,309.363,0c8.819,0,17.918.86,26.177,3.931C345.479,7.738,353.318,14.617,361.3,21c22.4,17.565,47.874,31.813,70.832,49.009,22.957,17.073,43.675,37.955,52.074,63.381,4.2,12.406,5.179,25.426,5.6,38.323C490.5,189.282,489.8,207.707,480.423,223.306Z" transform="translate(-4263.001 -19709)" fill="#e8eaec"/>
    <path id="Union_96" data-name="Union 96" d="M82.463,79V30.384H99.079V79ZM53.846,79V42.077H70.462V79ZM27.077,79V51.308H43.693V79ZM0,79V58.692H16.615V79ZM.923,39.335a145.8,145.8,0,0,0,31.23-5.113A158.4,158.4,0,0,0,62.118,22.836,138.281,138.281,0,0,0,92.124,2.508L88.616-1h9.231V8.23l-3.56-3.56A141.334,141.334,0,0,1,63.442,25.585,161.538,161.538,0,0,1,32.858,37.191C14.572,42.113,1.519,42.376.973,42.384Z" transform="translate(-4203.5 -19685)" fill="#d7dade" stroke="rgba(0,0,0,0)" stroke-miterlimit="10" stroke-width="1"/>
    <path id="Union_97" data-name="Union 97" d="M19.5,34.782a18.075,18.075,0,0,1-8.517-6.913L.66,31.078a.5.5,0,0,1-.572-.2.511.511,0,0,1,.028-.608L8.2,20.327a17.9,17.9,0,0,1,34.951-7.295c.112.391.213.809.311,1.277l11.268,6.971a.573.573,0,0,1-.273,1.058l-11.272.5A17.932,17.932,0,0,1,25.93,36,17.688,17.688,0,0,1,19.5,34.782Zm-8.123-7.446a17.25,17.25,0,0,0,31.272-4.875l.059-.22,11.564-.515L42.909,14.7l-.027-.131c-.1-.506-.208-.951-.325-1.362A17.279,17.279,0,0,0,8.83,20.376l.018.135L.823,30.378l10.426-3.241Zm10.967,1.075V25.233h7.518v3.179Zm.617-.621h6.283V25.854H22.959Zm-.617-3.911V20.693a1.856,1.856,0,0,0-.318-1.05,4.941,4.941,0,1,1,8.145.013,1.821,1.821,0,0,0-.31,1.038v3.188ZM25.6,12.526a4.345,4.345,0,0,0-3.063,6.764,2.478,2.478,0,0,1,.426,1.4V23.26h6.283V20.693a2.438,2.438,0,0,1,.419-1.39,4.353,4.353,0,0,0-.681-5.7,4.261,4.261,0,0,0-2.873-1.1A4.519,4.519,0,0,0,25.6,12.526Zm-1.311,2.092.2.3.142.216h0a1.671,1.671,0,0,0-.316.3l-.37,1.4a2.279,2.279,0,0,0,.134.457l-.285.117h0l-.286.117A2.361,2.361,0,0,1,24.285,14.619ZM16.3,9.8l.359-.506,3.963,2.847-.18.254h0l-.18.253Zm15.156,2.337h0l-.179-.253,3.962-2.847.36.506L31.633,12.39Zm-5.77-2.748L25.84,4.5l.307.009h0l.309.009L26.3,9.409Z" transform="translate(-3997 -19619.5)" fill="#071932"/>
    <path id="Union_98" data-name="Union 98" d="M8.355,22.818.623,26.082a.446.446,0,0,1-.534-.148A.456.456,0,0,1,.1,25.375l5.806-7.112A13.995,13.995,0,0,1,19.121,0a14,14,0,0,1,0,28A13.755,13.755,0,0,1,8.355,22.818Zm.336-.566a13.15,13.15,0,0,0,10.429,5.13A13.383,13.383,0,1,0,5.853,14a13.482,13.482,0,0,0,.688,4.231l.054.162-5.6,6.865,7.556-3.189Zm5.915-7.133.438-.43L18.6,18.365l4.614-11.19.565.238L18.8,19.466Z" transform="translate(-4116 -19601)" fill="#828b98"/>
    <g id="Group_10768" data-name="Group 10768" transform="translate(-34.839 -9.914)">
      <path id="Path_6462" data-name="Path 6462" d="M2380.333,724.53a18.5,18.5,0,1,1-18.689-18.5c-.062,2.013-.124,4.378-.172,6.736A11.767,11.767,0,1,0,2373.6,724.53a11.526,11.526,0,0,0-.592-3.668l6.432-2.013A18.217,18.217,0,0,1,2380.333,724.53Z" transform="translate(-6203.995 -20316.613)" fill="#5f6b7b"/>
      <path id="Path_6463" data-name="Path 6463" d="M2449.949,718.883l-6.462,2.023a11.8,11.8,0,0,0-11.228-8.139c-.118,0-.242,0-.36.007.049-2.369.111-4.745.174-6.767a1.7,1.7,0,0,1,.187-.007A18.591,18.591,0,0,1,2449.949,718.883Z" transform="translate(-6274.511 -20316.588)" fill="#071932"/>
    </g>
    <g id="Group_10766" data-name="Group 10766" transform="translate(0.449 0.385)">
      <path id="Path_6470" data-name="Path 6470" d="M1488.9,778.52l-4.14,12.173,10.988,5.786,2.848-16.214-9.691-1.745Z" transform="translate(-5513.008 -20325.244)" fill="#fdb9a9"/>
      <path id="Path_6471" data-name="Path 6471" d="M1525.568,785.526l-1.449,8.65a32.089,32.089,0,0,1-5.12-9.622l2.033-.115Z" transform="translate(-5540.184 -20329.945)" fill="#de9f93"/>
      <path id="Path_6472" data-name="Path 6472" d="M1519.8,701.3s2.467,17.071-2.27,18.354-12.63-4.737-12.63-4.737l2.368-14.209,6.907-2.27Z" transform="translate(-5528.985 -20261.637)" fill="#fdb9a9"/>
      <path id="Path_6473" data-name="Path 6473" d="M1514.849,689.013s-4.44-1.776-7.4,5.822l-1.48,2.566-7.3-.79,1.184-9.276,6.414-3.158S1513.467,679.343,1514.849,689.013Z" transform="translate(-5524.039 -20249.354)"/>
      <path id="Path_6474" data-name="Path 6474" d="M1487.539,691.333s-3.717-2.664-9.637,3.256-2.894,17.7,3.421,17.564c6.156-.128,4.44-6.217,4.046-7.3S1487.539,691.333,1487.539,691.333Z" transform="translate(-5505.041 -20255.521)"/>
      <ellipse id="Ellipse_131" data-name="Ellipse 131" cx="2.844" cy="3.244" rx="2.844" ry="3.244" transform="matrix(0.866, -0.5, 0.5, 0.866, -4022.375, -19553.871)" fill="#fdb9a9"/>
      <ellipse id="Ellipse_133" data-name="Ellipse 133" cx="5.329" cy="5.329" rx="5.329" ry="5.329" transform="translate(-4039.427 -19555.77) rotate(-74.068)"/>
      <path id="Path_6476" data-name="Path 6476" d="M1464.894,1654.886a77.491,77.491,0,0,1-1.468-9.193l-11.279.7.276,7.3c2.842,1.836,8.4,4.844,14.317,4.879A10.655,10.655,0,0,1,1464.894,1654.886Z" transform="translate(-5487.172 -21014.369)" fill="#de9f93"/>
      <path id="Path_6477" data-name="Path 6477" d="M1474.842,1695.883c-1.419-1.548-4.793-3.453-7.038-6.436-5.919-.035-11.476-3.042-14.318-4.879l.5,13.168h2.24l1.236-6.257s7.494,6.026,12.747,6.335S1475.692,1696.81,1474.842,1695.883Z" transform="translate(-5488.235 -21045.246)" fill="#071932"/>
      <path id="Path_6478" data-name="Path 6478" d="M1423.612,1128.177c-2.622,2.28,2.086,84.824,3.708,109.854l15.528-.232-2.549-106.378Z" transform="translate(-5463.89 -20603.34)" fill="#5f6b7b"/>
      <path id="Path_6479" data-name="Path 6479" d="M1515.579,1654.886a77.426,77.426,0,0,1-1.468-9.193l-11.279.7.276,7.3c2.842,1.836,8.4,4.844,14.318,4.879A10.646,10.646,0,0,1,1515.579,1654.886Z" transform="translate(-5527.347 -21014.369)" fill="#fdb9a9"/>
      <path id="Path_6480" data-name="Path 6480" d="M1525.527,1695.883c-1.42-1.548-4.794-3.453-7.038-6.436-5.919-.035-11.475-3.042-14.317-4.879l.5,13.168h2.24l1.236-6.257s7.494,6.026,12.747,6.335S1526.377,1696.81,1525.527,1695.883Z" transform="translate(-5528.399 -21045.246)" fill="#071932"/>
      <path id="Path_6481" data-name="Path 6481" d="M1451.4,1134.935l8.766,108.451,16.264.476s.7-87.374-3.013-107.537Z" transform="translate(-5486.576 -20608.707)" fill="#828b98"/>
      <path id="Path_6483" data-name="Path 6483" d="M1490.068,804.678l1.081-4.828a55.6,55.6,0,0,1,8.536,4.986,6.168,6.168,0,0,1,2.4,4.46l.3,4.344-9.27-2.549Z" transform="translate(-5517.222 -20342.184)" fill="#828b98"/>
      <path id="Path_6484" data-name="Path 6484" d="M1726.415,1034.452a17.946,17.946,0,0,1-12.051-4.944l-.154-7.957,13.6,1.081,3.785,3.554Z" transform="translate(-5695.04 -20518.396)" fill="#de9f93"/>
      <path id="Path_6485" data-name="Path 6485" d="M1616.217,1025.354s5.794-1.313,6.335-12.438l-5.1,4.017Z" transform="translate(-5617.325 -20511.535)" fill="#1b1b43"/>
      <path id="Path_6486" data-name="Path 6486" d="M1423.57,823.315l8.421,4.359a11.73,11.73,0,0,1,6.061,7.844c2.376,10.591,6.667,35.411,2.359,62.424a78.661,78.661,0,0,1-34.068-10.507l6.534-49.413a17.022,17.022,0,0,1,6.09-10.938Z" transform="translate(-5450.792 -20360.82)" fill="#071932"/>
      <path id="Path_6487" data-name="Path 6487" d="M1594.945,1011.789l15.23.676a10.231,10.231,0,0,1,4.435,1.207,34.457,34.457,0,0,1,6.068,4.218,3.124,3.124,0,0,1,.665,3.9h0a3.116,3.116,0,0,1-.74.879l-1.86,1.522a3.119,3.119,0,0,1-.507.338l-2.654,1.416a3.021,3.021,0,0,1-1.3.363,9.1,9.1,0,0,1-7.132-2.966l-19.468-2.2,3.245-7.3Z" transform="translate(-5594.548 -20510.641)" fill="#fdb9a9"/>
      <path id="Path_6488" data-name="Path 6488" d="M1710.02,1014.609l-9.185-3.026a2.66,2.66,0,0,0-1.373-.08c-2.188.451-8.626,1.945-7.519,3.685.811,1.275,7.262-.734,7.262-.734Z" transform="translate(-5677.255 -20510.365)" fill="#de9f93"/>
      <g id="Group_10682" data-name="Group 10682" transform="translate(-3989.973 -19490.938)">
        <path id="Path_6489" data-name="Path 6489" d="M1670.635,1054.611h0a1.241,1.241,0,0,1-.324-1.725l1.4-2.051a1.242,1.242,0,0,1,1.726-.324h0a1.242,1.242,0,0,1,.324,1.725l-1.4,2.051A1.241,1.241,0,0,1,1670.635,1054.611Z" transform="translate(-1670.093 -1050.293)" fill="#de9f93"/>
        <path id="Path_6490" data-name="Path 6490" d="M1679.226,1056.973h0a1.241,1.241,0,0,1-.324-1.725l1.871-2.737a1.241,1.241,0,0,1,1.725-.325h0a1.242,1.242,0,0,1,.324,1.725l-1.87,2.737A1.242,1.242,0,0,1,1679.226,1056.973Z" transform="translate(-1676.917 -1051.624)" fill="#de9f93"/>
        <path id="Path_6491" data-name="Path 6491" d="M1689.64,1064.427h0a1.242,1.242,0,0,1-.325-1.725l1.4-2.051a1.241,1.241,0,0,1,1.725-.324h0a1.242,1.242,0,0,1,.325,1.726l-1.4,2.051A1.241,1.241,0,0,1,1689.64,1064.427Z" transform="translate(-1685.189 -1058.09)" fill="#de9f93"/>
        <rect id="Rectangle_3438" data-name="Rectangle 3438" width="2.178" height="3.86" rx="1.089" transform="matrix(0.826, 0.564, -0.564, 0.826, 7.664, 3.356)" fill="#de9f93"/>
      </g>
      <path id="Path_6492" data-name="Path 6492" d="M1495.695,865.765s5.408-3.09,6.8,26.73l18.077,3.476a33.177,33.177,0,0,0-6.335,12.438l-15.394-1.654a10.127,10.127,0,0,1-5.752-2.6h0a10.127,10.127,0,0,1-3.264-6.7l-2.01-26.134Z" transform="translate(-5515.406 -20394.545)" fill="#071932"/>
      <path id="Path_6493" data-name="Path 6493" d="M1515.55,931.066l-16.369-1.672a10.244,10.244,0,0,1-9.194-9.751l-.819-19.084.617-.027.82,19.084a9.626,9.626,0,0,0,8.64,9.164l15.828,1.616a28.731,28.731,0,0,1,5.972-11.9l-17.75-3.414-3.149-21.209.61-.09,3.085,20.776,18.434,3.545-.413.412a27.376,27.376,0,0,0-6.252,12.288Z" transform="translate(-5516.478 -20416.879)" fill="#a5acb5"/>
      <rect id="Rectangle_3439" data-name="Rectangle 3439" width="0.617" height="10.415" transform="translate(-4024.76 -19481.93) rotate(-77.062)" fill="#a5acb5"/>
      <g id="Group_10683" data-name="Group 10683" transform="translate(-3980.691 -19492.879)">
        <path id="Path_6494" data-name="Path 6494" d="M1733.625,1045.615l-1.924-3.443-1.9-.949.184-.368,2.011,1.006,1.985,3.553Z" transform="translate(-1726.735 -1040.855)" fill="#de9f93"/>
        <rect id="Rectangle_3440" data-name="Rectangle 3440" width="0.411" height="4.266" transform="translate(2.521 2.862) rotate(-30.875)" fill="#de9f93"/>
        <rect id="Rectangle_3441" data-name="Rectangle 3441" width="0.411" height="4.266" transform="translate(0 4.251) rotate(-30.875)" fill="#de9f93"/>
      </g>
    </g>
    <g id="Group_10767" data-name="Group 10767" transform="translate(-19.104 0.309)">
      <path id="Path_6495" data-name="Path 6495" d="M1858.372,1644.083l-.155,11.743-12.978,8.5h24.566l.927-21.786Z" transform="translate(-5779.346 -21011.633)" fill="#828b98"/>
      <rect id="Rectangle_3442" data-name="Rectangle 3442" width="0.823" height="4.997" transform="matrix(0.586, -0.811, 0.811, 0.586, -3921.355, -19355.473)" fill="#071932"/>
      <path id="Path_6496" data-name="Path 6496" d="M2119.077,1626.019l2.781,15.064,8.807,10.12h-18.309l-3.554-21.786Z" transform="translate(-5988.562 -20998.512)" fill="#828b98"/>
      <rect id="Rectangle_3443" data-name="Rectangle 3443" width="4.619" height="0.823" transform="translate(-3870.081 -19354.25) rotate(-48.345)" fill="#071932"/>
      <path id="Path_6497" data-name="Path 6497" d="M1897.6,1103.463s-7.571,30.592-5.253,112.635h17.614s4.635-68.6,11.125-114.953Z" transform="translate(-5816.383 -20581.639)" fill="#071932"/>
      <path id="Path_6498" data-name="Path 6498" d="M2012.879,1098.893l13.828,113.331-18.155,3.013-21.886-116.116Z" transform="translate(-5891.557 -20579.85)" fill="#071932"/>
      <path id="Path_6499" data-name="Path 6499" d="M1991.79,1238.9l-4.9-28.046-5.824-1.059.111-.607,6.248,1.136.037.212,4.938,28.258Z" transform="translate(-5887.177 -20667.387)" fill="#c0c5cb"/>
      <path id="Path_6500" data-name="Path 6500" d="M1895.284,1427.379a1.112,1.112,0,0,1-1.1-1,1.116,1.116,0,0,1,.913-1.205l5.079-.9.108.608-5.08.9a.5.5,0,0,0-.406.536.495.495,0,0,0,.543.443l2.182-.225.063.614-2.182.226C1895.362,1427.377,1895.323,1427.379,1895.284,1427.379Z" transform="translate(-5818.202 -20838.232)" fill="#1b1b43"/>
      <path id="Path_6501" data-name="Path 6501" d="M2049.3,1421.533a1.112,1.112,0,0,1-.191-2.207l5.079-.9.108.608-5.08.9a.5.5,0,0,0-.406.536.492.492,0,0,0,.18.334.486.486,0,0,0,.364.109l2.181-.226.064.614-2.182.226A1.147,1.147,0,0,1,2049.3,1421.533Z" transform="translate(-5940.475 -20833.588)" fill="#1b1b43"/>
      <path id="Path_6502" data-name="Path 6502" d="M1937,812.721l-15.72,40.343-1.7,21.322,33.837,2.318-4.929-63.658Z" transform="translate(-5838.343 -20352.406)" fill="#fff"/>
      <path id="Path_6503" data-name="Path 6503" d="M1922.667,936.424a26.6,26.6,0,0,0,7.671-.6,30.424,30.424,0,0,0,7.124-2.566,31.94,31.94,0,0,0,3.252-1.962c.519-.365,1.078-.679,1.568-1.087s.991-.8,1.5-1.2a15.634,15.634,0,0,0,1.449-1.265l1.433-1.3c.92-.908,1.788-1.874,2.755-2.781-.672,1.122-1.382,2.238-2.149,3.316l-1.27,1.526a13.18,13.18,0,0,1-1.354,1.459,27.3,27.3,0,0,1-6.429,4.756,23.828,23.828,0,0,1-7.663,2.365A17.5,17.5,0,0,1,1922.667,936.424Z" transform="translate(-5840.804 -20440.563)" fill="#505d6f" opacity="0.2"/>
      <path id="Path_6504" data-name="Path 6504" d="M1912.247,812.721s-6.494,9.464-12.728,78.212a.492.492,0,0,1-.773.36l-10.33-7.405,9.039-58.867Z" transform="translate(-5813.62 -20352.406)" fill="#828b98"/>
      <path id="Path_6505" data-name="Path 6505" d="M1821,812.721l-13.716,3.729a6.181,6.181,0,0,0-4.334,4.312l-9.025,32.534-19,3.476-1.391,11.82,24.66-1.156a6.354,6.354,0,0,0,5.944-5.156l6.709-35.173Z" transform="translate(-5722.425 -20352.406)" fill="#828b98"/>
      <path id="Path_6506" data-name="Path 6506" d="M2032.993,814.3s-7.215,49.733-7.01,78.129l22.634-1.029.043-47.743Z" transform="translate(-5922.815 -20353.662)" fill="#828b98"/>
      <rect id="Rectangle_3444" data-name="Rectangle 3444" width="34.617" height="26.257" rx="5" transform="translate(-3903.383 -19496.777) rotate(7.565)" fill="#505d6f"/>
      <path id="Path_6507" data-name="Path 6507" d="M2060.511,1088.411a.3.3,0,0,1-.043,0h0l-4.173-.554a.324.324,0,0,1-.279-.365l.413-3.107a.325.325,0,0,1,.365-.279l4.172.554a.325.325,0,0,1,.279.365l-.413,3.108a.326.326,0,0,1-.321.282Zm-4.076-.954,4,.531.39-2.936-4-.531Zm-.012.085h0Zm.315-3.033h0Z" transform="translate(-5946.682 -20568.004)" fill="#fff"/>
      <path id="Path_6508" data-name="Path 6508" d="M2055.775,1089.078l-1,1.423a5.512,5.512,0,0,1-2.745,2.069c-2.251.761-6.868,2.2-6.251,3.625.354.816,4.653-.295,4.653-.295s-4.969,5.858-2.892,7.638a6.662,6.662,0,0,0,2.7,1.166,10.646,10.646,0,0,0,3.982.092,4.458,4.458,0,0,0,2.676-1.478,21.092,21.092,0,0,0,2.311-3.2,38.378,38.378,0,0,0,3.833-8.374Z" transform="translate(-5938.5 -20571.965)" fill="#fdb9a9"/>
      <path id="Path_6509" data-name="Path 6509" d="M2060.067,814.3l10.2,2.257a8.58,8.58,0,0,1,6.135,5.248l10.225,23.563a12.289,12.289,0,0,1-.656,11.079l-11.547,19.811-8.961-4.79,8.5-21.322Z" transform="translate(-5949.854 -20353.662)" fill="#828b98"/>
      <path id="Path_6510" data-name="Path 6510" d="M2007.232,840.507a9.679,9.679,0,0,1-5.506-1.861l.387-.481c.042.033,4.156,3.266,8.713.792l.295.543A8.053,8.053,0,0,1,2007.232,840.507Z" transform="translate(-5903.581 -20372.615)" fill="#1b1b43"/>
      <rect id="Rectangle_3445" data-name="Rectangle 3445" width="57.288" height="0.617" transform="matrix(0.142, -0.99, 0.99, 0.142, -3925.514, -19468.602)" fill="#5f6b7b"/>
      <path id="Path_6511" data-name="Path 6511" d="M2085.464,937.606l-.567-.242,9.631-22.542-7.22-17.164.569-.239,7.321,17.4Z" transform="translate(-5969.605 -20419.717)" fill="#5f6b7b"/>
      <g id="Group_10689" data-name="Group 10689" transform="translate(-3890.702 -19471.775)">
        <rect id="Rectangle_3446" data-name="Rectangle 3446" width="4.147" height="0.412" transform="matrix(0.562, -0.827, 0.827, 0.562, 0, 3.429)" fill="#de9f93"/>
        <rect id="Rectangle_3447" data-name="Rectangle 3447" width="4.147" height="0.412" transform="matrix(0.562, -0.827, 0.827, 0.562, 2.195, 4.458)" fill="#de9f93"/>
        <rect id="Rectangle_3448" data-name="Rectangle 3448" width="4.147" height="0.412" transform="translate(5.418 4.527) rotate(-55.781)" fill="#de9f93"/>
      </g>
      <path id="Path_6513" data-name="Path 6513" d="M2016.051,743.72l-.321,14.527c-5.745,5.959-11.49-.329-11.49-.329l.411-2.979.181-1.325.815-5.934.214-1.572,5.992-1.4Z" transform="translate(-5905.574 -20297.604)" fill="#fdb9a9"/>
      <path id="Path_6514" data-name="Path 6514" d="M2014.01,757.137s-1.893,3.745-7.77,7.967l.181-1.325.815-5.934,6.157-1.325Z" transform="translate(-5907.166 -20307.77)" fill="#de9f93"/>
      <path id="Path_6515" data-name="Path 6515" d="M1982.624,689.08s-3.324,17.919,1.156,17.63,12.861-4.913,12.861-4.913l1.012-8.526-3.757-5.636-6.5.145Z" transform="translate(-5887.468 -20253.059)" fill="#fdb9a9"/>
      <path id="Path_6516" data-name="Path 6516" d="M1977.54,682.788s3.793,6.557,5.69,6.34,5.311-12.355,1.138-17.4-13.656-2.168-14.415-2.168-4.986-.108-7.858-.163c0,0,2.33,8.616,11.868,6.015,0,0,1.138,4.173,3.414,4.714Z" transform="translate(-5872.105 -20238.059)"/>
      <ellipse id="Ellipse_134" data-name="Ellipse 134" cx="3.306" cy="2.692" rx="3.306" ry="2.692" transform="translate(-3898.182 -19554.65) rotate(-71.126)" fill="#fdb9a9"/>
    </g>
    <g id="Group_10765" data-name="Group 10765" transform="translate(0.091 0.168)">
      <path id="Path_6518" data-name="Path 6518" d="M991.61,1340.622l-15.528-5.949c1.716,9.15,2.637,62.479,2.765,70.394l10.786,2.041C991.455,1381.952,991.61,1340.622,991.61,1340.622Z" transform="translate(-5108.645 -20767.131)" fill="#fdb9a9"/>
      <path id="Path_6519" data-name="Path 6519" d="M1010.116,1690.518c-4.791-5.8-6.877-3.942-10.971-11.513.011-.058.021-.124.032-.184l-10.786-2.041c.01.639.016.989.016.989l-.309,13.906h2.935l1.7-6.257,7.03,6.257h9.6C1009.961,1691.675,1010.495,1690.977,1010.116,1690.518Z" transform="translate(-5117.963 -21038.844)" fill="#071932"/>
      <path id="Path_6520" data-name="Path 6520" d="M879.805,1330.352l-14.508-8.125c.378,9.3-6.4,62.206-7.412,70.057l10.379,3.574C873.693,1371.229,879.805,1330.352,879.805,1330.352Z" transform="translate(-5015.187 -20757.246)" fill="#fdb9a9"/>
      <path id="Path_6521" data-name="Path 6521" d="M867.993,1679.424c-3.906-6.426-6.237-4.892-9.2-12.974.019-.056.039-.119.058-.177l-10.379-3.574c-.082.634-.127.98-.127.98l-2.311,13.716,2.9.423,2.584-5.947,6.669,8.465,8.89.125C867.674,1680.546,868.3,1679.933,867.993,1679.424Z" transform="translate(-5005.778 -21027.66)" fill="#071932"/>
      <path id="Path_6522" data-name="Path 6522" d="M879.461,1111.148s-3.245,28.97,1.391,50.292c0,0,17.382,5.562,33.141-.927,0,0,1.391-45.657-4.867-52.61Z" transform="translate(-5031.19 -20586.939)" fill="#071932"/>
      <path id="Path_6523" data-name="Path 6523" d="M906.055,1332.661a113.653,113.653,0,0,1-16.3-1.234l.1-.609c.211.035,21.254,3.429,33.379-1.218l.221.576C918.461,1332.091,911.99,1332.661,906.055,1332.661Z" transform="translate(-5040.21 -20763.033)" fill="#344358"/>
      <path id="Path_6524" data-name="Path 6524" d="M964.355,1130.444c-.19-1.413-1.855-13.824-1.855-14.444h.617c0,.438,1.106,8.829,1.849,14.363Z" transform="translate(-5097.978 -20593.354)" fill="#6a7584"/>
      <path id="Path_6527" data-name="Path 6527" d="M897.571,865.667l4.974,5.809a13.571,13.571,0,0,1,3.232,9.727l-1.513,22.719s.464,11.742,2.009,13.6-2.936,3.554-9.27,4.635-25.957.927-26.884-2.009,3.863-4.944,2.317-12.206l3.09-33.373,4.094-7.107L890.359,867Z" transform="translate(-5024.808 -20394.492)" fill="#5f6b7b"/>
      <path id="Path_6528" data-name="Path 6528" d="M989,985.97l7.408-27.47,22.149,1.193-8.112,27.232Z" transform="translate(-5118.681 -20468.236)" fill="#344358"/>
      <path id="Path_6529" data-name="Path 6529" d="M933.83,1022.507s10.854-2.781,13.867-2.2,4.288,2.665,3.708,3.245a2.76,2.76,0,0,1-1.854.464s-.579,5.446-2.665,6.257-17.536,3.515-17.536,3.515l-1.7-4.442Z" transform="translate(-5070.252 -20517.27)" fill="#fdb9a9"/>
      <path id="Path_6530" data-name="Path 6530" d="M852.217,906.68l-4.487,11.282-14.388.111H833.3a8.391,8.391,0,0,1-8.019-10.921l8.436-26.838c.037-.13.083-.26.13-.389a6.494,6.494,0,0,1,4.237-3.875l5.711-1.659-.065.427-4.8,31.241Z" transform="translate(-4988.981 -20401.422)" fill="#5f6b7b"/>
      <path id="Path_6531" data-name="Path 6531" d="M965.389,904.778a1.389,1.389,0,1,1,1.389-1.389A1.391,1.391,0,0,1,965.389,904.778Zm0-2.161a.772.772,0,1,0,.772.772A.772.772,0,0,0,965.389,902.617Z" transform="translate(-5099.164 -20423.314)" fill="#f9fafb"/>
      <path id="Path_6532" data-name="Path 6532" d="M893.3,980.034,882,980l0-.617,10.879.029,4.249-10.685-13.233-.618,3.77-15.958.6.142-3.6,15.234,13.354.624Z" transform="translate(-5034.177 -20463.197)" fill="#f9fafb"/>
      <path id="Path_6533" data-name="Path 6533" d="M1061.881,953.833l-.548,3.106,6.8.4.439-3.033Z" transform="translate(-5176.13 -20464.523)" fill="#a5acb5"/>
      <g id="Group_10696" data-name="Group 10696" transform="translate(-4125.19 -19494.352)">
        <path id="Path_6534" data-name="Path 6534" d="M1016.376,1034.591l-1.818-.861-2.618.269-.042-.41,2.732-.28,1.922.909Z" transform="translate(-1011.898 -1033.31)" fill="#de9f93"/>
        <rect id="Rectangle_3449" data-name="Rectangle 3449" width="0.412" height="2.459" transform="matrix(0.502, -0.865, 0.865, 0.502, 1.872, 2.549)" fill="#de9f93"/>
        <rect id="Rectangle_3450" data-name="Rectangle 3450" width="0.412" height="2.665" transform="translate(0.941 4.638) rotate(-58.152)" fill="#de9f93"/>
      </g>
      <g id="Group_10697" data-name="Group 10697" transform="translate(-4108.74 -19501.174)">
        <path id="Path_6535" data-name="Path 6535" d="M1093.437,1012.584s-3.523-7.555-2.472-8.343c.618-.464,1.313.155,1.313.155s-1-2.318-.232-2.7,1.313.464,1.313.464.077-1.777.7-1.777,1.313,1.082,1.313,1.082-.077-1.236.773-1.313,2.781,3.94,3.167,7.416c.359,3.233.232,8.884-6.721,8.189Z" transform="translate(-1090.769 -1000.145)" fill="#fdb9a9"/>
        <rect id="Rectangle_3451" data-name="Rectangle 3451" width="0.411" height="3.636" transform="matrix(0.936, -0.353, 0.353, 0.936, 1.316, 4.323)" fill="#de9f93"/>
        <rect id="Rectangle_3452" data-name="Rectangle 3452" width="0.412" height="4.615" transform="matrix(0.93, -0.367, 0.367, 0.93, 2.415, 2.097)" fill="#de9f93"/>
        <rect id="Rectangle_3453" data-name="Rectangle 3453" width="0.411" height="4.61" transform="translate(4.337 1.242) rotate(-22.477)" fill="#de9f93"/>
      </g>
      <path id="Path_6536" data-name="Path 6536" d="M947.062,803.639l-11.728.412,1.645-17.6,7.3,4.524,2.021,1.251.5,6.99Z" transform="translate(-5076.417 -20331.539)" fill="#fdb9a9"/>
      <path id="Path_6537" data-name="Path 6537" d="M958.871,816.674c-5.4-1.02-8.334-7.416-8.334-7.416l5.812-.825,2.021,1.251Z" transform="translate(-5088.473 -20349.002)" fill="#e8a090"/>
      <path id="Path_6538" data-name="Path 6538" d="M949.717,735.566s3.714,17.556-3.039,17.668-13.392-3.939-13.392-3.939l.169-9.453,4.107-3.939,6.64-2.138Z" transform="translate(-5074.761 -20289.697)" fill="#fdb9a9"/>
      <path id="Path_6539" data-name="Path 6539" d="M891.651,716.189a2.721,2.721,0,0,1-1.276,1.523c-1.712.8-3.761-1.037-5.539-.387-1.761.65-1.918,3.152-3.333,4.387-1.333,1.152-3.366.856-5.078.428l1.218,2.477q-1.864,2.136-1.63,6.445a12.176,12.176,0,0,1-.905,6.527c-2.036,4.549-4.368,5.029-4.368,5.029l-5.83,1.531a6.507,6.507,0,0,0-4.239,3.877,12.512,12.512,0,0,1-1.523-2.6,5.594,5.594,0,0,1,.165-4.889,26.273,26.273,0,0,0,1.909-2.593c.856-1.951-.4-4.477.807-6.247a6.255,6.255,0,0,1,2.938-1.852c1.07-.469,2.214-1.185,2.436-2.329.214-1.095-.486-2.132-1.086-3.062s-1.177-2.091-.733-3.1c.667-1.514,2.889-1.416,4.165-2.469,1.193-1,1.276-2.765,1.6-4.288a7.828,7.828,0,0,1,4.9-5.984c2.9-.905,6.008.461,8.486,2.2a2.7,2.7,0,0,0,.8.436,3.884,3.884,0,0,0,1.745-.2,3.873,3.873,0,0,1,4.37,5.144Z" transform="translate(-5015.81 -20269.488)"/>
      <ellipse id="Ellipse_136" data-name="Ellipse 136" cx="3.067" cy="3.461" rx="3.067" ry="3.461" transform="translate(-4140.943 -19548.564)" fill="#fdb9a9"/>
      <path id="Path_6545" data-name="Path 6545" d="M928.517,855l-3.786,5.251-6.691-4.609.123-.1a12.576,12.576,0,0,0,4.1-4.98Z" transform="translate(-5062.731 -20382.461)" fill="#828b98"/>
      <path id="Path_6546" data-name="Path 6546" d="M968.949,853.337l4.558,5.1,4.3-4.575-4.3-5.39Z" transform="translate(-5103.049 -20380.801)" fill="#828b98"/>
      <path id="Path_6547" data-name="Path 6547" d="M923.1,859.78l-7.2-4.958.35-.508,6.707,4.615,3.425-4.752-6.143-4.236.35-.508,6.662,4.594Z" transform="translate(-5061.031 -20381.564)" fill="#f9fafb"/>
      <path id="Path_6548" data-name="Path 6548" d="M971.886,858.078l-4.971-5.56,4.751-5.073.451.422-4.365,4.661,4.145,4.637,4-4.261.45.423Z" transform="translate(-5101.435 -20379.986)" fill="#f9fafb"/>
    </g>
    <rect id="Rectangle_3454" data-name="Rectangle 3454" width="490" height="1" transform="translate(-4263 -19347)" fill="#071932"/>
    <g id="Group_10773" data-name="Group 10773">
      <circle id="Ellipse_126" data-name="Ellipse 126" cx="14" cy="14" r="14" transform="translate(-4228 -19514)" fill="#cdd1d6"/>
      <text id="_" data-name="$" transform="translate(-4219 -19494)" fill="#071932" font-size="16" font-family="Inter-Regular, Inter" letter-spacing="0.004em"><tspan x="0" y="0">$</tspan></text>
    </g>
    <g id="Group_10770" data-name="Group 10770" transform="translate(25 50)">
      <ellipse id="Ellipse_128" data-name="Ellipse 128" cx="8.5" cy="8.5" rx="8.5" ry="8.5" transform="translate(-4075 -19654)" fill="#d7dade"/>
      <text id="_2" data-name="¥" transform="translate(-4070 -19641)" fill="#071932" font-size="12" font-family="Inter-Regular, Inter" letter-spacing="0.004em"><tspan x="0" y="0">¥</tspan></text>
    </g>
    <g id="Group_10771" data-name="Group 10771" transform="translate(-38 -104)">
      <circle id="Ellipse_130" data-name="Ellipse 130" cx="10.5" cy="10.5" r="10.5" transform="translate(-3819 -19536)" fill="#cdd1d6"/>
      <text id="_3" data-name="€" transform="translate(-3813 -19521)" fill="#071932" font-size="12" font-family="Inter-Regular, Inter" letter-spacing="0.004em"><tspan x="0" y="0">€</tspan></text>
    </g>
    <g id="Group_10769" data-name="Group 10769" transform="translate(11 77)">
      <ellipse id="Ellipse_127" data-name="Ellipse 127" cx="10.5" cy="10.5" rx="10.5" ry="10.5" transform="translate(-4199 -19667)" fill="#cdd1d6" opacity="0.3"/>
      <text id="_4" data-name="₽" transform="translate(-4192 -19652)" fill="#071932" font-size="12" font-family="Inter-Regular, Inter" letter-spacing="0.004em"><tspan x="0" y="0">₽</tspan></text>
    </g>
    <g id="Group_10772" data-name="Group 10772">
      <ellipse id="Ellipse_129" data-name="Ellipse 129" cx="15" cy="15" rx="15" ry="15" transform="translate(-3836 -19497)" fill="#d7dade"/>
      <text id="_5" data-name="£" transform="translate(-3826 -19476)" fill="#071932" font-size="16" font-family="Inter-Regular, Inter" letter-spacing="0.004em"><tspan x="0" y="0">£</tspan></text>
    </g>
  </g>
</svg>
