<svg xmlns="http://www.w3.org/2000/svg" xmlns:xlink="http://www.w3.org/1999/xlink" width="370" height="274.001" viewBox="0 0 370 274.001">
  <defs>
    <linearGradient id="linear-gradient" x1="1.397" y1="-0.35" x2="-0.944" y2="1.918" gradientUnits="objectBoundingBox">
      <stop offset="0.01"/>
      <stop offset="0.13" stop-opacity="0.69"/>
      <stop offset="0.25" stop-opacity="0.322"/>
      <stop offset="1" stop-opacity="0"/>
    </linearGradient>
    <linearGradient id="linear-gradient-2" x1="0.726" y1="0.058" x2="0.017" y2="1.54" xlink:href="#linear-gradient"/>
    <linearGradient id="linear-gradient-3" x1="0.756" y1="1.61" x2="0.092" y2="-1.154" xlink:href="#linear-gradient"/>
    <linearGradient id="linear-gradient-4" x1="-5.212" y1="0.417" x2="1.101" y2="0.504" gradientUnits="objectBoundingBox">
      <stop offset="0"/>
      <stop offset="1" stop-opacity="0"/>
    </linearGradient>
    <linearGradient id="linear-gradient-5" x1="2.513" y1="0.732" x2="-0.018" y2="0.462" xlink:href="#linear-gradient-4"/>
    <linearGradient id="linear-gradient-6" x1="0.596" y1="0.941" x2="0.373" y2="-0.192" xlink:href="#linear-gradient-4"/>
  </defs>
  <g id="why_emfi" data-name="why emfi" transform="translate(-1060 -1109.999)">
    <path id="Path_1682" data-name="Path 1682" d="M148.207,53.246l-11.628-3.068c-17.019-4.273-35.413-8.656-51.8-2.191C71.461,53.355,61.525,64.97,52.222,76.146,39.96,90.828,27.7,105.73,18.5,122.6-3.17,162.816-6.447,219.683,11.947,261.43c7.294,16.655,17.019,32.762,31.713,42.952C58.882,315.01,78.121,318.3,96.409,316.544s35.836-8.327,52.644-15.669c18.816-8.327,38.69-18.3,58.775-14.135,10.465,2.191,19.873,7.889,29.282,13.148,16.491,9.094,34.25,16.874,52.961,18.517s38.584-3.287,52.115-16.874C355.4,288.384,361,269.1,364.172,250.473a223.238,223.238,0,0,0,2.22-58.73c-1.8-18.956,5.92-37.035,2.854-56.538-2.326-15.23-10.042-30.132-22.622-38.569-15.539-10.409-35.518-9.642-54.018-9.2-15.751.438-31.5.329-47.358-.219-9.725-.329-19.345-.877-28.647-4.054-10.465-3.616-19.662-10.3-29.493-15.449-12.262-6.684-25.476-10.848-38.9-14.463Z" transform="translate(1060.025 1065.289)" fill="#f9f9fa"/>
    <path id="Path_1683" data-name="Path 1683" d="M163,135.134,172.2,105c1.205-5.7,1.753-12.6,2.411-18.517a14.766,14.766,0,0,0-.11-5.807c-.657-2.411-2.3-5.259-.877-7.341,1.315-2.191,5.04-1.863,7.232-.329,3.178,2.082,5.259,6.793,2.739,9.533a13.813,13.813,0,0,0-2.191,2.191,7.291,7.291,0,0,0-.438,4.6c.767,7.232-.767,14.354-2.3,21.585l-4.054,19.613c-.986,4.821-2.52,10.3-7.232,12.053a2.332,2.332,0,0,1-3.178-.767c-.877-1.753-1.1-4.6-1.205-6.684Z" transform="translate(1076.128 1067.879)" fill="#c1a7a7"/>
    <path id="Path_1684" data-name="Path 1684" d="M163,135.134,172.2,105c1.205-5.7,1.753-12.6,2.411-18.517a14.766,14.766,0,0,0-.11-5.807c-.657-2.411-2.3-5.259-.877-7.341,1.315-2.191,5.04-1.863,7.232-.329,3.178,2.082,5.259,6.793,2.739,9.533a13.813,13.813,0,0,0-2.191,2.191,7.291,7.291,0,0,0-.438,4.6c.767,7.232-.767,14.354-2.3,21.585l-4.054,19.613c-.986,4.821-2.52,10.3-7.232,12.053a2.332,2.332,0,0,1-3.178-.767c-.877-1.753-1.1-4.6-1.205-6.684Z" transform="translate(1076.128 1067.879)" fill="#e8a090"/>
    <path id="Path_1685" data-name="Path 1685" d="M219.176,203.549a43.943,43.943,0,0,1-87.876,1.315v-1.315c0-1.1,0-2.3.11-3.4a43.944,43.944,0,0,1,87.766,3.4Z" transform="translate(1073.094 1076.273)" fill="#828b98"/>
    <g id="Group_8422" data-name="Group 8422" transform="translate(1204.504 1238.953)">
      <path id="Path_1686" data-name="Path 1686" d="M156.711,222.881c-1.424,6.355.329,13.148-.986,19.5a43.484,43.484,0,0,1-21.8-24.434,26.411,26.411,0,0,1,.11-6.574c.329-2.411.767-4.712.11-7.122a16.166,16.166,0,0,0-2.739-4.821A43.543,43.543,0,0,1,149.808,167a1.2,1.2,0,0,1,0,.877l-1.863,8.437a21.278,21.278,0,0,1,0,7.451,9.273,9.273,0,0,1-4.054,6.026c-.767.329-1.644.767-2.411,1.1a8.984,8.984,0,0,0-1.863,2.191,16.292,16.292,0,0,0-2.63,5.588,6,6,0,0,0,1.424,5.7l12.272-2.411c1.205-.219,2.849-.438,3.725.548.986,1.1.438,2.958.657,4.492.329,1.972,2.082,3.4,2.849,5.259,1.315,3.4-.438,7.122-1.205,10.628Z" transform="translate(-131.4 -161.96)" opacity="0.14"/>
      <path id="Path_1687" data-name="Path 1687" d="M144.668,172.428c-1.753,2.082-3.616,4.164-4.054,6.9a2.42,2.42,0,0,0,0,1.753,4.3,4.3,0,0,0,2.3,1.863,33.635,33.635,0,0,0,13.148,2.3c-.219,2.411-.438,5.479,1.424,7.232a7.431,7.431,0,0,0,2.411,1.315,25.483,25.483,0,0,0,8.656,1.863c2.411.11,5.04-.11,7.451.11a18.9,18.9,0,0,1,8.547,3.178,3.713,3.713,0,0,1,1.534,1.644,4.087,4.087,0,0,1,.329,2.3,39.919,39.919,0,0,0,.986,8c.657,2.52,1.753,5.15,3.945,6.684a11.383,11.383,0,0,0,3.725,1.644l8.875,2.958a1.625,1.625,0,0,0,.767.11,1.32,1.32,0,0,0,.548-.548c.877-1.972,1.972-4.054,1.534-6.136s-2.082-3.725-2.849-5.588c-1.205-3.068-.329-6.793-1.315-9.971a13.658,13.658,0,0,0-3.4-5.04,100.672,100.672,0,0,0-8.108-7.013c-4.492-3.616-9.094-7.232-14.354-9.533-2.191-.877-4.492-1.863-5.7-3.835-1.424-2.411-.767-5.588-2.411-7.889-1.315-1.863-3.725-2.52-5.917-2.63a21.279,21.279,0,0,0-10.738,2.52c-3.506,1.1-5.15,3.178-7.341,5.807Z" transform="translate(-130.534 -162.238)" opacity="0.14"/>
      <path id="Path_1688" data-name="Path 1688" d="M214.921,203.27a43.769,43.769,0,0,1-16.764,34.515,5.117,5.117,0,0,1-1.534-1.534c-1.315-1.972-.877-5.15,1.205-6.246-.767.438-3.725-.657-4.492-.767l-4.492-.767c-2.191-.329-5.917-.219-7.232-2.411a1.4,1.4,0,0,0-.548-.767,3.592,3.592,0,0,0-.877-.657c-1.315-.657-2.958-1.424-3.287-2.849-.219-1.1.329-2.411-.219-3.287a4.765,4.765,0,0,0-.657-.767,2.511,2.511,0,0,1,.329-2.739c1.972-3.287,5.807-4.931,9.642-5.588s7.67-.548,11.4-1.644c2.411-.767,4.492-1.863,7.013-2.191,1.315-.219,2.958-.329,3.506-1.534.329-.767,0-1.534.329-2.3a6.509,6.509,0,0,1,.438-.877,1.884,1.884,0,0,0-1.1-2.3c-.11,0-.219-.11-.329-.11.329-.767.548-1.863-.11-2.411a1.7,1.7,0,0,0-1.644-.219c-1.534.438-2.63,1.753-4.054,2.63a11,11,0,0,1-14.025-1.644,3.738,3.738,0,0,1-1.205-1.972,3.357,3.357,0,0,1,1.863-3.178,8.893,8.893,0,0,1,3.835-.767c-.548-3.178-.986-6.355-1.424-9.533-7.232,1.972-10.3-5.04-11.286-10.738s3.068-7.889,8.437-8.218a44.509,44.509,0,0,1,27.283,40.87Z" transform="translate(-127.154 -162.4)" opacity="0.14"/>
    </g>
    <path id="Path_1689" data-name="Path 1689" d="M181.9,218.122c0,2.411,3.945,4.712,5.807,5.259l2.411.767a2.182,2.182,0,0,1,1.205,1.972c-.11.767-.657,1.205-.767,1.972a3.124,3.124,0,0,0,.219,1.753c.767,2.411,3.616,3.835,4.273,6.136,4.054-.438,5.807-.11,9.752-.767l3.287-2.191-5.04-9.314a19.622,19.622,0,0,0-2.411-3.725,19.235,19.235,0,0,0-3.725-2.958A87.8,87.8,0,0,0,186.064,211c.657.438-4.164,6.574-4.164,7.122Z" transform="translate(1077.938 1081.205)" fill="url(#linear-gradient)"/>
    <path id="Path_1690" data-name="Path 1690" d="M184.14,208.4c-.438,1.315-.767,2.849,0,4.054a3.065,3.065,0,0,0,1.424.986,3.858,3.858,0,0,0,4.164-.438,5.569,5.569,0,0,0,1.205-2.411,77.36,77.36,0,0,0,2.3-9.971,1.2,1.2,0,0,0,0-.877,1.726,1.726,0,0,0-.767-.767c-1.753-.877-4.492-1.753-5.588.438-1.205,2.739-1.863,6.136-2.739,8.985Z" transform="translate(1078.107 1079.965)" fill="#fdb9a9"/>
    <path id="Path_1691" data-name="Path 1691" d="M189.506,209.018a3.377,3.377,0,0,1,1.1.11,2.905,2.905,0,0,1,.657.548l3.835,4.383c.767.767,1.534,2.082.986,2.958a2.036,2.036,0,0,1-1.644.986,10.619,10.619,0,0,1-5.479-.986l-3.506-1.753a6.743,6.743,0,0,1-2.191-1.753c-.877-1.315-1.1-4.6.438-5.588.767-.548,1.424-.11,2.3.219a7.217,7.217,0,0,0,3.506.877Z" transform="translate(1078.001 1080.885)" fill="#505d6f"/>
    <path id="Path_1692" data-name="Path 1692" d="M204.1,221.828a1.865,1.865,0,0,1-.11.767,2.907,2.907,0,0,1-.548.657,4.175,4.175,0,0,1-2.411.767,3.4,3.4,0,0,1-2.411-.986,5.251,5.251,0,0,1-.767-2.191,26.278,26.278,0,0,1-.548-5.04.554.554,0,0,1,.548-.767h.11c1.424-.329,4.054-.986,4.821.767A12.189,12.189,0,0,1,204.1,221.828Z" transform="translate(1079.408 1081.553)" fill="#fdb9a9"/>
    <path id="Path_1693" data-name="Path 1693" d="M210.01,221.047a12.527,12.527,0,0,1,3.506.767,4.208,4.208,0,0,1,2.52,2.411,3.13,3.13,0,0,1,.11,1.753,4.365,4.365,0,0,1-1.863,1.863,24.322,24.322,0,0,1-12.929,2.849,5.564,5.564,0,0,1-3.178-1.1,4.618,4.618,0,0,1-.767-3.178l-.11-5.369c.986-.11,1.972.548,2.849.767,1.644.657,2.3-.767,3.725-1.1,1.644-.548,4.273.11,6.136.329Z" transform="translate(1079.411 1082.113)" fill="#505d6f"/>
    <path id="Path_1694" data-name="Path 1694" d="M189.506,209.018a3.377,3.377,0,0,1,1.1.11,2.905,2.905,0,0,1,.657.548l3.835,4.383c.767.767,1.534,2.082.986,2.958a2.036,2.036,0,0,1-1.644.986,10.619,10.619,0,0,1-5.479-.986l-3.506-1.753a6.743,6.743,0,0,1-2.191-1.753c-.877-1.315-1.1-4.6.438-5.588.767-.548,1.424-.11,2.3.219a7.217,7.217,0,0,0,3.506.877Z" transform="translate(1078.001 1080.885)" fill="url(#linear-gradient-2)"/>
    <path id="Path_1695" data-name="Path 1695" d="M182.938,209.777l.329,1.1c.219.548.438.986.657,1.424a7.466,7.466,0,0,0,1.315,1.315,19.31,19.31,0,0,0,4.273,2.082,14.931,14.931,0,0,0,7.232.767,2.378,2.378,0,0,1-1.1,1.205A4.592,4.592,0,0,1,194,218.1a14.6,14.6,0,0,1-6.465-1.753l-2.3-.986a2.386,2.386,0,0,1-.877-.548,4.453,4.453,0,0,1-.986-1.1,4.818,4.818,0,0,1-.767-3.835c0-.219.329-.986.548-.986a1.181,1.181,0,0,0-.219.877Z" transform="translate(1077.994 1081.004)" fill="#473f47"/>
    <path id="Path_1696" data-name="Path 1696" d="M210.01,221.047a12.527,12.527,0,0,1,3.506.767,4.208,4.208,0,0,1,2.52,2.411,3.13,3.13,0,0,1,.11,1.753,4.365,4.365,0,0,1-1.863,1.863,24.322,24.322,0,0,1-12.929,2.849,5.564,5.564,0,0,1-3.178-1.1,4.618,4.618,0,0,1-.767-3.178l-.11-5.369c.986-.11,1.972.548,2.849.767,1.644.657,2.3-.767,3.725-1.1,1.644-.548,4.273.11,6.136.329Z" transform="translate(1079.411 1082.113)" fill="url(#linear-gradient-3)"/>
    <path id="Path_1697" data-name="Path 1697" d="M198.363,167.986a6.275,6.275,0,0,1,3.068,1.534c.986,1.1.986,2.739.986,4.164a89.748,89.748,0,0,1-5.807,31.337,2.145,2.145,0,0,1-3.178,1.644c-2.411-.657-4.6-1.424-6.9-2.3l2.958-20.38a3.2,3.2,0,0,0-.11-1.753,1.7,1.7,0,0,0-.877-.877,94.152,94.152,0,0,0-10.847-6.793c-3.068-1.534-6.574-3.4-7.341-6.793a3.562,3.562,0,0,1,.657-3.287,5.394,5.394,0,0,1,1.644-1.1c2.082-.986,4.492-2.3,6.9-2.082,1.863.219,2.52,1.205,4.054,2.082,4.383,2.411,10.19,3.178,14.792,4.6Z" transform="translate(1076.813 1076.445)" fill="#fff"/>
    <path id="Path_1698" data-name="Path 1698" d="M187.6,204.634c-.219-.11.657-4.931.767-5.369.219-.877.877-5.15,1.644-2.3a10.856,10.856,0,0,1,.219,1.972l.438,2.3a10.772,10.772,0,0,0,.548,1.753,8.464,8.464,0,0,0,1.863,2.082,2.4,2.4,0,0,0,.548.329c.329,0,.548-.329.657-.548a6.985,6.985,0,0,0,.438-2.63c.11-5.15,2.739-9.642,2.63-14.9,0-1.205-1.205-2.849-1.753-4.054a13.41,13.41,0,0,1-.986-2.958c-.657-3.506,1.424-6.9,1.753-10.409l-7.013,3.4-4.054,30.68,2.3.657Z" transform="translate(1078.263 1077.271)" fill="url(#linear-gradient-4)"/>
    <path id="Path_1699" data-name="Path 1699" d="M173.629,168.764l-4.273,2.191a10.179,10.179,0,0,0-1.1.548,30.155,30.155,0,0,1-14.244,2.082c-.548-.11-.986-.11-1.424-.219a12.493,12.493,0,0,1-7.232-3.945c-2.3-2.63-2.739-6.465-2.958-10.08v-.986a67.56,67.56,0,0,1,.986-13.258,34.172,34.172,0,0,1,5.807-14.463,22.5,22.5,0,0,1,7.78-6.574c3.178-1.644,7.013-2.411,10.409-1.315a16.481,16.481,0,0,1,4.821,2.849,8.12,8.12,0,0,1,1.424,1.315,6.032,6.032,0,0,1,1.1,2.739c1.424,6.136-.548,12.382-2.082,18.517-.767,3.506-1.424,7.232.11,10.519,2.082,4.492,7.67,6.355.877,10.081Z" transform="translate(1074.154 1072.709)" fill="#071932"/>
    <path id="Path_1700" data-name="Path 1700" d="M173.631,167.963c-.11,1.424-1.972,1.972-3.287,2.082l-.877.11a50.684,50.684,0,0,1-15.23-1.424,3.949,3.949,0,0,0-1.972-.11c-.11,0-.219.11-.329.11v.329a3.562,3.562,0,0,0,.657,3.287,12.493,12.493,0,0,1-7.232-3.945c-2.3-2.63-2.739-6.465-2.958-10.081v-.986a63.246,63.246,0,0,1,.219-7.889,37.291,37.291,0,0,1,.986-7.013,23.891,23.891,0,0,1,7.56-10.957,6.651,6.651,0,0,1,1.1-.767,3.117,3.117,0,0,1,2.739.548,4.723,4.723,0,0,1,1.863,1.424,5.125,5.125,0,0,1,.986,3.068,19.2,19.2,0,0,1-.438,4.383,42.454,42.454,0,0,1-1.424,6.465,15.515,15.515,0,0,0-.767,2.411,5.906,5.906,0,0,0,.548,3.068,18.429,18.429,0,0,1,.767,2.63,14.581,14.581,0,0,0,2.958,5.04,19.073,19.073,0,0,0,10.409,5.588,9.88,9.88,0,0,1,2.411.657,2.106,2.106,0,0,1,1.315,1.972Z" transform="translate(1074.152 1073.51)" fill="url(#linear-gradient-5)"/>
    <path id="Path_1701" data-name="Path 1701" d="M159.22,131.835a6.568,6.568,0,0,0,4.492,2.411.924.924,0,0,0,.767-.219,1.661,1.661,0,0,0,.438-.877,17.915,17.915,0,0,0,.219-2.411,20.832,20.832,0,0,1,.329-2.739,10.192,10.192,0,0,1,2.3-5.588,2.243,2.243,0,0,1,.877-.877c2.191-1.972-6.684-1.205-7.78-3.835-1.315,1.753-1.205,4.164-1.863,6.246a15.305,15.305,0,0,0-.986,3.178,5.3,5.3,0,0,0,1.205,4.712Z" transform="translate(1075.635 1072.275)" fill="#fdb9a9"/>
    <path id="Path_1702" data-name="Path 1702" d="M164.729,130.745l.11-.438.329-2.739a10.192,10.192,0,0,1,2.3-5.588l.11-.219s-7.013-4.6-7.67.767c-.877,5.369,4.821,8.218,4.821,8.218Z" transform="translate(1075.823 1072.488)" fill="#e8a090"/>
    <path id="Path_1703" data-name="Path 1703" d="M172.363,119.966a5.748,5.748,0,0,1-.657,3.287,4.185,4.185,0,0,1-.986.986c-2.739,2.082-7.013,1.644-9.642-.548a12.408,12.408,0,0,1-4.273-9.2,7.133,7.133,0,0,1,1.424-5.15,5.816,5.816,0,0,1,5.259-1.424,14.678,14.678,0,0,1,6.684,3.835c1.644,1.863,2.082,5.588,2.191,8.218Z" transform="translate(1075.53 1071.324)" fill="#fdb9a9"/>
    <path id="Path_1704" data-name="Path 1704" d="M197.987,181.761a25.8,25.8,0,0,1,3.4,6.136,122.275,122.275,0,0,1,8.437,33.638,44.009,44.009,0,0,1-10.738,0,106.162,106.162,0,0,0-3.725-24.215,14.85,14.85,0,0,0-1.972-4.712c-1.644-2.411-4.164-3.725-6.793-5.04a102.63,102.63,0,0,0-18.079-6.9c-2.63-.767-5.259-1.424-7.889-2.3a18.2,18.2,0,0,1-6.136-3.178,8.549,8.549,0,0,1-3.287-5.917c0,.657,13.039,0,14.244-.219,4.054-.438,8.875-2.849,12.929-1.1,3.178,1.315,6.026,4.054,8.875,5.917,3.616,2.411,8,4.6,10.738,7.889Z" transform="translate(1074.999 1077.023)" fill="#fff"/>
    <path id="Path_1705" data-name="Path 1705" d="M178.991,181.409,156.2,170.123l26.3-9.423,20.709,9.094Z" transform="translate(1075.478 1076.391)" fill="#505d6f"/>
    <path id="Path_1706" data-name="Path 1706" d="M178.765,179.512,159.7,170.2l22.024-8,17.312,7.67Z" transform="translate(1075.813 1076.533)" fill="url(#linear-gradient-6)"/>
    <path id="Path_1707" data-name="Path 1707" d="M148.137,136a4.11,4.11,0,0,0-.11,1.1c-.657,5.7-.11,11.5.11,17.2.11,3.616.657,10.409,4.273,12.162,7.013,3.4,20.38,2.191,20.38,2.191a11.415,11.415,0,0,1,4.712.219,22.309,22.309,0,0,0,2.411.986c2.958,1.1,6.246.657,9.314,0a4.319,4.319,0,0,0,1.534-.548c1.205-.767,1.1-2.739.219-3.945a8.406,8.406,0,0,0-3.725-2.082,22.575,22.575,0,0,0-12.053-.548,8.07,8.07,0,0,1-1.534.438,10.63,10.63,0,0,1-1.863.11h-4.712c-5.479.11-10.519.11-11.4-6.465a31.966,31.966,0,0,1-.219-7.232c.329-4.273,1.424-8.766,1.205-13.039a10.5,10.5,0,0,0-.986-4.054,4.141,4.141,0,0,0-3.287-2.191,4.2,4.2,0,0,0-3.4,2.3,17.291,17.291,0,0,0-.877,3.4Z" transform="translate(1074.665 1073.48)" fill="#fdb9a9"/>
    <path id="Path_1711" data-name="Path 1711" d="M158.748,108.536a10.237,10.237,0,0,0-.657,3.725,3.935,3.935,0,0,0,.219,1.972,9.477,9.477,0,0,0,.767,1.1,1.881,1.881,0,0,0,1.644-.657.569.569,0,0,0,.219-.438,1.12,1.12,0,0,0-.438-1.1,5.13,5.13,0,0,1-.438-3.835c.219-.767,1.424-2.52-.219-2.3a3.464,3.464,0,0,0-1.1,1.534ZM180.114,259.3h-.986a.548.548,0,0,1,0-1.1h.986a.548.548,0,0,1,0,1.1Zm5.15,0a.548.548,0,0,1,0-1.1h.986a.548.548,0,0,1,0,1.1Zm-11.286-.11h-.986a.548.548,0,1,1,0-1.1h.986a.548.548,0,1,1,0,1.1Zm17.422,0a.548.548,0,0,1,0-1.1h.986a.548.548,0,0,1,0,1.1Zm-23.558-.329-.986-.11a.587.587,0,0,1-.548-.548.515.515,0,0,1,.548-.548l.986.11a.515.515,0,0,1,.548.548C168.281,258.648,168.171,258.867,167.842,258.867Zm29.694,0a.548.548,0,0,1,0-1.1l.986-.11a.548.548,0,1,1,0,1.1Zm-35.83-.438-.986-.11a.587.587,0,0,1-.548-.548.483.483,0,0,1,.657-.438l.986.11a.515.515,0,0,1,.548.548A.6.6,0,0,1,161.706,258.428Zm41.966,0a.548.548,0,1,1,0-1.1l.986-.11a.5.5,0,0,1,.11.986Zm-48.1-.438-1.1-.11a.483.483,0,0,1-.438-.657c.11-.329.329-.548.657-.438l.986.11a.515.515,0,0,1,.548.548A.614.614,0,0,1,155.571,257.99Zm54.347,0a.548.548,0,0,1,0-1.1l.986-.11a.559.559,0,1,1,.219,1.1l-.986.11h-.219Zm-60.483-.767-1.1-.11a.483.483,0,0,1-.438-.657c.11-.329.329-.548.657-.438l.986.11c.329,0,.548.329.438.548A1.32,1.32,0,0,1,149.435,257.223Zm66.509,0a.548.548,0,0,1,0-1.1l.986-.11a.559.559,0,1,1,.219,1.1Zm-72.536-.877-1.1-.219a.548.548,0,1,1,0-1.1h.11l.986.219a.483.483,0,0,1,.438.657C143.737,256.127,143.518,256.237,143.408,256.347Zm78.672,0a.548.548,0,0,1,0-1.1l.986-.219a.559.559,0,1,1,.219,1.1Zm-84.7-1.1-1.1-.219a.6.6,0,0,1-.438-.657c0-.329.329-.438.657-.438l.986.219a.6.6,0,0,1,.438.657.4.4,0,0,1-.548.219Zm90.725,0a.728.728,0,0,1-.548-.438.6.6,0,0,1,.438-.657l.986-.219a.6.6,0,0,1,.657.438.532.532,0,0,1-.329.657l-.986.219Zm-96.861-1.315-1.1-.219c-.329-.11-.548-.329-.438-.657s.329-.548.657-.438l.986.219a.6.6,0,0,1,.438.657A.728.728,0,0,1,131.246,253.936Zm102.777-.11a.5.5,0,1,1-.11-.986l.986-.219c.329-.11.548.11.657.438s-.11.548-.438.657l-1.1.11Zm-108.8-1.424-1.1-.219a.559.559,0,1,1,.219-1.1l.986.329a.6.6,0,0,1,.438.657A.506.506,0,0,1,125.219,252.4Zm114.83,0a.74.74,0,0,1-.657-.438c-.11-.219.219-.548.438-.657l.986-.219a.483.483,0,0,1,.657.438c0,.329-.11.657-.438.657ZM119.3,250.758l-1.1-.329a.459.459,0,0,1-.329-.657.488.488,0,0,1,.657-.329l.986.329a.483.483,0,0,1,.438.657C119.96,250.649,119.631,250.868,119.3,250.758Zm126.664,0a.559.559,0,0,1-.548-.438.532.532,0,0,1,.329-.657l.986-.329a.52.52,0,1,1,.329.986ZM113.5,248.9h-.219l-.986-.329a.6.6,0,0,1-.438-.657c0-.329.329-.438.657-.438h.11l.877.329a.488.488,0,0,1,.329.657C113.824,248.677,113.6,248.786,113.5,248.9Zm138.388-.11a.515.515,0,0,1-.548-.548.559.559,0,0,1,.438-.548l.877-.329a.488.488,0,0,1,.657.329.532.532,0,0,1-.329.657Zm-144.2-1.972h-.219l-.877-.438a.52.52,0,0,1,.329-.986l.877.438a.488.488,0,0,1,.329.657C108.126,246.7,107.907,246.923,107.688,246.814Zm150,0a.6.6,0,0,1-.548-.329.459.459,0,0,1,.329-.657l.877-.438a.52.52,0,1,1,.329.986l-.986.438Zm-155.59-2.3h-.219l-.877-.438c-.219-.11-.438-.438-.329-.657a.471.471,0,0,1,.767-.219l.877.438a.471.471,0,0,1,.219.767c-.219,0-.329.11-.438.11Zm161.179-.11a.6.6,0,0,1-.548-.329.527.527,0,0,1,.219-.657l.877-.438a.726.726,0,0,1,.767.219.677.677,0,0,1-.219.767l-.877.438Zm-166.767-2.52h-.219l-.877-.548a.629.629,0,0,1-.219-.767.527.527,0,0,1,.657-.219l.877.548a.527.527,0,0,1,.219.657A.587.587,0,0,1,96.512,241.883Zm172.355-.11c-.329.11-.548-.11-.657-.438s.11-.548.438-.657l.877-.548a.564.564,0,0,1,.548.986l-.877.548a.4.4,0,0,0-.329.11ZM91.033,238.925a.4.4,0,0,1-.329-.11l-.767-.548a.541.541,0,0,1-.11-.767.413.413,0,0,1,.657-.11l.767.548a.629.629,0,0,1,.219.767c0,.11-.219.11-.438.219Zm183.2-.219a.569.569,0,0,1-.438-.219.578.578,0,0,1,.219-.767l.767-.548a.726.726,0,0,1,.767.219.527.527,0,0,1-.219.657l-.767.548a.4.4,0,0,1-.329.11ZM85.993,235.418a.4.4,0,0,1-.329-.11l-.767-.657a.541.541,0,0,1-.11-.767.527.527,0,0,1,.657-.219l.11.11.767.657a.541.541,0,0,1,.11.767c-.219.219-.219.219-.438.219Zm193.392-.11a.515.515,0,0,1-.548-.548.569.569,0,0,1,.219-.438l.767-.657a.548.548,0,1,1,.657.877,4.765,4.765,0,0,0-.767.657.4.4,0,0,1-.329.11ZM81.172,231.584c-.11,0-.219-.11-.329-.11l-.877-.657a.542.542,0,0,1,.767-.767l.767.767a.675.675,0,0,1,.11.767h-.438Zm203.035-.219a.833.833,0,0,1-.438-.219.53.53,0,0,1,0-.767l.767-.767a.542.542,0,0,1,.767.767v.11l-.767.767a.848.848,0,0,1-.329.11ZM76.789,227.31a.833.833,0,0,1-.438-.219l-.767-.767a.53.53,0,0,1,0-.767.541.541,0,0,1,.767.11l.657.767a.53.53,0,0,1,0,.767C77.008,227.31,76.9,227.31,76.789,227.31Zm211.691-.219a.515.515,0,0,1-.548-.548.4.4,0,0,1,.11-.329l.657-.767a.548.548,0,0,1,.877.657l-.767.767c-.11.11-.11.219-.329.219ZM73.173,222.27a.569.569,0,0,1-.438-.219l-.548-.877a.726.726,0,0,1,.219-.767.527.527,0,0,1,.657.219,6.115,6.115,0,0,0,.548.877.578.578,0,0,1-.219.767Zm218.813-.219a.4.4,0,0,1-.329-.11.629.629,0,0,1-.219-.767,6.115,6.115,0,0,1,.548-.877.564.564,0,0,1,.986.548,6.117,6.117,0,0,1-.548.877c0,.219-.219.329-.438.329ZM70.544,216.682a.6.6,0,0,1-.548-.329l-.329-.986a.559.559,0,0,1,1.1-.219l.329.877a.459.459,0,0,1-.329.657Zm224.072-.11c-.438-.11-.548-.438-.438-.657l.329-.877a.559.559,0,1,1,1.1.219l-.329.986A.947.947,0,0,1,294.616,216.572ZM69.448,210.765a.515.515,0,0,1-.548-.548v-.986a.548.548,0,1,1,1.1,0v.986a.515.515,0,0,1-.548.548Zm226.264-.329a.587.587,0,0,1-.548-.548V208.9a.548.548,0,0,1,1.1,0v.986a.515.515,0,0,1-.548.548Zm0-2.52a.515.515,0,0,1-.548-.548,2.721,2.721,0,0,0-.11-.986.7.7,0,0,1,.548-.657.5.5,0,0,1,.548.438c0,.329.11.767.11.986,0,.438-.219.767-.548.767ZM70,204.629c-.438,0-.548-.329-.548-.657a4.066,4.066,0,0,0,.219-.986.6.6,0,0,1,.657-.438.459.459,0,0,1,.329.657,3.388,3.388,0,0,0-.219.877c-.11.438-.329.548-.438.548ZM294.506,202a.6.6,0,0,1-.548-.329l-.329-.877a.52.52,0,1,1,.986-.329,3.893,3.893,0,0,0,.438.986.459.459,0,0,1-.329.657.339.339,0,0,0-.219-.11ZM71.968,198.931h-.219a.527.527,0,0,1-.219-.657,2.386,2.386,0,0,1,.548-.877.564.564,0,1,1,.986.548l-.438.877C72.3,198.822,72.187,198.931,71.968,198.931Zm219.908-2.52a.569.569,0,0,1-.438-.219l-.548-.767a.541.541,0,0,1,.11-.767.675.675,0,0,1,.767.11l.548.877a.578.578,0,0,1-.219.767h-.219ZM75.255,193.672a.4.4,0,0,1-.329-.11.541.541,0,0,1-.11-.767l.657-.767a.53.53,0,0,1,.767,0,.515.515,0,0,1,.11.657l-.657.767c-.219.219-.329.329-.438.219Zm213.005-2.191a.833.833,0,0,1-.438-.219,5.063,5.063,0,0,0-.767-.767.542.542,0,1,1,.767-.767l.767.767a.53.53,0,0,1,0,.767c-.11.219-.219.219-.329.219ZM79.309,189.07a.515.515,0,0,1-.548-.548c0-.11,0-.329.11-.329l.767-.767a.542.542,0,0,1,.767.767l-.767.767c0,.11-.219.11-.329.11Zm204.569-1.863a.4.4,0,0,1-.329-.11l-.767-.657a.548.548,0,1,1,.657-.877l.767.767a.53.53,0,0,1,0,.767,1.1,1.1,0,0,0-.329.11ZM83.911,185.016a.515.515,0,0,1-.548-.548.833.833,0,0,1,.219-.438l.767-.657a.548.548,0,0,1,.657.877l-.767.657a.4.4,0,0,1-.329.11Zm195.145-1.753a.4.4,0,0,1-.329-.11l-.767-.657a.548.548,0,1,1,.657-.877l.767.657a.541.541,0,0,1,.11.767.679.679,0,0,1-.438.219ZM88.952,181.4a.515.515,0,0,1-.548-.548.569.569,0,0,1,.219-.438l.767-.548a.578.578,0,0,1,.767.219c.219.329.11.548-.219.767l-.767.548Zm184.955-1.424c-.11,0-.219,0-.219-.11l-.877-.548a.564.564,0,0,1,.548-.986l.877.548a.629.629,0,0,1,.219.767,1,1,0,0,1-.548.329Zm-179.7-1.644a.515.515,0,0,1-.548-.548c0-.219.11-.438.329-.438l.877-.548a.564.564,0,1,1,.548.986l-.877.548C94.32,178.223,94.211,178.332,94.211,178.332Zm174.217-1.315c-.11,0-.219,0-.219-.11l-.877-.438a.517.517,0,1,1,.548-.877l.877.548a.629.629,0,0,1,.219.767C268.757,176.908,268.648,177.017,268.428,177.017ZM99.689,175.483c-.219,0-.438-.11-.438-.329a.726.726,0,0,1,.219-.767l.877-.438a.545.545,0,0,1,.438.986l-.877.438C99.909,175.483,99.8,175.483,99.689,175.483Zm163.26-1.1h-.219l-.877-.438a.529.529,0,0,1-.219-.767.781.781,0,0,1,.657-.329l.877.438a.6.6,0,0,1,.438.657C263.388,174.388,263.169,174.5,262.95,174.388Zm-157.563-1.315a.6.6,0,0,1-.548-.329.459.459,0,0,1,.329-.657l.877-.438a.459.459,0,0,1,.657.329.488.488,0,0,1-.329.657Zm151.865-1.1h-.219l-.877-.438a.6.6,0,0,1-.438-.657c0-.329.329-.438.657-.438h.11l.877.438a.488.488,0,0,1,.329.657c-.11.219-.329.329-.438.438Zm-146.167-1.1a.6.6,0,0,1-.548-.329.459.459,0,0,1,.329-.657l.986-.329a.459.459,0,0,1,.657.329.532.532,0,0,1-.329.657l-.877.329Zm140.36-.986h-.219l-.877-.329a.59.59,0,0,1,.438-1.1l.986.329a.488.488,0,0,1,.329.657C251.774,169.676,251.664,169.9,251.445,169.9Zm-134.553-1.1a.559.559,0,1,1-.219-1.1l.986-.329a.532.532,0,0,1,.657.329.459.459,0,0,1-.329.657Zm128.636-.767-1.1-.329a.566.566,0,0,1-.329-.767.459.459,0,0,1,.657-.329l.986.329a.459.459,0,0,1,.329.657A.559.559,0,0,1,245.528,168.033Zm-122.719-.986a.559.559,0,0,1-.219-1.1l.986-.329a.74.74,0,0,1,.657.438.781.781,0,0,1-.329.657Zm116.8-.657-1.1-.219a.559.559,0,1,1,.219-1.1l.986.219a.483.483,0,0,1,.438.657C240.05,166.279,239.94,166.5,239.611,166.389Zm-110.776-.877a.559.559,0,1,1-.219-1.1l.986-.219a.483.483,0,0,1,.657.438c0,.329-.11.657-.438.657Zm104.859-.548-1.1-.219a.6.6,0,0,1-.438-.657c0-.329.329-.438.657-.438l.986.219a.587.587,0,0,1,.548.548C234.133,164.855,234.023,165.074,233.694,164.965Zm-98.833-.767a.728.728,0,0,1-.548-.438c-.11-.329.11-.548.438-.657l.986-.219a.6.6,0,0,1,.657.438c.11.329-.11.548-.438.657Zm92.806-.548-1.1-.219a.559.559,0,1,1,.219-1.1l.986.219a.6.6,0,0,1,.438.657A.661.661,0,0,1,227.668,163.65Zm-86.78-.548a.548.548,0,0,1,0-1.1l.986-.219a.559.559,0,0,1,.219,1.1Zm80.644-.438-1.1-.219a.483.483,0,0,1-.438-.657c.11-.329.329-.548.657-.438l.986.11c.329.11.548.329.438.657a.515.515,0,0,1-.548.548Zm-74.508-.548a.5.5,0,0,1-.548-.438.515.515,0,0,1,.548-.548l.986-.11a.6.6,0,0,1,.657.438.74.74,0,0,1-.438.657Zm68.482-.329-1.1-.11a.483.483,0,0,1-.438-.657c0-.329.329-.548.548-.438l.986.11c.329,0,.548.329.438.548a.5.5,0,0,1-.438.548Zm-6.136-.767-.986-.11a.559.559,0,1,1,.219-1.1l.986.11a.548.548,0,0,1,0,1.1h-.219Zm-6.136-.657-.986-.11a.548.548,0,0,1,0-1.1l.986.11a.515.515,0,0,1,.548.548C203.672,160.253,203.563,160.363,203.234,160.363Zm-6.136-.329h-.986a.548.548,0,0,1,0-1.1l.986.11a.515.515,0,0,1,.548.548C197.646,159.924,197.317,160.143,197.1,160.034Zm-6.246-.329h-.986a.548.548,0,1,1,0-1.1h.986a.548.548,0,1,1,0,1.1Zm-6.136-.11h-.986a.548.548,0,1,1,0-1.1h.986a.548.548,0,1,1,0,1.1Z" transform="translate(1067.122 1071.25)" fill="#828b98"/>
    <path id="Path_1708" data-name="Path 1708" d="M209.762,150.1l-28.927,15.011L177,182.423l24.215-11.615Z" transform="translate(1077.468 1075.375)" fill="#505d6f"/>
    <path id="Path_1709" data-name="Path 1709" d="M174.364,108.168c-.11-.219-.329-.329-.438-.438a1.172,1.172,0,0,0,.657-.986c-.11-.438-.438-.438-.767-.657s-.11-.438-.438-.767a.947.947,0,0,0-.657-.329l-2.191-.548c0-.329.11-.657-.11-.767-.219-.219-.767,0-1.205-.11-.657-.11-.767-.767-1.315-1.205-.877-.877-1.644,0-2.411.219s-1.205-.767-2.3-.877a4.77,4.77,0,0,0-2.411.329,10.972,10.972,0,0,0-2.3,1.1,5.557,5.557,0,0,0-.986,1.753,1.11,1.11,0,0,0-1.644.219l-.11.11c-.219.438-.11.877-.438,1.315h-.657c-.219.11-.438.11-.657.329a1.744,1.744,0,0,0-.548,1.1.827.827,0,0,0-.877.11,1.749,1.749,0,0,0,.329-.877.726.726,0,0,0-.219-.767.333.333,0,0,0-.548.329.8.8,0,0,0-.438-1.1,1.237,1.237,0,0,0-1.205.329c-.11-.11.11-.438.11-.657,0-.11-.11-.11-.11-.219a3.592,3.592,0,0,0-.877-.657,1.03,1.03,0,0,0-.986.11c-.11-.767-.767-1.972-1.753-1.753-.329.11-.548.438-.438.657a3.561,3.561,0,0,0-2.63-1.1c-.329,0-.767.329-.657.657a4.331,4.331,0,0,0-3.068-.767c-.219,0-.438.11-.438.329-.11.219.219.438.329.219a1.319,1.319,0,0,0-1.424.657,1.558,1.558,0,0,0,.11,2.191c.657.548,1.863,0,1.644-.767a1.4,1.4,0,0,0,1.972.329,1.607,1.607,0,0,0,1.863,1.205.837.837,0,0,0,.548-.219,2.272,2.272,0,0,0,1.644,1.644,4.5,4.5,0,0,0,2.411,0,1.849,1.849,0,0,1-1.534.438.936.936,0,0,0-.767,0,1.473,1.473,0,0,0-.767.657l-.11.11a.936.936,0,0,1-.767,0,1.867,1.867,0,0,0-1.1,0,.72.72,0,0,0-.548.877,1.821,1.821,0,0,0-2.082,1.315v.548a.887.887,0,0,0-1.205.438,1.557,1.557,0,0,0-.219.657,4.494,4.494,0,0,0-.11,1.205c0,.219,0,.329.11.438a.569.569,0,0,0,.438.219,1.457,1.457,0,0,0-.329.877c0,.11.11.219.219.329.219.219.438.438.657.438a.678.678,0,0,0,.767-.219c.329-.219.329-.767.548-.986a.805.805,0,0,0,.219.657,1.557,1.557,0,0,0,.657.219c.11,0,.11,0,.219-.11a.383.383,0,0,0,.11-.219,1.832,1.832,0,0,0,.11-1.315,1.043,1.043,0,0,0,.767.219c.329-.11.438-.329.548-.657v-.438c0-.219.329-.329.548-.438.219-.219.438-.329.657-.548.11-.11.986-1.1.877-1.205a1.178,1.178,0,0,0,1.534-.219,1.408,1.408,0,0,0,1.644.657,20.65,20.65,0,0,0-2.849,2.411,6.3,6.3,0,0,0-1.424,3.4,3.311,3.311,0,0,0,.548,1.753,1.56,1.56,0,0,0,1.753.548.643.643,0,0,0-.767-.548h-.11a1.082,1.082,0,0,0-.767.767,1.625,1.625,0,0,0,0,1.424.921.921,0,0,0,1.205.438,2.292,2.292,0,0,0,.438-.657l1.1-1.205a1.178,1.178,0,0,0,.219-1.534c.657-.329.548-1.1.219-1.753a5.059,5.059,0,0,1-.986-1.644h2.191l.986-.877a3.541,3.541,0,0,0,2.958.438,2.353,2.353,0,0,0,1.205,2.52.728.728,0,0,0-.438.548.35.35,0,0,0,.329.329h.548c.11.11-.11.329-.11.548a.236.236,0,0,0,.219.219c.219.11.438.329.657.329a.333.333,0,0,0,0,.438l.329.329a4.579,4.579,0,0,0,1.1.438,1.39,1.39,0,0,0,.11.657.6.6,0,0,0,.548.329c.11,0,.219-.11.329-.11a.107.107,0,0,1,.11.11,1.766,1.766,0,0,1,.438.767c0,.11.11.219.11.329a1.513,1.513,0,0,0,.438.329.7.7,0,0,0,.657,0,.659.659,0,0,0,.11-.438c-.11-.11-.11-.329-.219-.438a.4.4,0,0,0,.329-.11v-.329a1.965,1.965,0,0,0-.548-.767v-.11a.107.107,0,0,1,.11-.11c.219-.219,0-.548-.11-.767s-.329-.548-.219-.767c.11-.11.11-.219.219-.329s.11-.438.219-.548.329,0,.438.11.11.329.219.438c.219.219.438.329.657.548a2.39,2.39,0,0,1,.438.548c.11.219.438.219.657.11.11-.11.219-.219.219-.329a1,1,0,0,0-.329-.767l-.219-.219a.205.205,0,0,1,0-.329c.11,0,.219,0,.219-.11v-.11a.383.383,0,0,0-.11-.219l-.11-.11v-.11c.11-.219.219-.329.329-.548a.629.629,0,0,0-.219-.767.91.91,0,0,0,1.315-.219,7.369,7.369,0,0,0,.767-1.205c.329.219.767.219.877-.11.219-.329.219-.767-.11-.877h-.329a5.341,5.341,0,0,1,.767.329.853.853,0,0,0,.767-.329c.219-.329.11-.877.438-1.205l1.644,1.205a1.923,1.923,0,0,0,2.411-1.205v-.11a1.971,1.971,0,0,0,1.753.219,1.247,1.247,0,0,0,.438-1.534,1.276,1.276,0,0,0,1.1-1.205,6.205,6.205,0,0,0-.657-1.863Zm28.817,130.937s.986,2.082,8,.877c7.013-1.1,10.19-3.287,10.519-4.492a1.885,1.885,0,0,1-.767,2.739c-1.753.986-8.437,5.588-16.655,2.739,0,.11-.986-.11-1.1-1.863Z" transform="translate(1073.748 1070.74)"/>
    <path id="Path_1710" data-name="Path 1710" d="M157.605,115.6a.659.659,0,0,0-.438.11,1.658,1.658,0,0,0-.767,1.534,3.25,3.25,0,0,0,.767,1.644,2.9,2.9,0,0,0,.657.548,4.066,4.066,0,0,0,.986.219h.438a.734.734,0,0,0,.438-.767,3.951,3.951,0,0,0-.438-2.191,1.32,1.32,0,0,0-.548-.548A2.044,2.044,0,0,0,157.605,115.6Z" transform="translate(1075.496 1072.074)" fill="#fdb9a9"/>
    <circle id="Ellipse_73" data-name="Ellipse 73" cx="20.051" cy="20.051" r="20.051" transform="translate(1113.561 1253.635)" fill="#fff"/>
    <path id="Path_1712" data-name="Path 1712" d="M65.28,192.671H77.332v4.712H65.28V201h5.7v2.63h-5.7v4.054H59.911v-4.054H57.5V201h2.411V182.7H77.551v4.712H65.827c-.438,0-.657.11-.657.657v4.054l.11.548Z" transform="translate(1066.031 1078.496)" fill="#071932"/>
    <circle id="Ellipse_74" data-name="Ellipse 74" cx="20.051" cy="20.051" r="20.051" transform="translate(1167.25 1208.164)" fill="#fff"/>
    <path id="Path_1713" data-name="Path 1713" d="M130,146.7l-4.712,2.411c-1.753-2.739-4.164-4.164-7.451-3.725a8.08,8.08,0,0,0-5.917,4.164h9.533V152.5H111.041v2.52H121.45v2.958h-9.642a7.346,7.346,0,0,0,5.807,4.273,6.842,6.842,0,0,0,7.56-3.725L130,160.941c-.657.767-1.1,1.534-1.644,2.3a12.016,12.016,0,0,1-8.985,4.164,15.355,15.355,0,0,1-7.889-1.972,12.27,12.27,0,0,1-5.588-6.793c-.219-.548-.438-.767-.986-.767H103.7v-2.958h1.315V152.4H103.7v-3.068h1.534c.329.11.548-.11.657-.438a13.336,13.336,0,0,1,3.616-5.479,13.118,13.118,0,0,1,5.588-2.958,15.106,15.106,0,0,1,6.246-.438,11.333,11.333,0,0,1,7.56,4.492,8.442,8.442,0,0,1,.986,1.424,2.675,2.675,0,0,0,.11.767Z" transform="translate(1070.453 1074.395)" fill="#071932"/>
    <circle id="Ellipse_75" data-name="Ellipse 75" cx="20.051" cy="20.051" r="20.051" transform="matrix(0.267, -0.964, 0.964, 0.267, 1289.877, 1244.93)" fill="#fff"/>
    <path id="Path_1714" data-name="Path 1714" d="M225.439,169.664l-1.863-3.835a9.055,9.055,0,0,1,1.424-.767,6.425,6.425,0,0,0,2.739-3.178,4.318,4.318,0,0,0-.329-2.849c0-.11-.329-.219-.438-.219H222.7v-3.178h2.52a20.43,20.43,0,0,1-1.1-2.191,6.549,6.549,0,0,1,.657-6.465,9.144,9.144,0,0,1,6.026-4.054,11.55,11.55,0,0,1,7.889.877,8.841,8.841,0,0,1,3.616,3.616l-4.383,2.411c-.329-.548-.767-.986-1.1-1.534a3.957,3.957,0,0,0-4.164-.986,3.668,3.668,0,0,0-2.849,4.273l.329.877a20.1,20.1,0,0,0,1.424,2.63.837.837,0,0,0,.548.219h5.259v3.178H233a5.18,5.18,0,0,1-2.3,4.931l.767-.11a7.291,7.291,0,0,1,4.054.767,4.35,4.35,0,0,0,4.712-.548c.219-.219.438-.329.548-.548l2.191,4.383a6.421,6.421,0,0,1-2.411,1.534,8.762,8.762,0,0,1-6.246,0,8.48,8.48,0,0,1-1.753-.767,5.69,5.69,0,0,0-5.15.11l-1.972,1.424Z" transform="translate(1081.842 1074.658)" fill="#071932"/>
    <circle id="Ellipse_76" data-name="Ellipse 76" cx="20.051" cy="20.051" r="20.051" transform="translate(1330.948 1280.918)" fill="#fff"/>
    <path id="Path_1715" data-name="Path 1715" d="M266.124,217.742l1.315-2.191,4.164-7.013a.734.734,0,0,1,.767-.438h5.369l-7.232,11.176h6.246v2.849h-8.108v2.849h8.108v2.739h-8.108v4.054H263.6v-4.054H255.5v-2.739h8v-2.739h-8.108v-2.849h6.246L254.4,208.1h5.369a.781.781,0,0,1,.657.329l3.506,5.7,2.191,3.616Z" transform="translate(1084.876 1080.926)" fill="#071932"/>
    <circle id="Ellipse_77" data-name="Ellipse 77" cx="20.051" cy="20.051" r="20.051" transform="translate(1166.921 1301.627)" fill="#fff"/>
    <path id="Path_1716" data-name="Path 1716" d="M114.562,226.4V223h4.054v3.506a12.8,12.8,0,0,1,7.56,3.506L123,234.176a10.74,10.74,0,0,0-4.383-2.411v4.6l2.958.986a6.777,6.777,0,0,1,4.931,8.108,7.087,7.087,0,0,1-3.4,5.15,10.551,10.551,0,0,1-4.054,1.424c-.438,0-.438.219-.438.548v2.849h-4.054v-3.178L111.6,251.6a12.922,12.922,0,0,1-5.259-2.849c-.657-.657-.657-.657-.11-1.315l2.63-3.725a11.528,11.528,0,0,0,5.7,3.287v-5.369c-1.1-.438-2.3-.767-3.287-1.1a6.5,6.5,0,0,1-4.164-3.945A6.622,6.622,0,0,1,107.33,231a7.966,7.966,0,0,1,5.807-4.383A9.115,9.115,0,0,0,114.562,226.4Zm3.945,20.709a2.582,2.582,0,0,0,2.3-2.411c0-.877-.986-1.644-2.3-1.863Zm-3.945-11.615v-3.945a2.251,2.251,0,0,0-2.191,2.082c0,.767.877,1.644,2.191,1.863Z" transform="translate(1070.657 1082.354)" fill="#071932"/>
  </g>
</svg>
