<svg xmlns="http://www.w3.org/2000/svg" width="16" height="16.004" viewBox="0 0 16 16.004">
  <path id="download_icon" data-name="download icon" d="M2908,21949a2,2,0,0,1-2-2v-2.668a.667.667,0,0,1,1.333,0V21947a.665.665,0,0,0,.665.668h12a.666.666,0,0,0,.669-.668v-2.668a.667.667,0,0,1,1.333,0V21947a2.005,2.005,0,0,1-2,2Zm4.585-3.924-2.142-2.137a.673.673,0,0,1,0-.943.663.663,0,0,1,.945,0l1.939,1.941.007-10.277a.667.667,0,0,1,1.334,0l-.008,10.289,1.95-1.953a.667.667,0,0,1,.944.941l-2.142,2.139a2,2,0,0,1-2.829,0Z" transform="translate(-2906.002 -21933)" fill="#071932"/>
</svg>
