<svg id="linkedin" xmlns="http://www.w3.org/2000/svg" width="60" height="40" viewBox="0 0 60 40">
  <g id="Rectangle_2681" data-name="Rectangle 2681" fill="#fff" stroke="#071932" stroke-width="1">
    <rect width="60" height="40" rx="7" stroke="none"/>
    <rect x="0.5" y="0.5" width="59" height="39" rx="6.5" fill="none"/>
  </g>
  <path id="Union_58" data-name="Union 58" d="M2916.983,21950q-1.855-.015-3.71,0c-.173,0-.214-.045-.213-.215q.007-6.492,0-12.98c0-.176.052-.213.219-.213q1.769.012,3.539,0c.188,0,.231.055.228.234-.011.523,0,1.045,0,1.563a4.727,4.727,0,0,1,4.773-2.074,4.709,4.709,0,0,1,2.224.715,4.159,4.159,0,0,1,1.669,2.641,12.713,12.713,0,0,1,.287,2.986c.005,2.359,0,4.717.007,7.076,0,.209-.069.234-.248.234-1.228-.008-2.457-.012-3.685,0-.18,0-.228-.039-.228-.225q.009-3.366,0-6.734a7.088,7.088,0,0,0-.126-1.385,1.935,1.935,0,0,0-2.415-1.686,2.143,2.143,0,0,0-1.99,2.084,9.418,9.418,0,0,0-.1,1.4c0,2.111,0,4.225,0,6.338,0,.182-.032.244-.225.244Zm-6.731,0q-1.852-.015-3.705,0c-.165,0-.221-.031-.221-.209q.009-6.492,0-12.986c0-.166.048-.2.206-.2,1.251.008,2.5.014,3.754,0,.2,0,.222.066.222.24-.006,2.15,0,4.3,0,6.455s0,4.3,0,6.455c0,.2-.057.248-.249.248Zm-4.252-17.59a2.418,2.418,0,1,1,2.438,2.428h-.014A2.444,2.444,0,0,1,2906,21932.412Z" transform="translate(-2886 -21920)" fill="#071932"/>
</svg>
