<svg xmlns="http://www.w3.org/2000/svg" xmlns:xlink="http://www.w3.org/1999/xlink" width="270" height="200" viewBox="0 0 270 200">
  <defs>
    <linearGradient id="linear-gradient" x1="0.026" y1="-0.016" x2="2.226" y2="1.947" gradientUnits="objectBoundingBox">
      <stop offset="0.01"/>
      <stop offset="0.08" stop-opacity="0.69"/>
      <stop offset="0.21" stop-opacity="0.322"/>
      <stop offset="1" stop-opacity="0"/>
    </linearGradient>
    <linearGradient id="linear-gradient-2" x1="0.616" y1="-0.593" x2="0.099" y2="3.864" xlink:href="#linear-gradient"/>
  </defs>
  <g id="our_values" data-name="our values" transform="translate(-1135 -4722)">
    <path id="Path_1832" data-name="Path 1832" d="M341.527,232.528c-4.744,1.917-9.818,3.769-12.914,5.951l-73.27,51.637a167.387,167.387,0,0,1-17.527,11.174c-4.942,2.645-7.775,7.8-13.771,9.124a24.033,24.033,0,0,1-8.961-.132,81.037,81.037,0,0,1-14.166-3.636c-.593-.2-1.384-.331-1.647.264-42.7-5.818-83.549-21.422-125.85-29.488a2.319,2.319,0,0,1-1.845-2.711,2.154,2.154,0,0,1,1.45-1.719,56.319,56.319,0,0,1,10.938-2.711l20.294-3.57a345.279,345.279,0,0,1,41.247-4.628c23-.992,46.123,1.521,68.855-2.116,21.546-3.372,41.906-12.033,62-20.695,4.876-2.116,9.752-4.232,13.573-7.934,2.965-2.843,5.337-6.678,9.159-8.529,3.822-1.917,8.763-1.587,12.98-1.388a198.153,198.153,0,0,1,25.038,3.372c1.581,2.579,3.031,5.157,4.415,7.736Z" transform="translate(1063.473 4611.227)" fill="#d4d5d6"/>
    <path id="Path_1833" data-name="Path 1833" d="M76.925,262.218l96.2-41.852a11.375,11.375,0,0,1,6.744-1.124L298.88,229.358c2.248.331,1.851,10.116,0,11.7l-70.282,59.9a17.693,17.693,0,0,1-15.736,3.9L77.785,272C76,271.54,75.272,263.011,76.925,262.218Z" transform="translate(1061.957 4611.951)" fill="#fc5b3f"/>
    <path id="Path_1834" data-name="Path 1834" d="M76.925,262.218l96.2-41.852a11.375,11.375,0,0,1,6.744-1.124L298.88,229.358c2.248.331,1.851,10.116,0,11.7l-70.282,59.9a17.693,17.693,0,0,1-15.736,3.9L77.785,272C76,271.54,75.272,263.011,76.925,262.218Z" transform="translate(1061.957 4611.951)" fill="#020b19"/>
    <path id="Path_1835" data-name="Path 1835" d="M299.1,232.932l-70.282,59.836a17.724,17.724,0,0,1-15.736,3.967L77.876,263.875c-1.719-.4-1.917-3.174-.331-3.967l76.431-43.042a11.291,11.291,0,0,1,6.744-1.124l137.193,11.967C300.161,227.973,300.955,231.345,299.1,232.932Z" transform="translate(1061.801 4613.137)" fill="#9ba3ad"/>
    <path id="Path_1836" data-name="Path 1836" d="M182.418,220.8l125.358,18.513L269.23,270.652,140.5,244.6Z" transform="translate(1039.693 4611.385)" fill="#071932"/>
    <path id="Path_1837" data-name="Path 1837" d="M256.553,257.614a47.4,47.4,0,0,0,15.075-6.017c1.256-.793,2.711-2.314,1.917-3.636-.529-.992-1.785-1.256-2.116-2.248,1.719-.661,3.57-.4,5.091-1.719s1.719-3.9.066-4.893a7.9,7.9,0,0,0,3.636-1.19,2.889,2.889,0,0,0,1.058-3.372c-.6-1.256-2.182-1.587-3.5-1.785a23.334,23.334,0,0,0-5.686-.463,15.848,15.848,0,0,0-6.215,1.917c-1.785.992-3.24,2.645-5.025,3.57-3.636,1.851-8.4,1.653-12.364,2.512-2.909.661-5.752,1.719-8.6,2.579s-5.62,1.521-8.463,2.116l-20.628,4.3c.463,3.041,3.7,4.76,6.612,5.951a61.727,61.727,0,0,0,12.43,3.9,51.877,51.877,0,0,0,10.116.463A92.533,92.533,0,0,0,256.553,257.614Z" transform="translate(1015.855 4607.496)" fill="url(#linear-gradient)"/>
    <path id="Path_1838" data-name="Path 1838" d="M169.261,268.6l51.7,10.446-26.711,21.819-53.753-12.1Z" transform="translate(1039.88 4595.189)" fill="#071932"/>
    <path id="Path_1839" data-name="Path 1839" d="M144.9,304.8a8.089,8.089,0,0,0,5.355,4.364l25.918,6.612s3.57.4,5.62-1.917Z" transform="translate(1038.419 4582.924)" fill="url(#linear-gradient-2)"/>
    <path id="Path_1840" data-name="Path 1840" d="M197.9,161.028l141.49,20.166a4.119,4.119,0,0,0,4.628-3.24L364.184,76a7.815,7.815,0,0,0-6.215-9.256c-.264-.066-.6-.066-.86-.132L217.4,54.183a7.838,7.838,0,0,0-8.529,7.008Z" transform="translate(1019.724 4667.852)" fill="#fc5b3f"/>
    <path id="Path_1841" data-name="Path 1841" d="M197.9,161.028l141.16,20.1a4.49,4.49,0,0,0,5.025-3.57L364.184,76a7.815,7.815,0,0,0-6.215-9.256c-.264-.066-.6-.066-.86-.132L217.4,54.183a7.838,7.838,0,0,0-8.529,7.008Z" transform="translate(1019.724 4667.852)" fill="#020b19"/>
    <path id="Path_1842" data-name="Path 1842" d="M339.555,177.9l20.1-102.878L217.106,61.8,205.8,159.256Z" transform="translate(1017.047 4665.26)" fill="#fff"/>
    <path id="Path_1843" data-name="Path 1843" d="M188.944,299.833a1.966,1.966,0,0,0,.529,1.521,1.4,1.4,0,0,0,.661.264,6.4,6.4,0,0,0,1.917.132,22.169,22.169,0,0,0,3.57-.529l2.05-.4a.814.814,0,0,0,.661-.331.7.7,0,0,0-.132-.793,2.575,2.575,0,0,0-1.322-.86,19.185,19.185,0,0,0-3.769-1.19,1.188,1.188,0,0,1-.6-.264c-.264-.2-.331-.6-.463-.926a1.382,1.382,0,0,0-1.587-.6c-.6.132-1.455.529-1.587,1.19a13.007,13.007,0,0,0,.066,2.777Z" transform="translate(1023.449 4585.973)" fill="#fdb9a9"/>
    <path id="Path_1844" data-name="Path 1844" d="M195.173,298.974a1.183,1.183,0,0,0-1.19.331c-.331.529.132,1.256-.331,1.719a1.185,1.185,0,0,1-.926.264h-2.248a8.124,8.124,0,0,1-1.785-.132.838.838,0,0,0-.4-.066.7.7,0,0,0-.4.463,1.831,1.831,0,0,0,.066.6,3.676,3.676,0,0,0,.6,1.124.516.516,0,0,0,.264.264.839.839,0,0,0,.4.066l4.033-.066,2.777-.264a11.253,11.253,0,0,0,3.9-.661,1.2,1.2,0,0,0,.727-.661,1.052,1.052,0,0,0-.2-.859,2.843,2.843,0,0,0-.661-.6,7.568,7.568,0,0,0-2.38-.992,7.482,7.482,0,0,0-2.248-.529Z" transform="translate(1023.765 4584.914)" fill="#565056"/>
    <path id="Path_1845" data-name="Path 1845" d="M151.7,295.22v.132c.066,1.785,2.446,1.851,3.7,1.785a21.129,21.129,0,0,0,3.57-.529l2.05-.4a.814.814,0,0,0,.661-.331.7.7,0,0,0-.132-.793,2.575,2.575,0,0,0-1.322-.86l-3.372-1.058c-.992-.331-.2-1.719-.066-2.446a.565.565,0,0,0,0-.463,1.186,1.186,0,0,0-.463-.331,5.736,5.736,0,0,0-1.851-.331.5.5,0,0,0-.331.066.364.364,0,0,0-.2.331l-1.917,4.165A3.266,3.266,0,0,0,151.7,295.22Z" transform="translate(1036.119 4588.074)" fill="#fdb9a9"/>
    <g id="Group_8435" data-name="Group 8435" transform="translate(1188.294 4784.021)">
      <path id="Path_1846" data-name="Path 1846" d="M152.818,194.465s-1.455,8.2,1.521,14.347a90.259,90.259,0,0,0,5.289,9.587s-6.281,6.744-6.281,15.273-.132,8.926-.132,8.926l3.769,1.917,9.322-26.116s.6-3.7,0-4.959-5.355-15.471-5.355-15.471Zm33.918-33.191c-1.917,0-4.033-2.05-5.223-5.289-1.388-3.7-.793-7.075,1.388-7.868,2.116-.793,4.76,1.388,6.149,5.091s.793,7.075-1.388,7.868a2.112,2.112,0,0,1-.926.2Zm-2.909-11.5a.6.6,0,0,0-.331.066c-.992.4-1.388,2.843-.331,5.62s2.909,4.43,3.9,4.1,1.388-2.843.331-5.62c-.992-2.512-2.645-4.1-3.636-4.1h.066Z" transform="translate(-152.462 -147.955)" fill="#505d6f"/>
      <path id="Path_1847" data-name="Path 1847" d="M212.266,175.345a.814.814,0,0,1-.661-.331l-6.413-8.132a.847.847,0,1,1,1.322-1.058l6.413,8.132a.786.786,0,0,1-.132,1.19A.751.751,0,0,1,212.266,175.345Z" transform="translate(-170.257 -153.893)" fill="#505d6f"/>
    </g>
    <path id="Path_1848" data-name="Path 1848" d="M194.473,159.345a16.852,16.852,0,0,1,.132,2.579,2.883,2.883,0,0,1-1.124,1.653,5.073,5.073,0,0,1-1.851.793,1.329,1.329,0,0,0-.529.264,1.189,1.189,0,0,0-.264,1.058v2.182a1.192,1.192,0,0,1-.132.661.571.571,0,0,1-.4.2,2.282,2.282,0,0,1-2.645-1.322l-.86-1.388a6.355,6.355,0,0,1-.529-1.917,11.625,11.625,0,0,1,1.124-6.149,8.153,8.153,0,0,1,2.579-3.041c.86-.6,2.512-1.521,3.438-.463.463.529.4,1.322.86,1.851.264.4.793.661.926,1.19.066.463-.264.86-.4,1.256-.331.132-.331.331-.331.6Zm6.413,4.5v-.132a2.134,2.134,0,0,1,.529-1.388,1.1,1.1,0,0,1,1.388-.2c.2.132.264.331.463.4s.6,0,.793.264.132.4.264.661.4.4.6.6c.926.992-.066,2.777-.463,3.769l-1.521,4.562a2.325,2.325,0,0,1-1.587-.331,2.874,2.874,0,0,1-.463-.4,2.118,2.118,0,0,1-.2-1.785,3.031,3.031,0,0,0,.066-1.322l-.463-1.455c-.132-.4-.264-.926.066-1.19a.66.66,0,0,0,.331-.264.94.94,0,0,0,.132-.4,5.115,5.115,0,0,0,.066-1.388Z" transform="translate(1024.329 4634.029)" fill="#fdb9a9"/>
    <path id="Path_1849" data-name="Path 1849" d="M172.737,221.33l9.058,20.43-.4,28.959-4.165-.331s-7.141-16.463-2.512-26.645c0,0-11.042-9.389-15.075-14.744-5.025-6.612-3.9-12.1-3.9-12.1l16.992,4.43Z" transform="translate(1034.763 4612.707)" fill="#505d6f"/>
    <path id="Path_1850" data-name="Path 1850" d="M175.487,170.352a18.787,18.787,0,0,1,3.24,1.124c3.5,1.587,3.636,4.364,4.893,7.67a63.736,63.736,0,0,0,2.645,6.149l1.653-9.918,4.628,1.917s.463,14.678-2.909,16.661c-2.182,1.256-5.289-.2-7.273-1.256-.727-.4-1.917-1.521-2.711-1.587-1.521-.2-1.587,1.587-2.909,2.579a22.57,22.57,0,0,0-2.446,1.653,8.508,8.508,0,0,0-1.653,2.909,10.686,10.686,0,0,0-.331,4.1,3.364,3.364,0,0,1-.529,2.645,2.661,2.661,0,0,1-1.322.6,16.015,16.015,0,0,1-5.025-.066,51.748,51.748,0,0,1-9.653-1.719,23.71,23.71,0,0,1-3.372-1.322,5.812,5.812,0,0,1-.661-.4,2.235,2.235,0,0,1-.4-.793c-.463-1.984.992-3.9,1.719-5.752.463-1.256.661-2.711,1.058-3.967a18.8,18.8,0,0,1,2.182-3.7c.661-.992.992-2.248,1.653-3.24a73.073,73.073,0,0,1,5.818-7.67,31.491,31.491,0,0,1,4.165-4.231,9.9,9.9,0,0,1,6.215-2.446,4.219,4.219,0,0,1,1.322.066Z" transform="translate(1036.241 4628.51)" fill="#071932"/>
    <path id="Path_1851" data-name="Path 1851" d="M174.546,142.119a7.956,7.956,0,0,0-3.372,1.388c-2.116,1.719-2.645,4.893-4.628,6.744-1.719,1.587-4.231,1.851-6.546,2.116a8.738,8.738,0,0,0,11.042,5.355h.066l-2.38,2.38c-.066.066-.132.132-.132.2a.439.439,0,0,0,.264.331,4.748,4.748,0,0,0,3.438-.066,2.073,2.073,0,0,0,1.851,2.05,3.847,3.847,0,0,0,2.116-.264,3.744,3.744,0,0,1,1.19-.2c.331,0,.661.2.992.066a5.989,5.989,0,0,0,2.314-2.645c.793-1.719-.331-3.9.6-5.62.793-1.388,3.174-1.785,3.57-3.306.4-1.719-.529-4.165-1.521-5.554a7.789,7.789,0,0,0-4.628-2.975,11.043,11.043,0,0,0-3.306-.066l-.926.066Z" transform="translate(1033.274 4638.098)"/>
    <path id="Path_1852" data-name="Path 1852" d="M158.273,294.774a1.183,1.183,0,0,0-1.19.331c-.331.463.132,1.256-.331,1.719a1.185,1.185,0,0,1-.926.264h-2.248a5.436,5.436,0,0,1-1.785-.132.838.838,0,0,0-.4-.066.7.7,0,0,0-.4.463,1.831,1.831,0,0,0,.066.6,3.676,3.676,0,0,0,.6,1.124c.066.132.2.2.264.264a.839.839,0,0,0,.4.066l4.033-.066,2.777-.264a13.049,13.049,0,0,0,3.9-.661,1.2,1.2,0,0,0,.727-.661,1.052,1.052,0,0,0-.2-.859,5.958,5.958,0,0,0-.661-.6,7.569,7.569,0,0,0-2.38-.992A8,8,0,0,0,158.273,294.774Z" transform="translate(1036.355 4586.338)" fill="#565056"/>
    <path id="Path_1853" data-name="Path 1853" d="M237.507,259.957c-15.736-.2-28.43-5.62-28.364-12.033,0-.727-.529-4.76-.2-5.422,2.512-5.422,14.876-6.017,28.893-5.818,13.752.2,25.323,0,27.9,5.355.4.727.463,5.951.4,6.678,0,6.413-12.893,11.438-28.629,11.24Z" transform="translate(1016.553 4606.014)" fill="#505d6f"/>
    <ellipse id="Ellipse_86" data-name="Ellipse 86" cx="11.637" cy="28.496" rx="11.637" ry="28.496" transform="matrix(0.014, -1, 1, 0.014, 1225.399, 4860.152)" fill="#828b98"/>
    <ellipse id="Ellipse_87" data-name="Ellipse 87" cx="9.918" cy="24.265" rx="9.918" ry="24.265" transform="matrix(0.014, -1, 1, 0.014, 1229.655, 4858.494)" fill="#cdd1d6"/>
    <path id="Path_1854" data-name="Path 1854" d="M228.932,243.214l3.9.066a3.084,3.084,0,0,1,1.719-2.38l2.579.4a2.8,2.8,0,0,0-1.653,2.248c0,1.124,1.587,1.917,3.769,1.917a5.831,5.831,0,0,0,4.562-1.719,8.428,8.428,0,0,1,6.678-2.512c3.174,0,5.62.992,6.215,2.446l3.9.066v.992l-3.769-.066a2.8,2.8,0,0,1-1.388,2.05l-2.512-.4a2.663,2.663,0,0,0,1.322-1.917c0-1.19-1.719-1.719-3.306-1.719a5.425,5.425,0,0,0-4.43,1.917c-1.653,1.587-3.636,2.38-7.141,2.38-3.041,0-5.951-.992-6.546-2.579l-4.033-.066.132-1.124Z" transform="translate(1009.779 4604.574)" fill="#f8c244"/>
    <path id="Path_1855" data-name="Path 1855" d="M230.691,242.557c-15.736-.2-28.43-5.62-28.364-12.033,0-.727-.529-4.76-.264-5.422,2.512-5.422,14.876-6.017,28.893-5.818,13.752.2,25.323,0,27.9,5.355.4.727.463,5.951.4,6.678.066,6.347-12.827,11.438-28.563,11.24Z" transform="translate(1018.894 4611.91)" fill="#505d6f"/>
    <ellipse id="Ellipse_88" data-name="Ellipse 88" cx="11.637" cy="28.496" rx="11.637" ry="28.496" transform="matrix(0.014, -1, 1, 0.014, 1220.884, 4848.629)" fill="#828b98"/>
    <ellipse id="Ellipse_89" data-name="Ellipse 89" cx="9.918" cy="24.265" rx="9.918" ry="24.265" transform="matrix(0.014, -1, 1, 0.014, 1225.14, 4846.971)" fill="#cdd1d6"/>
    <path id="Path_1856" data-name="Path 1856" d="M222.166,225.814l3.9.066a3.084,3.084,0,0,1,1.719-2.38l2.579.4a2.8,2.8,0,0,0-1.653,2.248c0,1.124,1.587,1.917,3.769,1.917a5.747,5.747,0,0,0,4.628-1.719,8.428,8.428,0,0,1,6.678-2.512c3.174,0,5.62.992,6.215,2.446l3.9.066v.992l-3.769-.066a2.8,2.8,0,0,1-1.388,2.05l-2.512-.4A2.663,2.663,0,0,0,247.555,227c0-1.19-1.719-1.653-3.306-1.719a5.425,5.425,0,0,0-4.43,1.917c-1.653,1.587-3.636,2.38-7.141,2.38-3.041,0-5.951-.992-6.546-2.579l-4.033-.066.066-1.124Z" transform="translate(1012.067 4610.471)" fill="#fc5b3f"/>
    <path id="Path_1857" data-name="Path 1857" d="M250.807,234.257c-15.736-.264-28.43-5.62-28.364-12.033,0-.727-.529-4.76-.2-5.422,2.512-5.422,14.876-6.017,28.893-5.818,13.752.2,25.323,0,27.9,5.355.4.727.463,5.951.4,6.744-.066,6.347-12.893,11.372-28.629,11.174Z" transform="translate(1012.009 4614.723)" fill="#505d6f"/>
    <ellipse id="Ellipse_90" data-name="Ellipse 90" cx="11.637" cy="28.496" rx="11.637" ry="28.496" transform="matrix(0.014, -1, 1, 0.014, 1234.14, 4843.199)" fill="#828b98"/>
    <ellipse id="Ellipse_91" data-name="Ellipse 91" cx="9.918" cy="24.265" rx="9.918" ry="24.265" transform="matrix(0.014, -1, 1, 0.014, 1238.396, 4841.541)" fill="#cdd1d6"/>
    <path id="Path_1858" data-name="Path 1858" d="M242.132,217.514l3.9.066a3.084,3.084,0,0,1,1.719-2.38l2.579.4a3.018,3.018,0,0,0-1.719,2.248c0,1.124,1.587,1.917,3.769,1.917a5.747,5.747,0,0,0,4.628-1.719,8.428,8.428,0,0,1,6.678-2.512c3.174,0,5.62.992,6.215,2.446l3.9.066v.992l-3.769-.066a2.991,2.991,0,0,1-1.388,2.05l-2.512-.4a2.663,2.663,0,0,0,1.322-1.917c0-1.19-1.785-1.653-3.306-1.719a5.425,5.425,0,0,0-4.43,1.917c-1.653,1.587-3.636,2.38-7.141,2.38-3.041,0-5.951-.992-6.546-2.579L242,218.638l.132-1.124Z" transform="translate(1005.272 4613.283)" fill="#505d6f"/>
    <path id="Path_1859" data-name="Path 1859" d="M232.944,138.251c-.463-.331,1.917-16.4,1.917-16.4l8.2.793-2.116,16.133Zm16.331,1.587c-.463-.331,3.636-24.331,3.636-24.331l8.2.793-3.769,24.133-8.066-.6Zm32.331,2.587c-.463-.331,6.083-43.108,6.083-43.108l8.2.793-6.215,42.91Zm-16.735-1.413c-.463-.331,4.694-32.53,4.694-32.53l8.2.793L273,141.541Zm25.265,7.025L226.2,143.408l.066-.4,6.81-50.712.727.2c-.264.992-4.43,32.992-6.678,50.183l63.142,4.562Z" transform="translate(1030.416 4659.658)" fill="#505d6f"/>
  </g>
</svg>
