<svg xmlns="http://www.w3.org/2000/svg" width="51.642" height="51.6" viewBox="0 0 51.642 51.6">
  <g id="banks" transform="translate(-787 -2746)">
    <path id="Union_24" data-name="Union 24" d="M11048.235,21984h-4.727q-10.992,0-21.985,0a3.405,3.405,0,1,1-.073-6.809c.816-.01.816-.01.816-.832,0-.516,0-1.029,0-1.543.008-.727.311-1.064,1.038-1.016.562.037.677-.141.675-.684q-.035-7.925,0-15.852c0-.424-.114-.523-.521-.512-.94.029-1.189-.244-1.189-1.189,0-.619-.016-1.24.006-1.859.011-.285-.079-.365-.354-.352-.424.021-.85.016-1.274,0a.85.85,0,0,1-.923-.928c-.013-.709-.017-1.42,0-2.129.007-.279-.073-.381-.353-.35a2.531,2.531,0,0,1-.583-.006.778.778,0,0,1-.754-.76,7.758,7.758,0,0,1,.126-2.432,4.264,4.264,0,0,1,2.348-2.789q10.3-4.975,20.588-9.959c.493-.238,1.007-.441,1.472-.727a1.767,1.767,0,0,1,1.881-.012c3.75,1.852,7.52,3.662,11.284,5.484q5.313,2.572,10.63,5.135a4.3,4.3,0,0,1,2.638,4.176c0,.285,0,.568,0,.852-.009.73-.309,1.072-1.028,1.027-.545-.033-.734.111-.684.676a16.389,16.389,0,0,1,.01,1.807.853.853,0,0,1-.919.934c-.425.012-.851.016-1.275,0-.267-.012-.368.055-.359.346.024.656.01,1.313.007,1.969,0,.8-.289,1.125-1.079,1.084-.5-.027-.636.092-.634.617q.035,7.951.006,15.9c0,.4.074.541.506.525.947-.035,1.2.24,1.2,1.174,0,.514.039,1.033-.01,1.543-.052.537.094.742.666.688a3.145,3.145,0,0,1,2.105.58,3.4,3.4,0,0,1-1.965,6.215q-4.329.006-8.656,0Zm17.038-1.7c.159,0,.32.008.478-.008a1.7,1.7,0,0,0,.4-3.3,2.393,2.393,0,0,0-.838-.1h-43.47c-.178,0-.355-.008-.531,0a1.7,1.7,0,0,0-.457,3.3,2.5,2.5,0,0,0,.891.1Zm-32.816-25.186q.012,8.159,0,16.316c0,.26.042.361.339.367,1.239.023,1.365.17,1.365,1.438,0,.105,0,.213,0,.318.01.527-.184,1.242.084,1.535.2.223.58.18.942.135a2.484,2.484,0,0,1,.537-.031c.552,0,1.013-.02,1.471.008.316.02.38-.1.371-.389-.021-.621-.008-1.24-.007-1.861,0-.9.264-1.187,1.17-1.15.445.018.542-.107.541-.545q-.026-7.919,0-15.84c0-.5-.073-.707-.638-.666-.781.057-1.07-.281-1.073-1.084,0-.639-.012-1.275.006-1.914.007-.275-.031-.408-.36-.4-.9.023-1.8.021-2.706,0-.292-.006-.35.1-.343.361.016.709.015,1.418,0,2.127a.855.855,0,0,1-.928.924,2.568,2.568,0,0,1-.425,0,.864.864,0,0,0-.1-.006C11032.507,21956.752,11032.457,21956.871,11032.457,21957.111Zm15.289.188c.017,5.264.012,10.525.012,15.787,0,.688,0,.688.681.7.716.012,1.012.314,1.017,1.051,0,.637.017,1.277-.006,1.914-.01.32.043.465.419.449.865-.031,1.733-.029,2.6,0,.35.012.4-.113.395-.42-.021-.674-.013-1.348,0-2.02a.871.871,0,0,1,.985-.975,2.352,2.352,0,0,1,.371,0c.286.043.348-.08.348-.352q-.013-8.159,0-16.318c0-.26-.047-.359-.341-.363-1.224-.023-1.364-.18-1.364-1.387,0-.125,0-.248,0-.373-.01-.527.183-1.242-.084-1.535-.2-.221-.582-.176-.945-.133a2.609,2.609,0,0,1-.536.031c-.533,0-.978.027-1.417-.008-.368-.031-.436.115-.423.443.024.6.009,1.205.007,1.809,0,.9-.267,1.186-1.173,1.148-.026,0-.052,0-.076,0C11047.82,21956.748,11047.745,21956.893,11047.746,21957.3Zm6.8,19.406c-.007.393.08.5.485.5,2.265-.023,4.53-.012,6.795-.012,1.241,0,1.229,0,1.235-1.271,0-.34-.075-.445-.431-.439-1.272.023-2.548.01-3.821.01h-3.026C11054.55,21975.488,11054.567,21975.488,11054.544,21976.705Zm-15.293.057c0,.34.079.439.433.438,2.264-.018,4.529-.01,6.794-.01,1.312,0,1.3,0,1.287-1.326,0-.295-.072-.387-.377-.383-1.31.018-2.618.008-3.929.008h-2.92C11039.246,21975.488,11039.26,21975.488,11039.251,21976.762Zm-15.295,0c0,.348.092.436.436.432,2.266-.016,4.53-.008,6.8-.008,1.309,0,1.3,0,1.283-1.33,0-.3-.083-.383-.382-.379-1.291.018-2.583.008-3.875.008h-2.974C11023.951,21975.488,11023.965,21975.488,11023.956,21976.766Zm21.623-2.971c.4.008.491-.09.488-.488-.02-2.66-.011-5.318-.011-7.979,0-2.713-.006-5.426.009-8.139,0-.344-.083-.441-.433-.436q-2.123.032-4.247,0c-.347-.006-.435.086-.435.434q.019,8.086,0,16.17c0,.344.084.441.433.436q1.074-.015,2.149-.016Q11044.556,21973.777,11045.579,21973.795Zm10.665-16.549c.019,2.66.01,5.318.01,7.979,0,2.713,0,5.426,0,8.139,0,.287.014.438.381.432,1.452-.025,2.9-.02,4.354,0,.308,0,.374-.094.373-.387q-.012-8.136,0-16.275c0-.307-.089-.379-.384-.375-1.415.014-2.831.025-4.247-.006h-.04C11056.314,21956.75,11056.242,21956.873,11056.244,21957.246Zm-30.59,0c.021,2.658.011,5.318.011,7.979,0,2.713.007,5.424-.008,8.137,0,.346.084.441.433.436q2.124-.029,4.248,0c.346.006.434-.086.433-.434q-.016-8.086,0-16.17c0-.346-.083-.441-.433-.436-1.4.021-2.8.025-4.194,0h-.041C11025.74,21956.752,11025.651,21956.857,11025.654,21957.242Zm-1.7-2.586c0,.32.067.418.4.412,1.273-.021,2.548-.008,3.822-.008h3.026c1.261,0,1.245,0,1.262-1.246.006-.367-.079-.471-.457-.467-2.265.02-4.53.01-6.8.01C11023.945,21953.357,11023.958,21953.357,11023.957,21954.656Zm15.293-.045c-.006.381.1.459.467.457,2.247-.018,4.5-.008,6.742-.008,1.32,0,1.307,0,1.308-1.309,0-.338-.095-.406-.414-.4-1.273.02-2.548.008-3.822.008h-3.025C11039.25,21953.357,11039.268,21953.357,11039.25,21954.611Zm15.295.023c0,.35.092.436.437.432,2.265-.016,4.529-.006,6.795-.006,1.309,0,1.3,0,1.282-1.33,0-.3-.083-.383-.381-.379-1.291.016-2.584.006-3.875.006h-2.974C11054.539,21953.357,11054.554,21953.357,11054.545,21954.635Zm-33.141-3.51c-.013.447.109.541.547.541q10.778-.023,21.559-.012h20.976c1.115,0,1.088,0,1.128-1.117.018-.488-.125-.6-.6-.6q-21.215.021-42.428.012C11021.416,21949.953,11021.439,21949.953,11021.4,21951.125Zm14.742-12.8c-.162.066-.328.123-.486.2q-3.671,1.772-7.339,3.547c-2.335,1.129-4.667,2.264-7,3.387a2.636,2.636,0,0,0-1.6,2.209c-.047.416.009.6.529.6,5.894-.023,11.787-.016,17.68-.016h.639a6.942,6.942,0,0,1-1.386-1.389.706.706,0,0,0-.662-.318c-1.788.012-3.575.006-5.362.006-1.254,0-1.236,0-1.255-1.256-.006-.381.1-.461.468-.457,1.856.02,3.714.01,5.614.01a10.013,10.013,0,0,1-.547-2.613,9.449,9.449,0,0,1,.747-3.871l-.039-.035.1-.039a.09.09,0,0,1,.008.033.09.09,0,0,0-.008-.033Zm30.728,9.932c.341,0,.454-.076.432-.432a2.645,2.645,0,0,0-1.606-2.367c-3.434-1.654-6.86-3.322-10.293-4.977-1.508-.729-3.024-1.437-4.537-2.154l-.1-.041a.081.081,0,0,0-.008.033.081.081,0,0,1,.008-.033l.1.041-.038.033a1.64,1.64,0,0,0,.063.252,8.073,8.073,0,0,1,.585,4.518,16.627,16.627,0,0,1-.438,1.715h4.811c1.261,0,1.244,0,1.262,1.246,0,.369-.082.471-.459.467-2.053-.021-4.105-.012-6.158-.008-.185,0-.381-.059-.529.146a8.339,8.339,0,0,1-1.5,1.553h13.373Q11064.355,21948.25,11066.874,21948.258Zm-29.738-6.414a6.372,6.372,0,1,0,6.395-6.359h-.033A6.386,6.386,0,0,0,11037.136,21941.844Zm6.575,4.707a1.29,1.29,0,0,0-.213,0,1.33,1.33,0,0,0-.265,0c-.5.1-.652-.137-.575-.6a.476.476,0,0,0-.324-.566,2.5,2.5,0,0,1-1.357-1.91c-.042-.236,0-.365.285-.338a5.156,5.156,0,0,0,.8,0c.348-.023.595,0,.742.424a.722.722,0,0,0,.938.393.6.6,0,0,0,.477-.381c.049-.205-.2-.26-.327-.357-.8-.613-1.6-1.229-2.419-1.812a1.115,1.115,0,0,1-.474-1.246,2.426,2.426,0,0,1,1.241-1.76.645.645,0,0,0,.423-.775c-.074-.393.109-.494.464-.443a3.526,3.526,0,0,0,.477,0c.712,0,.729,0,.75.73.007.256.144.318.319.41a2.576,2.576,0,0,1,1.367,1.91c.051.264-.006.395-.311.359a3.5,3.5,0,0,0-.453-.008c-.078,0-.157,0-.235,0-.047,0-.093,0-.138,0-.3.008-.584.018-.7-.449-.084-.336-.479-.449-.845-.387a.645.645,0,0,0-.544.377c-.077.238.207.289.346.395.8.615,1.6,1.227,2.415,1.816a1.089,1.089,0,0,1,.455,1.205,2.48,2.48,0,0,1-1.36,1.85c-.248.121-.358.262-.3.523.1.465-.068.65-.416.65A1.491,1.491,0,0,1,11043.711,21946.551Zm-18.9-.271a.475.475,0,0,0,0-.053c-.067-1.381-.067-1.381,1.329-1.381h.8c1.405,0,1.4,0,1.279,1.438-.018.207-.07.271-.275.268q-1.433-.012-2.865,0h-.007C11024.869,21946.553,11024.787,21946.482,11024.815,21946.279Zm35.686.268h-.425c-1.406,0-1.4,0-1.279-1.437.017-.205.07-.27.274-.268q1.431.015,2.865,0c.209,0,.294.066.265.271a.511.511,0,0,0,0,.055c.066,1.379.066,1.379-1.329,1.379Z" transform="translate(-10230.5 -19186.5)" fill="#071932" stroke="#071932" stroke-miterlimit="10" stroke-width="0.2"/>
    <circle id="Ellipse_109" data-name="Ellipse 109" cx="12" cy="12" r="12" transform="translate(787 2746)" fill="#071932" opacity="0.1"/>
  </g>
</svg>
