<svg xmlns="http://www.w3.org/2000/svg" width="51.699" height="51.699" viewBox="0 0 51.699 51.699">
  <g id="brokers" transform="translate(-1082 -2746)">
    <path id="Union_25" data-name="Union 25" d="M11025.641,21983.447a10.059,10.059,0,0,1,.3-2.994,5.851,5.851,0,0,1,2.146-2.951,1.412,1.412,0,0,0,.524-.7c.494-1.342,1-2.678,1.5-4.018a4.3,4.3,0,0,1,3.222-2.852c1.307-.307,2.6-.66,3.906-.971a.632.632,0,0,0,.577-.564,11.047,11.047,0,0,1,.361-1.381,2.562,2.562,0,0,1,1.334-1.506c.2-.109.593.014.585-.395-.01-.484.122-1.008-.356-1.373-.154-.117-.31-.234-.461-.357a6.621,6.621,0,0,1-2.567-5.25,26.1,26.1,0,0,1,.083-4.135,6.783,6.783,0,0,1,13.4.021,18.591,18.591,0,0,1-.028,5.293,6.526,6.526,0,0,1-2.708,4.285,1.478,1.478,0,0,0-.559,1.592c.038.158.137.17.257.209a2.391,2.391,0,0,1,1.773,2.043,1.8,1.8,0,0,0,1.774,1.771,29.106,29.106,0,0,1,3.034.732,4.273,4.273,0,0,1,3.158,2.852c.487,1.324,1,2.643,1.481,3.967a1.532,1.532,0,0,0,.549.74,5.848,5.848,0,0,1,2.423,4.732c.013.441-.025.887.011,1.326.029.367-.114.426-.443.424q-5.924-.015-11.846-.006h-5.578c-5.773,0-11.545-.006-17.318.012h-.009C11025.715,21984,11025.626,21983.871,11025.641,21983.447Zm6.021-5.4a4.245,4.245,0,0,0-4.274,3.664c-.072.424-.03.6.5.6,5.187-.025,10.373-.016,15.561-.016,5.239,0,10.48-.006,15.72.012.448,0,.522-.133.462-.531a4.255,4.255,0,0,0-4.278-3.725q-5.921-.006-11.843-.006T11031.662,21978.043Zm6.716-7.617q-2.44.6-4.876,1.227a2.252,2.252,0,0,0-1.594,1.291c-.478,1.115-.884,2.262-1.335,3.432h25.854c-.451-1.172-.858-2.316-1.337-3.434a2.247,2.247,0,0,0-1.593-1.289c-1.129-.289-2.27-.537-3.387-.863a11.035,11.035,0,0,0-3.293-.406c-1.8.02-3.61.016-5.415.012l-2.5,0h-.166A1.483,1.483,0,0,0,11038.378,21970.426Zm9.09-1.889a1.328,1.328,0,0,0-1.375-1.545h-5.244c-.762,0-.984.18-1.169.936-.059.236-.109.475-.175.764,2.606,0,5.131,0,7.654-.006C11047.266,21968.686,11047.443,21968.793,11047.468,21968.537Zm-2.722-3.236c.37.014.493-.08.461-.459a2.8,2.8,0,0,1,1.3-2.664,4.945,4.945,0,0,0,2.029-3.354,22.174,22.174,0,0,0,.07-2.277,19.416,19.416,0,0,0-.1-2.381,5.09,5.09,0,0,0-10.011,0,24.211,24.211,0,0,0-.09,3.865,4.779,4.779,0,0,0,1.963,4.039,3.041,3.041,0,0,1,1.426,2.877c-.026.279.069.359.349.354.458-.01.916-.018,1.374-.018Q11044.133,21965.281,11044.746,21965.3Zm14.044,8.043c.019-1.254,0-1.254,1.254-1.254q3.082,0,6.161,0c.8,0,1.094-.289,1.094-1.08q0-6.56,0-13.119c0-.82-.284-1.1-1.13-1.1q-6.825,0-13.651.008c-.389,0-.541-.061-.529-.5.032-1.205.009-1.205,1.2-1.205h6.268c2.267,0,4.533,0,6.8,0a2.554,2.554,0,0,1,2.745,2.752q0,6.586,0,13.172a2.561,2.561,0,0,1-2.781,2.77h-2.227c-1.577,0-3.155,0-4.732.01h-.021C11058.894,21973.8,11058.784,21973.721,11058.79,21973.344Zm-38.021.445A2.564,2.564,0,0,1,11018,21971q0-6.557,0-13.117a2.567,2.567,0,0,1,2.813-2.791q3.346,0,6.693,0c2.355,0,4.71.008,7.065-.01.344,0,.438.084.436.434-.008,1.275.007,1.275-1.284,1.275h-12.854c-.908,0-1.17.26-1.17,1.164v12.959c0,.908.262,1.172,1.161,1.172,2.3,0,4.6.008,6.906-.008.333,0,.445.066.443.426-.01,1.281.006,1.281-1.28,1.281l-3.7,0Q11022,21973.791,11020.77,21973.789Zm.625-3.777c-.015-1.32-.023-1.32,1.289-1.32.851,0,1.7.01,2.55-.006.292-.006.429.023.429.385,0,1.32.02,1.32-1.294,1.32h-.85c-.583,0-1.168-.018-1.751.008l-.048,0C11021.449,21970.4,11021.4,21970.285,11021.395,21970.012Zm42.506-.459c0-.861,0-.861.892-.861.808,0,.808,0,.808.838,0,.861,0,.861-.838.861C11063.9,21970.391,11063.9,21970.391,11063.9,21969.553Zm-4.25.02c0-.881,0-.881.872-.881.828,0,.828,0,.828.818,0,.881,0,.881-.872.881C11059.65,21970.391,11059.65,21970.391,11059.65,21969.572Zm-31.46-.4c-.007-.4.089-.514.489-.488.582.039,1.168.021,1.751,0,.255-.008.317.07.328.324.052,1.381.061,1.381-1.335,1.381C11028.2,21970.391,11028.215,21970.391,11028.19,21969.17Zm0-4.279c-.015-1.326-.024-1.326,1.285-1.326,1.7,0,3.4.012,5.1-.008.349,0,.435.092.433.436-.008,1.271.006,1.271-1.286,1.271h-2.124c-1.009,0-2.019-.012-3.026.008h-.026C11028.266,21965.271,11028.2,21965.18,11028.193,21964.891Zm23.8.053c-.051-1.379-.059-1.379,1.285-1.379,1.15,0,2.3.012,3.451-.006.3-.006.375.086.378.381.015,1.324.024,1.324-1.286,1.324h-1.222c-.761,0-1.521-.01-2.282.008h-.023C11052.056,21965.271,11052,21965.186,11051.994,21964.943Zm-30.6-.053c-.015-1.326-.026-1.326,1.283-1.326h.9c.584,0,1.168.012,1.751-.006.255-.008.318.07.327.324.053,1.381.061,1.381-1.335,1.381-.85,0-1.7-.014-2.549.006h-.033C11021.469,21965.27,11021.4,21965.18,11021.394,21964.891Zm42.507-.434c0-.893,0-.893.914-.893.785,0,.785,0,.785.809,0,.891,0,.891-.913.891C11063.9,21965.264,11063.9,21965.264,11063.9,21964.457Zm-4.25-.094c0-.8,0-.8.795-.8.905,0,.905,0,.905.9,0,.8,0,.8-.8.8C11059.65,21965.264,11059.65,21965.264,11059.65,21964.363Zm-31.459-4.594c.009-1.275,0-1.275,1.285-1.275h2.124c1.009,0,2.019.012,3.026-.006.3-.006.379.078.383.377.015,1.328.025,1.328-1.284,1.328-1.7,0-3.4-.01-5.1.008h-.021C11028.279,21960.2,11028.19,21960.109,11028.191,21959.77Zm23.8.057c-.016-1.332-.027-1.332,1.28-1.332h1.327c.727,0,1.452.01,2.178-.006.248,0,.32.063.331.32.055,1.385.063,1.385-1.333,1.385-1.132,0-2.266-.01-3.4.006l-.021,0C11052.08,21960.2,11052,21960.123,11051.992,21959.826Zm-30.6.029c-.031-1.361-.043-1.361,1.3-1.361h.85c.584,0,1.168.012,1.752,0,.262-.008.356.047.363.34.031,1.363.043,1.363-1.3,1.363-.867,0-1.735-.01-2.6.006h-.029C11021.487,21960.2,11021.4,21960.139,11021.393,21959.855Zm42.508-.494c0-.867,0-.867.885-.867.814,0,.814,0,.814.832,0,.867,0,.867-.884.867C11063.9,21960.193,11063.9,21960.193,11063.9,21959.361Zm-4.25-.035c0-.832,0-.832.815-.832.885,0,.885,0,.885.867,0,.832,0,.832-.815.832C11059.65,21960.193,11059.65,21960.193,11059.65,21959.326Zm-7.66-6.473c.029-1.158.009-1.158,1.191-1.158h12.906c.969,0,1.212-.246,1.212-1.229v-14.549c0-.975-.244-1.219-1.222-1.219h-18.8c-.982,0-1.226.24-1.226,1.215,0,3.4-.006,6.8.009,10.2,0,.375-.06.51-.478.5-1.23-.027-1.231-.006-1.231-1.225q0-4.808,0-9.611a2.562,2.562,0,0,1,2.779-2.773h19.066a2.566,2.566,0,0,1,2.8,2.8q0,7.409,0,14.814a2.561,2.561,0,0,1-2.774,2.777h-3.878q-4.913,0-9.825.014h-.008C11052.061,21953.408,11051.979,21953.273,11051.99,21952.854Zm-31.157.541a2.572,2.572,0,0,1-2.831-2.826q0-7.38,0-14.762a2.568,2.568,0,0,1,2.8-2.807h19.067a2.562,2.562,0,0,1,2.782,2.77c0,3.451-.008,6.9.012,10.355,0,.408-.111.488-.5.482-1.215-.021-1.215-.006-1.215-1.24v-9.5c0-.9-.266-1.164-1.171-1.164h-18.908c-.908,0-1.171.26-1.171,1.164v14.654c0,.928.258,1.178,1.21,1.178,4.515,0,9.029.01,13.544-.014.492,0,.568.145.557.584-.031,1.129-.01,1.129-1.166,1.129h-13.013Zm31.161-3.691c-.074-1.406-.081-1.406,1.31-1.406h.425c.46,0,.921.012,1.38-.006.235-.008.287.072.3.3.074,1.406.082,1.406-1.31,1.406-.6,0-1.2-.01-1.8.006h-.026C11052.053,21950,11052,21949.922,11051.994,21949.7Zm11.9.293h-.425c-1.407,0-1.4,0-1.277-1.437.019-.211.077-.268.278-.266.956.008,1.911.01,2.866,0,.214,0,.29.072.263.273a.5.5,0,0,0,0,.055c.064,1.375.064,1.375-1.279,1.375Zm-5.094,0h-.425c-1.4,0-1.4,0-1.282-1.432.016-.2.062-.273.271-.271q1.433.012,2.867,0c.205,0,.3.059.268.268a.475.475,0,0,0,0,.053c.069,1.383.069,1.383-1.326,1.383Zm-20.822-.842c-.884-.025-1.771-.018-2.654,0-.249,0-.321-.062-.332-.32-.054-1.385-.063-1.385,1.332-1.385h.8c1.293,0,1.28,0,1.288,1.27,0,.322-.068.439-.382.439A.416.416,0,0,1,11037.979,21949.154Zm-16.587-.367c-.018-1.34-.03-1.34,1.325-1.34.85,0,1.7.01,2.549-.006.282-.006.39.047.395.365.017,1.34.029,1.34-1.326,1.34h-.85c-.565,0-1.134-.014-1.7.006l-.054,0C11021.491,21949.154,11021.4,21949.084,11021.393,21948.787Zm6.809.072a.341.341,0,0,0,0-.055c-.048-1.357-.048-1.357,1.3-1.357.866,0,1.734.01,2.6-.006.27-.006.354.061.36.346.029,1.359.039,1.359-1.307,1.359h-.85c-.6,0-1.2-.01-1.8,0l-.024,0C11028.266,21949.152,11028.163,21949.09,11028.2,21948.859Zm19.849-1.961c-.258-.328-.814-.557-.787-.922.023-.312.5-.6.788-.883,1.188-1.189,2.388-2.367,3.56-3.574.292-.3.455-.365.769-.02.593.656,1.255,1.25,1.861,1.893.239.252.372.256.619,0,1.2-1.227,2.429-2.428,3.631-3.652.234-.24.365-.277.614-.012.643.682,1.33,1.322,1.979,2,.212.223.331.209.54,0,1.016-1.035,2.057-2.047,3.068-3.088.244-.25.392-.27.617,0s.471.48.707.719c.058.061.1.129.161.2-.08.09-.136.158-.2.219-1.464,1.465-2.935,2.924-4.389,4.4-.214.217-.321.158-.5-.023-.655-.672-1.334-1.32-1.981-2-.236-.25-.37-.258-.618,0-1.2,1.227-2.428,2.428-3.63,3.652-.234.238-.365.275-.615.012-.642-.684-1.328-1.324-1.979-2-.212-.221-.33-.209-.54,0-1.015,1.037-2.058,2.049-3.068,3.09a.5.5,0,0,1-.318.193C11048.247,21947.1,11048.156,21947.033,11048.05,21946.9Zm-19.854-3.457c-.051-1.377-.058-1.377,1.286-1.377.867,0,1.734.014,2.6-.008.308-.006.374.092.377.385.014,1.322.023,1.322-1.288,1.322h-.85c-.6,0-1.2-.012-1.8.006a.163.163,0,0,1-.03,0C11028.25,21943.771,11028.2,21943.678,11028.2,21943.441Zm-6.8,0c-.049-1.377-.057-1.377,1.287-1.377.867,0,1.734.014,2.6-.008.308-.006.372.092.375.385.015,1.322.025,1.322-1.287,1.322h-.85c-.6,0-1.2-.012-1.8.006a.158.158,0,0,1-.03,0C11021.451,21943.771,11021.4,21943.678,11021.395,21943.441Zm13.6.029c-.074-1.406-.081-1.406,1.311-1.406.867,0,1.734.012,2.6-.006.281-.006.347.078.353.354.027,1.354.036,1.352-1.312,1.352h-.85c-.6,0-1.2-.01-1.8.006h-.028C11035.054,21943.77,11035.006,21943.689,11034.994,21943.471Zm-13.6-4.9c-.015-1.324-.024-1.324,1.286-1.324h.8c.62,0,1.24.012,1.858-.006.261-.008.315.078.324.326.051,1.379.059,1.379-1.285,1.379-.867,0-1.735-.014-2.6.008h-.031C11021.462,21938.957,11021.4,21938.859,11021.394,21938.574Zm6.8.057c-.053-1.381-.061-1.381,1.335-1.381.85,0,1.7.012,2.549-.008.3-.006.378.08.381.379.015,1.328.026,1.328-1.283,1.328h-.9c-.584,0-1.169-.014-1.752.006h-.033C11028.26,21938.955,11028.2,21938.871,11028.194,21938.631Zm6.8,0c-.054-1.385-.063-1.385,1.332-1.385h.85c.584,0,1.168.012,1.753-.006.248-.008.32.061.331.32.055,1.385.063,1.385-1.332,1.385-.868,0-1.735-.01-2.6.006h-.021C11035.072,21938.955,11035,21938.887,11034.993,21938.635Zm12.75-.912c-.015-1.322-.023-1.322,1.288-1.322,1.149,0,2.3.01,3.451-.008.307-.006.373.092.376.383.015,1.324.023,1.324-1.288,1.324h-1.274c-.726,0-1.452-.016-2.177.006a.243.243,0,0,1-.037,0C11047.807,21938.107,11047.746,21938,11047.743,21937.723Z" transform="translate(-9935.502 -19186.5)" fill="#071932" stroke="#071932" stroke-miterlimit="10" stroke-width="0.4"/>
    <circle id="Ellipse_110" data-name="Ellipse 110" cx="12" cy="12" r="12" transform="translate(1082 2746)" fill="#071932" opacity="0.1"/>
  </g>
</svg>
