<svg xmlns="http://www.w3.org/2000/svg" xmlns:xlink="http://www.w3.org/1999/xlink" width="218" height="199.999" viewBox="0 0 218 199.999">
  <defs>
    <linearGradient id="linear-gradient" x1="0.466" y1="-2.758" x2="0.513" y2="2.036" gradientUnits="objectBoundingBox">
      <stop offset="0.01"/>
      <stop offset="0.08" stop-opacity="0.69"/>
      <stop offset="0.21" stop-opacity="0.322"/>
      <stop offset="1" stop-opacity="0"/>
    </linearGradient>
    <linearGradient id="linear-gradient-2" x1="0.472" y1="-5.707" x2="0.509" y2="2.372" xlink:href="#linear-gradient"/>
    <linearGradient id="linear-gradient-3" x1="0.262" y1="-1.159" x2="0.815" y2="2.78" xlink:href="#linear-gradient"/>
    <linearGradient id="linear-gradient-4" x1="0.513" y1="-0.524" x2="0.482" y2="2.214" xlink:href="#linear-gradient"/>
    <linearGradient id="linear-gradient-5" x1="-1.03" y1="-0.174" x2="4.041" y2="1.782" xlink:href="#linear-gradient"/>
  </defs>
  <g id="candidates" transform="translate(-541 -4722)">
    <path id="Path_1862" data-name="Path 1862" d="M177.131,362.563c-1.038.324-2.336.844-2.531,1.947,3.44,2.207,7.593,2.661,11.617,2.531,3.959-.13,8.048-.779,12.006-.779,5.322,0,11.292.909,15.576-2.271a13.352,13.352,0,0,0-6.3-2.012c.779-4.932-27.193-.389-30.373.584Z" transform="translate(435.197 4554.938)" fill="url(#linear-gradient)"/>
    <path id="Path_1863" data-name="Path 1863" d="M71.827,269.479c-1.429,0-3.443.779-3.053,2.142l65.422,5.322c7.666.649,15.4,1.233,23.128,1.233,11.694,0,23.323-1.428,35.017-2.142,10.979-.649,21.959-.584,32.938-.584,10.135.065,22.673,1.882,32.548-.779,1.494-.389,2.988-1.622,2.859-3.115-.065-.714-.455-1.428-.13-2.142a2.238,2.238,0,0,1,.78-.779c2.079-1.233,4.613-.26,6.951.26a16.818,16.818,0,0,0,10.979-1.363,3.378,3.378,0,0,0,1.559-1.3,1.34,1.34,0,0,0-.325-1.817,2,2,0,0,0-.845-.195l-20.01-1.558a4.238,4.238,0,0,0-2.209.195c-.78.389-.78,1.233-1.364,1.622-1.039.649-3.378.324-4.548.389l-9.1.519-18.191.779-37.291.844-73.738,1.558c-13.838.519-27.611.649-41.384.909Z" transform="translate(472.275 4589.029)" fill="url(#linear-gradient-2)"/>
    <g id="Group_8440" data-name="Group 8440" transform="translate(573.913 4722)">
      <path id="Path_1864" data-name="Path 1864" d="M139.837,63.146a5.2,5.2,0,0,0-3.569.065,5.315,5.315,0,0,0-3.245,3.115.667.667,0,0,1-.714.649h-.065a5.68,5.68,0,0,0-3.5,1.3c-1.1.973-1.1,2.271-1.233,3.764a1.24,1.24,0,0,0-1.168,0,3.781,3.781,0,0,0-.973.714,3.406,3.406,0,0,0-1.1,1.428c-.389.909.065,2.077.065,3.05a.39.39,0,0,1-.065.26.2.2,0,0,1-.26,0c-.26-.065-.519-.195-.779-.26a1.4,1.4,0,0,0-1.363,1.1,3.98,3.98,0,0,0,.13,1.947,3.111,3.111,0,0,1-.065,1.882,4.345,4.345,0,0,1-.779,1.038,6.081,6.081,0,0,0-1.752,3.375,2.445,2.445,0,0,0,.519,1.752,1.969,1.969,0,0,0,1.622.779c1.493-.195,2.012-2.271,3.375-2.726a10.333,10.333,0,0,0,3.894-3.44c.779-1.038,1.428-2.271,2.661-2.661a3.306,3.306,0,0,0,1.1-.454,2.029,2.029,0,0,0,.584-.714,11.719,11.719,0,0,0,1.168-2.4c.454-1.687,0-3.634.779-5.192a3.67,3.67,0,0,1,2.336-1.817c.454-.13.844-.13,1.233-.26a5.262,5.262,0,0,0,1.363-.649,4.364,4.364,0,0,0,2.077-2.92,3.265,3.265,0,0,0-2.271-2.726Z" transform="translate(-119.381 -62.862)"/>
      <path id="Path_1865" data-name="Path 1865" d="M153.388,66.22a2.018,2.018,0,0,1,1.233,2.271,2.122,2.122,0,0,1-.714.973l-1.622,1.752-.714-2.4a2.107,2.107,0,0,0-.649-1.168,1.528,1.528,0,0,0-1.493,0c-.519.26-.844.649-1.3.844a.429.429,0,0,1-.389.065c-.13-.065-.13-.325-.065-.519.844-2.012,3.764-2.6,5.711-1.817Z" transform="translate(-129.298 -63.924)"/>
    </g>
    <path id="Path_1866" data-name="Path 1866" d="M148.073,167.625a5.257,5.257,0,0,0,.779,2.336,16.529,16.529,0,0,0,2.92,2.012,1.155,1.155,0,0,1,.454.519.494.494,0,0,1-.389.519,2.208,2.208,0,0,1-.649.065,24.323,24.323,0,0,0-3.05-.324c-.519,0-1.1.065-1.428-.389a1.367,1.367,0,0,1-.195-1.1,14.124,14.124,0,0,0-.389-4.348,3.036,3.036,0,0,1-.13-1.038.98.98,0,0,1,1.1-.779,3.164,3.164,0,0,1,.454.195c.649.389.454,1.622.519,2.336Zm-16.355,5.452a4.351,4.351,0,0,0,.324,2.4,10.827,10.827,0,0,0,2.4,2.466.8.8,0,0,1,.324.649.557.557,0,0,1-.454.389,2.208,2.208,0,0,1-.649-.065,15.059,15.059,0,0,0-2.92-.844c-.519-.065-1.1-.195-1.3-.649a1.609,1.609,0,0,1,0-1.1,16.335,16.335,0,0,0,.584-4.348,1.774,1.774,0,0,1,.13-1.038.93.93,0,0,1,1.3-.519.954.954,0,0,1,.389.324C132.173,171.195,131.784,172.428,131.719,173.077Z" transform="translate(451.04 4623.258)" fill="#fcbdba"/>
    <g id="Group_8441" data-name="Group 8441" transform="translate(576.329 4756.289)">
      <path id="Path_1867" data-name="Path 1867" d="M128,115.958s8.437,12.526,13.953,16.29a18.325,18.325,0,0,0,.065,3.764c.324,2.077,1.233,3.829,1.558,5.776l1.038,6.685c.065.324.13.714.454.779a.9.9,0,0,0,.584,0l2.336-.649a107.079,107.079,0,0,1,.26-12.071,24.423,24.423,0,0,0,.13-4.867c-.389-3.569-3.31-6.685-5.322-9.54-1.168-1.752-2.466-4.283-4.218-5.581-1.428-1.038-3.44-.584-5.192-.389a10.26,10.26,0,0,1-3.959-.325,1.941,1.941,0,0,0-1.687.13Z" transform="translate(-124.82 -115.695)" fill="#071932"/>
      <path id="Path_1868" data-name="Path 1868" d="M123.1,115.969s3.31,14.8,7.074,20.249a16.731,16.731,0,0,0-1.3,3.569,23.036,23.036,0,0,0-.389,3.05l-.779,12.331a9.323,9.323,0,0,0,3.5-.454l4.283-10.838a16.549,16.549,0,0,0,1.428-5.452c0-3.7-3.569-17.2-3.894-17.912-.909-1.558-2.985-1.752-4.673-2.271a11.74,11.74,0,0,1-3.634-1.752,1.783,1.783,0,0,0-1.622-.519Z" transform="translate(-123.1 -115.771)" fill="#071932"/>
    </g>
    <path id="Path_1869" data-name="Path 1869" d="M166.228,96.67a10.909,10.909,0,0,0,5.711.844,3.221,3.221,0,0,1,1.752-.065c-.26.389-.519.844-.13,1.168a.922.922,0,0,0,.389.13,3.57,3.57,0,0,0,1.428-.13.873.873,0,0,1,1.363.844,1.488,1.488,0,0,1-.779.973,4.183,4.183,0,0,1-4.089.26,10.57,10.57,0,0,1-1.1-.714,9.735,9.735,0,0,0-2.336-.714,43.762,43.762,0,0,1-6.879-2.012,3.024,3.024,0,0,1-1.622-1.168c-.454-1.1.389-2.985,1.687-2.271a31.646,31.646,0,0,0,4.608,2.856Z" transform="translate(440.369 4648.328)" fill="#fcbdba"/>
    <path id="Path_1870" data-name="Path 1870" d="M149.606,86.8a24.106,24.106,0,0,0,8.632,3.569c.13,0,.324.065.324.26a.39.39,0,0,1-.065.26,20.585,20.585,0,0,1-2.336,3.5,1.72,1.72,0,0,1-.389.325.926.926,0,0,1-.844-.13c-2.012-.779-3.894-1.687-5.841-2.661a13.661,13.661,0,0,1-4.413-3.245,3.877,3.877,0,0,1-.973-2.531c0-1.038.909-2.92,2.271-2.4a5.248,5.248,0,0,1,1.558,1.363,18.07,18.07,0,0,0,2.077,1.687Z" transform="translate(446.012 4651.836)" fill="#fc5b3f"/>
    <path id="Path_1871" data-name="Path 1871" d="M149.606,86.8a24.106,24.106,0,0,0,8.632,3.569c.13,0,.324.065.324.26a.39.39,0,0,1-.065.26,20.585,20.585,0,0,1-2.336,3.5,1.72,1.72,0,0,1-.389.325.926.926,0,0,1-.844-.13c-2.012-.779-3.894-1.687-5.841-2.661a13.661,13.661,0,0,1-4.413-3.245,3.877,3.877,0,0,1-.973-2.531c0-1.038.909-2.92,2.271-2.4a5.248,5.248,0,0,1,1.558,1.363,18.07,18.07,0,0,0,2.077,1.687Z" transform="translate(446.012 4651.836)" fill="#3e3e54"/>
    <path id="Path_1872" data-name="Path 1872" d="M185.154,77.1a3.812,3.812,0,0,1-.649,5.322,3.87,3.87,0,0,1-2.92.779s-4.154.13-3.245,4.024l7.983,10.124L176.2,105.332c-3.894.909-4.024-3.245-4.024-3.245a3.8,3.8,0,1,0-4.283,3.245h.195c3.634,1.168,2.207,4.673,2.207,4.673l-10.124,7.983L139.4,91.768l10.059-7.983c3.894-.909,4.024,3.245,4.024,3.245a3.772,3.772,0,1,0,7.463,1.1,3.681,3.681,0,0,0-.779-2.92,4.162,4.162,0,0,0-2.661-1.428c-3.569-1.168-2.207-4.738-2.207-4.738L165.554,71l7.983,10.124s3.569,1.363,4.673-2.207a3.745,3.745,0,0,1,4.154-3.375A4.151,4.151,0,0,1,185.154,77.1Z" transform="translate(447.527 4656.281)" fill="#505d6f"/>
    <path id="Path_1874" data-name="Path 1874" d="M156.1,112.911c2.207,1.752,4.413,3.7,7.074,4.089a3.494,3.494,0,0,0,2.985-.584.831.831,0,0,0,.454-.844c-.13-.454-.649-.584-1.038-.714a13.79,13.79,0,0,1-5.711-2.077,13.053,13.053,0,0,1-1.817-1.493l-4.283-3.894a.589.589,0,0,0-.454-.195c-.195,0-.325.195-.389.389a9.012,9.012,0,0,0-.649,1.687c-.13.649,0,.779.584,1.1a35.342,35.342,0,0,1,3.245,2.531Z" transform="translate(443.023 4643.574)" fill="url(#linear-gradient-3)"/>
    <path id="Path_1875" data-name="Path 1875" d="M158.1,108.745a10.332,10.332,0,0,0,5.322,2.466,3.786,3.786,0,0,1,1.687.389c-.389.26-.779.779-.519,1.1a.648.648,0,0,0,.324.26,3.389,3.389,0,0,0,1.363.26,1.289,1.289,0,0,1,.714.065.868.868,0,0,1,.325,1.1,2.166,2.166,0,0,1-.974.779,4.115,4.115,0,0,1-4.024-.909l-.844-.909a13.273,13.273,0,0,0-2.012-1.3,39.4,39.4,0,0,1-6.036-3.829A2.583,2.583,0,0,1,152.2,106.6c-.13-1.168,1.168-2.726,2.271-1.687,1.233,1.168,2.271,2.661,3.634,3.829Z" transform="translate(443.039 4644.496)" fill="#fcbdba"/>
    <path id="Path_1876" data-name="Path 1876" d="M122.924,105.441a3.566,3.566,0,0,0,.584.454,20.967,20.967,0,0,0,2.726,1.3,11.486,11.486,0,0,0,7.658-.065,10.081,10.081,0,0,0,2.726-1.493,2.96,2.96,0,0,0,.779-.779,2.558,2.558,0,0,0,.195-1.687,31.848,31.848,0,0,1,0-8.956,20.713,20.713,0,0,1,.844-2.856,21.012,21.012,0,0,0,1.752-3.894,5.815,5.815,0,0,0-1.233-4.8c-1.1-1.493-3.245-2.726-5.127-2.142a12.346,12.346,0,0,0-5.387,4.089A25.871,25.871,0,0,0,125,91.423a21.125,21.125,0,0,0-.973,2.856,44.139,44.139,0,0,0-1.1,7.139c-.13.973-.195,2.012-.324,3.05a5.557,5.557,0,0,0,.324.973Z" transform="translate(453.403 4652.992)" fill="#3e3e54"/>
    <path id="Path_1877" data-name="Path 1877" d="M139.544,112.861a10.081,10.081,0,0,0,2.726-1.493,2.96,2.96,0,0,0,.779-.779,2.558,2.558,0,0,0,.195-1.687,31.848,31.848,0,0,1,0-8.956,13.219,13.219,0,0,0-1.1-.973c-.844-.779-2.207-2.207-3.44-2.077q.483,2.025.779,4.089c.195,1.363.13,2.791.324,4.154a22.332,22.332,0,0,1-.195,7.2,1.116,1.116,0,0,1-.065.519Z" transform="translate(447.761 4647.195)" fill="#2e2e46"/>
    <path id="Path_1878" data-name="Path 1878" d="M149.365,98.413a.665.665,0,0,1,.324.389.7.7,0,0,1-.13.389,10.436,10.436,0,0,1-2.985,2.856l-.389.195a.589.589,0,0,1-.454-.195l-5.257-4.024a12.205,12.205,0,0,1-2.92-2.856,11.485,11.485,0,0,1-1.363-3.18c-1.038-3.31,2.142-4.738,4.218-2.336,2.856,3.115,5.387,6.23,8.956,8.761Z" transform="translate(448.713 4650.156)" fill="#3e3e54"/>
    <path id="Path_1879" data-name="Path 1879" d="M146.445,176.047a.7.7,0,0,1,.065-.714.682.682,0,0,1,.779,0,9.011,9.011,0,0,0,1.687.649,2.309,2.309,0,0,0,1.752-.195,2.371,2.371,0,0,1,.909-.454.863.863,0,0,1,.519.195,5.807,5.807,0,0,0,1.687.584,1.361,1.361,0,0,1,.714.26c.065.065.13.13.13.195,0,.195-.195.324-.324.389-1.882.714-3.894.454-5.841.26h-.714c-.324.065-.779.26-.973,0a4.925,4.925,0,0,1-.389-1.168Zm-17.458,5a.732.732,0,0,1,.195-.714c.26-.195.519,0,.779.13a5.341,5.341,0,0,0,1.622.779,2.7,2.7,0,0,0,1.752,0c.324-.13.649-.389.973-.324a1.046,1.046,0,0,1,.454.26,3.775,3.775,0,0,0,1.622.779,2.4,2.4,0,0,1,.714.324c.065.065.065.13.13.195a.363.363,0,0,1-.389.324c-1.947.519-3.894,0-5.841-.519a2.333,2.333,0,0,0-.714-.13c-.324,0-.779.13-.973-.195-.26-.13-.324-.519-.324-.909Z" transform="translate(451.177 4619.703)" fill="#e55235"/>
    <path id="Path_1880" data-name="Path 1880" d="M149.417,72.29c-.13.519-.325.973-.454,1.493a12.248,12.248,0,0,1-.584,2.207,2.536,2.536,0,0,1-1.493,1.558,1.421,1.421,0,0,1-1.817-.844c-.454.13-.584.649-.584,1.038a1.662,1.662,0,0,1-.26,1.233c-.389.519-1.168.26-1.687-.065a4.9,4.9,0,0,1-2.077-4.932c.454-2.012.454-4.348,1.558-6.036a5.218,5.218,0,0,1,1.493-1.428,3.48,3.48,0,0,1,1.752-.714,4.415,4.415,0,0,1,1.3.13c1.882.324,3.5.649,3.5,2.726A10.24,10.24,0,0,1,149.417,72.29Z" transform="translate(447.17 4658.107)" fill="#fcbdba"/>
    <path id="Path_1881" data-name="Path 1881" d="M146.428,68.273c-.325,0-.649-.065-.844.13s-.26.584-.454.844c-.324.584-1.1.714-1.687.909a2.17,2.17,0,0,0-1.168,2.012,1.728,1.728,0,0,0-.195-.779.506.506,0,0,0-.649-.13c-.065.13-.13.195-.13.325a1.459,1.459,0,0,0,.584,1.3,2.255,2.255,0,0,1-2.077,1.233,1.246,1.246,0,0,1-.779-.26,1.413,1.413,0,0,1-.325-.519c-.519-1.428.26-2.92.454-4.413a6.515,6.515,0,0,1,.26-1.558,2.039,2.039,0,0,1,.714-.909,6.775,6.775,0,0,1,3.18-2.142c1.168-.325,3.569-.195,4.478.779a1.8,1.8,0,0,1-.324,2.6,1.112,1.112,0,0,1-1.038.584Z" transform="translate(447.821 4658.684)"/>
    <path id="Path_1882" data-name="Path 1882" d="M149.9,246.221V229.672c2.207-4.738,6.49-1.493,6.49-1.493a4.866,4.866,0,1,0,.195-6.879l-.195.195c-4.024,2.661-6.49-1.493-6.49-1.493V203.452h16.549s4.154-2.4,1.493-6.49a4.866,4.866,0,1,1,6.879-.195l-.195.195s-3.245,4.283,1.493,6.49h16.549v42.834Z" transform="translate(443.849 4615.014)" fill="url(#linear-gradient-4)"/>
    <g id="Group_8442" data-name="Group 8442" transform="translate(559.026 4778.617)">
      <path id="Path_1883" data-name="Path 1883" d="M99.485,231.808H96.5l30.568-80.8a1.323,1.323,0,0,1,1.3-.844,1.371,1.371,0,0,1,1.363,1.363,1.429,1.429,0,0,1-.065.519Zm17.912,0h-3.05L145.369,150.1h2.985Z" transform="translate(-96.5 -150.1)" fill="#fc5b3f"/>
      <path id="Path_1884" data-name="Path 1884" d="M145.24,168.577H129.4l.779-2.077h15.835Zm-4.867,12.85H124.537l.779-2.077h15.835Zm-4.867,12.85H119.67l.844-2.142h15.771Zm-4.867,12.85H114.867l.779-2.142h15.835Zm-4.867,12.785H110l.779-2.077h15.835Z" transform="translate(-101.239 -155.857)" fill="#fc5b3f"/>
    </g>
    <path id="Path_1885" data-name="Path 1885" d="M125.575,162.872l-4.024,10.708h14.927l-.779,2.142H120.772l-4.024,10.708h14.927l-.779,2.142H115.97l-4.024,10.708h14.927l-.779,2.142H111.167l-4.024,10.708H122.07l-.779,2.142H106.365L99.485,231.86H96.5l30.568-80.8a1.485,1.485,0,0,1,1.882-.714,1.345,1.345,0,0,1,.779,1.1,1.429,1.429,0,0,1-.065.519l-3.31,8.761h14.927l-.779,2.142H125.575Z" transform="translate(462.526 4628.465)" fill="#3e3e54"/>
    <path id="Path_1886" data-name="Path 1886" d="M127.05,231.808H124L155.022,150.1h2.985Z" transform="translate(452.916 4628.518)" fill="#3e3e54"/>
    <path id="Path_1887" data-name="Path 1887" d="M350.892,164.219a3.537,3.537,0,0,1-1.558.779,3.808,3.808,0,0,1-1.493-.26l-7.334-2.4a2.822,2.822,0,0,0-.649,3.764,6.043,6.043,0,0,0,2.661,1.622l5.062,1.817a8.681,8.681,0,0,0,7.4-.065c1.493-.519,3.18-1.1,3.894-2.531.779-1.428.195-3.31.454-4.932a27.634,27.634,0,0,0,.649-3.18c0-.909-.779-2.336-1.882-2.142-.909.195-1.622,1.817-2.142,2.531a23.136,23.136,0,0,1-5.062,5Z" transform="translate(377.482 4626.211)" fill="#fff"/>
    <path id="Path_1888" data-name="Path 1888" d="M337.1,164.3a1.532,1.532,0,0,0-.389-.584.623.623,0,0,0-.584-.13.774.774,0,0,0-.325.584.39.39,0,0,1-.065.26c-.065.065-.13,0-.26,0a15.847,15.847,0,0,0-2.531-.389.578.578,0,0,0-.649.389v.324a1.558,1.558,0,0,0,.454.779c.454.714.649,1.622,1.3,2.142a2.129,2.129,0,0,0,1.363.325,10.515,10.515,0,0,1,1.428-.065,1.066,1.066,0,0,0,.909-.13.873.873,0,0,0,.324-.779,2.844,2.844,0,0,0-.454-1.233,3.174,3.174,0,0,0-.519-1.493Zm20.573,55.359c-2.791-.649-2.271,3.375-2.985,4.867a8.689,8.689,0,0,1-1.752,2.012,3.458,3.458,0,0,0-1.233,2.271.757.757,0,0,0,.714.844,5.911,5.911,0,0,0,4.8-.519,3.888,3.888,0,0,0,1.687-1.558,5.769,5.769,0,0,0,.454-2.336C359.233,223.619,359.947,220.179,357.676,219.66Z" transform="translate(379.979 4623.793)" fill="#fdb9a9"/>
    <path id="Path_1889" data-name="Path 1889" d="M364.545,262.7s-8.048.389-4.608,2.856,8.5-.649,8.956-1.168.065-1.558.065-1.558Z" transform="translate(370.579 4588.994)" fill="#071932"/>
    <path id="Path_1890" data-name="Path 1890" d="M368.742,262.434c-.714.844-4.478,2.077-6.165,1.947s-3.18-.844-2.985-2.012c.195-1.038,3.115-3.634,3.7-3.569s.974,1.3,2.142,1.558a2.914,2.914,0,0,0,2.726-.974.736.736,0,0,1,.844-.26A3.949,3.949,0,0,1,368.742,262.434Z" transform="translate(370.406 4590.363)" fill="#fff"/>
    <path id="Path_1891" data-name="Path 1891" d="M382.971,252.355c-2.791-.714-2.271,3.375-2.985,4.8a8.689,8.689,0,0,1-1.752,2.012A3.458,3.458,0,0,0,377,261.441a.757.757,0,0,0,.714.844,6.177,6.177,0,0,0,4.8-.519,3.888,3.888,0,0,0,1.687-1.558,5.679,5.679,0,0,0,.454-2.271C384.593,256.314,385.372,252.874,382.971,252.355Z" transform="translate(364.29 4592.654)" fill="#fdb9a9"/>
    <path id="Path_1892" data-name="Path 1892" d="M379.445,265.1s-8.047.324-4.608,2.856,8.5-.649,8.956-1.168.065-1.558.065-1.558Z" transform="translate(365.349 4588.152)" fill="#071932"/>
    <path id="Path_1893" data-name="Path 1893" d="M383.542,264.734c-.714.844-4.478,2.077-6.165,1.947s-3.18-.844-2.985-2.012c.195-1.038,3.115-3.634,3.7-3.569s.974,1.3,2.142,1.558a3.034,3.034,0,0,0,2.726-.909.736.736,0,0,1,.844-.26A3.591,3.591,0,0,1,383.542,264.734Z" transform="translate(365.212 4589.557)" fill="#fff"/>
    <g id="Group_8443" data-name="Group 8443" transform="translate(733.051 4805.811)">
      <path id="Path_1894" data-name="Path 1894" d="M375,196.3l3.764,39.654,5.452-.714c2.142-9.67,1.622-38.615,1.622-38.615L375,196.3Z" transform="translate(-368.059 -193.509)" fill="#3e3e54"/>
      <path id="Path_1895" data-name="Path 1895" d="M375.075,193.752l-3.764,39.654-5.452-.714c-3.115-25.116-.584-40.692-.584-40.692l9.8,1.752Z" transform="translate(-364.305 -192)" fill="#3e3e54"/>
    </g>
    <path id="Path_1896" data-name="Path 1896" d="M366.285,164.548c-.065-.779-.26-1.428-.324-2.207a17.245,17.245,0,0,1,.065-4.478,19.9,19.9,0,0,1,1.428-4.608c.649-1.233,1.752-1.752,3.05-2.4a10.794,10.794,0,0,1,3.44-1.168,10.31,10.31,0,0,1,2.466.13c2.531.519,5.906,1.752,7.658,3.829,1.3,1.493,1.493,3.7,1.493,5.646q.1,4.156-.195,8.307c0,.389-.065.779-.065,1.168a48.022,48.022,0,0,1-1.363,9.086,3.591,3.591,0,0,1-1.428,2.336c-2.012,1.168-5.062.519-7.2.26-2.856-.454-5.776-.779-8.372-2.271a2.547,2.547,0,0,1-1.168-1.168,2.888,2.888,0,0,1,.26-1.947c.844-2.791.195-5.776.195-8.7,0-.519.065-1.038.065-1.558v-.26Z" transform="translate(368.255 4628.672)" fill="#071932"/>
    <path id="Path_1897" data-name="Path 1897" d="M375.621,173.655a4.848,4.848,0,0,0,2.271.844c2.336.714,4.738,1.038,7.074,1.752a.969.969,0,0,1,.454.195.7.7,0,0,1,.13.519,5.242,5.242,0,0,1-.324,2.012,1.13,1.13,0,0,1-.519.779,1.434,1.434,0,0,1-1.038,0l-8.761-1.882a6.417,6.417,0,0,0-1.947-.26,7.337,7.337,0,0,0-2.271.584,15.3,15.3,0,0,1-4.089.844,25.7,25.7,0,0,1,.649-5,5.086,5.086,0,0,1,.584-1.363,9.271,9.271,0,0,1,.973-1.168c1.428-1.493,2.336-3.31,3.829-4.8a18.291,18.291,0,0,0,2.336-2.142c.26-.325,2.531-3.245,2.336-3.569.454.584,1.558,0,1.947.584.26.389,0,.779-.26,1.168a29.427,29.427,0,0,0-3.5,9.216c-.26.909-.519,1.168.13,1.687Z" transform="translate(367.94 4624.691)" fill="#020a16"/>
    <path id="Path_1898" data-name="Path 1898" d="M342.934,124.214a4.9,4.9,0,0,1-1.687,8.891s-5.062,1.882-2.207,6.23l13.953,8.891-8.826,13.953c-4.348,2.791-6.23-2.207-6.23-2.207a4.862,4.862,0,1,0-3.829,5.711.238.238,0,0,0,.195-.065c4.867-.13,4.673,4.738,4.673,4.738l-8.826,13.953L294,161.336l8.761-13.824c4.348-2.791,6.23,2.207,6.23,2.207a4.862,4.862,0,1,0,3.829-5.711c-.065,0-.13.065-.26.065-4.867.13-4.673-4.738-4.673-4.738l8.956-14.083,13.953,8.891s4.867.195,4.738-4.673a5,5,0,0,1,.649-3.829,5.134,5.134,0,0,1,6.75-1.428Z" transform="translate(393.423 4637.854)" fill="#4d5a6c"/>
    <path id="Path_1899" data-name="Path 1899" d="M393.93,164.648a6.046,6.046,0,0,1,.844,2.012,7.907,7.907,0,0,1,.065,3.7,7.6,7.6,0,0,1-1.233,3.31c-1.493,1.752-4.154,1.947-6.49,1.752a38.8,38.8,0,0,1-7.723-1.558,1.237,1.237,0,0,1-.649-.324,2.431,2.431,0,0,1-.454-.779,13.862,13.862,0,0,1-.389-2.271c2.661-.779,5.581-.13,8.372-.584a1.162,1.162,0,0,0,1.168-1.168.823.823,0,0,0-.065-.389c-.13-1.558-1.1-2.92-1.558-4.413a6.86,6.86,0,0,1,.13-4.413,3.679,3.679,0,0,1,2.012-2.271c1.1-.389,1.558.519,2.142,1.3A37.051,37.051,0,0,1,393.93,164.648Z" transform="translate(363.974 4626.039)" fill="#071932"/>
    <path id="Path_1900" data-name="Path 1900" d="M374.1,161.353l-.389-.195a.609.609,0,0,0-.519.389c-.065.195-.195.389-.26.584a1.382,1.382,0,0,1-1.038.454,3.529,3.529,0,0,0-1.168,0,.74.74,0,0,0-.389.195,1.357,1.357,0,0,0-.26.389,1.8,1.8,0,0,0,.519,1.687,2.935,2.935,0,0,0,1.558.909,3.333,3.333,0,0,0,1.947.26,3.391,3.391,0,0,0,.973-.454l1.3-.714c.13-.065.195-.13.324-.195.325-.389-.13-1.428-.389-1.752A6.514,6.514,0,0,0,374.1,161.353Zm-.844-21.157c0-.779.065-1.558.13-2.271a18.609,18.609,0,0,1,.324-2.012,1.144,1.144,0,0,1,.519-.973,5.591,5.591,0,0,1,3.375-.844,3.375,3.375,0,0,1,2.466.844,3.48,3.48,0,0,1,.714,1.752,18.436,18.436,0,0,1-.519,5,19.348,19.348,0,0,0-.195,3.894,4.3,4.3,0,0,1-2.142.779,2.167,2.167,0,0,1-.973-.195c-.195-.065-.389-.13-.454-.324a.554.554,0,0,1,0-.454v-.454a8.881,8.881,0,0,0-.065-2.271.238.238,0,0,0-.065-.195h-.389a3.145,3.145,0,0,1-1.1,0,2.012,2.012,0,0,1-1.168-.584,2.1,2.1,0,0,1-.454-1.687Z" transform="translate(366.732 4634.139)" fill="#fdb9a9"/>
    <path id="Path_1901" data-name="Path 1901" d="M376.405,133.678c-.26,0-.519.13-.779,0a3.4,3.4,0,0,1-.649-.714,2.676,2.676,0,0,1-.584-1.947,1.234,1.234,0,0,1,.324-.844,2.452,2.452,0,0,1,.779-.584,4.284,4.284,0,0,1,1.752-.389,4.6,4.6,0,0,1,2.336,1.1,1.413,1.413,0,0,0,.519.324.711.711,0,0,0,.519,0,4.432,4.432,0,0,1,3.115.909c.519.454.844.973,1.363,1.363s.973.519,1.3.973a1.286,1.286,0,0,1-.13,1.428,2.426,2.426,0,0,1-1.3.779,1.109,1.109,0,0,1-.714,1.493,2.063,2.063,0,0,0-.584.195c-.13.13-.195.26-.325.389-.324.26-.714.325-.779.779a1.613,1.613,0,0,0-.065.519,1.042,1.042,0,0,1-.324.714c-.13.13-.324.454-.519.519s-.324-.195-.389-.389a3.859,3.859,0,0,1,.13-2.271,2.069,2.069,0,0,0,.389-1.1c0-.454-.584-.779-.844-.519-.324.26-.324.779-.649.714a2.481,2.481,0,0,0-1.233-3.05,6.274,6.274,0,0,0-1.882-.26,2.119,2.119,0,0,0-.779-.13Z" transform="translate(365.209 4635.854)"/>
    <path id="Path_1902" data-name="Path 1902" d="M379.525,146.637a12.346,12.346,0,0,0,2.207-.637,3.1,3.1,0,0,1-2.03,3.262,13.523,13.523,0,0,0-.112-2.288.238.238,0,0,0-.065-.195Z" transform="translate(363.518 4629.957)" fill="#e8a090"/>
    <path id="Path_1903" data-name="Path 1903" d="M333.787,156.645a1.529,1.529,0,0,1,.195,1.3,3.4,3.4,0,0,1-.714,1.233l-1.363,2.077c-.389.584-.844,1.1-1.493,1.038-1.493-.13-2.207-4.024-1.622-5.257.649-1.428,4.024-1.687,5-.389Z" transform="translate(381.237 4626.516)" fill="#fdb9a9"/>
    <path id="Path_1904" data-name="Path 1904" d="M324.434,203.387v42.834H281.6V229.672s2.4-4.154,6.49-1.493a4.866,4.866,0,1,0,.195-6.879l-.195.195s-4.283,3.245-6.49-1.493V203.452h16.549c4.738-2.207,1.493-6.49,1.493-6.49a4.866,4.866,0,1,1,6.879-.195l-.195.195c-2.661,4.024,1.493,6.49,1.493,6.49l16.614-.065Z" transform="translate(397.729 4615.014)" fill="#848d9a"/>
    <g id="Group_8444" data-name="Group 8444" transform="translate(636.507 4775.566)">
      <path id="Path_1906" data-name="Path 1906" d="M230.562,166.817a4.9,4.9,0,0,1-4.867,4.867,5.2,5.2,0,0,1-3.5-1.493c-4.024-2.661-6.49,1.493-6.49,1.493v16.549h42.834V145.4H215.7v16.484c2.207,4.738,6.49,1.493,6.49,1.493a4.839,4.839,0,0,1,6.879-.13A5.359,5.359,0,0,1,230.562,166.817Z" transform="translate(-215.7 -145.4)" fill="#38475b"/>
      <path id="Path_1907" data-name="Path 1907" d="M242.758,217.79a4.866,4.866,0,1,0,6.879.195l-.195-.195s-3.245-4.283,1.493-6.49H241.2C241.2,211.365,245.418,213.766,242.758,217.79Z" transform="translate(-224.651 -168.531)" fill="#38475b"/>
    </g>
    <g id="Group_8445" data-name="Group 8445" transform="translate(593.781 4803.586)">
      <path id="Path_1909" data-name="Path 1909" d="M215.7,211.4v42.834h42.834V237.684s2.4-4.154,6.49-1.493a4.866,4.866,0,1,0,.195-6.879l-.195.195s-4.283,3.245-6.49-1.493V211.465H242.049c-4.738,2.207-1.493,6.49-1.493,6.49a4.866,4.866,0,1,1-6.879.195l.195-.195c2.661-4.024-1.493-6.49-1.493-6.49L215.7,211.4Z" transform="translate(-172.996 -196.585)" fill="#071932"/>
      <path id="Path_1910" data-name="Path 1910" d="M149.9,246.221V229.672c2.207-4.738,6.49-1.493,6.49-1.493a4.866,4.866,0,1,0,.195-6.879l-.195.195c-4.024,2.661-6.49-1.493-6.49-1.493V203.452h16.549s4.154-2.4,1.493-6.49a4.866,4.866,0,1,1,6.879-.195l-.195.195s-3.245,4.283,1.493,6.49h16.549v42.834Z" transform="translate(-149.9 -188.572)" fill="#071932"/>
    </g>
    <path id="Path_1911" data-name="Path 1911" d="M149.9,246.221V229.672c2.207-4.738,6.49-1.493,6.49-1.493a4.866,4.866,0,1,0,.195-6.879l-.195.195c-4.024,2.661-6.49-1.493-6.49-1.493V203.452h16.549s4.154-2.4,1.493-6.49a4.866,4.866,0,1,1,6.879-.195l-.195.195s-3.245,4.283,1.493,6.49h16.549v42.834Z" transform="translate(443.849 4615.014)" fill="#38475b"/>
    <path id="Path_1912" data-name="Path 1912" d="M207.566,166.817a4.9,4.9,0,0,1-4.867,4.867,5.2,5.2,0,0,1-3.5-1.493s-4.283-3.245-6.49,1.493v16.549H176.154c-4.738-2.207-1.493-6.49-1.493-6.49a4.866,4.866,0,1,0-6.879-.195l.195.195c2.661,4.024-1.493,6.49-1.493,6.49H150V145.4h16.355c4.738,2.207,1.493,6.49,1.493,6.49a4.866,4.866,0,1,0,6.879.195l-.195-.195c-2.661-4.024,1.493-6.49,1.493-6.49H192.7v16.484s2.4,4.154,6.49,1.493a4.839,4.839,0,0,1,6.879-.13A5.067,5.067,0,0,1,207.566,166.817Zm10.449,82.292a4.9,4.9,0,0,1-4.8,4.932,5.29,5.29,0,0,1-3.569-1.428s-4.348-3.18-6.425,1.622l.26,16.549-16.549.26c-4.738-2.142-1.622-6.425-1.622-6.425a4.865,4.865,0,1,0-6.879-.065l.13.13c2.726,3.959-1.428,6.49-1.428,6.49l-16.549.26L159.93,228.6l16.355-.26c4.738,2.142,1.622,6.425,1.622,6.425a4.865,4.865,0,1,0,6.879.065l-.13-.13c-2.726-3.959,1.428-6.49,1.428-6.49l16.679-.26.26,16.549s2.466,4.154,6.49,1.428a4.909,4.909,0,0,1,3.569-1.558A4.728,4.728,0,0,1,218.015,249.109Z" transform="translate(443.825 4630.168)" fill="#828b98"/>
    <path id="Path_1913" data-name="Path 1913" d="M174.441,272.685c-.649.714-1.038,2.142-.13,2.661a2.154,2.154,0,0,0,1.038.324l5,.649c-.13,0,2.466,29.464,3.5,35.76.13.779.454,1.687,1.168,1.752a1.271,1.271,0,0,0,1.1-.714,7.014,7.014,0,0,0,1.168-3.829,217.55,217.55,0,0,0,1.752-29.01,11.561,11.561,0,0,0-.973-5.581,7.8,7.8,0,0,0-5.257-3.5C180.087,270.609,176.517,270.414,174.441,272.685Z" transform="translate(435.476 4586.148)" fill="url(#linear-gradient-5)"/>
    <path id="Path_1914" data-name="Path 1914" d="M193.33,364.6v.13c.195.584.844.714,1.428.779a13.563,13.563,0,0,0,1.622.065,1.646,1.646,0,0,0,.779-.13,5.7,5.7,0,0,0,.649-.389l1.558-1.1a8.9,8.9,0,0,0,1.168-1.038,1.72,1.72,0,0,0,.519-1.428,1.263,1.263,0,0,0-.909-1.1,2.458,2.458,0,0,0-.973,0,1.955,1.955,0,0,1-1.882-.844,1.558,1.558,0,0,0-.454-.779,1.086,1.086,0,0,0-.779-.065,4.178,4.178,0,0,0-1.558.324,2.041,2.041,0,0,0-1.1,1.1,3.159,3.159,0,0,0-.065.779v1.493l-.13,1.882c.065,0,.065.195.13.324Zm14.992.26a27.848,27.848,0,0,1-3.245,1.233,1.975,1.975,0,0,1-1.363.065,1.624,1.624,0,0,1-.779-.844,3.594,3.594,0,0,1-.13-1.168,8.215,8.215,0,0,1,.389-1.817,15.156,15.156,0,0,0,.26-1.687l.324-2.336,2.791.649c.324.065.584,1.168.779,1.428a1.644,1.644,0,0,0,1.1.649,10.611,10.611,0,0,1,1.428-.13,1.389,1.389,0,0,1,1.1,1.363,2.185,2.185,0,0,1-.779,1.687,4.177,4.177,0,0,1-1.622.973l-.26-.065Z" transform="translate(428.673 4555.438)" fill="#262836"/>
    <path id="Path_1915" data-name="Path 1915" d="M207.163,337.029a11.766,11.766,0,0,1-2.271,1.038h-.065c-1.3.519-2.726-1.493-2.726-1.493s-1.817-11.292-1.752-15.9c.065-3.18-.714-7.788-1.882-16.03-.324,8.5-1.752,12.136-1.363,15.186.584,4.608-.13,16.1-.13,16.1s-1.233,2.271-2.531,1.947h-.065a14.1,14.1,0,0,1-2.336-.779s-1.558-15.771-1.558-19.924.195-7.853.195-7.853l-.779-13.175,3.5-5.062.324-.13.26-.26,3.894-2.791s0,.714-.065,1.752l2.985,1.622.325.195.324.065,5,.844L208.2,316.65C208.461,320.8,207.163,337.029,207.163,337.029Z" transform="translate(429.829 4580.148)" fill="#fc5b3f"/>
    <path id="Path_1916" data-name="Path 1916" d="M207.163,337.029a11.766,11.766,0,0,1-2.271,1.038h-.065c-1.3.519-2.726-1.493-2.726-1.493s-1.817-11.292-1.752-15.9c.065-3.18-.714-7.788-1.882-16.03-.324,8.5-1.752,12.136-1.363,15.186.584,4.608-.13,16.1-.13,16.1s-1.233,2.271-2.531,1.947h-.065a14.1,14.1,0,0,1-2.336-.779s-1.558-15.771-1.558-19.924.195-7.853.195-7.853l-.779-13.175,3.5-5.062.324-.13.26-.26,3.894-2.791s0,.714-.065,1.752l2.985,1.622.325.195.324.065,5,.844L208.2,316.65C208.461,320.8,207.163,337.029,207.163,337.029Z" transform="translate(429.829 4580.148)" fill="#071932"/>
    <path id="Path_1917" data-name="Path 1917" d="M233.291,247.876a.238.238,0,0,1,.195-.065c.195,0,.195.324.13.519a5.425,5.425,0,0,1-.779,1.493.589.589,0,0,0-.195.454c0,.195.13.26.26.389a3.153,3.153,0,0,1,.714,2.791,5.736,5.736,0,0,1-1.428,2.531,1.883,1.883,0,0,1-1.428.779,3.725,3.725,0,0,1-2.531-2.012,2.343,2.343,0,0,1,.454-2.4,11.345,11.345,0,0,1,4.608-4.478ZM205.579,238.6c.324.324.779.649.714,1.038-.065.26-.324.389-.519.519a2.4,2.4,0,0,0-.714,1.752,6.274,6.274,0,0,1-.26,1.882,1.29,1.29,0,0,1-1.493.844c-.389-.13-.779-.454-1.038-.26-.389.13-.389.454-.519.714a1.9,1.9,0,0,1-1.882.844,7.441,7.441,0,0,1-2.012-.714,2.881,2.881,0,0,1-.714-.519.94.94,0,0,1-.065-.714,7.391,7.391,0,0,1,1.038-2.012,7.538,7.538,0,0,0,1.3-3.894c.065-.973,0-2.077.649-2.791a3.31,3.31,0,0,1,3.894-.26c1.168.779.584,2.531,1.622,3.569Z" transform="translate(427.34 4598.885)" fill="#fdb9a9"/>
    <path id="Path_1918" data-name="Path 1918" d="M202.031,230.522a1.841,1.841,0,0,1-.584.649c-.519.26-.844.649-1.3.844a1.642,1.642,0,0,0-.779,1.233c-.195.844.325,1.882,0,2.791-.13.195-.454.065-.519-.13a1.562,1.562,0,0,0-.389-.519c-.325-.195-.714.13-.779.454a1.612,1.612,0,0,0,.844,2.012c-.065.324-.454.389-.714.389a4.465,4.465,0,0,0-.844-.13c-.714.13-.844,1.038-1.558,1.168a1.271,1.271,0,0,1-1.1-.714l-.779-.844a3.25,3.25,0,0,0-.454-.519c-.195-.13-.519-.13-.649-.325s0-.584-.195-.779c-.065-.065-.195-.13-.26-.195a1.033,1.033,0,0,1-.584-1.3v-.195c0-.065-.13-.13-.195-.195a1.162,1.162,0,0,1-.454-1.493,1.772,1.772,0,0,1,.584-.779.848.848,0,0,1,.779-.389l.13-1.168a1.359,1.359,0,0,1,1.3-1.363h.26l-.26-.909a.414.414,0,0,1,0-.389,1.418,1.418,0,0,1,.324-.195l.909-.195a5.448,5.448,0,0,1-.26-.779.237.237,0,0,1,.13-.324c.065,0,.13-.065.195,0h.389l-.195-.844a1.117,1.117,0,0,1,.13-.779.945.945,0,0,1,.779-.324,1.425,1.425,0,0,1,.779.324c0-.324.389-.519.714-.519a3.607,3.607,0,0,1,3.05,1.493c.065.065.13.195.195.26a1.374,1.374,0,0,0,.454.195,2.257,2.257,0,0,1,1.038,1.168,6.539,6.539,0,0,1,.195,1.622,3.994,3.994,0,0,1-.13,1.233.863.863,0,0,0-.195.454Z" transform="translate(429.573 4602.545)"/>
    <g id="Group_8446" data-name="Group 8446" transform="translate(608.893 4842.605)">
      <path id="Path_1919" data-name="Path 1919" d="M199.446,249.154c.779.324,1.428.714,2.142,1.038a2.1,2.1,0,0,1,.584.519.819.819,0,0,1,.065.779c-.195.324-.649.195-.909.065a13.63,13.63,0,0,0-4.867-.714.524.524,0,0,1-.584-.26.919.919,0,0,1,.065-.714c.779-1.558,2.142-1.3,3.5-.714Z" transform="translate(-181.145 -248.698)" fill="#fff"/>
      <path id="Path_1920" data-name="Path 1920" d="M221.81,263.063a7.494,7.494,0,0,1-1.363,2.142l-1.752,1.882a37.508,37.508,0,0,1-4.608,3.894,9.519,9.519,0,0,1-3.829,2.077,2.722,2.722,0,0,1-1.752-.13,5.4,5.4,0,0,1-1.168-.844c-.454-.454-5.127-5.841-5.257-5.841a1.086,1.086,0,0,0-.584.714,12.145,12.145,0,0,0-1.233,4.478,11.8,11.8,0,0,0,0,2.142c.195,2.336.973,4.8.195,7.074a3.35,3.35,0,0,1-.779,1.233,3.78,3.78,0,0,1-1.168.714,10.717,10.717,0,0,1-2.336.714,9.719,9.719,0,0,1-1.428.13c-1.752.065-3.44-.26-5.192-.195-1.493.065-2.92.454-4.413.454a1.516,1.516,0,0,1-1.752-1.168v-.26a52.66,52.66,0,0,1-.844-9.54c0-1.1-.065-2.271-.13-3.375-.065-.909.195-3.375-.844-3.569-2.726-.584-5.581.13-8.372-.26a7.013,7.013,0,0,1,2.142-4.8,11.766,11.766,0,0,1,2.077-1.428,11.855,11.855,0,0,0,2.271-2.142,19.337,19.337,0,0,1,7.009-5.452,8.478,8.478,0,0,1,1.363-.519h.324a5.336,5.336,0,0,1,1.752.13c3.894.714,7.853,1.558,11.682,2.661a4.055,4.055,0,0,1,1.428.649,3.415,3.415,0,0,1,.779.909l3.245,4.932c.909,1.363,1.882,3.18,3.245,4.154a38.533,38.533,0,0,0,8.437-4.738c.389-.26.779-.584,1.233-.389a1.358,1.358,0,0,1,.389.26c.844.844,1.752,1.817,1.233,3.31Z" transform="translate(-173.2 -249.563)" fill="#fff"/>
    </g>
  </g>
</svg>
