<svg xmlns="http://www.w3.org/2000/svg" width="51.799" height="51.801" viewBox="0 0 51.799 51.801">
  <g id="corporate_treasuries" data-name="corporate treasuries" transform="translate(-1377 -2553)">
    <path id="Union_23" data-name="Union 23" d="M11055.417,21983.992a3.037,3.037,0,0,1-3.168-3.1c-.025-1.164-.02-2.33,0-3.5.006-.369-.089-.484-.476-.484q-8.278.021-16.557,0c-.383,0-.483.113-.477.484.023,1.123.018,2.248.006,3.371a3.058,3.058,0,0,1-3.231,3.229c-1.328,0-2.657.006-3.985,0a3.022,3.022,0,0,1-3.187-3.191c-.006-1.145-.013-2.289.007-3.434,0-.342-.085-.473-.443-.457-.591.027-1.185.016-1.777,0a4.236,4.236,0,0,1-4.126-4.051c-.01-.184-.007-.367-.007-.553q0-17.353,0-34.705a4.287,4.287,0,0,1,4.588-4.6q10.455,0,20.909,0h20.848a4.3,4.3,0,0,1,4.653,4.656q0,17.323,0,34.645a4.277,4.277,0,0,1-4.622,4.619c-.158,0-.331-.014-.5-.029a1.617,1.617,0,0,0-1.093.125c-.377.324-.1,1.074-.12,1.637-.024.734,0,1.471-.008,2.207a3.019,3.019,0,0,1-3.124,3.133q-1,.009-2.006.008Q11056.469,21984,11055.417,21983.992Zm-1.7-6.709c.015,1.225-.022,2.447.02,3.67a1.547,1.547,0,0,0,1.677,1.566c.673.012,1.347,0,2.02,0h2.02c.041,0,.082,0,.122,0a1.547,1.547,0,0,0,1.6-1.631c.016-1.184,0-2.365.01-3.549,0-.3-.055-.434-.4-.43-2.223.016-4.447.012-6.67,0h-.006C11053.837,21976.914,11053.709,21976.975,11053.713,21977.283Zm-27.907.178c.041,1.1.007,2.2.015,3.3a1.58,1.58,0,0,0,1.787,1.754q1.928.009,3.854,0a1.613,1.613,0,0,0,1.814-1.809c.012-1.1-.018-2.2.012-3.3.011-.422-.144-.506-.527-.5-1.061.023-2.122.008-3.183.008s-2.122.02-3.182-.012h-.073C11025.946,21976.906,11025.787,21977,11025.806,21977.461Zm-6.333-39.756c0,11.506.02,23.012-.022,34.52a3.039,3.039,0,0,0,3.263,3.244c6.908-.064,13.815-.023,20.723-.023,6.97,0,13.939-.035,20.906.02a3.009,3.009,0,0,0,3.2-3.18c-.036-11.527-.019-23.055-.019-34.582q0-3.231-3.242-3.23h-41.569Q11019.467,21934.473,11019.473,21937.705Zm24.026,34.893q-8.125,0-16.248,0a3.468,3.468,0,0,1-3.749-3.734q0-13.919,0-27.836a3.446,3.446,0,0,1,3.668-3.693q16.339-.009,32.68,0a3.441,3.441,0,0,1,3.645,3.654c0,.84.035,1.68-.013,2.514-.029.492.147.6.583.551a6.847,6.847,0,0,1,1.04,0c.476.023.8.275.789.758s-.325.707-.817.715a3.787,3.787,0,0,1-.5-.039c-.388-.045-.776-.092-.973.125-.331.363-.1,1.049-.1,1.594-.009,5.52,0,11.037-.021,16.555,0,.566.163.7.676.643a5.151,5.151,0,0,1,1.041,0,.7.7,0,0,1,.7.775.684.684,0,0,1-.721.686c-.144.006-.287,0-.43,0-1.248,0-1.248,0-1.248,1.279,0,.633.006,1.266,0,1.9a3.444,3.444,0,0,1-3.562,3.551q-3.382.006-6.766,0Zm-16.279-33.791a2.02,2.02,0,0,0-2.245,2.281q0,13.86,0,27.717a2.038,2.038,0,0,0,2.33,2.32h22.628q5,0,10,0a1.963,1.963,0,0,0,2.084-1.881c.031-1,0-2,.016-3,0-.295-.084-.387-.379-.379-.388.012-.774.01-1.162.008-.328,0-.657,0-.984,0-.509.01-.838-.2-.889-.715-.044-.443.339-.752.912-.76.654-.008,1.31-.027,1.961.008.416.023.558-.074.547-.521-.032-1.328-.012-2.658-.012-3.986,0-4.578-.013-9.156.016-13.734,0-.566-.161-.691-.679-.652-.34.025-.683.021-1.024.016-.252,0-.5-.008-.753,0-.516.018-.9-.133-.968-.7-.055-.457.346-.773.958-.781.675-.008,1.351-.021,2.023.008.356.014.443-.107.435-.447-.023-.857-.006-1.717-.009-2.574a2,2,0,0,0-2.238-2.227q-8.142,0-16.281,0T11027.22,21938.807Zm16.261,27.059a10.92,10.92,0,1,1,.014,0Zm2.816-6.674a4.583,4.583,0,0,1-1.792.752c-.194.041-.275.1-.274.3.007,1.365,0,2.73,0,4.111a9.538,9.538,0,0,0,5.056-1.957c.283-.217.291-.34.036-.586-.854-.822-1.684-1.668-2.522-2.506-.1-.1-.181-.2-.3-.2A.357.357,0,0,0,11046.3,21959.191Zm-6.043.053c-.948.955-1.906,1.9-2.882,2.869a9.487,9.487,0,0,0,5.064,2.219c.313.043.329-.076.327-.316,0-1.227-.007-2.453,0-3.68,0-.232-.033-.352-.307-.4a4.412,4.412,0,0,1-1.738-.723.421.421,0,0,0-.229-.094A.341.341,0,0,0,11040.254,21959.244Zm8.1-2.852a3,3,0,0,1-.6,1.324.334.334,0,0,0,.044.516c.938.936,1.867,1.881,2.847,2.871a9.544,9.544,0,0,0,2.188-4.9c.053-.395-.019-.531-.449-.518-1.019.031-2.041.045-3.059,0-.054,0-.106,0-.155,0C11048.7,21955.674,11048.432,21955.813,11048.357,21956.393Zm-14.2-.27a9.4,9.4,0,0,0,1.984,4.723c.146.188.231.217.409.037q1.329-1.354,2.679-2.686c.171-.168.143-.287.021-.467a4.294,4.294,0,0,1-.7-1.678c-.054-.311-.209-.377-.5-.367-.57.021-1.142.006-1.713.006-.592,0-1.185.018-1.775-.006-.022,0-.045,0-.065,0C11034.206,21955.684,11034.11,21955.777,11034.153,21956.123Zm5.743-1.145a3.6,3.6,0,1,0,7.2,0,3.6,3.6,0,1,0-7.2,0Zm10.456-5.836c-.7.715-1.389,1.445-2.129,2.115-.473.43-.749.809-.219,1.369.425.447.113,1.361.795,1.557a7.073,7.073,0,0,0,1.889.035c.571,0,1.146-.023,1.715.008.374.02.489-.064.436-.467a9.6,9.6,0,0,0-1.935-4.623c-.1-.135-.185-.187-.261-.187C11050.549,21948.949,11050.463,21949.031,11050.353,21949.143Zm-12.683,5.088c.576.064.889-.076.973-.713a2.992,2.992,0,0,1,.573-1.273c.145-.207.191-.35-.026-.561-.88-.852-1.742-1.723-2.6-2.6-.187-.191-.293-.2-.467.02a9.315,9.315,0,0,0-1.971,4.734c-.035.293.018.4.333.385.592-.021,1.185-.006,1.776-.006.288,0,.579-.016.867-.016A4.558,4.558,0,0,1,11037.67,21954.23Zm6.559-8.311c.019.611.006,1.223.006,1.834s.011,1.223,0,1.834c-.007.244.058.377.313.418a4.132,4.132,0,0,1,1.73.719c.229.162.343.082.5-.076q1.291-1.3,2.595-2.592c.18-.178.22-.289-.012-.469a9.363,9.363,0,0,0-4.782-1.979.689.689,0,0,0-.105-.008C11044.284,21945.6,11044.222,21945.686,11044.229,21945.92Zm-1.9-.307a9.545,9.545,0,0,0-4.667,1.953c-.259.2-.22.313-.019.508.7.684,1.387,1.381,2.078,2.072.676.676.7.713,1.536.24.483-.273,1.262-.1,1.46-.656a5.571,5.571,0,0,0,.041-1.758v-.184c0-.592-.021-1.184.007-1.773.016-.3-.054-.414-.289-.414A1.072,1.072,0,0,0,11042.332,21945.613Z" transform="translate(-9640.498 -19379.5)" fill="#071932" stroke="#071932" stroke-miterlimit="10" stroke-width="0.6"/>
    <circle id="Ellipse_107" data-name="Ellipse 107" cx="12" cy="12" r="12" transform="translate(1377 2553)" fill="#071932" opacity="0.1"/>
  </g>
</svg>
