<svg xmlns="http://www.w3.org/2000/svg" width="51.001" height="51.002" viewBox="0 0 51.001 51.002">
  <g id="customer_suitability" data-name="customer suitability" transform="translate(-420 -2951.998)">
    <circle id="Ellipse_61" data-name="Ellipse 61" cx="12" cy="12" r="12" transform="translate(420 2952)" fill="#071932" opacity="0.1"/>
    <path id="Union_31" data-name="Union 31" d="M11036.105,21983.789a25.935,25.935,0,0,1,.166-4.609,7.384,7.384,0,0,1,4.166-5.219c-.029-.191-.209-.262-.324-.375a4.914,4.914,0,0,1,2.086-8.3c.352-.1.523-.2.5-.625-.053-.836-.025-1.68-.01-2.52,0-.258-.059-.344-.336-.34-4.574.008-9.146-.008-13.721.012a2.44,2.44,0,0,0-2.393,2.453c-.02.836-.02.836.75,1.094a4.916,4.916,0,0,1,1.912,8.137c-.143.141-.273.293-.434.469a7.525,7.525,0,0,1,3.273,2.914,7.2,7.2,0,0,1,1.068,3.7c.016,1.023,0,2.055.012,3.082.006.27-.078.336-.342.336q-7.066-.006-14.133,0c-.16,0-.348.055-.336-.234a25.74,25.74,0,0,1,.189-4.656,7.281,7.281,0,0,1,3.816-4.957c.277-.145.428-.184.105-.484a4.9,4.9,0,0,1,2.117-8.4c.4-.105.363-.316.352-.582a4.149,4.149,0,0,1,1.725-3.738,4.091,4.091,0,0,1,2.5-.781q2.051.006,4.1,0c3.072,0,6.143,0,9.215.016.49,0,.592-.145.564-.59-.039-.543-.016-1.094-.008-1.641,0-.23.025-.363-.318-.3a2.481,2.481,0,0,1-2.883-1.934c-.076-.328-.18-.5-.545-.57a2.4,2.4,0,0,1-1.947-2c-.055-.27-.141-.383-.426-.437a2.459,2.459,0,0,1-2.057-2.082.39.39,0,0,0-.369-.371,2.508,2.508,0,0,1-1.768-3.812c.16-.3-.033-.4-.16-.547a7.784,7.784,0,0,1,10.8-11.109c.369.281.553.344.957.02a7.776,7.776,0,0,1,11.18,10.621.4.4,0,0,0,.029.617,2.529,2.529,0,0,1-1.418,4.191.5.5,0,0,0-.465.465,2.411,2.411,0,0,1-2.008,2,.507.507,0,0,0-.461.473,2.469,2.469,0,0,1-2.01,2.012c-.172.035-.355,0-.428.309-.469,2.027-2.125,2.742-4.066,1.723,0,.949,0,1.859,0,2.77,0,.3.246.176.381.176,1.541.012,3.082.008,4.625.008q4.368,0,8.736,0a4.094,4.094,0,0,1,4.332,4.348c0,.484.105.672.6.813a4.9,4.9,0,0,1,2.092,8.164c-.143.145-.27.3-.418.473a7.479,7.479,0,0,1,4.322,7.168c-.01.82-.014,1.645,0,2.465.008.289-.033.41-.377.41-4.693-.016-9.385-.008-14.08-.012-.146,0-.361.086-.352-.215a26.312,26.312,0,0,1,.15-4.508,7.23,7.23,0,0,1,3.977-5.176c.074-.039.141-.086.213-.129-.053-.2-.225-.266-.338-.379a4.909,4.909,0,0,1,2.111-8.293c.385-.109.482-.258.479-.645a2.531,2.531,0,0,0-2.85-2.836q-6.554,0-13.105-.012c-.375,0-.531.055-.512.484.041.855.018,1.711.008,2.566,0,.215.029.316.275.379a4.921,4.921,0,0,1,2.039,8.594.539.539,0,0,0-.064.09c.053.168.229.168.352.234a7.332,7.332,0,0,1,3.973,6.449c.039,1.008,0,2.02.012,3.027.008.285-.059.375-.357.375q-7.04-.012-14.082-.012c-.057,0-.133.02-.2.02C11036.178,21984,11036.1,21983.965,11036.105,21983.789Zm11.211-4.738c.258.008.311.09.307.32-.016.566-.006,1.133-.006,1.7,0,1.352,0,1.344,1.348,1.285.264-.012.307-.1.3-.332-.018-.562.012-1.129-.021-1.7a5.777,5.777,0,0,0-7.066-5.223,5.845,5.845,0,0,0-4.436,5.953c.043,1.352.006,1.344,1.344,1.3.246-.012.32-.07.313-.32-.016-.578,0-1.164,0-1.742,0-1.266,0-1.258,1.287-1.238.293,0,.371.082.365.367-.021.855.006,1.715-.014,2.57-.008.3.086.367.371.363.684-.023,1.369-.008,2.055-.008.721,0,1.439-.016,2.158.008.3.008.373-.094.361-.375-.021-.551-.006-1.1-.006-1.645,0-1.117,0-1.3.758-1.3C11046.891,21979.031,11047.082,21979.035,11047.316,21979.051Zm-18.09,0c.256.008.313.086.307.32-.016.566-.006,1.133-.006,1.7,0,1.352,0,1.344,1.348,1.285.262-.012.309-.1.3-.332-.018-.562.01-1.129-.02-1.691a5.78,5.78,0,0,0-7.068-5.227,5.841,5.841,0,0,0-4.434,5.953c.041,1.352.006,1.344,1.342,1.3.244-.012.322-.07.313-.316-.016-.582,0-1.168,0-1.746,0-1.266,0-1.258,1.287-1.238.291,0,.371.078.365.367-.021.855.006,1.715-.014,2.566-.008.3.086.371.371.367.686-.023,1.371-.008,2.057-.008.719,0,1.438-.016,2.158.008.3.008.371-.09.359-.375-.021-.547-.006-1.1-.006-1.645,0-1.117,0-1.3.762-1.3C11028.8,21979.031,11028.994,21979.035,11029.227,21979.051Zm36.174,0c.254.008.318.074.311.316-.016.566,0,1.133,0,1.7,0,1.352,0,1.34,1.342,1.289.256-.012.313-.09.3-.328-.016-.559.01-1.129-.02-1.691a5.775,5.775,0,0,0-7.062-5.23,5.844,5.844,0,0,0-4.439,5.949c.043,1.352.006,1.344,1.338,1.3.238-.012.326-.059.318-.312-.018-.582,0-1.168,0-1.746,0-1.27,0-1.262,1.283-1.242.285,0,.375.07.367.363-.02.875,0,1.746-.012,2.621,0,.246.066.316.314.316.719-.02,1.438-.008,2.158-.008s1.438-.016,2.158.008c.25,0,.318-.074.313-.32-.016-.566-.006-1.129-.006-1.7,0-1.121,0-1.3.768-1.3C11064.984,21979.031,11065.174,21979.039,11065.4,21979.051Zm-43.271-9.078a3.287,3.287,0,1,0,3.295-3.242h-.008A3.3,3.3,0,0,0,11022.129,21969.973Zm36.178.055a3.287,3.287,0,1,0,3.293-3.3h-.006A3.3,3.3,0,0,0,11058.307,21970.027Zm-14.824-3.3a3.3,3.3,0,1,0,.018,0Zm-1.447-12.949a8.256,8.256,0,0,0-.8.793.82.82,0,0,0-.1.961.88.88,0,0,0,.826.512,2.153,2.153,0,0,0,1.535-1.6.886.886,0,0,0-.512-.758.928.928,0,0,0-.428-.113A.8.8,0,0,0,11042.035,21953.781Zm-4.336-7.09a.387.387,0,0,0,.369.367,2.478,2.478,0,0,1,2.1,2.105c.051.242.139.313.373.359a2.464,2.464,0,0,1,2.08,2.055c.057.293.174.371.439.426a2.505,2.505,0,0,1,1.979,3.2.462.462,0,0,0,.139.531.924.924,0,0,0,1.332.043.9.9,0,0,0-.014-1.324c-.338-.359-.7-.7-1.045-1.059-.279-.293-.811-.555-.779-.887s.533-.582.793-.895c.223-.266.355-.2.559.02.529.559,1.078,1.1,1.633,1.637a.917.917,0,1,0,1.3-1.285c-.34-.363-.7-.7-1.049-1.055-.9-.9-.893-.891.025-1.789.205-.2.318-.219.521,0,.543.574,1.1,1.125,1.67,1.668a.9.9,0,0,0,1.326.035.906.906,0,0,0-.033-1.328c-.34-.359-.7-.7-1.051-1.055-.893-.895-.887-.887.039-1.785.211-.211.324-.2.521.008.52.543,1.057,1.07,1.6,1.6a.927.927,0,1,0,1.285-1.309c-1.691-1.7-3.391-3.387-5.08-5.086a.473.473,0,0,0-.574-.156,5.632,5.632,0,0,1-2.217.344.807.807,0,0,0-.756.313,3.353,3.353,0,0,1-3.248,1.34,5.385,5.385,0,0,0-.615,0c-.463,0-.926-.008-1.387,0a2,2,0,0,1-1.459-3.531c1.174-1.176,2.336-2.363,3.531-3.516.326-.312.238-.457-.062-.676a6,6,0,0,0-6.564-.648,6.13,6.13,0,0,0-1.971,9.383c.143.172.223.309.52.156a2.858,2.858,0,0,1,1.33-.344A2.523,2.523,0,0,1,11037.7,21946.691Zm1.848,4.641a7.342,7.342,0,0,0-.762.758.828.828,0,0,0-.119.957.878.878,0,0,0,.811.531,2.085,2.085,0,0,0,1.559-1.625.978.978,0,0,0-.939-.84A.832.832,0,0,0,11039.547,21951.332Zm-3.437-1.145a.882.882,0,0,0,.51.828.814.814,0,0,0,.959-.1,7.432,7.432,0,0,0,.795-.793.815.815,0,0,0,.094-.961.891.891,0,0,0-.754-.512A2.162,2.162,0,0,0,11036.109,21950.188Zm-2.469-2.465a.884.884,0,0,0,.506.824.817.817,0,0,0,.961-.09,7.636,7.636,0,0,0,.8-.793.815.815,0,0,0,.1-.957.88.88,0,0,0-.75-.516A2.158,2.158,0,0,0,11033.641,21947.723Zm15.875-8.59c.281.043.486.441.754.656.365.289.4.539-.027.785-.258.145-.248.266-.031.477,1.168,1.148,2.324,2.316,3.51,3.508a6.121,6.121,0,0,0-8.756-8.449c-1.887,1.684-3.613,3.551-5.406,5.332a.355.355,0,0,0-.137.41.4.4,0,0,0,.42.227h.738c.3,0,.6,0,.9,0,.336,0,.6,0,.809,0,1.09.023.809.039,2.059-1.207a1.332,1.332,0,0,1,1.117-.441,5.045,5.045,0,0,0,3.273-.785c.254-.172.525-.516.742-.516A.081.081,0,0,1,11049.516,21939.133Zm5.5,25.109c0-.8,0-.8.795-.8.85,0,.85,0,.85.848,0,.8,0,.8-.8.8C11055.018,21965.086,11055.018,21965.086,11055.018,21964.242Zm-3.289-.031c0-.77,0-.77.775-.77.867,0,.867,0,.867.879,0,.766,0,.766-.773.766C11051.729,21965.086,11051.729,21965.086,11051.729,21964.211Zm-3.291.09c0-.859,0-.859.84-.859.807,0,.807,0,.807.789,0,.855,0,.855-.84.855C11048.438,21965.086,11048.438,21965.086,11048.438,21964.3Zm-11.51-.039c0-.82,0-.82.828-.82s.816,0,.816.828,0,.816-.826.816S11036.928,21965.086,11036.928,21964.262Zm-3.289.023c0-.844,0-.844.855-.844.787,0,.787,0,.787.809,0,.836,0,.836-.855.836C11033.639,21965.086,11033.639,21965.086,11033.639,21964.285Zm-3.287-.062c0-.781,0-.781.762-.781.881,0,.881,0,.881.867,0,.777,0,.777-.764.777C11030.352,21965.086,11030.352,21965.086,11030.352,21964.223Z" transform="translate(-10598 -18981)" fill="#071932"/>
  </g>
</svg>
