<svg xmlns="http://www.w3.org/2000/svg" width="186" height="40" viewBox="0 0 186 40">
  <path id="efunds_blue" data-name="efunds blue" d="M166.5,32.894c-.591-1.7.788-3.455,2.5-3.846,1.773-.326,3.02.913,3.874,2.542a3.044,3.044,0,0,0,3.283,1.956,3.357,3.357,0,0,0,0-6.715,9.875,9.875,0,0,1-6.96-2.869,9.468,9.468,0,0,1-2.889-6.91,9.726,9.726,0,0,1,2.88-6.918,9.878,9.878,0,0,1,6.97-2.861c4.6,0,8.8,3.129,9.456,6.78a3.231,3.231,0,0,1-2.5,3.846,3.4,3.4,0,0,1-3.874-2.412,3.074,3.074,0,0,0-3.086-1.76,3.325,3.325,0,1,0,0,6.65,9.876,9.876,0,0,1,6.96,2.868A9.578,9.578,0,0,1,186,30.156,9.857,9.857,0,0,1,176.15,40,10.39,10.39,0,0,1,166.5,32.894ZM129.65,23.625a16.369,16.369,0,0,1,9.166-14.666,16.613,16.613,0,0,1,17.314,1.618V3.2a3.253,3.253,0,0,1,6.505,0V23.625a16.493,16.493,0,0,1-32.986,0Zm6.505,0a9.988,9.988,0,0,0,19.975,0V23.56a9.988,9.988,0,0,0-19.975.067ZM119.48,36.74v-13.1a9.988,9.988,0,0,0-19.975,0v13.1a3.216,3.216,0,0,1-.953,2.314A3.266,3.266,0,0,1,96.22,40,3.226,3.226,0,0,1,93,36.74v-13.1a16.493,16.493,0,0,1,32.985,0v13.1a3.216,3.216,0,0,1-.953,2.314A3.267,3.267,0,0,1,122.7,40,3.227,3.227,0,0,1,119.48,36.74ZM62.763,26.9V10.468a3.248,3.248,0,0,1,6.5,0v16.3a6.791,6.791,0,0,0,13.581,0v-16.3a3.248,3.248,0,0,1,6.495,0V26.9a13.287,13.287,0,0,1-26.571,0ZM43.5,36.725V22.612h-3.62a3.242,3.242,0,0,1,0-6.484H43.5A16.453,16.453,0,0,1,48.3,4.076,15.687,15.687,0,0,1,54.49.212a3.2,3.2,0,0,1,4.147,1.965A3.23,3.23,0,0,1,56.663,6.3,9.553,9.553,0,0,0,52.91,8.661a10.142,10.142,0,0,0-2.9,7.467h5.793a3.242,3.242,0,1,1,0,6.484H50.014V36.725a3.226,3.226,0,0,1-.953,2.323A3.277,3.277,0,0,1,46.723,40,3.237,3.237,0,0,1,43.5,36.725ZM14.8,39.916c-.549-.055-1.1-.138-1.641-.247s-1.065-.243-1.583-.4-1.022-.342-1.516-.549-.975-.436-1.442-.688-.922-.524-1.36-.818-.863-.608-1.269-.94-.8-.686-1.17-1.055-.729-.759-1.063-1.161S3.1,33.229,2.81,32.8s-.573-.888-.825-1.349S1.5,30.5,1.292,30.017s-.394-1-.553-1.5-.3-1.042-.405-1.57a16.323,16.323,0,0,1-.249-1.628A16.653,16.653,0,0,1,0,23.636c0-.491.022-.99.067-1.484s.113-.993.2-1.484.2-.987.335-1.471.291-.973.466-1.445.379-.95.6-1.406.465-.917.726-1.354.552-.875.854-1.287.637-.825.981-1.209a15.669,15.669,0,0,1,1.106-1.115A15.3,15.3,0,0,1,9.4,8.72c.256-.115.52-.224.783-.326s.54-.2.813-.288.56-.173.843-.248.58-.145.873-.207.6-.117.9-.163.619-.087.932-.119.639-.056.961-.073.658-.024.989-.024a3.2,3.2,0,0,1,2.275.945,3.252,3.252,0,0,1,.879,1.65,3.389,3.389,0,0,1,.066.664v14.73a3.2,3.2,0,0,1,.016.321,3.259,3.259,0,0,1-6.518,0c0-.086,0-.17.011-.254h-.013V14.183a9.242,9.242,0,0,0-2.988,1.5,8.97,8.97,0,0,0-2.088,2.269A10,10,0,0,0,6.906,20.7a10.867,10.867,0,0,0-.3,1.461,11.066,11.066,0,0,0-.1,1.473A9.8,9.8,0,0,0,8.362,29.4a10.133,10.133,0,0,0,4.713,3.577c.26.107.528.2.8.284s.553.152.833.208.574.1.863.128.593.044.889.044.591-.014.882-.043.576-.071.857-.126.557-.123.827-.205.535-.175.793-.28A10.27,10.27,0,0,0,22.5,31.545a10.053,10.053,0,0,0,2.107-2.134,9.754,9.754,0,0,0,1.873-5.774c0-.339-.006-.8-.052-1.334-.024-.272-.056-.545-.1-.811-.046-.3-.1-.6-.171-.9-.075-.325-.164-.652-.267-.972-.111-.348-.24-.7-.383-1.04-.154-.368-.329-.738-.52-1.1-.2-.386-.432-.773-.678-1.151A2.453,2.453,0,0,1,24,15.666a2.517,2.517,0,0,1-.1-.7,2.881,2.881,0,0,1,.141-.878,3.374,3.374,0,0,1,.4-.822,3.619,3.619,0,0,1,.607-.7,3.471,3.471,0,0,1,.775-.528,2.971,2.971,0,0,1,1.232-.3,3.038,3.038,0,0,1,1.183.223,3.794,3.794,0,0,1,1.06.651,4.525,4.525,0,0,1,.46.457,4.875,4.875,0,0,1,.4.53c.335.5.642,1,.916,1.5.257.47.49.947.693,1.418.19.441.358.89.5,1.336.132.412.247.834.34,1.254a15.124,15.124,0,0,1,.323,2.265c.049.7.052,1.343.052,1.945v.32a16.458,16.458,0,0,1-.086,1.678,16.174,16.174,0,0,1-.66,3.2c-.16.508-.347,1.014-.557,1.5s-.442.967-.7,1.431-.532.914-.829,1.349-.615.856-.952,1.259-.694.792-1.067,1.161-.767.723-1.173,1.055-.834.649-1.271.94-.9.569-1.36.818-.952.483-1.44.688-1,.392-1.513.549-1.047.295-1.577.4-1.086.192-1.633.247a16.807,16.807,0,0,1-1.68.084q-.847,0-1.691-.084Z" fill="#071932"/>
</svg>
