<svg xmlns="http://www.w3.org/2000/svg" width="52.004" height="51.701" viewBox="0 0 52.004 51.701">
  <g id="fintech" transform="translate(-491.498 -2745.65)">
    <g id="Group_8489" data-name="Group 8489" transform="translate(0 -64.998)">
      <path id="Union_26" data-name="Union 26" d="M11021.424,21984c-.056-.16-.221-.133-.337-.17a4.213,4.213,0,0,1-3.09-4.09v-.2q0-21.038.006-42.08a4.225,4.225,0,0,1,3.134-4.3,4.873,4.873,0,0,1,1.352-.16q12.009.009,24.022.006a4.225,4.225,0,0,1,4.485,4.4q.009,10.33.006,20.668,0,10.752-.006,21.512a4.237,4.237,0,0,1-3.128,4.266c-.166.049-.375-.045-.5.148Zm.017-49.412a2.717,2.717,0,0,0-1.953,2.863v42.074c0,.133,0,.266.006.4a2.618,2.618,0,0,0,.844,1.859,3.146,3.146,0,0,0,2.322.783q11.834-.009,23.664-.006c.215,0,.436-.012.656-.027a2.72,2.72,0,0,0,2.527-2.742v-21.264q0-10.6-.006-21.215a2.737,2.737,0,0,0-2.88-2.857c-.425-.006-.844,0-1.269,0-.685,0-.685,0-.7.684a3.318,3.318,0,0,1-3.316,3.428q-6.844.032-13.683,0a3.328,3.328,0,0,1-3.217-2.545,5.865,5.865,0,0,1-.094-1.234c0-.145.05-.338-.187-.326-.292.006-.585,0-.877-.012-.2-.006-.407-.014-.61-.014A4.183,4.183,0,0,0,11021.44,21934.588Zm4.358.309a1.979,1.979,0,0,0,2.251,2.246h12.922a1.972,1.972,0,0,0,2.251-2.2c0-.4-.11-.486-.5-.486-2.737.018-5.474.012-8.21.012h-2.328c-1.98,0-3.956.006-5.932-.012C11025.9,21934.455,11025.793,21934.543,11025.8,21934.9Zm8.685,46.418h-3.89c-.607-.006-.949-.266-.955-.719s.331-.744.933-.744q3.914-.009,7.835,0c.612,0,.948.266.96.723s-.354.734-.988.74Zm-5.617-6.23c-.866-.838-1.721-1.687-2.582-2.531a.7.7,0,0,1-.2-.855.766.766,0,0,1,.778-.436h15.238c.552,0,.889.3.878.744s-.364.717-.972.717q-6.356.009-12.706,0h-.739c.508.5.927.9,1.335,1.314s.431.811.094,1.131a.7.7,0,0,1-.489.2A.917.917,0,0,1,11028.866,21975.084Zm5.557-8.215a8.534,8.534,0,1,1,.052,0Zm-6.913-8.387a6.992,6.992,0,1,0,6.99-6.818A6.928,6.928,0,0,0,11027.51,21958.482Zm6.984,4.916a.66.66,0,0,1-.712-.729c.027-.457-.193-.463-.535-.463-.7-.006-1.076-.568-.756-1.082a.745.745,0,0,1,.679-.357q.886.009,1.771,0c.579-.012.932-.3.932-.762s-.342-.734-.932-.75c-.441-.012-.883.006-1.319-.039a2.179,2.179,0,0,1-.265-4.293c.342-.076.425-.2.42-.523a.724.724,0,1,1,1.445.027c-.012.369.132.426.463.42.6-.012.949.3.933.744s-.358.707-.921.713c-.271,0-.541,0-.806,0v0c-.343,0-.679-.016-1.016.006a.746.746,0,0,0-.75.723.753.753,0,0,0,.762.768c.226.012.457.006.689.006.171,0,.348,0,.523.006a2.239,2.239,0,0,1,2.229,1.92,2.175,2.175,0,0,1-1.71,2.416c-.331.072-.393.182-.4.48a.683.683,0,0,1-.716.766Zm-7.581-17.66c-.552,0-.894-.3-.888-.74s.364-.717.965-.717q6.315-.009,12.618-.006h.839c-.513-.5-.933-.9-1.341-1.312s-.431-.811-.088-1.131a.761.761,0,0,1,1.114.1c.855.822,1.7,1.66,2.549,2.494a.734.734,0,0,1,.237.85.764.764,0,0,1-.806.469Q11034.508,21945.735,11026.913,21945.738Z" transform="translate(-10517 -19122)" fill="#071932" stroke="#071932" stroke-miterlimit="10" stroke-width="0.7"/>
      <path id="Path_1993" data-name="Path 1993" d="M2087.651,1000.425c-.008-2.737-.007,1.525,0-1.212,0-.186-.071-.242-.228-.291a3.074,3.074,0,0,1-2.166-3.239,2.984,2.984,0,0,1,5.911-.351,3.077,3.077,0,0,1-2.062,3.576c-.232.069-.273.167-.272.388.007,2.928,0-1.144,0,1.784,0,.614-.187.81-.775.811C2087.211,1001.892,2087.652,1000.655,2087.651,1000.425Zm.576-6.29a1.841,1.841,0,1,0,1.8,1.815A1.79,1.79,0,0,0,2088.227,994.135Z" transform="translate(1535.892 763.764) rotate(90)" fill="#071932" stroke="#071932" stroke-width="1"/>
      <path id="Path_1994" data-name="Path 1994" d="M2.415,1.466c-.008,2.737-.007-1.525,0,1.212,0,.186-.071.242-.228.291A3.074,3.074,0,0,0,.02,6.208,3.037,3.037,0,0,0,2.928,9a3.02,3.02,0,0,0,3-2.438A3.077,3.077,0,0,0,3.869,2.983c-.232-.069-.273-.167-.272-.388C3.6-.333,3.6,3.739,3.6.811,3.6.2,3.414,0,2.826,0,1.975,0,2.415,1.237,2.415,1.466Zm.576,6.29A1.842,1.842,0,0,1,3,4.075,1.816,1.816,0,0,1,4.789,5.941,1.79,1.79,0,0,1,2.99,7.756Z" transform="translate(501 2818) rotate(90)" fill="#071932" stroke="#071932" stroke-width="1"/>
    </g>
    <circle id="Ellipse_108" data-name="Ellipse 108" cx="12" cy="12" r="12" transform="translate(492 2746)" fill="#071932" opacity="0.1"/>
  </g>
</svg>
