<svg xmlns="http://www.w3.org/2000/svg" width="280" height="78" viewBox="0 0 280 78">
  <path id="france_24_grey" data-name="france 24 grey" d="M11298,22011h-20.211c6.756-2.117,13.555-4.434,20.207-6.885v0h0V22011Zm-45.7,0h-73.6a20.114,20.114,0,0,1-5.83-4.047,10.655,10.655,0,0,1-2.834-5.152,12.437,12.437,0,0,1,1.671-8.584l-.061-.213a.147.147,0,0,0-.1-.039.146.146,0,0,0-.111.049c-2.966,3.9-4.471,7.631-4.471,11.1a11.315,11.315,0,0,0,2.288,6.885l-151.248,0v-78l280,0v38.43l0,0v6.973l0,0v17.168h0a189.15,189.15,0,0,1-20.23,8.262,234.94,234.94,0,0,1-22.579,6.52c-.614.146-1.235.283-1.835.414l-.029.006-.121.027C11252.907,22010.863,11252.6,22010.932,11252.3,22011Zm-188.738-16.605h13.986v6.852h9.816v-6.852h4.438v-8.406l-4.438,0v-19.205h-9.388l-15,18.326v7.721h-14.269v-.051c1.1-.707,2.292-1.389,3.442-2.049l.011,0c5.375-3.082,10.933-6.264,10.933-13.51,0-6.877-4.886-10.822-13.4-10.822-4.42,0-8.052,1.363-10.5,3.938-2.484,2.611-3.665,6.4-3.415,10.957l8.874,0a12.67,12.67,0,0,1,.313-3.412,5.272,5.272,0,0,1,1.266-2.422,3.928,3.928,0,0,1,1.424-.924,5.562,5.562,0,0,1,1.956-.322,3.992,3.992,0,0,1,2.8.934,4.265,4.265,0,0,1,1.155,3.268,3.8,3.8,0,0,1-1.274,2.746,13.988,13.988,0,0,1-2.518,1.844c-.225.139-.437.27-.638.4-.489.311-.994.629-1.483.936l-.121.078c-3.762,2.361-7.651,4.8-10.066,8.313a13.293,13.293,0,0,0-1.852,3.891,13.8,13.8,0,0,0-.5,4.629h28.457v-6.852Zm123.841-18.359a.189.189,0,0,0-.114.035c-4.705,4.652-6.756,9.158-5.934,13.035a10.387,10.387,0,0,0,4.782,6.363,32.282,32.282,0,0,0,11.462,4.26,84.392,84.392,0,0,0,16.4,1.424,170.318,170.318,0,0,0,38.156-4.824c17.811-4.191,34.092-10.561,45.841-17.932v-6.967a82.907,82.907,0,0,1-9.258,5.656c-3.414,1.813-7.178,3.566-11.187,5.213s-8.3,3.2-12.721,4.6c-4.478,1.424-9.141,2.711-13.858,3.826a185.58,185.58,0,0,1-19.2,3.48,140.151,140.151,0,0,1-17.324,1.158,78.074,78.074,0,0,1-15.034-1.289,29.156,29.156,0,0,1-10.426-3.855,8.789,8.789,0,0,1-4.129-5.439c-.552-2.572.348-5.422,2.674-8.465a.168.168,0,0,0,.027-.127.171.171,0,0,0-.056-.117A.159.159,0,0,0,11187.4,21976.035Zm19.595-14.34a.2.2,0,0,0-.1.025c-6.323,4.457-9.256,8.77-8.48,12.471a5.827,5.827,0,0,0,1.072,2.33,8.876,8.876,0,0,0,2.163,1.986,22.211,22.211,0,0,0,7.9,2.926,58.967,58.967,0,0,0,11.369.975,122.967,122.967,0,0,0,27.522-3.5c20.421-4.816,37.365-13.4,42.165-21.375a7.258,7.258,0,0,0,1.2-5.34c-.777-3.68-5.174-6.271-12.716-7.494h-.008a.193.193,0,0,0-.182.125.191.191,0,0,0,.121.223,16.06,16.06,0,0,1,5.434,2.293,5.592,5.592,0,0,1,2.408,3.291,5.221,5.221,0,0,1-.28,2.932,10.733,10.733,0,0,1-1.929,3.121,23.875,23.875,0,0,1-3.416,3.221,44.684,44.684,0,0,1-4.744,3.219c-1.786,1.064-3.774,2.119-5.911,3.131-2.158,1.021-4.486,2.012-6.917,2.941a130.811,130.811,0,0,1-29.613,7.375,99,99,0,0,1-12.137.8,54.549,54.549,0,0,1-10.109-.83,19.118,19.118,0,0,1-6.906-2.5,5.665,5.665,0,0,1-2.633-3.477,5.8,5.8,0,0,1,.828-4.053,17.408,17.408,0,0,1,3.994-4.533.165.165,0,0,0,.014-.225A.113.113,0,0,0,11207,21961.7Zm50-16.217a68.024,68.024,0,0,0-15.237,1.93c-14.308,3.367-25.126,10.016-24.116,14.816a3.516,3.516,0,0,0,1.244,1.941,8.284,8.284,0,0,0,2.648,1.41,27.6,27.6,0,0,0,8.679,1.148,68.532,68.532,0,0,0,15.241-1.922,78.864,78.864,0,0,0,8.093-2.373,59.425,59.425,0,0,0,6.9-2.916,33.375,33.375,0,0,0,5.27-3.24,12.813,12.813,0,0,0,3.189-3.338,4.064,4.064,0,0,0,.667-2.945,3.54,3.54,0,0,0-1.246-1.947,8.3,8.3,0,0,0-2.65-1.412A27.589,27.589,0,0,0,11256.994,21945.479Zm-138.5-3.285a8.841,8.841,0,0,0-6.712,2.734,10.449,10.449,0,0,0-2.515,7.24,12.318,12.318,0,0,0,.613,3.939,9.259,9.259,0,0,0,1.791,3.166,8.761,8.761,0,0,0,6.822,2.875,8.929,8.929,0,0,0,3.539-.7,7.806,7.806,0,0,0,2.6-1.824,7.973,7.973,0,0,0,2.157-5.4h-5.508a5.033,5.033,0,0,1-.892,2.254,2.481,2.481,0,0,1-2.059.916,2.952,2.952,0,0,1-1.637-.457,3.252,3.252,0,0,1-1.066-1.193,8.866,8.866,0,0,1,0-7.164,3.256,3.256,0,0,1,1.066-1.2,2.92,2.92,0,0,1,1.637-.459,2.642,2.642,0,0,1,2.295,1.146,4.13,4.13,0,0,1,.645,1.664h5.442C11126.225,21944.811,11123.381,21942.2,11118.5,21942.193Zm10.784.424h0v19.082h15v-4.437h-9.028v-2.889h7.481v-4.43h-7.481v-2.875h9.028v-4.451Zm-33.719,8.664,5.587,10.418h5.45v-19.057h-5.3v10.176h-.053l-5.295-10.176h-5.742v19.057h5.31v-10.42h0v0Zm-19.382,7.893h5.913l.713,2.525h5.926l-6.5-19.057h-6.05l-6.509,19.057h5.839l.67-2.525Zm-18.4-3.957h1.9c.2.4,2.045,4.143,3.128,6.34l.07.143h5.939c-.029-.057-3.353-6.58-3.865-7.5a5.451,5.451,0,0,0,2.42-2.021,5.66,5.66,0,0,0,.9-3.105c0-4.148-2.388-6.432-6.723-6.432h-9.281v19.057h5.512v-6.482Zm-22.01-12.6h0v19.082h5.971v-6.445h6.521v-4.463h-6.521v-3.723h8.192v-4.451Zm41.778,43.373h-8.009l8.009-9.648v9.648Zm153.907-22.826a26.611,26.611,0,0,1-4.9-.4,9.026,9.026,0,0,1-3.315-1.189,2.6,2.6,0,0,1-1.2-1.586,2.65,2.65,0,0,1,.451-1.951c2.041-3.389,10.063-7.311,19.507-9.539a67.446,67.446,0,0,1,7-1.277,50.32,50.32,0,0,1,6.279-.426,26.727,26.727,0,0,1,4.9.4,9.2,9.2,0,0,1,3.331,1.2,2.57,2.57,0,0,1,1.183,1.555,3.472,3.472,0,0,1-1.147,2.926,16.829,16.829,0,0,1-4.14,3.141,43.876,43.876,0,0,1-6.479,2.986,69.67,69.67,0,0,1-15.188,3.738A50.755,50.755,0,0,1,11231.455,21963.164Zm-150.384-7.955h-3.761l1.84-6.832,1.921,6.832Zm-19.868-4.363h-3.424v-3.82h3.424a1.741,1.741,0,0,1,1.332.477,2.067,2.067,0,0,1,.441,1.436C11062.977,21950.2,11062.38,21950.846,11061.2,21950.846Z" transform="translate(-11018.002 -21933)" fill="#8e8e8e"/>
</svg>
