<svg xmlns="http://www.w3.org/2000/svg" width="50.998" height="51.002" viewBox="0 0 50.998 51.002">
  <g id="insurance_companies" data-name="insurance companies" transform="translate(-1377 -2745.998)">
    <path id="Union_22" data-name="Union 22" d="M11020.173,21984c-.425,0-.523-.1-.523-.523.017-5.191,0-10.379.017-15.57a.657.657,0,0,0-.393-.711,2.318,2.318,0,0,1-1.258-2.092c-.017-.562-.011-1.131,0-1.693a2.46,2.46,0,0,1,2.467-2.439c2.317-.01,4.629-.01,6.94.012.392,0,.469-.105.469-.48-.021-2.516-.011-5.037-.011-7.553a1.691,1.691,0,0,0-1.429-1.832,1.644,1.644,0,0,0-1.838,1.406c-.077.348-.309.25-.452.211a1.158,1.158,0,0,0-.475.021c-.3.061-.6.121-.729-.236-.353-.906-.85-1.414-1.654-1.414s-1.28.514-1.667,1.408c-.165.375-.507.314-.854.254a1.392,1.392,0,0,0-.541-.027c-.337.07-.227-.227-.221-.381a25.562,25.562,0,0,1,.292-5.424,10.691,10.691,0,0,1,21.076,2.625c.006.945-.011,1.889.006,2.826,0,.293-.077.4-.364.363a2.3,2.3,0,0,0-.464,0c-.507.061-.833-.01-.981-.639a1.508,1.508,0,0,0-1.617-1,1.578,1.578,0,0,0-1.451,1.248c-.071.363-.22.436-.535.391a1.783,1.783,0,0,0-.408,0c-.474.055-.772.012-.9-.6a1.559,1.559,0,0,0-1.8-1.025,1.65,1.65,0,0,0-1.341,1.654c-.011,2.445,0,4.895,0,7.344,0,.85,0,.85.85.85,2.312,0,4.623-.01,6.935.006.364.006.48-.088.441-.447a2.589,2.589,0,0,1,2.875-2.869c2.289.084,4.579.023,6.869.023a21.55,21.55,0,0,1-4.243-2.814,6.4,6.4,0,0,1-2.174-5.7c.491-4.768,1.385-9.473,2.212-14.191.056-.314.216-.318.453-.318.436-.012.871-.006,1.308-.006.9.006,1.8.01,2.7-.066a14.745,14.745,0,0,0,5.242-1.484.742.742,0,0,1,.75-.006,14.994,14.994,0,0,0,7.034,1.566c.375-.01.751-.01,1.131,0s.751,0,1.132-.006c.248,0,.353.061.4.324.789,4.414,1.611,8.818,2.124,13.27a7.523,7.523,0,0,1-.458,4.52,8.655,8.655,0,0,1-2.653,2.945,19.661,19.661,0,0,1-3.256,1.893c.144.127.3.072.437.072,2.224.006,4.452,0,6.676.006a2.464,2.464,0,0,1,2.67,2.691,8.606,8.606,0,0,1-.077,2,2.189,2.189,0,0,1-1.175,1.533.639.639,0,0,0-.392.711q.007,9.428.017,18.859c0,.43-.1.523-.524.523Q11043.5,21983.98,11020.173,21984Zm45.06-1.645c.387.006.475-.094.475-.475q-.025-8.581,0-17.158c0-.387-.088-.475-.475-.475-3.956.018-7.911.012-11.867.012s-7.912,0-11.868-.006c-.314,0-.475.012-.475.414q.025,8.631.006,17.264c0,.33.077.424.419.424,1.353-.021,2.7-.027,4.056,0,.386.006.475-.094.475-.475-.022-2.979-.006-5.957-.022-8.937,0-.387.094-.475.475-.475q6.936.026,13.87,0c.381,0,.475.088.475.475-.017,3,0,5.992-.017,8.988,0,.336.083.424.42.424q1.069-.018,2.139-.018Q11064.274,21982.342,11065.232,21982.359Zm-11.057-7.828q.025,3.7.006,7.4c-.006.32.061.436.414.43,1.368-.027,2.736-.021,4.1-.006.325.006.436-.061.431-.412-.028-1.23-.012-2.461-.012-3.7s-.011-2.467.006-3.7c.006-.324-.061-.436-.408-.43q-2.061.032-4.11.006h-.034C11054.278,21974.123,11054.176,21974.2,11054.176,21974.531Zm-28.369,7.828c.375.006.441-.109.436-.457-.017-1.881.011-3.77-.017-5.65-.006-.418.121-.49.508-.49,3.834.016,7.669.01,11.509.01,1.153,0,1.131,0,1.158-1.164.012-.424-.016-5.412,0-6.625.006-.375-.11-.441-.457-.441-2.858.016-5.722.01-8.58.01-2.874,0-5.754.006-8.629,0-.3,0-.441.027-.441.4q.025,7.011,0,14.025c0,.33.1.391.4.385.684-.008,1.369-.014,2.055-.014S11025.122,21982.346,11025.807,21982.359Zm26.35,0c.32,0,.4-.082.393-.4-.017-1.236-.006-2.467-.006-3.7s-.011-2.5.011-3.746c0-.318-.082-.4-.4-.4-1.385.021-2.774.021-4.159,0-.32,0-.4.082-.392.4q.016,3.727,0,7.449c-.006.32.077.4.392.391.645-.006,1.289-.012,1.933-.012Q11051.044,21982.342,11052.156,21982.359Zm-13.075-.006c.248,0,.314-.07.314-.314q-.016-2.159,0-4.314c0-.248-.066-.318-.314-.314-1.44.012-2.875.012-4.314,0-.249,0-.32.066-.314.314.017.7,0,1.4,0,2.1,0,.738.012,1.473,0,2.211-.006.25.065.314.314.314.72,0,1.438-.008,2.157-.008S11038.36,21982.35,11039.081,21982.354Zm-6.577,0c.249,0,.314-.07.314-.314q-.016-2.159,0-4.314c0-.248-.065-.318-.314-.314-.7.018-1.406.006-2.107.006-.733,0-1.473.012-2.207-.006-.248,0-.314.066-.314.314q.018,2.153,0,4.314c0,.244.066.314.314.314.721,0,1.438-.008,2.157-.008S11031.784,21982.35,11032.5,21982.354Zm6.8-16.529c.237-.3.066-.91.094-1.385a.413.413,0,0,0-.287-.463,2,2,0,0,1-1.043-1.021.527.527,0,0,0-.585-.342q-4.286.009-8.573.006c-2.753,0-5.512-.006-8.265,0a.85.85,0,0,0-.982.965c-.006.4,0,.789,0,1.182,0,.883.254,1.143,1.12,1.143h8.981q4.113,0,8.221-.006C11038.436,21965.9,11039.081,21966.105,11039.3,21965.824Zm1.208-6.494c-.866,0-1.12.254-1.12,1.137v1.027c0,.871.254,1.125,1.131,1.125h25.678c.9,0,1.142-.248,1.142-1.164v-.977c0-.9-.248-1.148-1.158-1.148h-16.535l-6.091,0Q11042.032,21959.328,11040.51,21959.33Zm4.133-22.615c-.7,4.111-1.44,8.217-1.915,12.365a5.2,5.2,0,0,0,2.119,5.016,21.314,21.314,0,0,0,5.152,2.8,7.23,7.23,0,0,0,4.188.717,18.063,18.063,0,0,0,7.972-3.764,4.515,4.515,0,0,0,1.893-3.855c-.061-1.148-.2-2.285-.353-3.422-.441-3.254-1.021-6.482-1.584-9.715-.077-.447-.226-.574-.673-.557a16.968,16.968,0,0,1-7.84-1.451.616.616,0,0,0-.574.049,16.525,16.525,0,0,1-6.824,1.412,10.394,10.394,0,0,1-1.076-.01.818.818,0,0,0-.094-.006C11044.764,21936.3,11044.688,21936.457,11044.643,21936.715Zm-16.083,13.744c.115.111.188.094.292-.012a3.265,3.265,0,0,1,3.879-.6c-.116-.732-.2-1.395-.331-2.041a13.641,13.641,0,0,0-3.288-6.775c-.331-.354-.524-.309-.828.018a14.726,14.726,0,0,0-3.592,8.783,4.039,4.039,0,0,1,1.6-.365A3.185,3.185,0,0,1,11028.56,21950.459Zm5.82-.5a3.312,3.312,0,0,1,3.35-.066c.231-5.191-3.885-8.635-6.61-9.025A17.2,17.2,0,0,1,11034.38,21949.957Zm-11.349-.012a20.072,20.072,0,0,1,.987-4.816,15.029,15.029,0,0,1,2.295-4.3,8.891,8.891,0,0,0-6.62,9.059,3.344,3.344,0,0,1,1.586-.418A3.694,3.694,0,0,1,11023.031,21949.945Zm27.773,5.508a23.477,23.477,0,0,1-4.535-2.346c-.292-.209-.562-.447-.833-.684a3.22,3.22,0,0,1-1.1-2.9c.221-2.074.508-4.139.839-6.2.27-1.672.585-3.334.854-5.006.05-.314.16-.391.453-.369.342.021.684.006,1.131.006a8.974,8.974,0,0,0,5.456-1.621c.16-.105.3-.211.508-.062a9.555,9.555,0,0,0,6.467,1.668c.5-.033.629.148.7.584.585,3.58,1.22,7.145,1.628,10.754a3.577,3.577,0,0,1-1.347,3.393,20.23,20.23,0,0,1-5.01,2.752,6.586,6.586,0,0,1-2.652.588A6.385,6.385,0,0,1,11050.8,21955.453Zm-3.4-15.5c-.513,3.139-1.054,6.277-1.412,9.439a2.1,2.1,0,0,0,.888,2.123,17.154,17.154,0,0,0,3.377,1.916c2.842,1.285,3.327,1.291,6.174.021a13.5,13.5,0,0,0,3.763-2.256c.364-.332.662-.707.579-1.115-.027-.32-.038-.508-.055-.7-.314-3.172-.889-6.3-1.391-9.439-.055-.332-.215-.354-.485-.354a10.361,10.361,0,0,1-5.153-1.324.553.553,0,0,0-.612-.012,10.34,10.34,0,0,1-5.252,1.33C11047.544,21939.59,11047.45,21939.684,11047.406,21939.955Zm5.755,11.982c-.154-.006-.31-.01-.453-.006s-.171-.076-.165-.2-.006-.238,0-.359c.022-.668.066-1.236-.739-1.66-.949-.508-.96-1.572-.905-2.561.006-.139.089-.16.2-.16.154.006.309,0,.463,0,.089,0,.193-.012.293-.016a.968.968,0,0,1,.606.066c.227.158.061.572.083.871a.7.7,0,0,0,.656.717.771.771,0,0,0,.955-.5.694.694,0,0,0-.453-.865c-.485-.244-.977-.486-1.462-.74a2.263,2.263,0,0,1-1.335-2.135,2.211,2.211,0,0,1,1.341-2.074.437.437,0,0,0,.3-.508c-.006-.066,0-.133,0-.205,0-1.291.11-1.373,1.435-1.191.188.027.221.1.21.26-.006.133,0,.27,0,.408-.039.635-.056,1.191.711,1.512a1.883,1.883,0,0,1,.905,1.43c.094.379.017.584-.431.512a2.588,2.588,0,0,0-.408-.006c-.066,0-.132,0-.2,0-.31.012-.6.029-.718-.469-.094-.4-.562-.391-.927-.336a.666.666,0,0,0-.568.584.721.721,0,0,0,.469.773c.5.254,1.01.5,1.507.762a2.239,2.239,0,0,1,1.291,2.162,2.2,2.2,0,0,1-1.33,2.025c-.248.121-.336.248-.3.5a1.378,1.378,0,0,1,0,.254c-.028.369.159.959-.072,1.064a1.491,1.491,0,0,1-.605.1C11053.395,21951.949,11053.277,21951.943,11053.161,21951.938Z" transform="translate(-9641 -19187.004)" fill="#071932"/>
    <circle id="Ellipse_111" data-name="Ellipse 111" cx="12" cy="12" r="12" transform="translate(1377 2746)" fill="#071932" opacity="0.1"/>
  </g>
</svg>
