<svg xmlns="http://www.w3.org/2000/svg" width="51.75" height="43.506" viewBox="0 0 51.75 43.506">
  <g id="mutual_funds" data-name="mutual funds" transform="translate(-1082 -2552.25)">
    <path id="Union_21" data-name="Union 21" d="M11032.15,21973.99a8.081,8.081,0,0,1-1.324-16.074c.354-.051.464-.16.414-.486a1.979,1.979,0,0,1-.006-.254c0-1.527,0-1.521-1.136-2.537a1.21,1.21,0,0,0-.744-.221,13.092,13.092,0,0,1-11.339-11.465,1.249,1.249,0,0,1,1.494-1.482,13.031,13.031,0,0,1,11.443,11.619c.022.182.017.369.281.5,0-.926,1.5-.205,1.5-.018.309-.121.248-.375.271-.572a13.021,13.021,0,0,1,9.866-11.25,12.746,12.746,0,0,1,1.709-.3,1.242,1.242,0,0,1,1.373,1.391,13.029,13.029,0,0,1-11.294,11.547,2.477,2.477,0,0,0-1.848,1.412l-.132.4.071,1.566c0,.145.127.139.248.133a.879.879,0,0,1,.127.006,8.071,8.071,0,0,1,6.706,6.26c.121.545-.061.926-.491,1.031-.469.109-.811-.127-.953-.7a6.574,6.574,0,0,0-2.939-4.164,6.491,6.491,0,0,0-7.3.238,6.566,6.566,0,1,0,10,7.543c.27-.766.606-1.014,1.1-.826.469.176.573.59.314,1.313a8.138,8.138,0,0,1-2.481,3.557c-.1.088-.215.176-.414.336,1.671,0,5.223,0,6.778.006.358,0,.236-.26.236-.424q.009-3.375.006-6.75c0-.447-.011-.9.006-1.346a1.163,1.163,0,0,1,1.142-1.209c.827-.039,1.659-.039,2.492-.006.761.033,1.181.535,1.181,1.379,0,2.582.021,5.162-.012,7.748,0,.508.122.635.623.613.254-.012.591.006.96.027,1.131.055,2.525.115,2.525-.641,0-5.783.017-11.967.017-17.746,0-1.24.4-1.648,1.633-1.648h1.594c1.169,0,1.6.424,1.6,1.588,0,5.928,0,12.281-.017,18.215,0,.475,2.079.238,2.608.211,1.042-.051,1.048-.018,1.048-1.07v-22.3c0-1.488.342-1.836,1.8-1.836.563,0,1.131-.012,1.693.006a1.25,1.25,0,0,1,1.329,1.352c.011,1.367.006,2.734,0,4.1,0,.547-.287.861-.75.855s-.733-.33-.739-.877c0-1.186-.011-2.365.006-3.551,0-.293-.061-.42-.381-.393a6.06,6.06,0,0,1-1.1,0c-.325-.027-.375.115-.375.4q.009,11.449,0,22.9c0,.342.105.418.414.4a3.649,3.649,0,0,1,.5.012,1.239,1.239,0,0,0,.844-.1c.281-.242.083-.871.083-1.334q.007-7.172,0-14.346a1.554,1.554,0,0,1,.05-.594.708.708,0,0,1,.777-.492.691.691,0,0,1,.656.641,3.637,3.637,0,0,1,.012.5c0,5.068,0,10.131-.012,15.2,0,.4.066.563.5.523a6.607,6.607,0,0,1,.811-.012c.243,0,.491.006.733-.006a1.025,1.025,0,0,1,1.043.5v.5a1.064,1.064,0,0,1-1.043.514Q11050.057,21973.984,11032.15,21973.99Zm21.965-19.428q.016,8.265.006,16.527c0,.447-.16,1.053.065,1.307.16.182.469.148.789.115a2.3,2.3,0,0,1,.54-.016c.4.055.447-.121.447-.469-.011-2.928-.006-5.857-.006-8.791q0-3.97,0-7.936c0-.424.188-.992-.094-1.234a.979.979,0,0,0-.7-.088,2.56,2.56,0,0,1-.5.01,1.432,1.432,0,0,0-.149-.01C11054.162,21953.979,11054.11,21954.186,11054.115,21954.563Zm-8.934,10.07c.017,1.252,0,2.5,0,3.75,0,.881-.011,1.764.006,2.646.006.475-.215,1.131.088,1.379a1.3,1.3,0,0,0,.883.1,3.2,3.2,0,0,1,.507-.016c.287.021.359-.082.359-.359q-.018-3.747-.006-7.494c.006-.287-.039-.43-.369-.4a6.06,6.06,0,0,1-1.1,0c-.028,0-.055,0-.08,0C11045.227,21964.236,11045.177,21964.365,11045.182,21964.633Zm-4.881-17.521a.738.738,0,0,1-.011,1.07c-.094.115-.21.215-.314.32-1.335,1.34-2.675,2.68-4.059,4.07a1.055,1.055,0,0,0,.171.016,11.585,11.585,0,0,0,8.3-9.275c.061-.359-.11-.326-.354-.281a11.533,11.533,0,0,0-9.154,8.244c.237.094.325-.111.446-.227.778-.777,1.55-1.555,2.327-2.332.524-.529,1.043-1.07,1.583-1.588a.8.8,0,0,1,.552-.244A.721.721,0,0,1,11040.3,21947.111Zm-12.369,5.455-.045-.1c-.954-.971-1.907-1.947-2.861-2.912-.458-.463-.927-.916-1.368-1.385a.743.743,0,1,1,1.042-1.059c.11.094.216.205.32.309,1.335,1.346,2.675,2.686,4.037,4.059a1.609,1.609,0,0,0,0-.285,4.345,4.345,0,0,0-.139-.48,11.488,11.488,0,0,0-8.928-7.672c-.414-.088-.458.023-.4.4a11.6,11.6,0,0,0,8.217,9.115c.028-.033.05-.061.077-.094Zm3.877,18.385a.737.737,0,0,1-.574-.727c-.038-.723-.05-.723-.788-.723-.133,0-.265.006-.4,0a.748.748,0,1,1-.006-1.494c.453-.018.9-.006,1.346-.006s.9.01,1.346-.006a.647.647,0,0,0,.7-.678.633.633,0,0,0-.679-.646c-.226,0-.452,0-.678,0-.271,0-.541,0-.812-.006a2.169,2.169,0,0,1-2.217-1.941,2.131,2.131,0,0,1,1.842-2.383c.31-.055.375-.154.359-.436a1.1,1.1,0,0,1,.065-.635.7.7,0,0,1,.833-.391.722.722,0,0,1,.585.711c.077.711.077.711.794.711a3.826,3.826,0,0,1,.5.012.761.761,0,0,1,.689.777.732.732,0,0,1-.756.705c-.485.006-.971,0-1.456,0-.363,0-.722,0-1.086.006q-.894.009-.877.707c.011.43.3.65.877.656h.523c.31-.006.612-.006.921.01a2.163,2.163,0,0,1,.254,4.3c-.348.043-.408.17-.38.457a1.009,1.009,0,0,1-.144.723.721.721,0,0,1-.582.33A.7.7,0,0,1,11031.809,21970.951Zm15.767-23.133a2.327,2.327,0,0,1,.65-2.422q2.15-2.15,4.3-4.312c4.07-4.086,2.146-2.178,6.227-6.254.286-.293.275-.451-.017-.684a3.994,3.994,0,0,1-.524-.535,1.037,1.037,0,0,1,.612-1.7q2.919-.472,5.852-.895a1.026,1.026,0,0,1,1.229,1.219c-.281,1.941-.59,3.883-.927,5.813a1.036,1.036,0,0,1-1.825.535c-.227-.215-.452-.617-.673-.617-.314,0-.519.414-.767.662-3.006,3.01-.011.027-3.017,3.043a2.569,2.569,0,0,1-.4.371.691.691,0,0,1-.948-.111.7.7,0,0,1-.072-.916,2.6,2.6,0,0,1,.37-.408c3.176-3.191.358-.385,3.54-3.578,1.092-1.1,1.246-1.109,2.465-.127.16-.992.331-1.953.469-2.918a5.172,5.172,0,0,0,.16-1.361c-.441.055-.883.115-1.323.176-.96.145-1.925.293-2.989.453.182.193.32.324.446.463a1.054,1.054,0,0,1,0,1.561c-.11.121-.231.236-.354.354-5.465,5.492-4.936,4.979-10.406,10.473-.11.1-.215.209-.319.314a.923.923,0,0,0-.089,1.367.911.911,0,0,0,1.362-.111q2.01-2.01,4.015-4.031a2.993,2.993,0,0,1,.364-.336.7.7,0,0,1,.954.066.684.684,0,0,1,.094.949,1.191,1.191,0,0,1-.193.225c-1.417,1.43-2.823,2.869-4.269,4.275a2.47,2.47,0,0,1-1.729.723A2.329,2.329,0,0,1,11047.575,21947.818Z" transform="translate(-9935.5 -19378.496)" fill="#071932" stroke="#071932" stroke-miterlimit="10" stroke-width="0.5"/>
    <circle id="Ellipse_106" data-name="Ellipse 106" cx="12" cy="12" r="12" transform="translate(1082 2553)" fill="#071932" opacity="0.1"/>
  </g>
</svg>
