<svg xmlns="http://www.w3.org/2000/svg" xmlns:xlink="http://www.w3.org/1999/xlink" width="370" height="274" viewBox="0 0 370 274">
  <defs>
    <linearGradient id="linear-gradient" x1="-0.201" y1="-0.565" x2="1.493" y2="1.995" gradientUnits="objectBoundingBox">
      <stop offset="0.02" stop-color="#fff" stop-opacity="0"/>
      <stop offset="0.32" stop-color="#fff" stop-opacity="0.388"/>
      <stop offset="0.68" stop-color="#fff" stop-opacity="0.678"/>
      <stop offset="1" stop-color="#fff"/>
    </linearGradient>
    <linearGradient id="linear-gradient-2" x1="3.322" y1="0.095" x2="-5.07" y2="1.303" gradientUnits="objectBoundingBox">
      <stop offset="0" stop-opacity="0"/>
      <stop offset="0.99"/>
    </linearGradient>
  </defs>
  <g id="offshore_investors" data-name="offshore investors" transform="translate(-1060 -1923)">
    <g id="Group_8432" data-name="Group 8432" transform="translate(1091 1923)">
      <path id="Path_1810" data-name="Path 1810" d="M362.769,168.556c-6.554,10.848-18.392,19.285-21.669,31.152-1.48,5.1-1.057,10.477-1.8,15.762-2.643,18.45-18.286,33.656-37.1,42.371-.846.371-1.586.742-2.431,1.113-12.367,5.285-25.686,8.159-39.215,9.921-8.245,1.113-16.6,1.762-24.946,2.318-34.459,2.411-68.918,3.245-103.588,2.6-16.7-.278-33.719-1.02-49.468-5.841-.846-.278-1.586-.464-2.431-.742-12.79-4.265-24.1-11.4-34.142-19.656l-.423-.371c-14.9-12.238-27.377-27.073-35.3-43.576a101.316,101.316,0,0,1-5.6-74.728c4.757-14.742,13-28.649,14.27-43.854.951-11.4-2.114-22.993-.106-34.3,4.228-22.53,28.011-39.033,53.168-44.6s51.688-2.411,77.374.742c12.579,1.576,27.271,5.841,39.638,2.411C204.216,5.192,217.111,0,233.6,0c6.659,0,13.53.649,19.766,2.967,7.5,2.874,13.424,8.066,19.449,12.887,16.912,13.258,36.15,24.013,53.485,36.993,17.335,12.887,32.979,28.649,39.321,47.841,3.171,9.364,3.911,19.192,4.228,28.927C370.379,142.874,369.851,156.781,362.769,168.556Z" transform="translate(-31.002)" fill="#f9f9fa"/>
      <path id="Path_1811" data-name="Path 1811" d="M93.46,95.6H247.367a11.93,11.93,0,0,1,11.96,11.96V210.289a11.93,11.93,0,0,1-11.96,11.96H93.46a11.93,11.93,0,0,1-11.96-11.96V107.56A11.872,11.872,0,0,1,93.46,95.6Z" transform="translate(-5.938 -6.964)" fill="#828b98"/>
    </g>
    <path id="Path_1812" data-name="Path 1812" d="M93.2,105.3H249.332V211.273H93.2Z" transform="translate(1084.209 1915.328)" fill="#fff"/>
    <path id="Path_1813" data-name="Path 1813" d="M166.109,156.349h4.636v42.556h-4.636Zm8.066,6.954h4.636v35.6h-4.636Zm7.974,6.3h4.636v29.205h-4.636Zm8.066-6.3h4.636v35.6h-4.636Zm7.881,14.278h4.636v21.324H198.1Zm8.159-14.278h4.636v35.6h-4.636Zm7.881,10.662h4.636v24.94h-4.636Zm8.066-4.821h4.636v29.669H222.2Zm-110.7,12.98h26.609V183.7H111.5Zm0,4.358h26.609v1.576H111.5Zm0,4.265h26.609v1.576H111.5Zm0,4.358h26.609v1.576H111.5Zm0,4.265h26.609v1.576H111.5ZM138.666,127.7a17.338,17.338,0,0,0-.185,34.676v-6.026h-.093a11.4,11.4,0,1,1,11.4-11.4,10.217,10.217,0,0,1-.185,1.669h6.119a7.493,7.493,0,0,0,.093-1.483,17.06,17.06,0,0,0-17.152-17.43Z" transform="translate(1082.876 1913.697)" fill="#505d6f"/>
    <path id="Path_1814" data-name="Path 1814" d="M269.941,112.3h43.391a5.817,5.817,0,0,1,5.841,5.841v42.371a5.817,5.817,0,0,1-5.841,5.841H269.941a5.817,5.817,0,0,1-5.841-5.841V118.141A5.817,5.817,0,0,1,269.941,112.3Z" transform="translate(1071.759 1914.818)" fill="#071932"/>
    <path id="Path_1815" data-name="Path 1815" d="M193.341,28h43.391a5.817,5.817,0,0,1,5.841,5.841V76.212a5.817,5.817,0,0,1-5.841,5.841H193.341a5.817,5.817,0,0,1-5.841-5.841V33.748A5.92,5.92,0,0,1,193.341,28Z" transform="translate(1077.339 1920.961)" fill="#8d8d8d"/>
    <path id="Path_1816" data-name="Path 1816" d="M48.141,21.5H91.532a5.817,5.817,0,0,1,5.841,5.841V69.712a5.817,5.817,0,0,1-5.841,5.841H48.141A5.817,5.817,0,0,1,42.3,69.712V27.248A5.739,5.739,0,0,1,48.141,21.5Z" transform="translate(1087.917 1921.434)" fill="#f0f1f3"/>
    <path id="Path_1817" data-name="Path 1817" d="M30.741,108.9H74.132a5.817,5.817,0,0,1,5.841,5.841V157.2a5.817,5.817,0,0,1-5.841,5.841H30.741A5.817,5.817,0,0,1,24.9,157.2V114.834A5.957,5.957,0,0,1,30.741,108.9Z" transform="translate(1089.185 1915.066)" fill="#8d8d8d"/>
    <g id="Group_8433" data-name="Group 8433" transform="translate(1168.23 1982.43)">
      <path id="Path_1818" data-name="Path 1818" d="M223.207,169.424l-.556-.093,10.2-39.4h18.543v.556H233.313ZM180,69.2h-8.437l-23.179,77.6-.556-.093L171.009,68.55H180Zm-44.6,59.43-20.4-63.881H99.154V64.1h16.318l.093.278,20.49,64.066Zm-23.457,24.106L97.485,136.6H83.3v-.649H97.764l14.649,16.411Z" transform="translate(-83.3 -64.1)" fill="#828b98"/>
      <path id="Path_1819" data-name="Path 1819" d="M158.038,148.2a17.347,17.347,0,0,1-17.245,15.854H140.7v-6.026a11.62,11.62,0,0,0,11.311-9.828h6.026Z" transform="translate(-87.481 -70.227)" fill="#828b98"/>
    </g>
    <path id="Path_1820" data-name="Path 1820" d="M158.038,148a17.347,17.347,0,0,1-17.245,15.854H140.7v-6.026A11.62,11.62,0,0,0,152.011,148h6.026Z" transform="translate(1080.748 1912.219)" fill="url(#linear-gradient)"/>
    <path id="Path_1821" data-name="Path 1821" d="M94.6,166.074l8.066-16.874L121.3,160.048l-12.795,26.424-10.013-5.563Z" transform="translate(1084.106 1912.131)" fill="#828b98"/>
    <path id="Path_1822" data-name="Path 1822" d="M96.3,164.573l6.768-13.073,15.3,8.9-11.589,23.272L98.9,177.646Z" transform="translate(1083.982 1911.963)" fill="#fff"/>
    <path id="Path_1823" data-name="Path 1823" d="M94,210.281l5.285,33.192L94,276.572l2.967,2.318-4.914-.278.464-34.119-9.272-24.013,1.113,25.033-5.377,32.172,2.318,1.3-5.377-.278,2.318-33.47L73.97,225.208s-3.709-14.464,0-16.967S94,210.281,94,210.281Z" transform="translate(1085.729 1907.885)" fill="#3e3e54"/>
    <path id="Path_1824" data-name="Path 1824" d="M74.251,156.9s12.98,1.483,16.225,3.8,6.583,6.119,6.583,9.086,1.3,17.894,1.3,17.894l5.377-12.424,2.967,1.762s-3.43,21.6-5.377,22.252-7.232-.742-7.232-.742l-.278,8.159S76.2,208.45,73.788,204.741c-2.318-3.8-7.881-41.815.464-47.841Z" transform="translate(1085.912 1911.57)" fill="#071932"/>
    <g id="Group_8434" data-name="Group 8434" transform="translate(1162.07 2050.4)">
      <path id="Path_1825" data-name="Path 1825" d="M86.246,152.375S84.67,155.62,85.5,158.4c0,0-4.821-.649-5.007-1.3-.185-.556.649-5.656.093-7.232s5.656,2.5,5.656,2.5Z" transform="translate(-76.935 -138.292)" fill="#fdb9a9"/>
      <path id="Path_1826" data-name="Path 1826" d="M80.776,137.957c1.854-.742,7.139-1.947,8.993,5.841,1.947,7.788-1.02,8.159-3.987,8.159-3.06,0-8.159-4.821-8.623-6.49s-1.854-5.1,3.616-7.51Zm23.735,32.265a1.578,1.578,0,0,1,.093-.649c.185-.556.742-.834,1.113-1.391a2.113,2.113,0,0,0,.278-1.02,1.789,1.789,0,0,1,.278-.927.945.945,0,0,1,.742-.464.976.976,0,0,1,.742.927,12.74,12.74,0,0,1-.278,7.881c-.185.371-.371.742-.742.742a.482.482,0,0,1-.371-.185c-.742-.371-1.854-.742-1.947-1.762a17.921,17.921,0,0,1,.093-3.152Z" transform="translate(-76.657 -137.411)" fill="#fdb9a9"/>
    </g>
    <path id="Path_1827" data-name="Path 1827" d="M108.287,169.53l-3.709-3.43-.278.649,3.338,3.523c.093,0,.742-.185.649-.742Z" transform="translate(1083.4 1910.9)" fill="#505d6f"/>
    <path id="Path_1828" data-name="Path 1828" d="M95.794,200.33s-1.854-.742-2.5-6.3L91.9,182.9v25.775h4.265Z" transform="translate(1084.304 1909.676)" fill="url(#linear-gradient-2)"/>
    <path id="Path_1829" data-name="Path 1829" d="M86.257,135.971a3.312,3.312,0,0,0-1.762-1.947,2.075,2.075,0,0,0-1.947-.093,1.982,1.982,0,0,0-1.669-.834,2.31,2.31,0,0,0-1.576.278,1.379,1.379,0,0,0-.649,1.391,9.691,9.691,0,0,0-2.318,0,1.233,1.233,0,0,0-.742.278,1.944,1.944,0,0,0-.556.742,9.112,9.112,0,0,0-.649,3.152,3.6,3.6,0,0,0-1.391,2.5,3.381,3.381,0,0,0,1.113,2.689,3.929,3.929,0,0,0,.371,3.06,2.774,2.774,0,0,0,2.781,1.113,1.615,1.615,0,0,0,.464,1.3.834.834,0,0,0,.464.093,2.962,2.962,0,0,0,1.3-.278,2.26,2.26,0,0,0,0,1.113.787.787,0,0,0,.742.649,2.776,2.776,0,0,0,.742-.371,3.721,3.721,0,0,0,1.205-1.483,10.269,10.269,0,0,0,.185-1.762c.185-.742.556-1.3.371-1.947s-.742-.927-1.113-1.391-.742-1.205-.278-1.576a1.091,1.091,0,0,1,1.483.371c.278.185.464.371.742.278s.185-.464.093-.742a7.89,7.89,0,0,1-.556-1.576,1.46,1.46,0,0,1,.464-1.576c.742-.556,1.762-.278,2.411-.742a2.42,2.42,0,0,0,.278-2.689Z" transform="translate(1085.682 1913.307)"/>
    <path id="Path_1998" data-name="Path 1998" d="M111.5,182.124h26.609V183.7H111.5Zm0,4.358h26.609v1.576H111.5Zm0,4.265h26.609v1.576H111.5Zm0,4.358h26.609v1.576H111.5Zm0,4.265h26.609v1.576H111.5Z" transform="translate(1082.876 1913.697)" fill="#071932"/>
  </g>
</svg>
