<svg xmlns="http://www.w3.org/2000/svg" xmlns:xlink="http://www.w3.org/1999/xlink" width="370" height="273.999" viewBox="0 0 370 273.999">
  <defs>
    <linearGradient id="linear-gradient" x1="0.445" y1="-3.227" x2="0.565" y2="4.98" gradientUnits="objectBoundingBox">
      <stop offset="0.01"/>
      <stop offset="0.08" stop-opacity="0.69"/>
      <stop offset="0.21" stop-opacity="0.322"/>
      <stop offset="1" stop-opacity="0"/>
    </linearGradient>
    <linearGradient id="linear-gradient-2" x1="0.539" y1="-2.884" x2="0.479" y2="2.237" xlink:href="#linear-gradient"/>
    <linearGradient id="linear-gradient-3" x1="0.802" y1="-1.884" x2="0.197" y2="2.922" xlink:href="#linear-gradient"/>
    <linearGradient id="linear-gradient-4" x1="3.584" y1="-0.75" x2="-4.955" y2="2.723" xlink:href="#linear-gradient"/>
    <linearGradient id="linear-gradient-5" x1="1.105" y1="0.299" x2="-0.412" y2="1.304" xlink:href="#linear-gradient"/>
    <linearGradient id="linear-gradient-6" x1="1.107" y1="0.29" x2="-0.41" y2="1.31" xlink:href="#linear-gradient"/>
    <linearGradient id="linear-gradient-7" x1="0.163" y1="-0.465" x2="0.703" y2="1.252" gradientUnits="objectBoundingBox">
      <stop offset="0" stop-opacity="0"/>
      <stop offset="0.99"/>
    </linearGradient>
    <linearGradient id="linear-gradient-8" x1="2.047" y1="1.687" x2="-0.534" y2="-0.416" xlink:href="#linear-gradient"/>
    <linearGradient id="linear-gradient-9" x1="1.002" y1="0.503" x2="-0.001" y2="0.503" xlink:href="#linear-gradient-7"/>
    <linearGradient id="linear-gradient-10" x1="-0.012" y1="1.107" x2="1.164" y2="-0.408" xlink:href="#linear-gradient"/>
    <linearGradient id="linear-gradient-11" x1="0.826" y1="-0.447" x2="0.178" y2="1.398" gradientUnits="objectBoundingBox">
      <stop offset="0" stop-opacity="0"/>
      <stop offset="0.954" stop-color="#888" stop-opacity="0.965"/>
      <stop offset="0.99" stop-color="#8d8d8d"/>
      <stop offset="1"/>
    </linearGradient>
    <linearGradient id="linear-gradient-12" x1="-1.052" y1="1.688" x2="1.535" y2="-0.416" xlink:href="#linear-gradient"/>
  </defs>
  <g id="onshore_investors" data-name="onshore investors" transform="translate(-490.001 -1523.001)">
    <path id="Path_1717" data-name="Path 1717" d="M223.391,40.36c14.167,3.071,28.334,7.413,40.493,15.355,32.986,21.709,44.4,64.492,70.73,94.038,11.524,12.814,26.114,23.721,32.246,39.924,4.758,12.814,3.489,27,1.269,40.559a338.312,338.312,0,0,1-8.035,36.959c-2.009,7.519-4.335,15.038-8.669,21.5-13,19.274-39.647,22.874-62.8,22.768a387.044,387.044,0,0,1-70.73-7.2c-11.63-2.33-23.365-5.083-35.206-5.93-25.691-1.8-51.065,5.719-76.545,10.166S52.75,314,30.76,300.447A65.747,65.747,0,0,1,.417,251.734c-1.374-14.508,2.115-28.8,5.921-42.889q7.3-27,16.07-53.8c4.546-13.661,9.41-27.428,16.81-39.924C72.2,59.739,162.916,27.334,223.391,40.36Z" transform="translate(489.89 1485.512)" fill="#f9f9fa"/>
    <path id="Path_1718" data-name="Path 1718" d="M107.565,232.6l26.687,4.448c5.824,1.059,11.861,2.224,16.838,5.4,1.694,1.059,3.495,2.542,3.6,4.554.318,2.224-1.483,4.342-3.495,5.295a15.729,15.729,0,0,1-6.566.953l-58.244.424c-12.39.106-25.733-.212-35.37-8.048a10.5,10.5,0,0,1-3.6-4.66,4.955,4.955,0,0,1,1.483-5.4,6.829,6.829,0,0,1,3.495-.847l26.369-2.012" transform="translate(492.664 1497.021)" fill="url(#linear-gradient)"/>
    <path id="Path_1719" data-name="Path 1719" d="M95.864,228.207c4.871-1.165,3.918,5.824,5.295,8.472a12.18,12.18,0,0,0,3.071,3.495,5.944,5.944,0,0,1,2.224,3.918,1.273,1.273,0,0,1-.212.847,1.112,1.112,0,0,1-.953.53,11.284,11.284,0,0,1-8.472-.847,5.8,5.8,0,0,1-2.859-2.647,9.918,9.918,0,0,1-.741-3.918c-.106-2.965-1.483-8.9,2.647-9.849Z" transform="translate(495.364 1496.754)" fill="#fdb9a9"/>
    <path id="Path_1720" data-name="Path 1720" d="M100.149,241.8s13.979.529,8.048,4.977-14.72-1.059-15.673-2.118a2.955,2.955,0,0,1-.212-2.647Z" transform="translate(495.314 1497.564)" fill="#505d6f"/>
    <path id="Path_1721" data-name="Path 1721" d="M93.148,243.954c1.271,1.483,7.731,3.495,10.7,3.389,2.965-.212,5.507-1.483,5.189-3.495-.424-1.906-5.507-6.248-6.46-6.248s-1.694,2.224-3.6,2.647a5.209,5.209,0,0,1-4.66-1.694,1.349,1.349,0,0,0-1.588-.424A7.015,7.015,0,0,0,93.148,243.954Z" transform="translate(495.327 1497.316)" fill="#fff"/>
    <path id="Path_1722" data-name="Path 1722" d="M79.863,230.807c4.871-1.165,3.918,5.824,5.295,8.472a10.778,10.778,0,0,0,3.071,3.495,5.944,5.944,0,0,1,2.224,3.918,1.273,1.273,0,0,1-.212.847,1.112,1.112,0,0,1-.953.53,11.805,11.805,0,0,1-8.472-.847,5.8,5.8,0,0,1-2.859-2.647,9.918,9.918,0,0,1-.741-3.918c-.106-3.071-1.377-9,2.647-9.849Z" transform="translate(494.422 1496.908)" fill="#fdb9a9"/>
    <path id="Path_1723" data-name="Path 1723" d="M84.241,244.2s13.979.529,8.048,4.977-14.72-1.059-15.567-2.118a3.385,3.385,0,0,1-.212-2.647Z" transform="translate(494.386 1497.705)" fill="#505d6f"/>
    <path id="Path_1724" data-name="Path 1724" d="M77.355,246.354c1.271,1.483,7.731,3.495,10.7,3.389s5.507-1.483,5.189-3.495c-.424-1.906-5.507-6.248-6.46-6.248s-1.694,2.224-3.6,2.647a5.209,5.209,0,0,1-4.66-1.694,1.349,1.349,0,0,0-1.588-.424A5.979,5.979,0,0,0,77.355,246.354Z" transform="translate(494.389 1497.457)" fill="#fff"/>
    <g id="Group_8423" data-name="Group 8423" transform="translate(568.108 1659.621)">
      <path id="Path_1725" data-name="Path 1725" d="M92.752,171l-6.566,69.046-9.531-1.165c-3.706-16.944-2.647-67.352-2.647-67.352Z" transform="translate(-73.868 -166.235)" fill="#473f47"/>
      <path id="Path_1726" data-name="Path 1726" d="M85.4,169.465l6.566,69.046,9.531-1.165c5.4-43.736.953-70.846.953-70.846Z" transform="translate(-73.188 -166.5)" fill="#473f47"/>
    </g>
    <path id="Path_1727" data-name="Path 1727" d="M102.59,147.043c.106-1.271.529-2.542.529-3.812a24.348,24.348,0,0,0-.212-7.837,29.022,29.022,0,0,0-2.542-7.942c-1.059-2.224-3.071-3.071-5.295-4.236a18.7,18.7,0,0,0-5.93-2.012,15.7,15.7,0,0,0-4.448.212c-4.554.847-10.378,3.177-13.449,6.672-2.33,2.647-2.542,6.46-2.542,9.849q-.157,7.258.318,14.508a14.35,14.35,0,0,0,.212,2.118c.424,5.295.847,10.7,2.33,15.885.529,1.588.953,3.283,2.542,4.024,3.495,2.012,8.79.847,12.6.424,4.977-.635,10.166-1.483,14.614-3.918a4.862,4.862,0,0,0,2.118-2.012c.424-1.059-.106-2.33-.424-3.389-1.483-4.871-.424-10.166-.424-15.144,0-.847-.106-1.8-.106-2.753.106-.106.106-.424.106-.635Z" transform="translate(493.934 1490.445)" fill="#fff"/>
    <path id="Path_1728" data-name="Path 1728" d="M92.447,125.688a27.24,27.24,0,0,1-.212,5.083l.106,4.554a14.13,14.13,0,0,1-2.542,7.307l12.284-2.542a.581.581,0,0,0,.635-.424.666.666,0,0,0,0-.635l-1.059-4.765a19.472,19.472,0,0,0-2.542-6.778,15.813,15.813,0,0,0-5.189-4.342c-.529-.212-2.012-1.377-2.542-.529a21.227,21.227,0,0,0,1.059,3.071Z" transform="translate(495.181 1490.516)" fill="#020202" opacity="0.1"/>
    <path id="Path_1729" data-name="Path 1729" d="M98.363,137.036a4.723,4.723,0,0,1,4.13-.318,4.032,4.032,0,0,1,2.224,3.495,6.587,6.587,0,0,1-.953,2.753,3.879,3.879,0,0,1-1.271,1.377,3.611,3.611,0,0,1-2.542.529,5.876,5.876,0,0,1-2.33-.635c-1.059-.529-2.542-2.33-2.118-3.6A6.477,6.477,0,0,1,98.363,137.036Z" transform="translate(495.513 1491.346)" fill="#fdb9a9"/>
    <path id="Path_1730" data-name="Path 1730" d="M82.829,169.62a16.421,16.421,0,0,0,1.165-5.93,32.611,32.611,0,0,0-.847-5.613L79.97,142.827c-.529-2.753-1.8-16.308-6.142-14.72a8.832,8.832,0,0,0-4.977,5.507A20.637,20.637,0,0,0,68,141.239c.106,6.672,1.483,13.661,2.33,20.227.318,2.542.741,11.861,4.024,12.708a6.428,6.428,0,0,0,1.906.529c1.165.212,4.554,1.483,5.93,1.059.318-.106.529-.212.529-.424.847-1.694-.529-4.977-.529-6.883a14.439,14.439,0,0,1,3.495-8.366,37.576,37.576,0,0,1,7.942-6.248l3.918-2.542a4.434,4.434,0,0,1,2.224-.847,8.176,8.176,0,0,0,1.588.212c.847-.106,1.377-1.059,1.588-1.8a15.032,15.032,0,0,0,1.059-6.142.961.961,0,0,0-.318-.741.644.644,0,0,0-.847,0l-12.39,3.812a11.8,11.8,0,0,1-5.719.847c-1.906-.318-3.812-1.8-3.812-3.706" transform="translate(493.891 1490.85)" fill="#020202" opacity="0.1"/>
    <path id="Path_1731" data-name="Path 1731" d="M70.59,129.194c-4.024,6.672-5.507,14.614-6.778,22.345a6.526,6.526,0,0,0-.106,2.859,5.193,5.193,0,0,0,3.6,3.495,14.76,14.76,0,0,0,5.295.318c3.706-.318,8.26-.53,11.437-2.753,1.059-.741,2.118-1.694,3.177-2.436a14.5,14.5,0,0,1,3.389-1.694,41.587,41.587,0,0,0,6.354-3.706,6.449,6.449,0,0,0,1.694-1.694,5.012,5.012,0,0,0-.424-4.236,1.214,1.214,0,0,0-1.377-1.059.809.809,0,0,0-.529.212,109.337,109.337,0,0,1-16.52,3.6c-1.483.212-.847-1.483-.635-2.33.318-1.271.529-2.542.741-3.706a11.109,11.109,0,0,0-3.812-9.637,5.261,5.261,0,0,0-2.542-1.271,5.057,5.057,0,0,0-2.965,1.694Z" transform="translate(493.634 1490.82)" fill="#fff"/>
    <path id="Path_1732" data-name="Path 1732" d="M92.429,115.3c0-1.377-.106-2.647-.212-3.918-.106-1.165-.318-2.33-.529-3.495a2.391,2.391,0,0,0-.847-1.694,11.3,11.3,0,0,0-5.93-1.588,4.838,4.838,0,0,0-5.4,3.918c0,.318-.106.529-.106.741-.318,2.859.529,5.719.847,8.684a35.876,35.876,0,0,1,.424,6.672,7.383,7.383,0,0,0,3.6,1.271,5.379,5.379,0,0,0,1.8-.318,1.9,1.9,0,0,0,.741-.53,1.8,1.8,0,0,0,.106-.741c0-.212-.106-.529-.106-.635a16.037,16.037,0,0,1,.106-3.918.389.389,0,0,1,.106-.318h.741a6.41,6.41,0,0,0,2.012,0A4.461,4.461,0,0,0,91.9,118.37a6.1,6.1,0,0,0,.529-3.071Z" transform="translate(494.563 1489.467)" fill="#fdb9a9"/>
    <path id="Path_1733" data-name="Path 1733" d="M90.5,114.925c-.106-.212-.424-.529-.529-.424a.568.568,0,0,0-.318.424,7.094,7.094,0,0,1-1.165,1.906,4.072,4.072,0,0,1-.953.953l-.635.529a5.567,5.567,0,0,0,1.8.424,2.333,2.333,0,0,0,1.694-.529c.318-.318.529-.529.529-.953a3.171,3.171,0,0,0,.424-1.059,1.478,1.478,0,0,0-.318-.953" transform="translate(495.009 1490.053)" fill="#e8a090"/>
    <path id="Path_1734" data-name="Path 1734" d="M90.285,106.854c1.059-.318,2.647-.424,3.177-1.483a2.328,2.328,0,0,0-.847-2.859,6.607,6.607,0,0,0-5.824-1.906,13.619,13.619,0,0,1-2.012.424,11.309,11.309,0,0,1-2.647-.318,6.661,6.661,0,0,0-4.342,1.588,8.9,8.9,0,0,1-2.542,1.906,2.4,2.4,0,0,1-2.859-.529,4.172,4.172,0,0,0,.529,3.706,1.125,1.125,0,0,1-1.483.106,13.014,13.014,0,0,0,1.059,4.448,4.584,4.584,0,0,1-1.694-.106,7.017,7.017,0,0,0,3.495,3.495c2.118.847,4.554.953,6.036,2.753.212.212.424.741.635.847.318.106.529-.318.635-.529a5.04,5.04,0,0,0-.318-3.918,4.5,4.5,0,0,1-.635-2.012c.106-.635,1.059-1.271,1.483-.847.529.424.529,1.483,1.165,1.271a4.541,4.541,0,0,1,2.118-5.4c1.483-.529,3.177-.212,4.554-.635Z" transform="translate(494.06 1489.229)"/>
    <path id="Path_1735" data-name="Path 1735" d="M87.454,118.577A24.858,24.858,0,0,1,82.9,117.2a5.337,5.337,0,0,0,3.706,5.613,16.037,16.037,0,0,1,.106-3.918.389.389,0,0,1,.106-.318h.635Z" transform="translate(494.773 1490.213)" fill="#e8a090"/>
    <ellipse id="Ellipse_78" data-name="Ellipse 78" cx="36.429" cy="36.429" rx="36.429" ry="36.429" transform="translate(625.222 1581.893)" fill="#fff"/>
    <path id="Path_1736" data-name="Path 1736" d="M276.3,246.725c-5.719,1.906-11.331,4.554-11.119,7.413.212,3.071-23.4,3.6-25.733,3.283.53-.953.106-2.542.53-3.495a195.14,195.14,0,0,1-25.416-7.731c-10.908-4.024-23.933-4.66-35.476-5.719-25.733-2.542-52-2.012-76.988,5.083A80,80,0,0,0,86.424,251.6a7.573,7.573,0,0,0-3.495,3.071c-1.483,2.647.424,6.036,2.647,8.048,3.495,3.177,8.154,4.765,12.6,6.036a127.125,127.125,0,0,0,45.96,4.448c6.672-.53,13.555-1.694,20.227-.53s12.708,4.554,19.274,6.248,14.4,1.483,18.956-3.495a18.2,18.2,0,0,1,3.495-3.495c1.8-1.059,4.13-.741,6.142-.53a228.31,228.31,0,0,0,58.88.424c1.588-.212,3.389-.529,4.342-1.8.741-.953.847-2.33,1.694-3.177,1.059-1.271,2.859-1.271,4.554-1.271a218.015,218.015,0,0,0,28.8-1.8c2.542-.424,5.189-.741,7.307-2.224s3.6-4.13,2.753-6.566a7.829,7.829,0,0,0-3.071-3.6c-8.366-6.354-19.274-8.79-29.758-7.519a66.915,66.915,0,0,0-11.437,2.859Z" transform="translate(494.744 1497.404)" fill="url(#linear-gradient-2)"/>
    <g id="Group_8424" data-name="Group 8424" transform="translate(666.443 1739.469)">
      <path id="Path_1737" data-name="Path 1737" d="M166.8,248.326c0,2.224,7.625,4.024,16.944,4.024s16.944-1.8,16.944-4.024a10.2,10.2,0,0,0,0-2.542c-1.271-1.906-8.472-1.483-16.944-1.483-8.26,0-15.355-.318-16.944,1.483A10.208,10.208,0,0,0,166.8,248.326Z" transform="translate(-166.725 -241.761)" fill="#505d6f"/>
      <ellipse id="Ellipse_79" data-name="Ellipse 79" cx="16.944" cy="4.024" rx="16.944" ry="4.024" transform="translate(0.079)" fill="#505d6f"/>
    </g>
    <ellipse id="Ellipse_80" data-name="Ellipse 80" cx="16.944" cy="4.024" rx="16.944" ry="4.024" transform="translate(666.522 1739.469)" fill="url(#linear-gradient-3)"/>
    <ellipse id="Ellipse_81" data-name="Ellipse 81" cx="16.944" cy="4.024" rx="16.944" ry="4.024" transform="translate(760.878 1744.129)" fill="#4c506d"/>
    <path id="Path_1738" data-name="Path 1738" d="M180.9,210h3.918v38.124H180.9Z" transform="translate(500.554 1495.688)" fill="#828b98"/>
    <path id="Path_1739" data-name="Path 1739" d="M180.9,210h3.918v13.131H180.9Z" transform="translate(500.554 1495.688)" fill="url(#linear-gradient-4)"/>
    <path id="Path_1740" data-name="Path 1740" d="M230.256,244.024v5.824H209.5s1.271-4.448,9.531-5.824l2.647-2.224Z" transform="translate(502.241 1497.564)" fill="#505d6f"/>
    <path id="Path_1741" data-name="Path 1741" d="M230.256,244.024v5.824H209.5s1.271-4.448,9.531-5.824l2.647-2.224Z" transform="translate(502.241 1497.564)" fill="url(#linear-gradient-5)"/>
    <path id="Path_1742" data-name="Path 1742" d="M208.8,249.4h22.451v1.483H208.8Z" transform="translate(502.2 1498.012)" fill="#828b98"/>
    <path id="Path_1743" data-name="Path 1743" d="M270.4,218.4h3.283v30.075H270.4Z" transform="translate(505.834 1496.184)" fill="#4c506d"/>
    <path id="Path_1744" data-name="Path 1744" d="M256,250.326c0,2.224,7.625,4.024,16.944,4.024,9.425,0,16.944-1.8,16.944-4.024a10.2,10.2,0,0,0,0-2.542c-1.271-1.906-8.472-1.483-16.944-1.483-8.154,0-15.355-.318-16.944,1.483A10.206,10.206,0,0,0,256,250.326Z" transform="translate(504.979 1497.826)" fill="#2f3554"/>
    <g id="Group_8425" data-name="Group 8425" transform="translate(760.878 1667.564)">
      <ellipse id="Ellipse_82" data-name="Ellipse 82" cx="16.944" cy="4.024" rx="16.944" ry="4.024" transform="translate(0 74.023)" fill="#071932"/>
      <path id="Path_1745" data-name="Path 1745" d="M267,215.618h27.957l6.672-36.429a4.415,4.415,0,0,0-3.495-5.083c-.318,0-.53-.106-.847-.106H278.119a4.43,4.43,0,0,0-4.342,3.495L267,215.618Z" transform="translate(-255.245 -174)" fill="#071932"/>
    </g>
    <path id="Path_1746" data-name="Path 1746" d="M260,215.618h27.957l6.672-36.429a4.415,4.415,0,0,0-3.495-5.083c-.318,0-.529-.106-.741-.106H271.225a4.43,4.43,0,0,0-4.342,3.495L260,215.618Z" transform="translate(505.22 1493.564)" fill="#2f3554"/>
    <path id="Path_1747" data-name="Path 1747" d="M269.807,208.1h20.227a5.507,5.507,0,0,1,0,11.013H269.807a5.537,5.537,0,0,1-5.507-5.507A5.4,5.4,0,0,1,269.807,208.1Z" transform="translate(505.474 1495.576)" fill="#4c506d"/>
    <path id="Path_1748" data-name="Path 1748" d="M258.107,208.1h20.227a5.507,5.507,0,1,1,0,11.013H258.107a5.536,5.536,0,0,1-5.507-5.507A5.469,5.469,0,0,1,258.107,208.1Z" transform="translate(504.783 1495.576)" fill="#2f3554"/>
    <g id="Group_8426" data-name="Group 8426" transform="translate(742.742 1653.922)">
      <path id="Path_1749" data-name="Path 1749" d="M282.706,165.017a1.8,1.8,0,0,0-.635-.635c-3.283-3.177-8.578-2.753-11.967-2.647a62.466,62.466,0,0,1-8.9-.318l-1.271-.212h-.424c-2.224-.212-4.871-.212-5.613,2.118-.847,2.753-.953,6.036-1.377,8.79-1.165,8.472-1.8,16.732-2.224,25.2-.424,7.519,9.637,8.048,14.932,8.048a49.416,49.416,0,0,0,5.507-.318c1.589-.318,3.177-.953,4.765-1.271a4.967,4.967,0,0,0,2.33-.953c.953-.847.953-2.33.953-3.6a58.186,58.186,0,0,1,.741-9.637l1.059-4.66a15.633,15.633,0,0,1,1.377-3.706c2.224-5.719,4.024-12.178.741-16.2Z" transform="translate(-238.095 -161.118)" fill="#fff"/>
      <path id="Path_1750" data-name="Path 1750" d="M243.038,165.808a5.9,5.9,0,0,1,.953-2.012c1.059-1.377,2.859-1.483,4.554-1.694a2.183,2.183,0,0,1,2.118.635,1.723,1.723,0,0,1,.106,1.271l-.424,4.236a11.215,11.215,0,0,1,3.495-1.483c.318-.106,3.6-.53,3.6,0a59.658,59.658,0,0,1,.318,6.142,5.466,5.466,0,0,1-1.377,4.13,45.512,45.512,0,0,1-5.824,6.883,12.574,12.574,0,0,1-8.578,3.6,3.005,3.005,0,0,1-2.753-.953,2.693,2.693,0,0,1-.424-1.8,31.107,31.107,0,0,1,.53-5.4A79.76,79.76,0,0,1,243.038,165.808Z" transform="translate(-238.774 -161.062)" fill="#fff"/>
    </g>
    <path id="Path_1751" data-name="Path 1751" d="M245.595,169.576c.212-1.165,0-3.918.953-4.66l.212-.106a1.839,1.839,0,0,1,2.436.847,2.429,2.429,0,0,1,.106,1.483,15.326,15.326,0,0,0,.106,3.812,2.493,2.493,0,0,0,1.059,1.906,1.752,1.752,0,0,0,1.483-.318,12.115,12.115,0,0,0,3.495-2.436.878.878,0,0,1,.847-.318.826.826,0,0,1,.424.424l7.837,12.178c.635,1.059,1.271,2.542.53,3.389s-2.118.529-3.177.106a25.379,25.379,0,0,1-8.048-5.719l-.529-.529a1.15,1.15,0,0,0-.953.424,28.954,28.954,0,0,1-4.554,2.753c-1.165.529-2.859.953-3.6-.212a2.638,2.638,0,0,1-.212-2.012l1.588-11.013Zm29.016,3.177a8.538,8.538,0,0,1,2.647-3.706,4.237,4.237,0,0,1,4.448-.529c1.8,1.165,2.012,3.706,1.8,5.824a42.683,42.683,0,0,1-2.012,9,36.742,36.742,0,0,0-1.694,4.342c-.424,1.165-.424,2.542-.741,3.6a32.011,32.011,0,0,0-1.483,9.531,5.315,5.315,0,0,1-.212,1.271c-.212.424-.529.53-1.059.53-.318-.106-.53-.318-.53-.53-2.012-2.542-5.507-3.495-8.79-3.812-3.812-.529-7.625-.529-11.543-.741-1.483-.106-3.495-.529-3.812-2.118a2.565,2.565,0,0,1,1.165-2.33,5.189,5.189,0,0,1,2.542-.847c3.495-.635,6.989-1.165,9.849-3.177a7.649,7.649,0,0,1-2.753-1.483c1.8,1.271,4.765-2.753,6.142-3.706a12.5,12.5,0,0,0,2.859-3.389C272.7,177.942,273.446,175.188,274.611,172.753Z" transform="translate(504.27 1493.012)" fill="#d8dae1"/>
    <path id="Path_1752" data-name="Path 1752" d="M263.919,163.7a1.823,1.823,0,0,1,1.271.212,2.515,2.515,0,0,0,1.271.318v.106A2.253,2.253,0,0,1,265.4,167.3a3.525,3.525,0,0,0-.635.318,1.668,1.668,0,0,0-.424,1.377c.106,3.918-1.059,7.837-2.012,11.649-1.059,4.554-1.8,9.213-1.165,13.767v.741c-.106.212-.212.318-.318.529l-2.012,2.33c-.53-.953-2.012-1.271-2.33-2.33a2.932,2.932,0,0,1-.106-.953,80.276,80.276,0,0,1,2.224-12.6,105.93,105.93,0,0,1,4.13-13.979,1.151,1.151,0,0,0,.106-.53.55.55,0,0,0-.212-.424C262.119,166.032,262.966,164.02,263.919,163.7Z" transform="translate(505.008 1492.955)" fill="#505d6f"/>
    <path id="Path_1753" data-name="Path 1753" d="M274.12,161.642l-8.578-.53c-1.906-.106-4.448-.529-6.142.212a5.316,5.316,0,0,1,1.271.212,62.469,62.469,0,0,0,8.9.318c3.389-.106,8.684-.529,11.967,2.647C279.733,162.383,276.873,161.853,274.12,161.642Z" transform="translate(505.185 1492.791)" fill="#fff"/>
    <path id="Path_1754" data-name="Path 1754" d="M271.338,153.424a.806.806,0,0,0,.953.106c-.424,2.224-.741,4.13.318,6.248a3.745,3.745,0,0,0,2.012,2.012,33.475,33.475,0,0,0-5.507,1.8,8.779,8.779,0,0,1-3.6.741c-.106,0-2.33-.53-2.012-.953,1.694-2.542.424-6.778.424-6.778a5.989,5.989,0,0,0,7.307-3.6c0,.212,0,.318.106.424Z" transform="translate(505.425 1492.326)" fill="#e8a090"/>
    <path id="Path_1755" data-name="Path 1755" d="M269.867,138.1s-11.755-.847-11.967,7.413a20.745,20.745,0,0,0,.529,5.083l.424,1.694c1.483,4.977,4.871,8.366,8.9,7.2,7.1-2.224,11.543-19.274,2.118-21.392Z" transform="translate(505.096 1491.445)" fill="#fdb9a9"/>
    <path id="Path_1756" data-name="Path 1756" d="M275.432,152.6a2.72,2.72,0,0,0,.424-3.283c-.106-.212-.318-.318-.424-.424a1.313,1.313,0,0,0-1.377.106c-.318.212-.741.847-1.165.424a.824.824,0,0,1-.212-.847,4.262,4.262,0,0,1,.953-2.118,2,2,0,0,1-1.377-1.377,11.929,11.929,0,0,1-3.389.212,1.531,1.531,0,0,1-.741-.212c-.53-.318-.741-.953-1.377-1.377a2.919,2.919,0,0,0-2.33-.318c-.741,0-1.694-.318-1.906-1.059a2.9,2.9,0,0,1-3.706-1.483,2.16,2.16,0,0,1-2.224-.318,2.268,2.268,0,0,1-.318-2.012c.318-1.483.953-3.071,2.436-3.495-.847-.424-.741-1.483-.635-2.542a1.531,1.531,0,0,1,.212-.741c.424-.53,1.271-.53,1.906-.847s1.165-.741,1.8-1.059a1.379,1.379,0,0,1,1.906.424,6.11,6.11,0,0,1,2.753-.953,3.055,3.055,0,0,1,2.542,1.165,3.154,3.154,0,0,1,1.483-.529,1.377,1.377,0,0,1,1.271.847c0,.106.106.318.212.318.106.106.212.106.424,0a3.744,3.744,0,0,1,2.436-.212,2.052,2.052,0,0,1,1.483,1.694,6.194,6.194,0,0,1,2.542,1.483,2.476,2.476,0,0,1,.953,2.542,3.573,3.573,0,0,1,.212,4.765.926.926,0,0,1,.53.953,1.471,1.471,0,0,1-.53,1.059c-.106.106-.106.212-.106.424s.212.318.318.424a1.638,1.638,0,0,1-.106,2.224c-.106.106-.318.212-.424.318a2.011,2.011,0,0,1,.847,1.588,1.144,1.144,0,0,1-1.059,1.059h-.212a1.949,1.949,0,0,1-.318,2.118c-.53.741-1.271.53-1.906.847a8.413,8.413,0,0,0-1.483,1.906c-.106-.741-.318-1.271-.318-1.694Zm-24.886,48.5-16.1,8.26L221,248.225l8.154,4.977,15.885-32.193,18.744-5.824c3.918-1.377,9-13.767,9-13.767Z" transform="translate(502.92 1490.926)"/>
    <path id="Path_1757" data-name="Path 1757" d="M262.422,198.464l-16.1,8.26L235.1,252.049l8.578,2.224,13.237-35.9,18.744-5.824c3.918-1.271,3.071-12.6,3.071-12.6-6.883-4.871-16.308-1.483-16.308-1.483Z" transform="translate(503.751 1494.939)" fill="#4c506d"/>
    <path id="Path_1758" data-name="Path 1758" d="M277.674,163.3c-2.542-.529-8.684,12.6-8.684,12.6l-10.06-10.06-5.93,2.33s9,22.027,16.414,19.909,14.508-17.9,14.508-17.9C284.77,167.431,280.216,163.83,277.674,163.3Z" transform="translate(504.807 1492.932)" fill="#fff"/>
    <path id="Path_1759" data-name="Path 1759" d="M247.771,156.951a7.278,7.278,0,0,0-1.694,2.224,12.353,12.353,0,0,0-1.059,2.753,5.66,5.66,0,0,0-.318,2.33,2.4,2.4,0,0,0,1.165,1.8,2.623,2.623,0,0,0,2.965-.741,7.426,7.426,0,0,0,1.271-2.965,18.111,18.111,0,0,1,.953-3.177,3.6,3.6,0,0,0,.741-1.588C251.8,155.257,248.83,156,247.771,156.951Z" transform="translate(504.317 1492.504)" fill="#e8a090"/>
    <path id="Path_1760" data-name="Path 1760" d="M257.559,164.868c.529,2.33-2.118,3.283-4.024,2.753a4.371,4.371,0,0,1-1.589-.741c-1.165-.847-1.483-2.436-2.224-3.6a15.153,15.153,0,0,1-1.694-2.542,3.392,3.392,0,0,1-.318-2.859c.635-1.165,2.224-1.377,3.495-1.377a3.382,3.382,0,0,1,2.012.318,4.56,4.56,0,0,1,1.588,1.588,25.276,25.276,0,0,1,2.753,6.46Z" transform="translate(504.484 1492.529)" fill="#fdb9a9"/>
    <path id="Path_1761" data-name="Path 1761" d="M92.008,201.326c0,8.26,41.618,14.826,92.873,14.826s92.873-6.566,92.873-14.826c0-.424.106-4.448,0-4.765-3.283-7.731-43.736-10.06-92.873-10.06-48.078,0-88.108,2.542-92.873,10.06C91.69,196.984,92.008,200.69,92.008,201.326Z" transform="translate(495.302 1494.301)" fill="#fc5b3f"/>
    <path id="Path_1762" data-name="Path 1762" d="M277.649,201.118c0,8.26-41.618,14.826-92.873,14.826S91.9,209.378,91.9,201.118a25.754,25.754,0,0,1,0-2.859,4.178,4.178,0,0,1,.635-1.589,4.254,4.254,0,0,1,4.554-2.965c2.118,0,4.342,0,6.46.106,2.965.106,5.93.424,8.79.741,2.224.318,4.448.741,6.566.847,4.554.318,9.107-.741,13.661-.953a3.6,3.6,0,0,1,1.059.106,4.948,4.948,0,0,1,1.059.529,8.524,8.524,0,0,0,5.4.847c16.52,1.165,32.935,0,49.455-1.906,13.661-1.589,27.428-3.495,41.3-3.918a172.251,172.251,0,0,1,42.995,4.13c1.906.424,4.236,1.377,4.342,3.283C278.179,198.682,276.8,200.059,277.649,201.118Z" transform="translate(495.302 1494.51)" fill="#505d6f"/>
    <g id="Group_8427" data-name="Group 8427" transform="translate(587.31 1676.035)">
      <ellipse id="Ellipse_83" data-name="Ellipse 83" cx="92.873" cy="14.826" rx="92.873" ry="14.826" fill="#828b98"/>
      <path id="Path_1763" data-name="Path 1763" d="M244.356,251.224v5.719H223.6s1.271-4.448,9.531-5.719L235.778,249Z" transform="translate(-84.237 -178.048)" fill="#505d6f"/>
    </g>
    <path id="Path_1764" data-name="Path 1764" d="M244.356,251.224v5.719H223.6s1.271-4.448,9.531-5.719L235.778,249Z" transform="translate(503.073 1497.988)" fill="url(#linear-gradient-6)"/>
    <path id="Path_1765" data-name="Path 1765" d="M222.9,256.5h22.451v1.483H222.9Z" transform="translate(503.031 1498.432)" fill="#828b98"/>
    <path id="Path_1766" data-name="Path 1766" d="M280.824,160.5a1.469,1.469,0,0,1,.953,0c.529.212.635.847,1.165,1.059-1.165,1.059-2.647,1.483-4.024,2.436a18.231,18.231,0,0,0-3.6,3.389c-1.271-.635-1.165-2.542-2.224-3.495a10.054,10.054,0,0,0,2.224-.953c.529-.318,1.059-.53,1.483-.847A7.89,7.89,0,0,1,280.824,160.5Zm-10.7.635-1.059,1.165-1.271,1.483a.809.809,0,0,0-.212.53.582.582,0,0,0,.529.318c.212-.106.424-.106.53-.212a6.515,6.515,0,0,1,1.377-.106,6.968,6.968,0,0,0,1.589-.424c.106,0,.106-.106.212-.106v-.212a4.249,4.249,0,0,1,.318-1.589c.106-.424.424-.847.106-1.271C271.822,159.975,270.657,160.822,270.128,161.14Zm-27,29.44-24.145,1.059,7.413,8.578,26.581-2.118Zm-100.392,0c1.377.106,23.721,6.566,23.721,6.566L153.427,207.1,127.8,200.217l14.932-9.637Z" transform="translate(497.422 1492.764)" fill="#fff"/>
    <path id="Path_1767" data-name="Path 1767" d="M238.9,232.6h3.283v30.075H238.9Z" transform="translate(503.976 1497.021)" fill="#4c506d"/>
    <path id="Path_1768" data-name="Path 1768" d="M238.9,232.6h3.283v30.075H238.9Z" transform="translate(503.976 1497.021)" fill="#071932"/>
    <path id="Path_1769" data-name="Path 1769" d="M224.4,264.526c0,2.224,7.625,4.024,16.944,4.024s16.944-1.8,16.944-4.024a10.2,10.2,0,0,0,0-2.542c-1.271-1.906-8.472-1.483-16.944-1.483-8.154,0-15.355-.318-16.944,1.483A10.206,10.206,0,0,0,224.4,264.526Z" transform="translate(503.115 1498.664)" fill="#2f3554"/>
    <ellipse id="Ellipse_84" data-name="Ellipse 84" cx="16.944" cy="4.024" rx="16.944" ry="4.024" transform="translate(727.52 1756.625)" fill="#071932"/>
    <path id="Path_1770" data-name="Path 1770" d="M227.94,175.678c-10.908-2.542-16.52-15.779-27.11-19.274a1.8,1.8,0,0,0-1.059,0,1.1,1.1,0,0,0-.529.741l-2.542,5.4,14.614,17.05a29.776,29.776,0,0,0,3.6,3.706c3.177,2.436,7.2,3.177,11.119,3.918,2.33.424,4.66.847,6.989.212,2.965-.847,6.354-4.871,5.4-8.26-1.059-3.6-7.519-2.859-10.484-3.495Z" transform="translate(501.486 1492.521)" fill="#fff"/>
    <g id="Group_8428" data-name="Group 8428" transform="translate(708.775 1711.4)">
      <path id="Path_1771" data-name="Path 1771" d="M211,227.367a12.858,12.858,0,0,0,.953,5.189h.106a49.639,49.639,0,0,1,5.613.106l9.319,1.377,4.236.847,4.024.847L242.771,237a24.534,24.534,0,0,0,8.154-5.824,2.221,2.221,0,0,0,.635-.847l.847-1.165a10.1,10.1,0,0,0,1.483-3.706,3.9,3.9,0,0,0-.106-1.588,7.878,7.878,0,0,0-3.283-4.554l-.53-.424a20.071,20.071,0,0,0-11.649-3.495,3.6,3.6,0,0,0-1.059.106,34.107,34.107,0,0,0-6.566,1.165c-3.495.847-6.778,2.118-10.166,3.177a27.943,27.943,0,0,0-7.1,2.965,7.127,7.127,0,0,0-1.588,1.483A4.692,4.692,0,0,0,211,227.367Z" transform="translate(-206.447 -215.395)" fill="#3e3e54"/>
      <path id="Path_1772" data-name="Path 1772" d="M211.571,232.874c.529,2.33.847,4.554,1.165,6.778a160.278,160.278,0,0,1,1.589,15.991,3.4,3.4,0,0,1-.106,1.483c-.529,1.483-2.542,1.483-4.024,1.483s-3.495.53-3.495,2.118c0,1.165,1.377,1.906,2.436,2.33a28.762,28.762,0,0,0,10.378,1.588,5.312,5.312,0,0,0,1.271-.212c2.436-1.059.529-3.812.318-5.507-.424-2.436.53-4.871,1.165-7.2,1.377-5.295,4.871-9.954,4.66-15.567a2.711,2.711,0,0,1,.424-2.012c.635-.847,3.495.529,4.342.635,1.377.318,2.647.529,4.024.847,7.307,1.483,13.979,3.071,21.5,1.588a4.482,4.482,0,0,0,1.271-.424,2.385,2.385,0,0,0,.847-1.483,13.228,13.228,0,0,0-.741-9.849c-1.8-3.6-4.66-4.977-8.048-6.672-3.918-2.012-7.2-3.495-11.649-3.389a3.6,3.6,0,0,0-1.059.106,34.11,34.11,0,0,0-6.566,1.165c-5.507,1.483-18.109,3.495-20.227,9.743-.635,2.012.212,3.6.53,5.507-.212.318-.106.529,0,.953Z" transform="translate(-206.7 -215.395)" fill="#3e3e54"/>
    </g>
    <path id="Path_1773" data-name="Path 1773" d="M211.571,232.874c.529,2.33.847,4.554,1.165,6.778a160.278,160.278,0,0,1,1.589,15.991,3.4,3.4,0,0,1-.106,1.483c-.529,1.483-2.542,1.483-4.024,1.483s-3.495.53-3.495,2.118c0,1.165,1.377,1.906,2.436,2.33a28.762,28.762,0,0,0,10.378,1.588,5.312,5.312,0,0,0,1.271-.212c2.436-1.059.529-3.812.318-5.507-.424-2.436.53-4.871,1.165-7.2,1.377-5.295,4.871-9.954,4.66-15.567a2.711,2.711,0,0,1,.424-2.012c.635-.847,3.495.529,4.342.635,1.377.318,2.647.529,4.024.847,7.307,1.483,13.979,3.071,21.5,1.588a4.482,4.482,0,0,0,1.271-.424,2.385,2.385,0,0,0,.847-1.483,13.228,13.228,0,0,0-.741-9.849c-1.8-3.6-4.66-4.977-8.048-6.672-3.918-2.012-7.2-3.495-11.649-3.389a3.6,3.6,0,0,0-1.059.106,34.11,34.11,0,0,0-6.566,1.165c-5.507,1.483-18.109,3.495-20.227,9.743-.635,2.012.212,3.6.53,5.507-.212.318-.106.529,0,.953Z" transform="translate(502.076 1496.006)" fill="url(#linear-gradient-7)"/>
    <g id="Group_8429" data-name="Group 8429" transform="translate(677.431 1714.438)">
      <path id="Path_1774" data-name="Path 1774" d="M202.243,233.234a27.414,27.414,0,0,0-4.236,7.2c-1.377,2.965-8.79,34.417-9.107,34.311l5.613,1.483a157.212,157.212,0,0,0,16.414-30.181c1.271-3.071,1.377-3.389,4.554-4.024,2.965-.53,5.824-1.165,8.684-1.906a131.348,131.348,0,0,0,16.626-5.189,52.47,52.47,0,0,0,9.425-4.765A6.041,6.041,0,0,0,251.38,229c.212-.212.318-.424.424-.529a4.26,4.26,0,0,0,.635-2.753c0-.318-.106-.529-.106-.741a6.754,6.754,0,0,0-.847-1.483,6.5,6.5,0,0,0-2.012-1.8,13.656,13.656,0,0,0-6.883-2.542c-1.694-.106-3.389.212-4.977.212-1.483-.106-2.542-.847-3.812-1.059a7.116,7.116,0,0,0-2.965.318,38.741,38.741,0,0,0-6.46,2.859l-11.967,5.93H212.3l-2.436,1.165c-2.542,1.271-5.4,2.542-7.413,4.554l-.212.106Z" transform="translate(-176.404 -218.263)" fill="#3e3e54"/>
      <path id="Path_1775" data-name="Path 1775" d="M181.124,270.224a6.994,6.994,0,0,0-2.965.953,2.362,2.362,0,0,0-.953,2.647,3.543,3.543,0,0,0,1.589,1.483,25.529,25.529,0,0,0,13.449,2.542,2.6,2.6,0,0,0,1.8-.529,2.881,2.881,0,0,0,.847-1.694,7.5,7.5,0,0,0,.318-3.706c-.741-2.542-3.495-2.012-5.507-2.118a80.148,80.148,0,0,0-8.578.424Z" transform="translate(-177.1 -215.222)" fill="#3e3e54"/>
    </g>
    <path id="Path_1778" data-name="Path 1778" d="M220.657,165.719c-.529.529-1.271,1.271-.953,1.906.212.424.53.529.847.741a4.213,4.213,0,0,1,1.483,2.859,15.443,15.443,0,0,0,.741,3.177,2.562,2.562,0,0,0,2.647,1.377c.529-.212,1.165-.847,1.8-.635s.635.635.953,1.165a3.2,3.2,0,0,0,3.283,1.165,11.551,11.551,0,0,0,3.283-1.483,3,3,0,0,0,1.059-.953,1.35,1.35,0,0,0,0-1.271,11.662,11.662,0,0,0-2.118-3.283,13.6,13.6,0,0,1-2.859-6.566c-.318-1.588-.424-3.495-1.483-4.66-1.588-1.588-5.083-1.271-6.672.212-2.012,1.377-.529,4.342-2.012,6.248Z" transform="translate(502.839 1492.633)" fill="#fdb9a9"/>
    <path id="Path_1779" data-name="Path 1779" d="M221.844,158.578a2.318,2.318,0,0,0,1.059.953l2.436,1.377a3.358,3.358,0,0,1,1.588,2.012c.53,1.483-.212,3.389.424,4.765.212.318.635,0,.847-.318s.212-.741.529-.953c.529-.424,1.165.106,1.483.635a2.692,2.692,0,0,1-1.165,3.495c.106.529.741.529,1.271.529a7.8,7.8,0,0,1,1.483-.424c1.165.106,1.694,1.694,2.859,1.694a2.328,2.328,0,0,0,1.8-1.377l1.271-1.694a5.872,5.872,0,0,1,.635-.847,5.61,5.61,0,0,1,1.059-.635c.318-.318-.106-.953.106-1.377a1.057,1.057,0,0,1,.53-.424,2.01,2.01,0,0,0,.741-2.33.389.389,0,0,1-.106-.318c0-.212.212-.212.424-.318a2.128,2.128,0,0,0,.529-2.647,6.74,6.74,0,0,0-2.118-2.118c-1.694-1.377-3.6-2.753-4.13-4.977a10.412,10.412,0,0,0-.53-1.694,1.218,1.218,0,0,0-1.483-.53,9.169,9.169,0,0,0-.212-3.389,1.707,1.707,0,0,0-.424-.741,1.387,1.387,0,0,0-1.377-.424,5.477,5.477,0,0,0-1.377.635c0-.529-.635-.741-1.271-.741a6.081,6.081,0,0,0-4.977,3.071c-.106.212-.212.318-.318.53a2.654,2.654,0,0,1-.741.424,2.86,2.86,0,0,0-1.483,2.224,6.04,6.04,0,0,0,0,2.753,6.846,6.846,0,0,0,.424,2.118l.212,1.059Z" transform="translate(502.923 1491.936)"/>
    <g id="Group_8430" data-name="Group 8430" transform="translate(708.333 1665.445)">
      <path id="Path_1780" data-name="Path 1780" d="M232.351,173.165c-1.165.635-2.33,1.483-3.495,2.224a2.411,2.411,0,0,0-.847.953,1.35,1.35,0,0,0,0,1.271c.424.529,1.059.318,1.588,0a21.329,21.329,0,0,1,8.048-1.906,1.112,1.112,0,0,0,.953-.529,1.552,1.552,0,0,0-.212-1.165c-1.588-2.859-3.812-2.224-6.036-.847Z" transform="translate(-205.01 -171.999)" fill="#fff"/>
      <path id="Path_1781" data-name="Path 1781" d="M228.752,208.849c-1.906-3.918-2.859-8.048-4.236-12.284-3.177,2.542-3.495,6.989-6.354,9.954a4.04,4.04,0,0,1-1.483,1.165c-1.906,1.059-4.66.529-6.778.529a4.731,4.731,0,0,1-2.859-1.271,3.517,3.517,0,0,1-.741-2.224c-.212-2.753,1.377-5.295,2.859-7.519l10.378-15.779a4.816,4.816,0,0,1,3.706-2.647,186.96,186.96,0,0,1,19.909-4.66,9.8,9.8,0,0,1,3.071-.212c2.859.424,4.765,3.177,6.248,5.613,7.625,13.131,12.92,27.957,12.073,43.1a9.8,9.8,0,0,1-.424,2.436,7.366,7.366,0,0,1-2.436,2.965c-3.389,2.647-7.837,3.6-12.072,3.706-6.46.106-14.826-1.906-19.7-6.566-2.647-2.542,0-4.236,1.377-6.672,1.589-3.177-1.165-6.672-2.542-9.637Z" transform="translate(-206.282 -171.889)" fill="#fff"/>
    </g>
    <path id="Path_1782" data-name="Path 1782" d="M259.479,197.224a53.5,53.5,0,0,0-1.906-5.824c-3.706,2.647-6.566,7.837-7.836,12.284-1.377,4.448-2.542,9-5.4,12.6l-3.071-1.059-.529,1.906c-.53,1.483.847,3.071.635,4.554a4.2,4.2,0,0,1-3.177,3.283,9.463,9.463,0,0,1-5.4-.424,7.116,7.116,0,0,1-3.177-1.377,2.937,2.937,0,0,1-1.165-3.071,2.069,2.069,0,0,0-.847,2.224,4.032,4.032,0,0,0,1.483,2.012c2.118,1.906,4.765,2.859,7.519,3.918,1.271.529,2.542.953,3.812,1.377a45.366,45.366,0,0,0,9.213.953c1.906.106,2.965-.318,3.812-2.118,1.165-2.647,1.271-5.613,1.483-8.578a190.774,190.774,0,0,1,4.554-22.662Z" transform="translate(503.305 1494.59)" fill="url(#linear-gradient-8)"/>
    <path id="Path_1783" data-name="Path 1783" d="M248,225.249l.106,2.542.212,2.542a.794.794,0,0,0,.106.53l.318,1.8v.106l.212,1.059a9.717,9.717,0,0,0,.635,5.507,40.3,40.3,0,0,0,5.083-.106,42.663,42.663,0,0,0,9.743-1.694,32.588,32.588,0,0,0,8.9-6.354A6.007,6.007,0,0,0,275,228.85a7.118,7.118,0,0,0,.318-2.965,54.217,54.217,0,0,1,2.118-16.414c.424-1.165.635-2.33,1.165-3.495l1.483-3.812c1.377-2.965,2.859-5.824,3.495-9a14.784,14.784,0,0,0,.106-5.295,1.094,1.094,0,0,0-.424-.847,1.016,1.016,0,0,0-1.059-.318c-4.024.106-7.625,2.436-11.649,3.071-2.012.424-4.13.318-6.142.847a12.654,12.654,0,0,0-6.672,5.295,36.465,36.465,0,0,0-2.33,4.024q-1.588,3.177-2.859,6.036c-.529,1.165-.953,2.33-1.483,3.495A44.4,44.4,0,0,0,248,220.59v.106c.106,1.589,0,3.177,0,4.554Z" transform="translate(504.512 1494.311)" fill="#3e3e54"/>
    <path id="Path_1784" data-name="Path 1784" d="M248,225.249l.106,2.542.212,2.542a.794.794,0,0,0,.106.53l.318,1.8v.106l.212,1.059a9.717,9.717,0,0,0,.635,5.507,40.3,40.3,0,0,0,5.083-.106,42.663,42.663,0,0,0,9.743-1.694,32.588,32.588,0,0,0,8.9-6.354A6.007,6.007,0,0,0,275,228.85a7.118,7.118,0,0,0,.318-2.965,54.217,54.217,0,0,1,2.118-16.414c.424-1.165.635-2.33,1.165-3.495l1.483-3.812c1.377-2.965,2.859-5.824,3.495-9a14.784,14.784,0,0,0,.106-5.295,1.094,1.094,0,0,0-.424-.847,1.016,1.016,0,0,0-1.059-.318c-4.024.106-7.625,2.436-11.649,3.071-2.012.424-4.13.318-6.142.847a12.654,12.654,0,0,0-6.672,5.295,36.465,36.465,0,0,0-2.33,4.024q-1.588,3.177-2.859,6.036c-.529,1.165-.953,2.33-1.483,3.495A44.4,44.4,0,0,0,248,220.59v.106c.106,1.589,0,3.177,0,4.554Z" transform="translate(504.512 1494.311)" fill="url(#linear-gradient-9)"/>
    <path id="Path_1785" data-name="Path 1785" d="M197.023,153.163c-2.118-1.8-4.448-3.706-7.1-4.554a1.144,1.144,0,0,0-1.165,0,.968.968,0,0,0-.318.529,3.2,3.2,0,0,0,.953,2.542,11.842,11.842,0,0,1,1.8,2.224,7.011,7.011,0,0,0-2.965.106.583.583,0,0,0-.529.318.826.826,0,0,0,.106.847,4.229,4.229,0,0,0,3.495,1.906,1.531,1.531,0,0,1,.741.212c.529.424.212,1.165.318,1.694a2.247,2.247,0,0,0,1.059,1.377,9.938,9.938,0,0,0,1.588.635,9.324,9.324,0,0,0,2.542,1.165c1.8.106,3.6-2.33,3.6-4.024.212-1.906-2.859-3.918-4.13-4.977Z" transform="translate(500.951 1492.057)" fill="#fdb9a9"/>
    <path id="Path_1786" data-name="Path 1786" d="M95.2,232.3h3.283v30.075H95.2Z" transform="translate(495.499 1497.004)" fill="#4c506d"/>
    <path id="Path_1787" data-name="Path 1787" d="M95.2,232.3h3.283v30.075H95.2Z" transform="translate(495.499 1497.004)" fill="#071932"/>
    <path id="Path_1788" data-name="Path 1788" d="M114.692,264.126c0,2.224-7.625,4.024-16.944,4.024S80.8,266.35,80.8,264.126a10.2,10.2,0,0,1,0-2.542c1.271-1.906,8.472-1.483,16.944-1.483,8.26,0,15.355-.318,16.944,1.483A10.206,10.206,0,0,1,114.692,264.126Z" transform="translate(494.645 1498.641)" fill="#2f3554"/>
    <ellipse id="Ellipse_85" data-name="Ellipse 85" cx="16.944" cy="4.024" rx="16.944" ry="4.024" transform="translate(575.449 1756.201)" fill="#071932"/>
    <path id="Path_1789" data-name="Path 1789" d="M128.691,226.972a12.858,12.858,0,0,1-.953,5.189h-.106l-5.613.106-9.319,1.377-4.236.847-4.024.847-7.519,1.271a26.137,26.137,0,0,1-8.154-5.824l-.635-.953-.847-1.165A10.1,10.1,0,0,1,85.8,224.96a3.9,3.9,0,0,1,.106-1.588,7.878,7.878,0,0,1,3.283-4.554l.529-.424A20.07,20.07,0,0,1,101.37,214.9a3.6,3.6,0,0,1,1.059.106,34.108,34.108,0,0,1,6.566,1.165c3.495.847,6.778,2.118,10.166,3.177a24.856,24.856,0,0,1,7.1,3.071,7.128,7.128,0,0,1,1.588,1.483,6.382,6.382,0,0,1,.847,3.071Z" transform="translate(494.941 1495.977)" fill="#3e3e54"/>
    <path id="Path_1790" data-name="Path 1790" d="M128.672,232.374c-.529,2.33-.847,4.554-1.165,6.778l-1.165,9.425c-.529,3.071-.424,6.248-.953,9.319a13.156,13.156,0,0,0-.424,3.495,13.828,13.828,0,0,0,1.271,4.66.369.369,0,0,1-.529.106,11.379,11.379,0,0,1-3.495-1.271,4.788,4.788,0,0,1-2.542-2.647c-.635-1.694-.106-3.6-.212-5.4a24.284,24.284,0,0,0-1.165-5.507c-1.377-5.295-4.871-9.954-4.66-15.567a2.711,2.711,0,0,0-.424-2.012c-.635-.847-3.495.529-4.342.635l-4.024.847c-7.307,1.483-13.979,3.071-21.392,1.588a2.718,2.718,0,0,1-1.271-.529,2.385,2.385,0,0,1-.847-1.483,13.228,13.228,0,0,1,.741-9.849c1.8-3.495,4.66-4.977,8.048-6.672,3.918-1.906,7.2-3.495,11.649-3.389a3.6,3.6,0,0,1,1.059.106,34.11,34.11,0,0,1,6.566,1.165c5.507,1.483,18.109,3.495,20.227,9.743.635,2.012-.212,3.6-.529,5.507a3.258,3.258,0,0,0-.424.953Z" transform="translate(494.645 1495.977)" fill="#fdb9a9"/>
    <path id="Path_1791" data-name="Path 1791" d="M116.96,258.913l.212-.212c.424-.106.635.318.847.529a6.773,6.773,0,0,0,3.6,3.071,1.151,1.151,0,0,0,.529.106c.212-.106.424-.424.529-.529a1.08,1.08,0,0,1,.953-.212,2.305,2.305,0,0,1,.847.53c.847.529,1.588,1.271,2.436,1.906a1.419,1.419,0,0,1,.529,1.483c-.212.318-.424.529-.635.529a4.993,4.993,0,0,1-3.283-.106c-1.906-.635-3.6-1.8-5.507-2.542a.637.637,0,0,0-.424-.106.389.389,0,0,0-.318.106.943.943,0,0,1-.847-.53,2.98,2.98,0,0,1,.529-4.024Z" transform="translate(496.719 1498.559)" fill="#3e3e54"/>
    <path id="Path_1792" data-name="Path 1792" d="M137.221,233.363a16.154,16.154,0,0,1,1.165,6.672c0,5.824-1.588,11.649-3.283,17.261-.635,2.436-1.271,4.765-2.012,7.2-.529,1.694-1.377,2.965-.212,4.765a3.525,3.525,0,0,1,.635,1.059,1.136,1.136,0,0,1-.106,1.165c-.424.424-1.165.106-1.588-.106A40.416,40.416,0,0,1,128.008,270c-2.436-1.377-1.483-2.965-1.059-5.083.53-2.542.741-4.977,1.059-7.519a49.063,49.063,0,0,0-.424-15.249,4.178,4.178,0,0,0-.635-1.589,2.6,2.6,0,0,0-1.694-.635c-8.578-1.483-17.05-2.012-25.31-5.4a48.281,48.281,0,0,1-9.319-4.765A6.041,6.041,0,0,1,89.46,228.6c-.212-.212-.318-.424-.424-.529a4.26,4.26,0,0,1-.635-2.753c0-.318.106-.529.106-.741a6.752,6.752,0,0,1,.847-1.483,5.835,5.835,0,0,1,2.118-1.8,13.656,13.656,0,0,1,6.883-2.542c1.694-.106,3.389.318,4.977.212,1.483-.106,2.542-.847,3.812-1.059a7.116,7.116,0,0,1,2.965.318,38.746,38.746,0,0,1,6.46,2.859l7.519,3.706c3.495,1.694,7.625,2.859,10.59,5.295a6.735,6.735,0,0,1,2.542,3.283Z" transform="translate(495.096 1496.152)" fill="#fdb9a9"/>
    <path id="Path_1793" data-name="Path 1793" d="M129.544,221.069A21.883,21.883,0,0,1,140.028,239.5a52.952,52.952,0,0,1-20.65,9.319,3.505,3.505,0,0,1-2.542,0,6.137,6.137,0,0,1-1.8-1.483c-6.778-6.989-18.85-6.354-26.051-13.026-2.647-2.542-4.554-6.883-2.33-9.954a9.377,9.377,0,0,1,3.177-2.542c5.507-3.389,12.178-8.366,18.85-7.2,6.778,1.165,15.038,2.965,20.862,6.46Z" transform="translate(494.937 1495.949)" fill="#071932"/>
    <path id="Path_1794" data-name="Path 1794" d="M132.1,243.985c-3.495-3.6-4.024-9-4.554-13.979a13.024,13.024,0,0,1-3.283,2.012l-.529-1.483c0-.318-.318-.529-.53-.424-.106,0-.106,0-.212.106a48.845,48.845,0,0,1-15.144,2.542c-1.906,0-4.024-.106-5.613-1.271s-2.542-3.495-1.271-5.189a102.12,102.12,0,0,1-12.6,2.542,1.15,1.15,0,0,0-.953.424c-.318.424,0,1.059.318,1.483a23.524,23.524,0,0,0,14.4,9.213c1.588.318,10.272,3.495,14.085,8.578a2.374,2.374,0,0,0,2.33.741Z" transform="translate(495.031 1496.648)" fill="url(#linear-gradient-10)"/>
    <path id="Path_1795" data-name="Path 1795" d="M80.912,230c-1.271,0-2.753.212-3.495,1.377a2.286,2.286,0,0,0,0,2.33,3.3,3.3,0,0,0,1.694,1.483,14.631,14.631,0,0,0,2.859.847l12.39,2.33,6.248,1.059c1.588.318,3.177,1.059,4.871,1.483s3.918.53,5.4-.635a3.561,3.561,0,0,0,1.165-3.177,2.018,2.018,0,0,0-.53-1.059,3.218,3.218,0,0,0-.741-.53,33.849,33.849,0,0,0-9.531-2.753l-6.672-1.377a40.653,40.653,0,0,0-6.248-1.165A43.059,43.059,0,0,0,80.912,230Z" transform="translate(494.431 1496.863)" fill="#3e3e54"/>
    <path id="Path_1796" data-name="Path 1796" d="M80.912,230c-1.271,0-2.753.212-3.495,1.377a2.286,2.286,0,0,0,0,2.33,3.3,3.3,0,0,0,1.694,1.483,14.631,14.631,0,0,0,2.859.847l12.39,2.33,6.248,1.059c1.588.318,3.177,1.059,4.871,1.483s3.918.53,5.4-.635a3.561,3.561,0,0,0,1.165-3.177,2.018,2.018,0,0,0-.53-1.059,3.218,3.218,0,0,0-.741-.53,33.849,33.849,0,0,0-9.531-2.753l-6.672-1.377a40.653,40.653,0,0,0-6.248-1.165A43.059,43.059,0,0,0,80.912,230Z" transform="translate(494.431 1496.863)" fill="url(#linear-gradient-11)"/>
    <path id="Path_1798" data-name="Path 1798" d="M115.648,158.868a5.308,5.308,0,0,0-1.483-.847c-1.588-.53-3.918-.635-5.295.635-1.377,1.377-1.271,3.071-1.483,4.66a16.783,16.783,0,0,1-2.965,6.566,9.731,9.731,0,0,0-2.118,3.283,2.582,2.582,0,0,0,0,1.271,2.318,2.318,0,0,0,1.059.953,9.228,9.228,0,0,0,3.283,1.483,2.762,2.762,0,0,0,2.33-.529,1.841,1.841,0,0,1,1.694-.635,12.494,12.494,0,0,0,2.118.424,2.867,2.867,0,0,0,2.33-2.012,11.213,11.213,0,0,0,.529-3.283c.318-2.859,1.483-5.613,1.588-8.578a3.756,3.756,0,0,0-1.588-3.389Z" transform="translate(495.913 1492.6)" fill="#e6d2ba"/>
    <g id="Group_8431" data-name="Group 8431" transform="translate(570.385 1664.902)">
      <path id="Path_1799" data-name="Path 1799" d="M99.314,173.407a1.472,1.472,0,0,0-.212,1.165.926.926,0,0,0,.953.529,19.639,19.639,0,0,1,8.048,2.012c.529.318,1.271.53,1.588,0a1.566,1.566,0,0,0,0-1.377,2.168,2.168,0,0,0-.847-.847l-3.495-2.224c-2.118-1.377-4.342-2.012-6.036.741Z" transform="translate(-74.658 -171.487)" fill="#fff"/>
      <path id="Path_1800" data-name="Path 1800" d="M109.251,218.18c1.377,2.542,4.024,4.13,1.377,6.778-4.765,4.554-13.237,6.566-19.7,6.566a19.44,19.44,0,0,1-12.072-3.706,6.513,6.513,0,0,1-2.33-2.965,6.213,6.213,0,0,1-.424-2.436c-.847-15.144,4.554-29.969,12.072-43.1,1.483-2.542,3.389-5.189,6.248-5.613a9.8,9.8,0,0,1,3.071.212,164.294,164.294,0,0,1,19.909,4.66,7.11,7.11,0,0,1,2.436,1.059,9.887,9.887,0,0,1,1.377,1.588L131.6,197c1.483,2.33,3.071,4.765,2.859,7.519a4.625,4.625,0,0,1-.741,2.224,4.731,4.731,0,0,1-2.859,1.271,25.737,25.737,0,0,1-11.331-.741c2.012-1.483,1.483-4.765.106-6.989a17.034,17.034,0,0,0-3.389-3.918A50.387,50.387,0,0,1,112,208.755c-1.694,2.753-4.448,6.036-2.753,9.425Z" transform="translate(-76.017 -171.359)" fill="#fff"/>
    </g>
    <path id="Path_1801" data-name="Path 1801" d="M119.179,159.851a4.74,4.74,0,0,0,.106-2.965,9.605,9.605,0,0,0-2.118-3.812c-1.906-2.33-4.448-4.342-7.413-4.765-8.048-1.377-17.367,6.883-20.438,13.661-1.906,4.236-2.542,8.9-3.495,13.555s-2.753,9.213-6.46,12.178c-1.483,1.271-3.283,2.224-4.13,3.812a6.269,6.269,0,0,0,.953,6.566c1.271,1.588,2.965,2.33,4.554,3.495a11.4,11.4,0,0,1,3.495,4.236c1.8,3.495,2.542,7.625,4.765,11.013l3.283-1.8a29.365,29.365,0,0,0,7.625-5.4c2.118-2.33,3.6-5.507,3.071-8.578-.318-1.8-1.377-3.495-1.906-5.4-1.8-5.613,2.224-7.942,5.613-11.331a10.4,10.4,0,0,0,2.965-9.107,4.321,4.321,0,0,1,1.588-4.977c1.483-1.8.318-4.13,2.118-5.824,1.377-1.377,3.495-1.483,4.66-2.859a4.384,4.384,0,0,0,1.165-1.694Z" transform="translate(494.288 1492.039)"/>
    <path id="Path_1802" data-name="Path 1802" d="M79.6,196.824A37.448,37.448,0,0,1,81.506,191c3.706,2.647,6.566,7.837,7.837,12.284,1.377,4.448,2.542,9,5.4,12.6l3.071-1.059.529,1.906c.529,1.483-.847,3.071-.635,4.554a4.2,4.2,0,0,0,3.177,3.283,9.463,9.463,0,0,0,5.4-.424,6.271,6.271,0,0,0,3.071-1.377,2.871,2.871,0,0,0,1.165-3.071,1.918,1.918,0,0,1,.847,2.224,4.032,4.032,0,0,1-1.483,2.012c-2.118,1.906-4.765,2.859-7.519,3.918-1.271.53-2.542.953-3.812,1.377a45.363,45.363,0,0,1-9.213.953c-1.906,0-2.965-.318-3.812-2.118-1.165-2.647-1.271-5.613-1.483-8.578-1.165-7.519-2.542-15.144-4.448-22.662Z" transform="translate(494.578 1494.566)" fill="url(#linear-gradient-12)"/>
    <path id="Path_1803" data-name="Path 1803" d="M91.3,224.849l-.106,2.542-.212,2.542a.794.794,0,0,1-.106.53l-.318,1.8v.106l-.212,1.059a9.717,9.717,0,0,1-.635,5.507,40.3,40.3,0,0,1-5.083-.106,42.664,42.664,0,0,1-9.743-1.694,35.009,35.009,0,0,1-8.9-6.354,6.007,6.007,0,0,1-1.694-2.33,6.934,6.934,0,0,1-.318-2.965,53.792,53.792,0,0,0-2.118-16.414,22.544,22.544,0,0,0-1.165-3.495c-.529-1.271-.953-2.542-1.483-3.812-1.377-2.965-2.859-5.824-3.495-9a12.716,12.716,0,0,1-.106-5.295,1.408,1.408,0,0,1,.318-.847,1.016,1.016,0,0,1,1.059-.318c4.024.106,7.625,2.436,11.649,3.071,2.012.424,4.13.318,6.142.847a12.269,12.269,0,0,1,6.672,5.295,36.46,36.46,0,0,1,2.33,4.024q1.588,3.177,2.859,6.036c.529,1.165.953,2.33,1.483,3.495a44.4,44.4,0,0,1,3.071,11.119v.106c0,1.589.106,3.071.106,4.554Z" transform="translate(493.15 1494.287)" fill="#3e3e54"/>
    <path id="Path_1804" data-name="Path 1804" d="M91.3,224.849l-.106,2.542-.212,2.542a.794.794,0,0,1-.106.53l-.318,1.8v.106l-.212,1.059a9.717,9.717,0,0,1-.635,5.507,40.3,40.3,0,0,1-5.083-.106,42.664,42.664,0,0,1-9.743-1.694,35.009,35.009,0,0,1-8.9-6.354,6.007,6.007,0,0,1-1.694-2.33,6.934,6.934,0,0,1-.318-2.965,53.792,53.792,0,0,0-2.118-16.414,22.544,22.544,0,0,0-1.165-3.495c-.529-1.271-.953-2.542-1.483-3.812-1.377-2.965-2.859-5.824-3.495-9a12.716,12.716,0,0,1-.106-5.295,1.408,1.408,0,0,1,.318-.847,1.016,1.016,0,0,1,1.059-.318c4.024.106,7.625,2.436,11.649,3.071,2.012.424,4.13.318,6.142.847a12.269,12.269,0,0,1,6.672,5.295,36.46,36.46,0,0,1,2.33,4.024q1.588,3.177,2.859,6.036c.529,1.165.953,2.33,1.483,3.495a44.4,44.4,0,0,1,3.071,11.119v.106c0,1.589.106,3.071.106,4.554Z" transform="translate(493.15 1494.287)" fill="#071932"/>
    <path id="Path_1805" data-name="Path 1805" d="M124.156,264.413l.212-.212c.424-.106.635.318.847.529a6.773,6.773,0,0,0,3.6,3.071,1.151,1.151,0,0,0,.529.106c.212-.106.424-.424.529-.529a1.08,1.08,0,0,1,.953-.212,2.306,2.306,0,0,1,.847.529c.847.53,1.588,1.271,2.436,1.906a1.419,1.419,0,0,1,.529,1.483c-.212.318-.424.529-.635.529a4.406,4.406,0,0,1-3.283-.106c-1.906-.635-3.6-1.8-5.507-2.542a.636.636,0,0,0-.424-.106.389.389,0,0,0-.318.106.943.943,0,0,1-.847-.53,3.24,3.24,0,0,1,.529-4.024Z" transform="translate(497.147 1498.885)" fill="#3e3e54"/>
    <path id="Path_1806" data-name="Path 1806" d="M168.692,153.477l5.824,1.271V128.909l-5.824-1.165Zm-7.625-1.694,5.719,1.271V133.569l-5.719-1.271Zm-7.836-1.694,5.824,1.271V115.99l-5.824-1.377Zm-7.731-1.694,5.719,1.377V106.565L145.5,105.4Z" transform="matrix(0.966, -0.259, 0.259, 0.966, 476.521, 1535.355)" fill="#505d6f"/>
    <path id="Path_1807" data-name="Path 1807" d="M178.759,155.484,141.8,147.965V105.5" transform="matrix(0.966, -0.259, 0.259, 0.966, 476.209, 1535.445)" fill="none" stroke="#071932" stroke-miterlimit="10" stroke-width="1"/>
    <path id="Path_1808" data-name="Path 1808" d="M90.824,120.7a5.161,5.161,0,0,1,.741.318l2.33,1.271c.106.106.212.106.424.212h.424c3.283-.635,3.283-4.977.635-6.46a10.582,10.582,0,0,1-1.483-.847,9.218,9.218,0,0,1-.953-1.165,1.754,1.754,0,0,0-1.377-.529,1.019,1.019,0,0,0-.741,1.059,5.242,5.242,0,0,1-.424,1.377,4.482,4.482,0,0,1-.529.741l-.847,1.165a2.128,2.128,0,0,0-.424,1.377,1.822,1.822,0,0,0,1.165,1.165l1.059.318Z" transform="translate(495.109 1489.996)" fill="#fdb9a9"/>
    <path id="Path_1809" data-name="Path 1809" d="M111.5,137.731a8.26,8.26,0,0,1,.847,2.436,5.23,5.23,0,0,1-2.224,4.342,11.315,11.315,0,0,1-6.566,2.647,2.746,2.746,0,0,1-1.8-.318,4.732,4.732,0,0,1-1.694-2.118c-2.965-6.142-6.248-13.661-6.566-20.65-.106-2.118,1.694-5.93,4.342-4.554,2.753,1.483,5.4,5.4,7.2,7.837a56.309,56.309,0,0,1,6.46,10.378Z" transform="translate(495.398 1490.334)" fill="#fff"/>
  </g>
</svg>
