<svg xmlns="http://www.w3.org/2000/svg" width="490" height="363.001" viewBox="0 0 490 363.001">
  <g id="our_service" data-name="our service" transform="translate(6028 19709.001)">
    <path id="Path_6659" data-name="Path 6659" d="M196.282,56.018l-15.4-4.064c-22.539-5.661-46.9-11.468-68.6-2.9-17.639,7.113-30.8,22.5-43.118,37.306C52.928,105.808,36.689,125.55,24.509,147.9c-28.7,53.274-33.039,128.612-8.68,183.918,9.66,22.064,22.539,45.4,42,58.9,20.159,14.081,45.638,18.435,69.857,16.113s47.458-11.032,69.717-20.758c24.919-11.032,51.238-26.242,77.837-20.726,13.859,2.9,26.319,10.452,38.778,17.419,21.839,12.048,45.358,22.355,70.137,24.532s51.1-4.355,69.017-22.355c17.5-17.419,24.919-42.968,29.119-67.645a295.855,295.855,0,0,0,2.94-77.806c-2.38-25.113,7.84-49.064,3.78-74.9-3.08-20.177-13.3-39.919-29.959-51.1-20.579-13.79-47.038-12.774-71.537-12.193-20.859.581-41.718.435-62.717-.29-12.879-.435-25.619-1.161-37.938-5.371C273,90.857,260.819,82,247.8,75.179c-16.239-8.855-33.739-14.371-51.518-19.161Z" transform="translate(-6027.974 -19753.711)" fill="#e8eaec"/>
    <path id="Path_6549" data-name="Path 6549" d="M1123.637,451.012c-26.424,24.41-59.3,24.363-92.737,10.828h0c-19.571-7.917-40.271-21.656-51.523-39.362-15.217-23.623-9.91-43.943,1.826-69.358,15.576-33.755,40.784-53.765,77.892-49.637,47.612,5.3,77.669,40.08,85.893,86.282C1149.132,413.039,1140.392,435.538,1123.637,451.012Z" transform="translate(-6853.008 -19867.947)" fill="#cdd1d6"/>
    <path id="Path_6551" data-name="Path 6551" d="M2022.178,1389.654s-.63,10.169-2.6,10.315c-.262.019-9.979.019-9.979.019l-12.4-.072s.081-2.989,3.707-3.621,9.695-3.18,11.891-7.972C2015.106,1383.282,2022.178,1389.654,2022.178,1389.654Z" transform="translate(-7686.247 -20747.289)" fill="#071932"/>
    <path id="Path_6552" data-name="Path 6552" d="M2065.06,767.1s-5.856,3.33-7.5,3.329-8.074-1.244-9.868-.327-5.041,4.6-5.65,5.809c-1.1,2.166,4.41,1.209,7.012-.636a1.64,1.64,0,0,1,1.3-.268c1.347.294,4.148.8,5.5.3,1.818-.673,11.394-1.42,11.394-1.42Z" transform="translate(-7722.508 -20245.004)" fill="#e8a090"/>
    <path id="Path_6553" data-name="Path 6553" d="M2182.425,501.187s-6.07,43.145-16.122,47.009c-4.96,1.907-26.88,6.229-33.364,6.663,0,0-1.588-1.289-1.2-6.534,0,0,22.965-8.431,26.228-13.017,4.855-6.824-3.014-27.878,3.078-34.287S2177.4,491.858,2182.425,501.187Z" transform="translate(-7795.32 -20024.438)" fill="#1f2f46"/>
    <path id="Path_6554" data-name="Path 6554" d="M2124.931,899.434a75.609,75.609,0,0,1-5.93,8.484c-6.525,8.237-13.626,15.028-14.864,21.447a29.08,29.08,0,0,1-1.147,4.109c-.517,1.47-1.156,3.016-1.893,4.615a142.181,142.181,0,0,1-11.043,18.878c-7.146,10.589-12.995,17.694-12.995,17.694s-1.874,1.462-7.234,1.46c-1.491,0-6.513-.817-6.513-.817.493-1.235,6.42-15.293,13.61-33.161,2.92-7.253,6.025-14.969,9.02-22.41q.6-1.49,1.193-2.964c.916-2.277,1.817-4.518,2.7-6.7,6.751-16.778,12.129-30.137,12.129-30.137s26.984-10.222,29.787-3.6C2134.06,881.8,2132.178,887.146,2124.931,899.434Z" transform="translate(-7739.873 -20331.787)" fill="#38475b"/>
    <path id="Path_6555" data-name="Path 6555" d="M2252.775,1249.922s8.572,5.508,7.74,7.3c-.111.238-4.847,8.722-4.847,8.722l-6.11,10.8s-2.57-1.527-1.354-5,1.949-10.015-1.164-14.269C2243.764,1252.991,2252.775,1249.922,2252.775,1249.922Z" transform="translate(-7888.308 -20636.609)" fill="#071932"/>
    <path id="Path_6556" data-name="Path 6556" d="M2063.258,961.167s6.033-5.6,6.978-9.07c0,0-22.074-26.448-26.862-32.375-.219-.272-.164-.571.126-.9,3.615-4.076,43.778-12.362,49.027-20.529a25.309,25.309,0,0,0,3.392-7.819,18.488,18.488,0,0,0,.249-8.425l-40.111-1.16s-33.4,20.795-37.178,34.973S2063.258,961.167,2063.258,961.167Z" transform="translate(-7703.661 -20337.293)" fill="#505d6f"/>
    <path id="Path_6557" data-name="Path 6557" d="M2150.115,926.671c3.615-4.076,43.778-12.362,49.027-20.529a25.32,25.32,0,0,0,3.392-7.819v-5.076l-17.048-2.682s-4.835,14.876-19.153,20.454C2152.923,916.245,2150.383,925.516,2150.115,926.671Z" transform="translate(-7810.276 -20345.141)" fill="#828b98"/>
    <path id="Path_6558" data-name="Path 6558" d="M2274.681,432.277c8.115,2.1,21.566-5.42,21.566-5.42a19.913,19.913,0,0,1-7.159-11.222c-.1-.389-.186-.787-.266-1.2l-4.167-.883-6.2,5.552a53.372,53.372,0,0,0,.917,6.268q.2,1.038.467,2.224A19.117,19.117,0,0,0,2274.681,432.277Z" transform="translate(-7911.309 -19958.248)" fill="#fdb9a9"/>
    <path id="Path_6559" data-name="Path 6559" d="M2255.155,509.226c-1.162,15.632.367,39.407-.952,43.525-1.138,3.553-14.1,1.44-19.279.254-1.915-.439-4.235-1.066-6.632-1.807-6.684-2.07-13.967-5.025-14.749-7.219a1.953,1.953,0,0,1-.073-.253,2.011,2.011,0,0,1,.014-.92c.26-1.118,1.264-2.328,1.383-5.1.132-3.092.112-6.732.228-10.647.006-.441.012-.922.06-1.361l0-.16c0-.084,0-.166.006-.251.112-4.366.341-8.956.6-13.508.168-2.859.363-5.69.587-8.4a112.28,112.28,0,0,1,2.408-17.167,27.566,27.566,0,0,1,8.856-13.671l2.467-2.116a14.259,14.259,0,0,0,8.95-1.192c3.186-1.513,4.286-2.6,4.841-2.188C2251.236,472.722,2256.527,490.116,2255.155,509.226Z" transform="translate(-7861.625 -20001.563)" fill="#071932"/>
    <path id="Path_6560" data-name="Path 6560" d="M2228.493,653.832c-6.684-2.07-13.967-5.025-14.749-7.219a1.9,1.9,0,0,1-.072-.253q.006-.459.014-.92c.261-1.118,1.265-2.328,1.382-5.1.132-3.092.112-6.732.229-10.647.006-.441.012-.922.06-1.361l0-.16.006-.251,27.022-34.427S2260.551,631.323,2228.493,653.832Z" transform="translate(-7861.826 -20104.195)" fill="#1f2f46"/>
    <path id="Path_6561" data-name="Path 6561" d="M2294.672,419.108a53.263,53.263,0,0,0,.916,6.268c6.053-1.956,8.8-7.423,9.714-9.742-.1-.389-.186-.787-.265-1.2l-4.167-.883Z" transform="translate(-7927.523 -19958.248)" fill="#e8a090"/>
    <path id="Path_6562" data-name="Path 6562" d="M2258.954,360.678s13.2-2.2,11.7-10.4-.8-14-9.294-12.945-9.552,4.486-9.717,7.345S2255.481,361.039,2258.954,360.678Z" transform="translate(-7892.619 -19896.322)" fill="#fdb9a9"/>
    <path id="Path_6563" data-name="Path 6563" d="M2000.256,699.553l-32.949.7-9.368-28.83-1.164.378,9.9,30.478,33.621-.718Z" transform="translate(-7653.462 -20167.402)" fill="#828b98"/>
    <path id="Path_6564" data-name="Path 6564" d="M2083.042,813.2s-10.8,2.848-14.854,2.549-7.42-2.226-7.93-3.231-1.581-2.79,1.177-2.461,6.523.916,6.64.386-2.248-.479-2.248-.479-.715-1.04.185-1.077,3.526-.75,4.5-.263,1.875,2.288,2.588,2.213,9.04-3.751,9.04-3.751Z" transform="translate(-7736.878 -20277.436)" fill="#fdb9a9"/>
    <path id="Path_6565" data-name="Path 6565" d="M2192.144,514.85s-1.277,43.551-10.842,48.5c-4.719,2.442-26.029,9.155-32.426,10.3,0,0-1.721-1.106-1.915-6.361,0,0,21.9-10.912,24.633-15.829,4.074-7.318-6.069-27.376-.72-34.418S2186.12,506.132,2192.144,514.85Z" transform="translate(-7807.718 -20036.33)" fill="#071932"/>
    <path id="Path_6566" data-name="Path 6566" d="M2249.139,329.954a6.244,6.244,0,0,0-1.584-4.424s.6-2.82-.511-3.285-1.348,1.906-1.859,1.534a11.4,11.4,0,0,1-3.766-4.741c-.976-2.6-9.911.55-10.952,1.019s-4.388-1.251-5.039-2.646a19.6,19.6,0,0,0,2.7-2.6c.836-1.116,6.694-8.647,14.875-6.508s9.3,6.043,8.833,9.39S2252.49,328.831,2249.139,329.954Z" transform="translate(-7871.36 -19872.566)"/>
    <rect id="Rectangle_3455" data-name="Rectangle 3455" width="490" height="1" rx="0.5" transform="translate(-6028 -19347)" fill="#071932"/>
    <path id="Path_6579" data-name="Path 6579" d="M2327.814,1127.075c-5.18-5.215-14.3-8.805-24.844-9.228V1100.6h16.285c.4,0,.764-.347.992-.882a3.488,3.488,0,0,0,.255-1.346v-.778c0-1.225-.561-2.227-1.247-2.227h-16.285V1054.3a2.084,2.084,0,0,0-2.092-2.062h0a2.083,2.083,0,0,0-2.092,2.062v41.073H2282.5c-.686,0-1.247,1-1.247,2.227v.778a3.449,3.449,0,0,0,.271,1.383c.229.514.582.845.976.845h16.285v17.245c-10.541.422-19.665,4.012-24.844,9.228q-.565.568-1.064,1.16h56C2328.546,1127.84,2328.19,1127.454,2327.814,1127.075Z" transform="translate(-7908.877 -20475.234)" fill="#b4b9c1"/>
    <path id="Path_6580" data-name="Path 6580" d="M2332.647,1402.777c-7.574.643-14.084,4-17.853,8.775q-.431.545-.811,1.112h-5.337q.381-.568.811-1.112c4.2-5.329,11.822-8.888,20.521-8.888Q2331.332,1402.664,2332.647,1402.777Z" transform="translate(-7941.647 -20759.664)" fill="#cdd1d6"/>
    <rect id="Rectangle_3457" data-name="Rectangle 3457" width="60" height="16" rx="8" transform="translate(-5639 -19437)" fill="#071932"/>
    <path id="Path_6581" data-name="Path 6581" d="M901.323,532.813c-.925,2.488-2.529,5.376-4.213,6.094a6.522,6.522,0,0,0-2.7,1.965l-1.541-.895-1.841-1.07s.043-.2.134-.537.227-.793.414-1.3a1.782,1.782,0,0,0,.219-1.638,3.8,3.8,0,0,1,.314-3.177c.591-.858,1.16-2.972,1.516-2.909.861.148-.423,3.054-.054,3.592a.636.636,0,0,0,.827.283l.014-.008c2.415-1.062,5.344-6.786,6.64-6.013C901.53,527.485,901.717,531.753,901.323,532.813Z" transform="translate(-6789.05 -20050.359)" fill="#fdb9a9"/>
    <g id="Group_10712" data-name="Group 10712" transform="translate(-5896.282 -19525.971)">
      <path id="Path_6582" data-name="Path 6582" d="M900.456,524.536l3.025,2.126a.476.476,0,0,0,.661-.116l7.75-11.027a.476.476,0,0,0-.116-.661l-3.025-2.126a.476.476,0,0,0-.661.115l-7.75,11.026A.476.476,0,0,0,900.456,524.536Z" transform="translate(-900.255 -512.647)" fill="#071932"/>
      <path id="Path_6583" data-name="Path 6583" d="M915.322,534.926l1.773,1.246a.363.363,0,0,0,.5-.088l7.88-11.212a.362.362,0,0,0-.088-.5l-1.773-1.246a.362.362,0,0,0-.5.088l-7.88,11.212A.362.362,0,0,0,915.322,534.926Z" transform="translate(-912.351 -521.091)" fill="#1f2f46"/>
    </g>
    <path id="Path_6584" data-name="Path 6584" d="M635.644,491.828s15.393,26.848,20.977,31.787L677.1,508.35a7.474,7.474,0,0,1,4.272,3.894s-12.434,25.332-24.676,26.406-29.425-30.364-29.425-30.364Z" transform="translate(-6575.123 -20021.73)" fill="#828b98"/>
    <g id="Group_10713" data-name="Group 10713" transform="translate(-5990.068 -19467.861)">
      <path id="Path_6585" data-name="Path 6585" d="M419.577,1380.9h-8.894a5.391,5.391,0,0,1-2.432-4.075c-.434-2.865-3.645-4.427-4.341-6.772s2.865-5.641,2.865-5.641l.6-.767.619-.8,5.9,1.39s.146,1.406.235,3.2a40.9,40.9,0,0,1,.026,4.094c-.174,3.124.874,6.49,3.65,7.1C419.857,1379.078,419.766,1380.3,419.577,1380.9Z" transform="translate(-403.821 -1260.34)" fill="#071932"/>
      <path id="Path_6586" data-name="Path 6586" d="M670.291,1413.747H649.952c-.978-1.194-.618-5.6-.47-7.037.03-.29.051-.458.051-.458s6.946-5.556,7.9-1.3c.029.134.064.264.1.392,1.2,3.979,6.593,5.787,9.706,6.291A3.526,3.526,0,0,1,670.291,1413.747Z" transform="translate(-602.92 -1293.186)" fill="#071932"/>
      <path id="Path_6587" data-name="Path 6587" d="M613.415,849.625s-1.055,13.158-2.294,28.975c-1.685,21.486-3.711,47.877-3.911,52.877-.347,8.682-1.737,22.569-1.737,22.569s-3.3,3.3-9.9,1.908a227.186,227.186,0,0,1-7.56-40.8c-.026-.344-.052-.69-.078-1.036-1.562-21.353-3.992-66.316-3.992-66.316Z" transform="translate(-549.919 -842.594)" fill="#071932"/>
      <path id="Path_6588" data-name="Path 6588" d="M613.415,849.625s-1.055,13.158-2.294,28.975l-23.1,36.555c-.026-.344-.052-.69-.078-1.036-1.562-21.353-3.992-66.316-3.992-66.316Z" transform="translate(-549.919 -842.594)" fill="#1f2f46"/>
      <path id="Path_6589" data-name="Path 6589" d="M475.187,828.828s-19.009,47.653-31.508,70.047-16.405,28.644-16.405,28.644-7.161-2.864-7.812-4.817c0,0,4.78-43.234,13.15-53.772,4.73-5.955,10.286-23.827,10.546-30.076s1.693-18.619,1.693-18.619Z" transform="translate(-416.506 -820.235)" fill="#071932"/>
    </g>
    <path id="Path_6590" data-name="Path 6590" d="M602.31,412.956c-7.428,2.344-20.281-3.982-20.281-3.982s6.849-5.14,6.49-15.828l5.744,4.629,3.9,3.144a46.741,46.741,0,0,1-.443,5.1c-.113.854-.252,1.807-.43,2.848A17.776,17.776,0,0,1,602.31,412.956Z" transform="translate(-6538.43 -19941.691)" fill="#fdb9a9"/>
    <path id="Path_6591" data-name="Path 6591" d="M625.925,420.313a46.741,46.741,0,0,1-.443,5.1c-4.323-.742-9.227-7.729-9.227-7.729a13.772,13.772,0,0,1,5.768-.517Z" transform="translate(-6566.191 -19961.086)" fill="#e8a090"/>
    <path id="Path_6592" data-name="Path 6592" d="M616.452,346.208s-12.269,2.038-13.422-5.622S599.52,328.029,607.3,326.4s9.75,1.068,10.757,3.532S619.614,345.48,616.452,346.208Z" transform="translate(-6554.447 -19887.158)" fill="#fdb9a9"/>
    <path id="Path_6593" data-name="Path 6593" d="M583.6,537.22a1.2,1.2,0,0,1-.781.3c-2.79-.038-10.924,1.511-17.807.8a51.271,51.271,0,0,1-16.453-4.748c-.733-.328-2.418-1.228-2.38-2.047.025-.9.114-2.2.226-3.834a205.1,205.1,0,0,0,.407-26.78c-.119-2.1-.182-4.19-.19-6.244-.057-15.31,2.979-28.776,9.079-33.333.521-.373,3.72,1.19,6.659,2.64a12.164,12.164,0,0,0,8,.968l2.566,2.269a25.639,25.639,0,0,1,8.035,12.833c1.266,5.1,2.009,14.285,2.418,23.807.186,4.315.335,8.668.374,12.8v.148c.036.409.036.857.036,1.266C583.938,528.664,583.788,537.07,583.6,537.22Z" transform="translate(-6509.354 -19996.955)" fill="#505d6f"/>
    <path id="Path_6594" data-name="Path 6594" d="M547.378,625.385a205.111,205.111,0,0,0,.407-26.78c-.119-2.1-.182-4.19-.19-6.244,2.541-6.164,4.618-10.635,4.618-10.635h6.405S563.315,613.8,547.378,625.385Z" transform="translate(-6510.325 -20094.646)" fill="#828b98"/>
    <g id="Group_10714" data-name="Group 10714" transform="translate(-6004.985 -19461.291)">
      <path id="Path_6595" data-name="Path 6595" d="M380.473,877.763l-27.318-3.893a6.549,6.549,0,0,0-7.385,5.543l-1.687,11.838a6.549,6.549,0,0,0,5.543,7.385l27.318,3.893a6.549,6.549,0,0,0,7.385-5.543l1.687-11.838A6.548,6.548,0,0,0,380.473,877.763Z" transform="translate(-340.398 -870.255)" fill="#1f2f46"/>
      <path id="Path_6596" data-name="Path 6596" d="M366.476,866.051v0a6.578,6.578,0,0,0-4.526-3.953h0a.006.006,0,0,1,0,0c-.206-.05-.415-.092-.631-.122l-5.439-.774.364-2.555A2.164,2.164,0,0,0,354.4,856.2l-1.419-.2-5.712-.814-1.03-.146a2.165,2.165,0,0,0-2.445,1.836l-.363,2.555-9.389-1.339a6.575,6.575,0,0,0-7.414,5.563l-1.705,11.976a6.572,6.572,0,0,0,5.563,7.412l27.268,3.887a6.41,6.41,0,0,0,1.422.045h.005a6.45,6.45,0,0,0,2.128-.537,6.566,6.566,0,0,0,3.858-5.073l1.707-11.975A6.5,6.5,0,0,0,366.476,866.051Zm-21.338-8.989a.809.809,0,0,1,.671-.682.823.823,0,0,1,.243,0l1.213.172,4.495.642,2.45.349a.808.808,0,0,1,.685.912l-.363,2.555-9.758-1.392Z" transform="translate(-324.859 -855.014)" fill="#071932"/>
    </g>
    <path id="Path_6597" data-name="Path 6597" d="M446.537,813.768q.01-.219.027-.449a9.487,9.487,0,0,1,1.492-2.675l-3.6-1.867-1.424,2.354c-2.151,1.712-2.19,1.742-1.8,5.019.34,2.841-1.519,2.875-1.474,4.9s2.658,1.032,2.658,1.032c4.051-1.9,4.386-2.859,4.261-4.788.384.545.814.863,1.18.625.322-.209-.32-1.04-.6-2.963A3.449,3.449,0,0,0,446.537,813.768Z" transform="translate(-6423.04 -20278.803)" fill="#fdb9a9"/>
    <path id="Path_6598" data-name="Path 6598" d="M450.739,534.872a20.981,20.981,0,0,0,4.807.268s6.847-21.153,7.729-23.085,20.339-24.8,20.339-24.8l-8.106-20.286s-21.046,35.155-23.183,40.094c-3.531,8.163-4.757,26.464-4.757,26.464A8.812,8.812,0,0,0,450.739,534.872Z" transform="translate(-6429.372 -20001.566)" fill="#505d6f"/>
    <path id="Path_6599" data-name="Path 6599" d="M595.548,316.128s1.259-.21,1.056-1.945-.2-4,1.209-3.578,1.48,1.551,2.06.892.59-3.437,4.785-3.63,5.9,1.267,7.851.409,2.054-3.811,2.054-3.811a3.357,3.357,0,0,1-1.393,1.39s3.255-4.452-.513-7.5-7.611-1.054-9.792-.922c-4.8.291-7.909.579-9.479,3.737S592.465,313.089,595.548,316.128Z" transform="translate(-6546.974 -19863.438)"/>
    <g id="Group_10722" data-name="Group 10722" transform="translate(-5883.495 -19528.17)">
      <g id="Group_10718" data-name="Group 10718" transform="translate(76.506 3.017)">
        <path id="Path_6600" data-name="Path 6600" d="M1402.241,830.391s-12.415-2.5-14.489-2.3-9.26,3.426-9.341,4.017.276,1.062,1.533,1.113,5.376-.588,5.127-.08-12.09,3.159-12.159,5.558,6.569,6.68,12.087,6.835,16.184-6.531,17.11-6.637C1409.968,838,1402.241,830.391,1402.241,830.391Z" transform="translate(-1372.911 -769.304)" fill="#e8a090"/>
        <g id="Group_10716" data-name="Group 10716" transform="translate(22.803)">
          <path id="Path_6601" data-name="Path 6601" d="M1567.956,550.465c-4.85,6.039-8.893,10.722-11.024,12.424a48.021,48.021,0,0,1-6.293,4.124c-17.7,9.989-51.745,20.126-51.745,20.126s-.024-.016-.067-.048a14.888,14.888,0,0,1-4.251-5.109c-1.3-2.622-1.029-4.249-.644-5.1a2.251,2.251,0,0,1,.512-.753s40.8-26.074,44.06-28.789c1.85-1.54,8.551-17.14,14.009-30.366q1.144,1.66,2.218,3.371A115.352,115.352,0,0,1,1567.956,550.465Z" transform="translate(-1493.614 -516.971)" fill="#828b98"/>
        </g>
        <g id="Group_10717" data-name="Group 10717" transform="translate(78.565 78.179)">
          <path id="Path_6602" data-name="Path 6602" d="M1807.637,932.279q-.385,1.094-.809,2.174a67.86,67.86,0,0,1-4.766,9.767v0q-1.643,2.789-3.549,5.424a72.541,72.541,0,0,1-9.735,10.947c.019-.273.04-.546.06-.817.029-.42.059-.838.088-1.252q.1-1.378.193-2.706c.026-.344.05-.684.074-1.021.156-2.19.3-4.267.442-6.215q.061-.841.117-1.649c.011-.161.023-.32.034-.479.024-.316.045-.631.068-.941.021-.281.04-.557.059-.832,0-.029,0-.056.007-.084q.029-.419.057-.829c.034-.461.066-.911.1-1.352.019-.274.039-.544.058-.811q.043-.624.085-1.216c.008-.095.014-.191.021-.286.015-.188.027-.376.04-.559q.01-.14.019-.275a.264.264,0,0,0,0-.034c.026-.353.05-.7.074-1.032,0-.018,0-.035,0-.053.017-.244.035-.483.052-.716,0-.079.011-.156.016-.231.01-.133.02-.265.027-.395.008-.106.016-.212.022-.316.052-.729.1-1.4.141-1.993.006-.085.013-.17.018-.252s.013-.168.018-.25c.011-.158.023-.31.032-.456.075-1.055.128-1.824.161-2.275,0-.047.007-.09.01-.13,0-.013,0-.026,0-.039,0-.042,0-.079.006-.111.01-.127.015-.193.015-.193Z" transform="translate(-1788.778 -930.794)" fill="#6bb7bf"/>
          <path id="Path_6603" data-name="Path 6603" d="M1807.637,932.279q-.385,1.094-.809,2.174a67.86,67.86,0,0,1-4.766,9.767v0q-1.643,2.789-3.549,5.424a72.541,72.541,0,0,1-9.735,10.947c.019-.273.04-.546.06-.817.029-.42.059-.838.088-1.252q.1-1.378.193-2.706c.026-.344.05-.684.074-1.021.156-2.19.3-4.267.442-6.215q.061-.841.117-1.649c.011-.161.023-.32.034-.479.024-.316.045-.631.068-.941.021-.281.04-.557.059-.832,0-.029,0-.056.007-.084q.029-.419.057-.829c.034-.461.066-.911.1-1.352.019-.274.039-.544.058-.811q.043-.624.085-1.216c.008-.095.014-.191.021-.286.015-.188.027-.376.04-.559q.01-.14.019-.275a.264.264,0,0,0,0-.034c.026-.353.05-.7.074-1.032,0-.018,0-.035,0-.053.017-.244.035-.483.052-.716,0-.079.011-.156.016-.231.01-.133.02-.265.027-.395.008-.106.016-.212.022-.316.052-.729.1-1.4.141-1.993.006-.085.013-.17.018-.252s.013-.168.018-.25c.011-.158.023-.31.032-.456.075-1.055.128-1.824.161-2.275,0-.047.007-.09.01-.13,0-.013,0-.026,0-.039,0-.042,0-.079.006-.111.01-.127.015-.193.015-.193Z" transform="translate(-1788.778 -930.794)" fill="#071932"/>
        </g>
        <path id="Path_6604" data-name="Path 6604" d="M1808.772,577.874a64.978,64.978,0,0,1-2.693,33.232q-.385,1.094-.809,2.174a67.857,67.857,0,0,1-4.766,9.766v0q-1.642,2.789-3.549,5.424c-3.637-.525-6.6-.956-8.421-1a2.338,2.338,0,0,1-.458-.063,2.389,2.389,0,0,1-1.081-.586c-.361-.313-.02-17.118,1.089-38.284.032-.816.064-1.713.17-2.524l.008-.3q.1-2.1.22-4.231.07-1.231.143-2.473c.342-5.645.766-11.419,1.227-17.177q.067-.829.132-1.654c.728-8.863,1.582-17.574,2.59-25.367a115.336,115.336,0,0,1,13.226,30.123Q1807.589,571.25,1808.772,577.874Z" transform="translate(-1708.655 -531.442)" fill="#505d6f"/>
      </g>
      <g id="Group_10721" data-name="Group 10721">
        <path id="Path_6605" data-name="Path 6605" d="M992.229,581.719c-.2-5.926-.5-12.983-.9-20.606-.032-.816-.068-1.713-.17-2.524l-.013-.3c-.032-.676-.064-1.355-.1-2.037-.019-.386-.04-.771-.061-1.158q-.091-1.741-.2-3.509c-.342-5.645-.768-11.419-1.224-17.177-.048-.553-.092-1.1-.136-1.654-.671-8.211-1.453-16.291-2.369-23.631v0c-.006-.042-.011-.082-.016-.124-.114-.922-.235-1.837-.354-2.735-.239-1.81-.488-3.568-.747-5.262q-.53.867-1.044,1.75-3.035,5.188-5.661,10.874a173.714,173.714,0,0,0-9.145,24.831l-.048.167a53.846,53.846,0,0,0-1.733,8.492v0c-.05.4-.093.795-.132,1.191v0c-1.219,12.631,2.38,24.452,9.214,35.013.233.365.474.727.718,1.089q.723,1.077,1.495,2.136.542.749,1.109,1.489c.077.1.157.207.239.312a86.494,86.494,0,0,0,8.763,9.678q.781.744,1.582,1.477l.4.363a2.57,2.57,0,0,0,.719-.467C992.647,599.2,992.591,592.244,992.229,581.719Z" transform="translate(-967.941 -501)" fill="#071932"/>
        <path id="Path_6606" data-name="Path 6606" d="M993.8,635.921c-9.518-9.974-17.45-22.215-23.922-34.6v0a53.875,53.875,0,0,1,1.733-8.492l.048-.167a173.685,173.685,0,0,1,9.145-24.831c5.842,8.35,9.936,16.036,10.189,19.13.045.549.088,1.1.137,1.654.456,5.758.881,11.533,1.224,17.177q.108,1.766.2,3.509.031.581.061,1.158c.036.682.068,1.362.1,2.037l.013.3c.1.811.138,1.709.17,2.524C993.3,622.938,993.6,629.995,993.8,635.921Z" transform="translate(-969.514 -555.201)" fill="#1f2f46"/>
        <g id="Group_10720" data-name="Group 10720" transform="translate(2.147 1.75)">
          <path id="Path_6607" data-name="Path 6607" d="M1305.78,844.264s12.664.012,14.658.617,8.4,5.195,8.359,5.79-.481.986-1.724.787-5.153-1.642-5.01-1.095,11.224,5.494,10.816,7.859-7.763,5.245-13.2,4.3-14.567-9.61-15.455-9.9C1296.7,850.193,1305.78,844.264,1305.78,844.264Z" transform="translate(-1240.42 -781.165)" fill="#fdb9a9"/>
          <g id="Group_10719" data-name="Group 10719">
            <path id="Path_6608" data-name="Path 6608" d="M1046.961,577.687a14.891,14.891,0,0,1-3.661,4.141,10.536,10.536,0,0,1-1,.707s-24.37-9.124-42.035-18.767c-5.839-3.188-10.945-6.432-14.2-9.42a66.894,66.894,0,0,1-6.759-8.377,173.7,173.7,0,0,1,9.145-24.831q2.63-5.675,5.661-10.874c.7,2.1,1.431,4.244,2.16,6.37v0c3.87,11.289,7.836,22.11,9.249,23.461,3.067,2.936,41.973,31.755,41.973,31.755a2.711,2.711,0,0,1,.641,1.535A6.838,6.838,0,0,1,1046.961,577.687Z" transform="translate(-979.307 -510.265)" fill="#071932"/>
          </g>
        </g>
      </g>
    </g>
    <rect id="Rectangle_3458" data-name="Rectangle 3458" width="66" height="60" transform="translate(-5832 -19548)" fill="#f9f9fa"/>
    <rect id="Rectangle_3459" data-name="Rectangle 3459" width="66" height="4" transform="translate(-5832 -19552)" fill="#828b98"/>
    <path id="Path_6609" data-name="Path 6609" d="M1248.348,379.75a1,1,0,1,0,1,1A1,1,0,0,0,1248.348,379.75Z" transform="translate(-7077.348 -19930.75)" fill="#f9f9fa"/>
    <path id="Path_6610" data-name="Path 6610" d="M1263.336,379.75a1,1,0,1,0,1,1A1,1,0,0,0,1263.336,379.75Z" transform="translate(-7089.57 -19930.75)" fill="#f9f9fa"/>
    <path id="Path_6611" data-name="Path 6611" d="M1278.432,379.75a1,1,0,1,0,1,1A1,1,0,0,0,1278.432,379.75Z" transform="translate(-7101.879 -19930.75)" fill="#f9f9fa"/>
    <path id="Path_6612" data-name="Path 6612" d="M1339.839,423.95h25.572a1.126,1.126,0,0,0,1.214-1h0a1.126,1.126,0,0,0-1.214-1h-25.572a1.126,1.126,0,0,0-1.214,1h0A1.126,1.126,0,0,0,1339.839,423.95Z" transform="translate(-7151.625 -19964.949)" fill="#1f2f46"/>
    <path id="Path_6613" data-name="Path 6613" d="M1309.233,445.846h37.551a1.021,1.021,0,1,0,0-2h-37.551a1.021,1.021,0,1,0,0,2Z" transform="translate(-7127.008 -19981.846)" fill="#1f2f46"/>
    <path id="Path_6614" data-name="Path 6614" d="M1294.049,506.867h44.244a1.009,1.009,0,0,0,0-2h-44.244a1.008,1.008,0,0,0,0,2Z" transform="translate(-7115.171 -20031.867)" fill="#1f2f46"/>
    <path id="Rectangle_3460" data-name="Rectangle 3460" d="M1,0H45a1,1,0,0,1,1,1V1a1,1,0,0,1-1,1H1A1,1,0,0,1,0,1V1A1,1,0,0,1,1,0Z" transform="translate(-5822 -19522)" fill="#1f2f46"/>
    <path id="Path_6615" data-name="Path 6615" d="M1338.293,548.027h-44.244a1.008,1.008,0,0,0,0,2h44.244a1.009,1.009,0,0,0,0-2Z" transform="translate(-7115.171 -20065.027)" fill="#1f2f46"/>
    <path id="Path_6616" data-name="Path 6616" d="M1298.321,626.481h-4.3a1.013,1.013,0,0,0,0,2h4.3a1.013,1.013,0,0,0,0-2Z" transform="translate(-7115.171 -20130.48)" fill="#1f2f46"/>
    <path id="Path_6667" data-name="Path 6667" d="M1298.321,626.481h-4.3a1.013,1.013,0,0,0,0,2h4.3a1.013,1.013,0,0,0,0-2Z" transform="translate(-7083.171 -20130.48)" fill="#1f2f46"/>
    <path id="Path_6666" data-name="Path 6666" d="M1298.321,626.481h-4.3a1.013,1.013,0,0,0,0,2h4.3a1.013,1.013,0,0,0,0-2Z" transform="translate(-7107.171 -20130.48)" fill="#1f2f46"/>
    <path id="Path_6668" data-name="Path 6668" d="M1298.321,626.481h-4.3a1.013,1.013,0,0,0,0,2h4.3a1.013,1.013,0,0,0,0-2Z" transform="translate(-7075.171 -20130.48)" fill="#1f2f46"/>
    <g id="Group_10727" data-name="Group 10727" transform="translate(-5820 -19501)">
      <path id="Path_6620" data-name="Path 6620" d="M1308.141,641.525a5,5,0,1,0,5,5A5.006,5.006,0,0,0,1308.141,641.525Zm0,9.748a4.748,4.748,0,1,1,4.748-4.748A4.753,4.753,0,0,1,1308.141,651.273Z" transform="translate(-1303.141 -641.525)" fill="#1f2f46"/>
      <path id="Path_6621" data-name="Path 6621" d="M1312.069,646.368a4.085,4.085,0,1,0,4.085,4.085A4.09,4.09,0,0,0,1312.069,646.368Zm0,7.915a3.829,3.829,0,1,1,3.83-3.829A3.834,3.834,0,0,1,1312.069,654.283Z" transform="translate(-1307.069 -645.453)" fill="#1f2f46"/>
      <path id="Path_6622" data-name="Path 6622" d="M1317.268,660.681c-.505-.042-.767-.28-.778-.707a1.11,1.11,0,0,1,.357-.85,1.291,1.291,0,0,0,.645,1,.4.4,0,0,0,.442-.157,2.744,2.744,0,0,0,.34-.559.285.285,0,0,0,.189.084c.175.008.349-.131.5-.4a2.067,2.067,0,0,0,.113-.233.166.166,0,0,0,.037.03.145.145,0,0,0,.172-.025,1.54,1.54,0,0,0,.292-.434.215.215,0,0,0,.079.091.175.175,0,0,0,.217-.046.11.11,0,0,0,.03-.139c-.026-.048-.109-.082-.232-.1v0a1.383,1.383,0,0,0,.173-.732.113.113,0,0,0-.117-.073c-.086.008-.148.1-.185.266a1.683,1.683,0,0,0-.023.516l0,.006c-.089-.006-.188-.008-.3-.006a.355.355,0,0,0-.045-.18.111.111,0,0,0-.119-.062c-.068.016-.091.1-.1.165a.9.9,0,0,0-.009.092,5.5,5.5,0,0,0-.966.165,3.147,3.147,0,0,0-1.025.459c-.009-.149,0-.332.11-.4.123-.078.346.018.421.062l.075-.128c-.014-.008-.349-.2-.574-.06-.139.087-.2.273-.178.553,0,.027,0,.054.007.081a1.285,1.285,0,0,0-.478,1.027c.013.5.337.8.914.851a4.324,4.324,0,0,0,3.67-2.012C1320.633,659.678,1318.5,660.784,1317.268,660.681Zm2.444-3.055a1.186,1.186,0,0,1-.035.155A.909.909,0,0,1,1319.712,657.626Zm-.5.727c.086,0,.166,0,.236,0a1.386,1.386,0,0,1-.263.4s-.021-.014-.044-.083A1.8,1.8,0,0,0,1319.217,658.353Zm-.795.083c.184-.033.363-.056.527-.069a1.458,1.458,0,0,0,.041.3,1.951,1.951,0,0,1-.153.345c-.122.214-.257.333-.369.329a.17.17,0,0,1-.13-.089A1.115,1.115,0,0,0,1318.422,658.436Zm-.146.045a.729.729,0,0,1-.019.554A1.133,1.133,0,0,1,1318.276,658.48Zm-.86.264a3.711,3.711,0,0,1,.7-.243,1.392,1.392,0,0,0,0,.567.9.9,0,0,0,.062.193,2.553,2.553,0,0,1-.357.609.252.252,0,0,1-.283.109,1.215,1.215,0,0,1-.558-.97A2.265,2.265,0,0,1,1317.416,658.745Z" transform="translate(-1313.549 -654.128)" fill="#1f2f46"/>
      <path id="Path_6623" data-name="Path 6623" d="M1340.609,664.433a.628.628,0,0,0,.024-.088A.892.892,0,0,1,1340.609,664.433Z" transform="translate(-1333.094 -659.766)" fill="#1f2f46"/>
    </g>
    <g id="Group_10755" data-name="Group 10755" transform="translate(-5788 -19501)">
      <path id="Path_6620-2" data-name="Path 6620" d="M1308.141,641.525a5,5,0,1,0,5,5A5.006,5.006,0,0,0,1308.141,641.525Zm0,9.748a4.748,4.748,0,1,1,4.748-4.748A4.753,4.753,0,0,1,1308.141,651.273Z" transform="translate(-1303.141 -641.525)" fill="#1f2f46"/>
      <path id="Path_6621-2" data-name="Path 6621" d="M1312.069,646.368a4.085,4.085,0,1,0,4.085,4.085A4.09,4.09,0,0,0,1312.069,646.368Zm0,7.915a3.829,3.829,0,1,1,3.83-3.829A3.834,3.834,0,0,1,1312.069,654.283Z" transform="translate(-1307.069 -645.453)" fill="#1f2f46"/>
      <path id="Path_6622-2" data-name="Path 6622" d="M1317.268,660.681c-.505-.042-.767-.28-.778-.707a1.11,1.11,0,0,1,.357-.85,1.291,1.291,0,0,0,.645,1,.4.4,0,0,0,.442-.157,2.744,2.744,0,0,0,.34-.559.285.285,0,0,0,.189.084c.175.008.349-.131.5-.4a2.067,2.067,0,0,0,.113-.233.166.166,0,0,0,.037.03.145.145,0,0,0,.172-.025,1.54,1.54,0,0,0,.292-.434.215.215,0,0,0,.079.091.175.175,0,0,0,.217-.046.11.11,0,0,0,.03-.139c-.026-.048-.109-.082-.232-.1v0a1.383,1.383,0,0,0,.173-.732.113.113,0,0,0-.117-.073c-.086.008-.148.1-.185.266a1.683,1.683,0,0,0-.023.516l0,.006c-.089-.006-.188-.008-.3-.006a.355.355,0,0,0-.045-.18.111.111,0,0,0-.119-.062c-.068.016-.091.1-.1.165a.9.9,0,0,0-.009.092,5.5,5.5,0,0,0-.966.165,3.147,3.147,0,0,0-1.025.459c-.009-.149,0-.332.11-.4.123-.078.346.018.421.062l.075-.128c-.014-.008-.349-.2-.574-.06-.139.087-.2.273-.178.553,0,.027,0,.054.007.081a1.285,1.285,0,0,0-.478,1.027c.013.5.337.8.914.851a4.324,4.324,0,0,0,3.67-2.012C1320.633,659.678,1318.5,660.784,1317.268,660.681Zm2.444-3.055a1.186,1.186,0,0,1-.035.155A.909.909,0,0,1,1319.712,657.626Zm-.5.727c.086,0,.166,0,.236,0a1.386,1.386,0,0,1-.263.4s-.021-.014-.044-.083A1.8,1.8,0,0,0,1319.217,658.353Zm-.795.083c.184-.033.363-.056.527-.069a1.458,1.458,0,0,0,.041.3,1.951,1.951,0,0,1-.153.345c-.122.214-.257.333-.369.329a.17.17,0,0,1-.13-.089A1.115,1.115,0,0,0,1318.422,658.436Zm-.146.045a.729.729,0,0,1-.019.554A1.133,1.133,0,0,1,1318.276,658.48Zm-.86.264a3.711,3.711,0,0,1,.7-.243,1.392,1.392,0,0,0,0,.567.9.9,0,0,0,.062.193,2.553,2.553,0,0,1-.357.609.252.252,0,0,1-.283.109,1.215,1.215,0,0,1-.558-.97A2.265,2.265,0,0,1,1317.416,658.745Z" transform="translate(-1313.549 -654.128)" fill="#1f2f46"/>
      <path id="Path_6623-2" data-name="Path 6623" d="M1340.609,664.433a.628.628,0,0,0,.024-.088A.892.892,0,0,1,1340.609,664.433Z" transform="translate(-1333.094 -659.766)" fill="#1f2f46"/>
    </g>
    <g id="Group_10731" data-name="Group 10731" transform="translate(-5791.98 -19441.193)">
      <g id="Group_10730" data-name="Group 10730">
        <path id="Path_6628" data-name="Path 6628" d="M1484.409,961.386l-5.783,7.8-.568.767-.278.372-.712.962-.387.522-.713.962-.75,1.012-.7.946-.011.013v0l-.659.888-.008.011-.1.132-.011.014s0,0,0,0l-.124.165h0l-.711.883v.076l-.665.9h0l-.859,1.161h0l-.649.875v0l-.711.959v0l-1.19,1.6v0h0l-.117.159-.4.546v0l-.936,1.262-1.241,1.6v.077l-.644.869-.067.09v0l-.895,1.208h0l-.833,1.126-.008.011h0l-2.065,2.788h0l-3.075,4.148-5.15,6.948-.641.865-.378.509c.2.029.394.056.59.082,0,0,0,0,.006,0q1.026.137,2.049.247c.191.023.384.043.575.063.12.013.241.024.36.035.289.029.578.055.865.079.122.011.243.023.365.032l.17.015c.191.016.384.03.575.043l.109.008c.421.032.843.058,1.262.082.191.011.384.021.575.029.149.01.3.016.448.023.029,0,.056,0,.085,0,.249.011.5.022.745.029.193.006.384.013.575.016.217.008.434.013.65.016.191,0,.384.006.575.01s.4,0,.607,0,.384,0,.575,0c.106,0,.21,0,.315,0s.233,0,.348,0c.075,0,.151,0,.227,0s.149,0,.225,0c.106,0,.212,0,.318-.006.027,0,.053,0,.079,0,.055,0,.108,0,.162,0l.23-.006q2.233-.06,4.43-.244h0q2.532-.207,5.01-.577,2.681-.4,5.3-.975l.088-.02a.113.113,0,0,1-.006.023l1.639-.4q.342-.082.683-.169,3.23-.819,6.337-1.9.52-.181,1.036-.368l.257-.095q.966-.352,1.916-.732c.172-.067.344-.136.516-.206v0l.1-.04v0c.2-.082.4-.165.6-.249.151-.063.3-.125.45-.189q.264-.111.527-.227l.337-.148,0,0c.2-.087.392-.173.588-.262h0q2.883-1.3,5.625-2.818.289-.159.577-.323v0l10.064-13.58Z" transform="translate(-1452.357 -961.386)" fill="#1f2f46"/>
        <g id="Group_10729" data-name="Group 10729" transform="translate(4.445 6.057)">
          <path id="Path_6629" data-name="Path 6629" d="M1488.274,1015.37v.8l.586-.79.008-.011v0Zm-1.1,1.06a4.395,4.395,0,0,0-.6.294l-1.285,1.733-.984,1.327v1.744l1.166-1.57,2.8-3.78A3.315,3.315,0,0,0,1487.172,1016.43Zm-4.745,5.889-.146.2-.56.756-2.531,3.414,0,1.744,1.789-2.413,1.432-1.932.75-1.012.557-.753h-1.29Zm21.4-28.871-6.022,8.125-.053.072-.365.491-.469.631-.244.324v0l-1.116,1.508-.464.549v.076l-.3.411-.408.549-1.662,2.242v0l-.035.046-.083.112v0l-.528.713v.075l-1.58,2.055-.612.825-.1.136-1.7,2.288-.506.682-.008.011-.994,1.342-1.285,1.733-.984,1.327-.711.962-1.167,1.574-.146.2-.56.756-2.531,3.414-.71.959-1.2,1.622-1.392,1.879c.122.011.242.023.365.032l.17.015c.191.016.384.03.575.043l.109.008,1.463-1.975h0l.62-.839,1.789-2.413,1.432-1.932.75-1.012.557-.753h0l.586-.792,1.166-1.57,2.8-3.78,0,0,.586-.79.008-.011v0l.911-1.151v-.076l.711-.96.567-.766,1.013-1.366.711-.961.8-1.082.307-.414.119-.159h0l.369-.5.713-.96.751-1.015.753-1.016.075-.1v0l.711-.96.546-.737.255-.339,0-.006.655-.885.057-.076.143-.193,2.744-3.7a3.788,3.788,0,0,1,5.3-.789l14.02,10.391a4.17,4.17,0,0,1,.867,5.836l-8.459,11.414-.5.673c.151-.063.3-.125.45-.19.176-.074.351-.149.526-.227l.337-.148,0,0c.2-.087.392-.173.587-.262l0,0,10.989-14.825Zm-21.4,28.871-.146.2-.56.756-2.531,3.414,0,1.744,1.789-2.413,1.432-1.932.75-1.012.557-.753h-1.29Zm4.745-5.889a4.395,4.395,0,0,0-.6.294l-1.285,1.733-.984,1.327v1.744l1.166-1.57,2.8-3.78A3.315,3.315,0,0,0,1487.172,1016.43Zm1.1-1.06v.8l.586-.79.008-.011v0Z" transform="translate(-1475.885 -993.447)" fill="#071932"/>
        </g>
        <path id="Path_6630" data-name="Path 6630" d="M1537.412,1153.687a.114.114,0,0,0,.006-.022l-.088.02q-2.614.576-5.3.975-2.478.366-5.01.577h0q-2.2.185-4.43.244l-.23.006c-.054,0-.108,0-.162,0-.026,0-.051,0-.079,0-.014-.215-.019-.43-.016-.645a8.336,8.336,0,0,1,.155-1.518,8.509,8.509,0,0,1,1.527-3.468l.018-.023a8.6,8.6,0,0,1,1.264-1.36,8.34,8.34,0,0,1,.71-.551,8.475,8.475,0,0,1,2.176-1.089q.352-.118.712-.2a8.353,8.353,0,0,1,1.694-.231c.238-.01.475-.008.712,0a8.559,8.559,0,0,1,1.58.223q.359.085.71.2a8.422,8.422,0,0,1,.8.313q.361.162.71.36a8.217,8.217,0,0,1,.748.479q.068.045.135.1.284.209.544.438v0a.245.245,0,0,1,.032.027c.135.119.263.239.389.364a9.591,9.591,0,0,1,.711.8v.01q.145.183.275.376v.011a8.214,8.214,0,0,1,.71,1.219v.01c.093.2.177.4.254.605v0a8.481,8.481,0,0,1,.382,1.341Z" transform="translate(-1508.926 -1111.445)" fill="#82b378"/>
      </g>
      <path id="Path_6631" data-name="Path 6631" d="M1473.605,1037.83h0l-.711.893v.066l-.667.9-.859,1.161h0l-.649.875v0l-.711.959h0l-1.19,1.6v0h0l-.117.159-.4.546v0l-.936,1.262-1.241,1.609v.066l-.644.869-.067.09v0l-.9,1.208-.833,1.126-.008.011h0l-2.065,2.788h0l-3.075,4.148-5.15,6.948-.641.866-.378.509c.2.029.394.056.59.082,0,0,0,0,.006,0q1.026.137,2.049.247c.191.022.384.043.575.063l.36.035c.289.029.578.054.865.079.122.011.243.023.365.032l.17.015c.191.016.384.03.575.043l.109.008c.421.032.843.058,1.262.082.191.011.384.021.575.029.149.01.3.016.448.023.029,0,.056,0,.085,0q.222-1.045.509-2.111c.289-1.076.623-2.163.994-3.252.284-.838.591-1.677.914-2.512q.19-.5.39-.989c.026-.066.053-.132.079-.2h0c.394-.973.808-1.938,1.233-2.891v-.064c.235-.522.472-.976.713-1.49q.595-1.271,1.2-2.494l0-.011c.549-1.1,1.1-2.174,1.643-3.2.072-.135.143-.22.215-.339v-.064c.239-.451.477-.895.712-1.325q.523-.963,1.018-1.851c.031-.053.059-.108.09-.161.207-.372.41-.671.607-1.02v-.064c.479-.851.92-1.63,1.312-2.323q.354-.629.649-1.158c.076-.135.148-.265.215-.39.313-.572.555-1.036.711-1.376.051-.112.093-.212.124-.3Z" transform="translate(-1452.357 -1023.254)" fill="#82b378" opacity="0.5"/>
    </g>
    <g id="Group_10742" data-name="Group 10742" transform="translate(-5830.881 -19433.926)">
      <g id="Group_10733" data-name="Group 10733" transform="translate(8.846 27.631)">
        <path id="Path_6632" data-name="Path 6632" d="M1353.07,1147.678l0,3.926c0,.04,0,.079,0,.117v0a1.481,1.481,0,0,1-.256.726,1.509,1.509,0,0,1-.71.565,1.319,1.319,0,0,1-.208.064l-.067.014c-.045.008-.089.014-.133.018a1.274,1.274,0,0,1-.135.006l-.444,0h-1.85l-1.513,0h-.71l-1.58,0h-3.117l-2.175,0h-.71l-2.805,0h-1.617l-3.172,0h-1.5l-1.2,0-4.819,0h-1.148l-.83,0h-.337l-1.958,0h-4.274v0h0q-1.2-.26-2.412-.547c-.191-.046-.382-.092-.575-.14q-.8-.192-1.607-.4c-.236-.06-.474-.121-.71-.183q-.609-.156-1.219-.323-.66-.178-1.32-.363l-.575-.164q-1.636-.467-3.27-.978h0l-.127-.04c-.329-.1-.657-.206-.984-.313-.193-.059-.384-.122-.575-.185-3.072-1-6.129-2.113-9.15-3.33h.872l16.352.011h.711l4.4,0h3.1v0h4.986v0h4.615l.711,0h.472l3.565,0,1.187,0h5.909l.711,0h4.423l2.174,0h2.406l.711,0h.984l0,0h.064a1.439,1.439,0,0,1,.2.024,1.366,1.366,0,0,1,.276.077,1.525,1.525,0,0,1,.71.567A1.5,1.5,0,0,1,1353.07,1147.678Z" transform="translate(-1293.263 -1146.125)" fill="#ffb93e"/>
        <path id="Path_6633" data-name="Path 6633" d="M1322.359,1153.1h-.337l-1.958,0h-3.587l-.687,0h0q-1.2-.26-2.412-.547c-.191-.046-.382-.092-.575-.14q-.8-.192-1.607-.4c-.236-.06-.474-.121-.71-.183q-.609-.156-1.219-.323-.66-.178-1.32-.363l-.575-.164q-1.636-.467-3.27-.978h0l-.127-.04c-.329-.1-.657-.206-.984-.313-.193-.059-.384-.122-.575-.185-3.072-1-6.129-2.113-9.15-3.33h.872l16.352.011h.711l4.4,0h2.651a14.187,14.187,0,0,0,1.2,3.331,11.4,11.4,0,0,0,2.455,3.236c.066.061.135.12.2.18.013.013.027.024.042.037C1322.22,1152.982,1322.29,1153.04,1322.359,1153.1Z" transform="translate(-1293.263 -1146.125)" fill="#505d6f"/>
        <g id="Group_10732" data-name="Group 10732" transform="translate(17.221 0.011)">
          <rect id="Rectangle_3461" data-name="Rectangle 3461" width="0.711" height="6.952" transform="translate(34.265 0.024)" fill="#cdd1d6"/>
          <rect id="Rectangle_3462" data-name="Rectangle 3462" width="0.711" height="6.952" transform="translate(31.859 0.022)" fill="#cdd1d6"/>
          <rect id="Rectangle_3463" data-name="Rectangle 3463" width="0.711" height="6.952" transform="matrix(1, 0.001, -0.001, 1, 28.978, 0.02)" fill="#cdd1d6"/>
          <rect id="Rectangle_3464" data-name="Rectangle 3464" width="0.711" height="6.952" transform="translate(24.552 0.017)" fill="#cdd1d6"/>
          <rect id="Rectangle_3465" data-name="Rectangle 3465" width="0.711" height="6.952" transform="translate(19.876 0.014)" fill="#cdd1d6"/>
          <rect id="Rectangle_3466" data-name="Rectangle 3466" width="0.711" height="6.952" transform="translate(12.707 0.009)" fill="#cdd1d6"/>
          <rect id="Rectangle_3467" data-name="Rectangle 3467" width="0.711" height="6.952" transform="translate(5.995 0.004)" fill="#cdd1d6"/>
          <path id="Path_6634" data-name="Path 6634" d="M1385.131,1146.184l0,5.868c-.236-.06-.474-.121-.71-.183l0-5.684Z" transform="translate(-1384.416 -1146.184)" fill="#cdd1d6"/>
          <rect id="Rectangle_3468" data-name="Rectangle 3468" width="0.711" height="6.952" transform="translate(36.555 0.025)" fill="#cdd1d6"/>
          <rect id="Rectangle_3469" data-name="Rectangle 3469" width="0.711" height="6.952" transform="translate(38.068 0.026)" fill="#cdd1d6"/>
          <rect id="Rectangle_3470" data-name="Rectangle 3470" width="0.711" height="6.952" transform="translate(39.532 0.027) rotate(0.059)" fill="#cdd1d6"/>
          <path id="Path_6635" data-name="Path 6635" d="M1600.173,1146.355l0,6.9a1.472,1.472,0,0,1-.267.024h-.444l0-6.952h.444A1.459,1.459,0,0,1,1600.173,1146.355Z" transform="translate(-1558.832 -1146.302)" fill="#cdd1d6"/>
          <path id="Path_6636" data-name="Path 6636" d="M1605.4,1147.441l0,5.615a1.524,1.524,0,0,1-.711.566l.005-6.748A1.524,1.524,0,0,1,1605.4,1147.441Z" transform="translate(-1563.072 -1146.744)" fill="#cdd1d6"/>
        </g>
      </g>
      <g id="Group_10735" data-name="Group 10735" transform="translate(8.205 20.679)">
        <path id="Path_6637" data-name="Path 6637" d="M1355.434,1110.881l0,3.926a1.5,1.5,0,0,1-.26.844,1.523,1.523,0,0,1-.711.566,1.4,1.4,0,0,1-.277.078,1.484,1.484,0,0,1-.267.024l-62.534-.043a1.518,1.518,0,0,1-1.51-1.436c0-.026,0-.052,0-.078l0-3.926c0-.026,0-.052,0-.078a1.519,1.519,0,0,1,1.333-1.424,1.426,1.426,0,0,1,.179-.011l62.534.043a1.482,1.482,0,0,1,.267.024,1.416,1.416,0,0,1,.277.078,1.521,1.521,0,0,1,.709.567A1.5,1.5,0,0,1,1355.434,1110.881Z" transform="translate(-1289.872 -1109.324)" fill="#ffb93e"/>
        <path id="Path_6638" data-name="Path 6638" d="M1324.723,1116.3l-33.5-.023a1.434,1.434,0,0,1-1.348-1.436c0-.026,0-.052,0-.078l0-3.926c0-.026,0-.052,0-.078a1.459,1.459,0,0,1,1.19-1.424,1.144,1.144,0,0,1,.16-.011l29.387.02s0,.008,0,.011A12.454,12.454,0,0,0,1324.723,1116.3Z" transform="translate(-1289.872 -1109.324)" fill="#505d6f"/>
        <g id="Group_10734" data-name="Group 10734" transform="translate(22.977 0.015)">
          <rect id="Rectangle_3471" data-name="Rectangle 3471" width="0.711" height="6.952" transform="translate(34.264 0.024)" fill="#ffa412"/>
          <rect id="Rectangle_3472" data-name="Rectangle 3472" width="0.711" height="6.952" transform="translate(31.858 0.022)" fill="#ffa412"/>
          <rect id="Rectangle_3473" data-name="Rectangle 3473" width="0.711" height="6.952" transform="translate(28.973 0.02)" fill="#ffa412"/>
          <rect id="Rectangle_3474" data-name="Rectangle 3474" width="0.711" height="6.952" transform="translate(24.551 0.017)" fill="#ffa412"/>
          <rect id="Rectangle_3475" data-name="Rectangle 3475" width="0.711" height="6.952" transform="translate(19.875 0.014)" fill="#ffa412"/>
          <rect id="Rectangle_3476" data-name="Rectangle 3476" width="0.711" height="6.952" transform="translate(12.706 0.009)" fill="#ffa412"/>
          <rect id="Rectangle_3477" data-name="Rectangle 3477" width="0.711" height="6.952" transform="translate(5.994 0.004)" fill="#ffa412"/>
          <rect id="Rectangle_3478" data-name="Rectangle 3478" width="0.711" height="6.952" fill="#ffa412"/>
          <rect id="Rectangle_3479" data-name="Rectangle 3479" width="0.711" height="6.952" transform="translate(36.554 0.025)" fill="#ffa412"/>
          <rect id="Rectangle_3480" data-name="Rectangle 3480" width="0.711" height="6.952" transform="translate(38.067 0.026)" fill="#ffa412"/>
          <rect id="Rectangle_3481" data-name="Rectangle 3481" width="0.711" height="6.952" transform="translate(39.528 0.027)" fill="#ffa412"/>
          <path id="Path_6639" data-name="Path 6639" d="M1627.249,1109.575l0,6.9a1.465,1.465,0,0,1-.267.024h-.444l0-6.952h.444A1.46,1.46,0,0,1,1627.249,1109.575Z" transform="translate(-1585.909 -1109.523)" fill="#ffa412"/>
          <path id="Path_6640" data-name="Path 6640" d="M1632.476,1110.661l0,5.615a1.521,1.521,0,0,1-.71.566l0-6.748A1.522,1.522,0,0,1,1632.476,1110.661Z" transform="translate(-1590.15 -1109.964)" fill="#ffa412"/>
        </g>
      </g>
      <g id="Group_10737" data-name="Group 10737" transform="translate(0 13.732)">
        <path id="Path_6641" data-name="Path 6641" d="M1312,1074.111l0,3.926a1.5,1.5,0,0,1-.26.845,1.524,1.524,0,0,1-.711.566,1.415,1.415,0,0,1-.277.078c-.029.005-.059.01-.088.013s-.047.005-.07.007l-.035,0-.073,0-62.534-.043a1.519,1.519,0,0,1-1.51-1.436c0-.026,0-.052,0-.078l0-3.926c0-.026,0-.052,0-.078a1.518,1.518,0,0,1,1.512-1.434l62.533.043.08,0a1.509,1.509,0,0,1,.187.022,1.412,1.412,0,0,1,.277.078,1.34,1.34,0,0,1,.131.059c.027.013.052.027.078.042a.019.019,0,0,1,.009.005c.026.015.051.031.076.048a.049.049,0,0,1,.013.009.736.736,0,0,1,.068.049,1.318,1.318,0,0,1,.15.131c.015.014.029.029.043.044l.008.008.026.028.005.006c.015.018.03.036.044.055s.041.053.06.082A1.5,1.5,0,0,1,1312,1074.111Z" transform="translate(-1246.44 -1072.554)" fill="#828b98"/>
        <path id="Path_6642" data-name="Path 6642" d="M1281.291,1079.529l-33.5-.023a1.435,1.435,0,0,1-1.348-1.436c0-.026,0-.052,0-.078l0-3.926c0-.026,0-.052,0-.078a1.434,1.434,0,0,1,1.35-1.434l29.388.02c.011.053.024.106.038.161a12.4,12.4,0,0,0,4.058,6.783Z" transform="translate(-1246.44 -1072.554)" fill="#505d6f"/>
        <g id="Group_10736" data-name="Group 10736" transform="translate(22.974 0.015)">
          <rect id="Rectangle_3482" data-name="Rectangle 3482" width="0.711" height="6.952" transform="translate(34.267 0.024)" fill="#505d6f"/>
          <rect id="Rectangle_3483" data-name="Rectangle 3483" width="0.711" height="6.952" transform="translate(31.862 0.022)" fill="#505d6f"/>
          <rect id="Rectangle_3484" data-name="Rectangle 3484" width="0.711" height="6.952" transform="translate(28.977 0.02)" fill="#505d6f"/>
          <rect id="Rectangle_3485" data-name="Rectangle 3485" width="0.711" height="6.952" transform="translate(24.554 0.017)" fill="#505d6f"/>
          <rect id="Rectangle_3486" data-name="Rectangle 3486" width="0.711" height="6.952" transform="translate(19.878 0.014)" fill="#505d6f"/>
          <rect id="Rectangle_3487" data-name="Rectangle 3487" width="0.711" height="6.952" transform="translate(12.709 0.009)" fill="#505d6f"/>
          <rect id="Rectangle_3488" data-name="Rectangle 3488" width="0.711" height="6.952" transform="translate(5.997 0.005)" fill="#505d6f"/>
          <rect id="Rectangle_3489" data-name="Rectangle 3489" width="0.711" height="6.952" transform="translate(0.007 0) rotate(0.059)" fill="#505d6f"/>
          <rect id="Rectangle_3490" data-name="Rectangle 3490" width="0.711" height="6.952" transform="translate(36.557 0.025)" fill="#505d6f"/>
          <rect id="Rectangle_3491" data-name="Rectangle 3491" width="0.711" height="6.952" transform="translate(38.07 0.026)" fill="#505d6f"/>
          <rect id="Rectangle_3492" data-name="Rectangle 3492" width="0.711" height="6.952" transform="translate(39.531 0.027)" fill="#505d6f"/>
          <path id="Path_6643" data-name="Path 6643" d="M1583.816,1072.8l0,6.9a1.492,1.492,0,0,1-.267.024h-.444l0-6.952h.444A1.462,1.462,0,0,1,1583.816,1072.8Z" transform="translate(-1542.472 -1072.751)" fill="#505d6f"/>
          <path id="Path_6644" data-name="Path 6644" d="M1589.043,1073.89l0,5.615a1.523,1.523,0,0,1-.71.566l0-6.748A1.522,1.522,0,0,1,1589.043,1073.89Z" transform="translate(-1546.714 -1073.193)" fill="#505d6f"/>
        </g>
      </g>
      <g id="Group_10739" data-name="Group 10739" transform="translate(4.602 6.944)">
        <path id="Path_6645" data-name="Path 6645" d="M1336.363,1038.18l0,3.926a1.5,1.5,0,0,1-.26.844,1.523,1.523,0,0,1-.71.566,1.436,1.436,0,0,1-.277.078,1.526,1.526,0,0,1-.267.024l-62.533-.043a1.491,1.491,0,0,1-.676-.161,1.518,1.518,0,0,1-.831-1.213c0-.02,0-.041,0-.062s0-.052,0-.078l0-3.926c0-.026,0-.052,0-.078a1.518,1.518,0,0,1,1.333-1.423,1.368,1.368,0,0,1,.179-.011l62.534.043a1.506,1.506,0,0,1,.267.024,1.41,1.41,0,0,1,.277.078,1.522,1.522,0,0,1,.71.567A1.5,1.5,0,0,1,1336.363,1038.18Z" transform="translate(-1270.801 -1036.623)" fill="#828b98"/>
        <path id="Path_6646" data-name="Path 6646" d="M1305.652,1043.6l-33.5-.023a1.216,1.216,0,0,1-.6-.161,1.528,1.528,0,0,1-.741-1.213c0-.02,0-.041,0-.062s0-.052,0-.078l0-3.926c0-.026,0-.052,0-.078a1.459,1.459,0,0,1,1.19-1.424,1.105,1.105,0,0,1,.16-.011l29.387.02,0,.011a12.526,12.526,0,0,0,3.915,6.783C1305.523,1043.49,1305.587,1043.544,1305.652,1043.6Z" transform="translate(-1270.801 -1036.622)" fill="#505d6f"/>
        <g id="Group_10738" data-name="Group 10738" transform="translate(22.977 0.015)">
          <rect id="Rectangle_3493" data-name="Rectangle 3493" width="0.711" height="6.952" transform="translate(34.264 0.023)" fill="#cdd1d6"/>
          <rect id="Rectangle_3494" data-name="Rectangle 3494" width="0.711" height="6.952" transform="translate(31.858 0.022)" fill="#cdd1d6"/>
          <rect id="Rectangle_3495" data-name="Rectangle 3495" width="0.711" height="6.952" transform="translate(28.973 0.02)" fill="#cdd1d6"/>
          <rect id="Rectangle_3496" data-name="Rectangle 3496" width="0.711" height="6.952" transform="translate(24.551 0.017)" fill="#cdd1d6"/>
          <rect id="Rectangle_3497" data-name="Rectangle 3497" width="0.711" height="6.952" transform="translate(19.875 0.014)" fill="#cdd1d6"/>
          <rect id="Rectangle_3498" data-name="Rectangle 3498" width="0.711" height="6.952" transform="translate(12.706 0.009)" fill="#cdd1d6"/>
          <rect id="Rectangle_3499" data-name="Rectangle 3499" width="0.711" height="6.952" transform="translate(5.994 0.004)" fill="#cdd1d6"/>
          <rect id="Rectangle_3500" data-name="Rectangle 3500" width="0.711" height="6.952" fill="#cdd1d6"/>
          <rect id="Rectangle_3501" data-name="Rectangle 3501" width="0.711" height="6.952" transform="translate(36.554 0.025)" fill="#cdd1d6"/>
          <rect id="Rectangle_3502" data-name="Rectangle 3502" width="0.711" height="6.952" transform="translate(38.067 0.026)" fill="#cdd1d6"/>
          <rect id="Rectangle_3503" data-name="Rectangle 3503" width="0.711" height="6.952" transform="translate(39.528 0.027)" fill="#cdd1d6"/>
          <path id="Path_6647" data-name="Path 6647" d="M1608.177,1036.872l0,6.9a1.5,1.5,0,0,1-.267.024h-.444l0-6.952h.444A1.491,1.491,0,0,1,1608.177,1036.872Z" transform="translate(-1566.837 -1036.82)" fill="#cdd1d6"/>
          <path id="Path_6648" data-name="Path 6648" d="M1613.4,1037.958l0,5.615a1.52,1.52,0,0,1-.71.566l0-6.748A1.522,1.522,0,0,1,1613.4,1037.958Z" transform="translate(-1571.078 -1037.261)" fill="#cdd1d6"/>
        </g>
      </g>
      <g id="Group_10741" data-name="Group 10741" transform="translate(0.009)">
        <path id="Path_6649" data-name="Path 6649" d="M1312.052,1001.422l0,3.926a1.5,1.5,0,0,1-.26.844,1.524,1.524,0,0,1-.711.566,1.4,1.4,0,0,1-.277.077c-.029.005-.058.01-.088.013l-.049,0-.05,0-.08,0-62.534-.043a1.519,1.519,0,0,1-1.51-1.436c0-.026,0-.052,0-.078l0-3.926c0-.026,0-.052,0-.078a1.518,1.518,0,0,1,1.512-1.434l62.533.043a1.472,1.472,0,0,1,.267.025,1.4,1.4,0,0,1,.277.078,1.521,1.521,0,0,1,.71.567A1.5,1.5,0,0,1,1312.052,1001.422Z" transform="translate(-1246.49 -999.865)" fill="#828b98"/>
        <path id="Path_6650" data-name="Path 6650" d="M1281.341,1006.84l-33.5-.023a1.434,1.434,0,0,1-1.348-1.436c0-.026,0-.052,0-.078l0-3.926c0-.026,0-.052,0-.078a1.434,1.434,0,0,1,1.35-1.434l29.387.02a12.459,12.459,0,0,0,4.1,6.944Z" transform="translate(-1246.49 -999.865)" fill="#505d6f"/>
        <g id="Group_10740" data-name="Group 10740" transform="translate(22.977 0.015)">
          <rect id="Rectangle_3504" data-name="Rectangle 3504" width="0.711" height="6.952" transform="matrix(1, 0.001, -0.001, 1, 34.267, 0.023)" fill="#cdd1d6"/>
          <rect id="Rectangle_3505" data-name="Rectangle 3505" width="0.711" height="6.952" transform="translate(31.858 0.022)" fill="#cdd1d6"/>
          <rect id="Rectangle_3506" data-name="Rectangle 3506" width="0.711" height="6.952" transform="translate(28.973 0.02)" fill="#cdd1d6"/>
          <rect id="Rectangle_3507" data-name="Rectangle 3507" width="0.711" height="6.952" transform="translate(24.551 0.017)" fill="#cdd1d6"/>
          <rect id="Rectangle_3508" data-name="Rectangle 3508" width="0.711" height="6.952" transform="translate(19.875 0.014)" fill="#cdd1d6"/>
          <rect id="Rectangle_3509" data-name="Rectangle 3509" width="0.711" height="6.952" transform="translate(12.706 0.009)" fill="#cdd1d6"/>
          <rect id="Rectangle_3510" data-name="Rectangle 3510" width="0.711" height="6.952" transform="translate(5.994 0.004)" fill="#cdd1d6"/>
          <rect id="Rectangle_3511" data-name="Rectangle 3511" width="0.711" height="6.952" fill="#cdd1d6"/>
          <rect id="Rectangle_3512" data-name="Rectangle 3512" width="0.711" height="6.952" transform="translate(36.554 0.025)" fill="#cdd1d6"/>
          <rect id="Rectangle_3513" data-name="Rectangle 3513" width="0.711" height="6.952" transform="translate(38.067 0.026)" fill="#cdd1d6"/>
          <rect id="Rectangle_3514" data-name="Rectangle 3514" width="0.711" height="6.952" transform="translate(39.528 0.027)" fill="#cdd1d6"/>
          <path id="Path_6651" data-name="Path 6651" d="M1583.866,1000.115l0,6.9a1.5,1.5,0,0,1-.267.024h-.444l0-6.952h.444A1.485,1.485,0,0,1,1583.866,1000.115Z" transform="translate(-1542.526 -1000.063)" fill="#cdd1d6"/>
          <path id="Path_6652" data-name="Path 6652" d="M1589.093,1001.2l0,5.615a1.523,1.523,0,0,1-.711.566l0-6.748A1.523,1.523,0,0,1,1589.093,1001.2Z" transform="translate(-1546.767 -1000.504)" fill="#cdd1d6"/>
        </g>
      </g>
    </g>
    <path id="Path_6653" data-name="Path 6653" d="M1440.79,1070.8q-2.129.677-4.315,1.23-.34.087-.683.168-.812.2-1.633.38l-.088.019q-2.614.576-5.3.975-2.478.366-5.01.577h0q-2.2.185-4.43.244l-.23.006c-.054,0-.108,0-.162,0-.026,0-.051,0-.079,0-.106,0-.212,0-.318.006-.076,0-.149,0-.225,0s-.151,0-.226,0c-.115,0-.231,0-.348,0s-.209,0-.315,0c-.191,0-.382,0-.575,0s-.4,0-.607,0-.384,0-.575-.01q-.325,0-.65-.016c-.191,0-.382-.01-.575-.016-.247-.007-.5-.018-.745-.029-.029,0-.056,0-.085,0-.149-.006-.3-.013-.448-.023-.191-.008-.384-.018-.575-.029-.419-.024-.841-.049-1.262-.082l-.109-.008c-.191-.013-.384-.027-.575-.043l-.17-.015c-.122-.009-.243-.021-.365-.032-.288-.024-.577-.05-.865-.079-.119-.011-.239-.022-.36-.035-.191-.019-.384-.04-.575-.063-.681-.072-1.365-.156-2.049-.247,0,0-.005,0-.006,0-.2-.026-.392-.053-.589-.082l-.2-.029c-.053,0-.108-.013-.161-.022-.135-.018-.271-.039-.406-.059-.038-.005-.075-.011-.112-.018l-.023,0,0,0a.113.113,0,0,1-.033,0c-.511-.075-1.021-.159-1.534-.247l-.536-.093c-.178-.032-.356-.064-.536-.1-.2-.037-.4-.076-.6-.114s-.384-.072-.575-.109q-1.4-.275-2.81-.58h0v0h0q-1.2-.26-2.412-.547c-.191-.047-.382-.092-.575-.14l-.276-.068a22.2,22.2,0,0,1,11.414-21.355c.284-.156.572-.305.859-.448q.412-.25.838-.486a22.2,22.2,0,0,1,32.805,21.619Z" transform="translate(-7197.647 -20471.549)" fill="#828b98"/>
    <g id="Group_10745" data-name="Group 10745" transform="translate(-5795.926 -19427.961)">
      <path id="Path_6654" data-name="Path 6654" d="M1482.107,1042.933a22.085,22.085,0,0,0-8.14-8.4l-.26-.151c-.234-.135-.471-.265-.71-.388-.092-.05-.185-.1-.278-.143-.235-.12-.471-.236-.71-.345-.128-.059-.257-.119-.387-.175-.236-.1-.472-.2-.712-.3s-.5-.194-.75-.286l-.056-.019q-.325-.116-.655-.222c-.05-.016-.1-.032-.151-.046h-.064a.943.943,0,0,0-.169-.072c-.146-.045-.294-.087-.441-.129l-.223-.061c-.093-.026-.185-.05-.278-.072-.236-.061-.474-.117-.711-.169-.129-.029-.257-.056-.387-.08-.236-.048-.474-.093-.711-.132s-.5-.08-.75-.114c-.233-.03-.466-.058-.7-.081h-.011c-.266-.027-.533-.048-.8-.066q-.354-.022-.711-.034-.788-.024-1.579.006c-.236.01-.474.023-.711.04q-.848.06-1.7.19c-.236.034-.474.074-.71.117a21.587,21.587,0,0,0-2.175.516c-.144.042-.289.085-.433.132h0l-.036.011-.066.021a22.257,22.257,0,0,0-3.966,1.705l-.016.01c-.235.13-.468.263-.7.4-.042.024-.083.05-.124.076a22.076,22.076,0,0,0-5.368,4.562c-.046.053-.091.108-.135.161a22.187,22.187,0,0,0-3.876,6.778.029.029,0,0,0,0,.011l-.058.164a22.044,22.044,0,0,0-.713,2.518v.064a21.468,21.468,0,0,0-.517,4.193h0a21.987,21.987,0,0,0,.83,6.563c.035.13.074.258.114.389q.19.626.421,1.248c.037.006.074.013.112.018.135.021.271.042.406.059.053.01.107.018.161.022l.2.029q.3.044.589.082s0,0,.006,0q1.026.137,2.049.247c.191.022.384.043.575.063.12.013.241.024.36.035.289.029.578.055.865.079.122.011.243.023.365.032l.17.015c.191.016.383.03.575.043l.109.008c.421.032.843.058,1.262.082.191.011.384.021.575.029.149.01.3.016.448.023.029,0,.056,0,.085,0,.249.011.5.022.745.029.193.006.384.013.575.016.217.008.434.013.65.016.191,0,.384.006.575.01s.4,0,.607,0,.384,0,.575,0c.106,0,.21,0,.315,0s.233,0,.348,0c.075,0,.151,0,.227,0s.149,0,.225,0c.106,0,.212,0,.318-.006.027,0,.053,0,.078,0,.055,0,.108,0,.162,0,.077,0,.153,0,.23-.006q2.233-.06,4.43-.244h0q2.532-.207,5.01-.577,2.681-.4,5.3-.975l.088-.02a.115.115,0,0,1-.006.023l1.639-.4q.342-.081.683-.168,3.23-.819,6.337-1.9.52-.181,1.036-.368l.257-.095q.966-.352,1.915-.732c.172-.067.344-.136.516-.206h0l.1-.04v0c.2-.082.4-.166.6-.249.151-.063.3-.125.45-.19.018-.161.035-.321.048-.483A22.094,22.094,0,0,0,1482.107,1042.933Z" transform="translate(-1438.758 -1031.436)" fill="#505d6f"/>
      <path id="Path_6655" data-name="Path 6655" d="M1473.124,1047.88a22.087,22.087,0,0,0-6.446-7.292c-.085-.062-.172-.124-.26-.185q-.349-.246-.708-.477l-.278-.177c-.234-.144-.472-.286-.711-.422-.129-.074-.257-.146-.387-.215-.234-.13-.472-.254-.711-.374s-.5-.242-.75-.357c-.236-.107-.472-.21-.712-.308-.085-.035-.17-.071-.255-.1-.182-.072-.363-.141-.546-.209-.156-.058-.312-.113-.467-.167l-.243-.08q-.78-.26-1.579-.459c-.236-.059-.473-.114-.711-.165q-.773-.169-1.559-.28c-.045-.008-.092-.014-.137-.019-.236-.034-.472-.061-.71-.085-.093-.011-.186-.02-.281-.028h-.069a.273.273,0,0,0-.053-.011h-.138c-.3-.032-.649-.053-.94-.066-.237-.01-.474-.015-.711-.015q-.845-.007-1.7.056c-.089.006-.177.013-.267.021h-.092l-.037.011h-.087a20.378,20.378,0,0,0-2.227.332c-.238.046-.474.1-.711.154a21.952,21.952,0,0,0-3.966,1.331c-.238.1-.476.215-.711.331-.042.019-.082.04-.124.061q-.443.217-.879.458a22.191,22.191,0,0,0-5.344,4.1l-.114.12-.038.04v0a22.114,22.114,0,0,0-4.342,6.776l0,.011a22.3,22.3,0,0,0-1.6,6.941,22.1,22.1,0,0,0,.641,6.951c.076.3.159.6.251.9l.536.093q.768.133,1.534.247a.113.113,0,0,0,.033,0h0l.022,0c.037.006.074.013.112.018.135.021.271.042.406.059.053.01.107.018.161.022l.2.029q.3.044.589.082s0,0,.006,0q1.026.137,2.049.247c.191.022.384.043.575.063.12.013.241.024.36.035.289.029.578.055.865.079.122.011.242.023.365.032l.17.015c.191.016.384.03.575.043l.109.008c.421.032.843.058,1.262.082.191.011.384.021.575.029.149.01.3.016.448.023.029,0,.056,0,.085,0,.249.011.5.022.745.029.193.006.384.013.575.016.217.008.434.013.65.016.191,0,.384.006.575.01s.4,0,.607,0,.384,0,.575,0c.106,0,.21,0,.315,0s.233,0,.348,0c.076,0,.151,0,.226,0s.149,0,.225,0c.106,0,.212,0,.318-.006.027,0,.053,0,.079,0l.162,0,.23-.006q2.233-.06,4.43-.244h0q2.532-.207,5.01-.577,2.681-.4,5.3-.975l.088-.019a.108.108,0,0,1-.006.022l1.639-.4c.228-.054.456-.111.683-.168q3.23-.819,6.336-1.9.521-.181,1.036-.368l.257-.095q.966-.352,1.915-.732A22.086,22.086,0,0,0,1473.124,1047.88Z" transform="translate(-1431.471 -1035.45)" fill="#cdd1d6"/>
      <g id="Group_10743" data-name="Group 10743" transform="translate(2.094 3.144)">
        <path id="Path_6656" data-name="Path 6656" d="M1480.514,1058.544a20.1,20.1,0,0,0-5.225-6.15c-.194-.153-.39-.3-.589-.445-.091-.067-.185-.133-.278-.2-.233-.166-.471-.324-.71-.477-.128-.082-.257-.162-.387-.241q-.352-.215-.712-.413t-.75-.4c-.236-.119-.472-.231-.712-.339q-.4-.181-.8-.34c-.234-.1-.472-.186-.71-.271-.026-.01-.05-.019-.075-.027q-.516-.183-1.041-.337c-.154-.047-.308-.09-.463-.132-.236-.064-.472-.124-.711-.178q-.841-.2-1.7-.32c-.236-.034-.472-.062-.71-.088-.071-.008-.143-.016-.215-.022-.149-.014-.3-.027-.449-.039h0q-.751-.058-1.508-.058c-.238,0-.476.005-.712.013a19.98,19.98,0,0,0-3.711.477c-.238.053-.476.111-.711.175a20.188,20.188,0,0,0-3.966,1.508c-.212.108-.422.218-.633.334-.026.014-.053.029-.079.045a20.19,20.19,0,0,0-3.08,2.1c-.066.051-.13.1-.194.161-.209.175-.412.356-.613.541-.244.223-.48.451-.711.688a19.935,19.935,0,0,0-3.862,5.548.017.017,0,0,0,0,.011.356.356,0,0,0-.024.052,20.148,20.148,0,0,0-1.074,2.847v.042a.251.251,0,0,0-.029.053,18.746,18.746,0,0,0-.686,3.292v.151c-.019.167-.035.336-.05.5q-.075.857-.074,1.713a19.915,19.915,0,0,0,.644,5.029c.018.071.037.14.056.209.114.426.244.846.387,1.265.135.021.271.042.406.06.053.01.107.018.161.022l.2.029c.2.029.394.056.59.082-.074-.2-.146-.393-.212-.591-.1-.285-.191-.575-.276-.865s-.161-.507-.231-.8v-.076a18.8,18.8,0,0,1-.435-6.076,19.213,19.213,0,0,1,.682-3.61q.217-.747.489-1.465v0a18.566,18.566,0,0,1,.822-1.863.016.016,0,0,1,.005-.011,18.676,18.676,0,0,1,2.518-3.766c.228-.267.464-.527.711-.781a18.552,18.552,0,0,1,2.569-2.23h0c.075-.055.149-.109.226-.161h.016c.354-.249.7-.485,1.074-.708.217-.133.439-.26.662-.384.018-.01.034-.02.052-.027a18.8,18.8,0,0,1,3.965-1.62c.236-.068.474-.129.711-.187a18.793,18.793,0,0,1,3.713-.507q.352-.014.7-.014h.008c.215,0,.432,0,.647.011h0c.22.008.442.019.662.035.289.019.578.047.864.079q.356.041.708.1c.57.087,1.137.2,1.7.337.137.034.273.069.408.106.1.027.2.056.3.085.252.072.5.151.751.233q.417.14.827.3c.239.092.475.189.711.289q.4.177.8.369.359.176.712.366.38.2.748.427c.239.143.477.294.711.449.13.085.258.174.387.263.084.058.169.117.251.178h0a19.02,19.02,0,0,1,7.591,18.562q.52-.181,1.036-.368l.257-.095A20.084,20.084,0,0,0,1480.514,1058.544Z" transform="translate(-1442.557 -1048.076)" fill="#505d6f"/>
      </g>
      <g id="Group_10744" data-name="Group 10744" transform="translate(13.011 8.769)">
        <path id="Path_6657" data-name="Path 6657" d="M1509.084,1099.379a4.836,4.836,0,0,1-.987-1.606l-3.642,1.477c0,.215,0,.431.016.646.027,0,.053,0,.079,0,.054,0,.108,0,.162,0l.23-.006q2.233-.06,4.43-.244C1509.274,1099.56,1509.178,1099.474,1509.084,1099.379Zm0,0a4.836,4.836,0,0,1-.987-1.606l-3.642,1.477c0,.215,0,.431.016.646.027,0,.053,0,.079,0,.054,0,.108,0,.162,0l.23-.006q2.233-.06,4.43-.244C1509.274,1099.56,1509.178,1099.474,1509.084,1099.379Zm0,0a4.836,4.836,0,0,1-.987-1.606l-3.642,1.477c0,.215,0,.431.016.646.027,0,.053,0,.079,0,.054,0,.108,0,.162,0l.23-.006q2.233-.06,4.43-.244C1509.274,1099.56,1509.178,1099.474,1509.084,1099.379Zm0,0a4.836,4.836,0,0,1-.987-1.606l-3.642,1.477c0,.215,0,.431.016.646.027,0,.053,0,.079,0,.054,0,.108,0,.162,0l.23-.006q2.233-.06,4.43-.244C1509.274,1099.56,1509.178,1099.474,1509.084,1099.379Zm0,0a4.836,4.836,0,0,1-.987-1.606l-3.642,1.477c0,.215,0,.431.016.646.027,0,.053,0,.079,0,.054,0,.108,0,.162,0l.23-.006q2.233-.06,4.43-.244C1509.274,1099.56,1509.178,1099.474,1509.084,1099.379Zm0,0a4.836,4.836,0,0,1-.987-1.606l-3.642,1.477c0,.215,0,.431.016.646.027,0,.053,0,.079,0,.054,0,.108,0,.162,0l.23-.006q2.233-.06,4.43-.244C1509.274,1099.56,1509.178,1099.474,1509.084,1099.379Zm10.7-3.944a6.922,6.922,0,0,0-.334-1.045,8.052,8.052,0,0,0-.376-.8,6.537,6.537,0,0,0-.389-.623.432.432,0,0,0-.032-.043v0a4.919,4.919,0,0,0-.679-.768l-.008-.008a6.1,6.1,0,0,0-.74-.578,6.475,6.475,0,0,0-.71-.4,6.163,6.163,0,0,0-.67-.273c-.043-.014-.088-.031-.133-.043-.071-.024-.141-.047-.214-.068h0l-.079-.021a10.329,10.329,0,0,0-2.174-.368l-.09-.006c-.2-.013-.41-.022-.622-.032q-1.224-.048-2.613-.011-.6.02-1.1.005c-.255-.007-.493-.021-.711-.04l-.039,0a4.618,4.618,0,0,1-1.3-.284,2.3,2.3,0,0,1-.867-.588,3.1,3.1,0,0,1-.552-.91c-.015-.037-.029-.074-.042-.111a3.394,3.394,0,0,1-.208-.957,2.319,2.319,0,0,1,.159-1,2.461,2.461,0,0,1,.619-.877,2.992,2.992,0,0,1,.536-.4,4.4,4.4,0,0,1,.6-.294,3.316,3.316,0,0,1,1.1-.254h0a2.636,2.636,0,0,1,.711.063,2.715,2.715,0,0,1,.612.215,4.121,4.121,0,0,1,1.834,2.3l1.264-.512.712-.289,2.174-.882.372-.151c-.116-.284-.239-.557-.371-.816v-.076c-.129-.241-.265-.414-.409-.639a.03.03,0,0,0-.008-.011c-.04-.064-.082-.127-.124-.188a7.136,7.136,0,0,0-.565-.727c-.061-.068-.119-.131-.185-.2v0a6.9,6.9,0,0,0-.71-.647,5.969,5.969,0,0,0-.8-.538c-.1-.06-.205-.114-.31-.166-.132-.064-.266-.124-.4-.178a6.484,6.484,0,0,0-1.012-.315c-.186-.042-.374-.074-.567-.1-.148-.021-.3-.035-.448-.047-.055,0-.108-.006-.162-.008-.034,0-.068,0-.1-.007a8.172,8.172,0,0,0-1.694.122q-.352.06-.712.155c-.021,0-.04.01-.061.014l-.152-.377-.719-1.771-.408-1.005-.832.337-.711.287-.962.39.96,2.369.067.165.234.578c-.1.053-.2.108-.3.164a9.356,9.356,0,0,0-.895.557h0a8.493,8.493,0,0,0-1.1.914c-.071.071-.14.141-.206.212a.037.037,0,0,0-.011.011,6.859,6.859,0,0,0-1.235,1.8,5.689,5.689,0,0,0-.357.992h0a5.644,5.644,0,0,0-.177,1.288,6.11,6.11,0,0,0,.477,2.431c.061.148.124.292.19.431v0a6.632,6.632,0,0,0,.548.954c.055.08.111.159.17.233a4.744,4.744,0,0,0,.519.58l.063.058a5.643,5.643,0,0,0,.686.538,5.712,5.712,0,0,0,.71.41,5.945,5.945,0,0,0,.721.294,9.166,9.166,0,0,0,1.728.4q.467.065.969.092l.294.014c.231.01.469.018.71.021q1.031.02,2.174-.034l.064,0c.225-.013.441-.021.647-.024a10.587,10.587,0,0,1,1.117.037,5.027,5.027,0,0,1,.577.082,3.9,3.9,0,0,1,.711.2h0a2.42,2.42,0,0,1,.9.615,3.333,3.333,0,0,1,.609,1,.674.674,0,0,0,.062.09v.076a2.734,2.734,0,0,1,.155.907,2.238,2.238,0,0,1-.039.414,2.284,2.284,0,0,1-.2.607,2.746,2.746,0,0,1-.523.718q2.681-.4,5.3-.975l.088-.019q.046-.181.077-.366a5.746,5.746,0,0,0,.085-.837A5.575,5.575,0,0,0,1519.78,1095.435Zm-10.7,3.944a4.836,4.836,0,0,1-.987-1.606l-3.642,1.477c0,.215,0,.431.016.646.027,0,.053,0,.079,0,.054,0,.108,0,.162,0l.23-.006q2.233-.06,4.43-.244C1509.274,1099.56,1509.178,1099.474,1509.084,1099.379Zm0,0a4.836,4.836,0,0,1-.987-1.606l-3.642,1.477c0,.215,0,.431.016.646.027,0,.053,0,.079,0,.054,0,.108,0,.162,0l.23-.006q2.233-.06,4.43-.244C1509.274,1099.56,1509.178,1099.474,1509.084,1099.379Zm0,0a4.836,4.836,0,0,1-.987-1.606l-3.642,1.477c0,.215,0,.431.016.646.027,0,.053,0,.079,0,.054,0,.108,0,.162,0l.23-.006q2.233-.06,4.43-.244C1509.274,1099.56,1509.178,1099.474,1509.084,1099.379Zm0,0a4.836,4.836,0,0,1-.987-1.606l-3.642,1.477c0,.215,0,.431.016.646.027,0,.053,0,.079,0,.054,0,.108,0,.162,0l.23-.006q2.233-.06,4.43-.244C1509.274,1099.56,1509.178,1099.474,1509.084,1099.379Zm0,0a4.836,4.836,0,0,1-.987-1.606l-3.642,1.477c0,.215,0,.431.016.646.027,0,.053,0,.079,0,.054,0,.108,0,.162,0l.23-.006q2.233-.06,4.43-.244C1509.274,1099.56,1509.178,1099.474,1509.084,1099.379Zm0,0a4.836,4.836,0,0,1-.987-1.606l-3.642,1.477c0,.215,0,.431.016.646.027,0,.053,0,.079,0,.054,0,.108,0,.162,0l.23-.006q2.233-.06,4.43-.244C1509.274,1099.56,1509.178,1099.474,1509.084,1099.379Zm0,0a4.836,4.836,0,0,1-.987-1.606l-3.642,1.477-.881.356c.042.1.084.2.128.3.076,0,.151,0,.227,0s.149,0,.225,0c.106,0,.212,0,.318-.006.027,0,.053,0,.079,0,.054,0,.108,0,.162,0l.23-.006q2.233-.06,4.43-.244C1509.274,1099.56,1509.178,1099.474,1509.084,1099.379Z" transform="translate(-1500.342 -1077.853)" fill="#828b98"/>
      </g>
    </g>
    <path id="Path_6658" data-name="Path 6658" d="M1124.393,451.07c-26.553,24.42-59.589,24.373-93.193,10.832h0c-19.667-7.92-40.469-21.664-51.776-39.377-15.292-23.632-9.958-43.96,1.835-69.385,15.652-33.768,40.985-53.786,78.275-49.656,47.846,5.3,78.051,40.1,86.316,86.316C1150.013,413.081,1141.23,435.59,1124.393,451.07Z" transform="translate(-6853.113 -19868.533)" fill="none"/>
    <text id="_" data-name="$" transform="translate(-5995 -19546)" fill="#071932" font-size="16" font-family="Inter-Regular, Inter" letter-spacing="0.004em"><tspan x="0" y="0">$</tspan></text>
    <text id="_2" data-name="" transform="translate(-5903 -19604)" fill="#071932" font-size="16" font-family="Inter-Regular, Inter" letter-spacing="0.004em"><tspan x="0" y="0"></tspan></text>
    <text id="_3" data-name="" transform="translate(-5789 -19646)" fill="#071932" font-size="16" font-family="Inter-Regular, Inter" letter-spacing="0.004em"><tspan x="0" y="0"></tspan></text>
    <text id="_4" data-name="" transform="translate(-5697 -19548)" fill="#071932" font-size="16" font-family="Inter-Regular, Inter" letter-spacing="0.004em"><tspan x="0" y="0"></tspan></text>
    <text id="_5" data-name="" transform="translate(-5564 -19496)" fill="#071932" font-size="16" font-family="Inter-Regular, Inter" letter-spacing="0.004em"><tspan x="0" y="0"></tspan></text>
  </g>
</svg>
