<svg xmlns="http://www.w3.org/2000/svg" width="97" height="97" viewBox="0 0 97 97">
  <g id="our_team_place_holder" data-name="our team place holder" transform="translate(-469 -3720)">
    <circle id="Ellipse_103" data-name="Ellipse 103" cx="48.5" cy="48.5" r="48.5" transform="translate(469 3720)" fill="#e5e7ea"/>
    <path id="Union_28" data-name="Union 28" d="M11049.11,21978.031a13.61,13.61,0,1,0-27.22,0,1.945,1.945,0,1,1-3.891,0,17.5,17.5,0,1,1,35,0,1.945,1.945,0,1,1-3.89,0Zm-25.283-33.285a11.667,11.667,0,1,1,11.667,11.754A11.714,11.714,0,0,1,11023.827,21944.746Zm3.89,0a7.779,7.779,0,1,0,7.777-7.832A7.807,7.807,0,0,0,11027.717,21944.746Z" transform="translate(-10518 -18188)" fill="#c3c7cd"/>
  </g>
</svg>
