<svg xmlns="http://www.w3.org/2000/svg" width="51.002" height="51" viewBox="0 0 51.002 51">
  <g id="pension_funds" data-name="pension funds" transform="translate(-491.999 -2552.998)">
    <path id="Union_20" data-name="Union 20" d="M11053.982,21984c-.343-.264-.69-.523-.679-1.02a1,1,0,0,1,.811-.943.987.987,0,0,1,1.1.566,1.031,1.031,0,0,1-.32,1.2c-.1.084-.265.039-.314.193Zm-6,0a1.505,1.505,0,0,1-.662-1.424c.022-2.873.017-5.748.012-8.623a1.59,1.59,0,0,0-1.6-1.766c-.254,0-.331.066-.353.332a3.5,3.5,0,0,1-3.725,3.4,3.612,3.612,0,0,0-1.429.043c-.425.211-.193.844-.314,1.285a4.032,4.032,0,0,1-4.265,2.947,3.946,3.946,0,0,1-3.542-3.857,1.2,1.2,0,0,0-.817-1.291c-.954-.418-1.858-.949-2.786-1.439-.182-.1-.319-.193-.5.033a.909.909,0,0,1-.767.293c-2.715-.006-5.429,0-8.144-.006a1,1,0,0,1-1.087-.982,1.012,1.012,0,0,1,1.076-1c.729-.012,1.462-.021,2.2.006.32.01.42-.072.42-.408q-.025-4.535,0-9.07a.415.415,0,0,0-.359-.48c-.833-.227-1.66-.463-2.488-.707a1,1,0,0,1-.8-1.268,1.012,1.012,0,0,1,1.363-.641,15.413,15.413,0,0,1,1.672.5,10.147,10.147,0,0,0,3.884.492c.331,0,.656-.006.987,0,.177,0,.358-.01.535-.016a2.513,2.513,0,0,1,1.43.2c.143.076.281-.066.413-.127,1.076-.475,2.152-.949,3.223-1.441a6.586,6.586,0,0,1,2.853-.611c1.406.021,2.819.006,4.286.006a26.8,26.8,0,0,1-1.451-3.521,23.5,23.5,0,0,1-1.114-7.6c.006-.729.4-1.164,1.016-1.16s.987.432.977,1.182a21.373,21.373,0,0,0,2.637,10.7.675.675,0,0,0,.69.408c.992-.016,1.985-.01,2.979-.01.872,0,1.744,0,2.615-.006a6.078,6.078,0,0,1,3.89,1.324q1.746,1.365,3.493,2.736a9.079,9.079,0,0,1,2.427,2.875c.144.27.232.348.524.154a21.126,21.126,0,0,0,9.605-17.971q-.016-4.037.006-8.072c0-.318-.077-.457-.4-.545q-6.844-1.878-13.677-3.791a1.254,1.254,0,0,0-.685,0q-7.225,2-14.444,4.006c-.115.033-.226.066-.336.094a.994.994,0,0,1-1.264-.668.975.975,0,0,1,.744-1.252c1.181-.342,2.367-.662,3.554-.992q5.735-1.591,11.465-3.184a2.21,2.21,0,0,1,1.219-.006q7.392,2.06,14.781,4.109c.827.227,1.031.5,1.031,1.336,0,3.105.062,6.213-.017,9.318a22.711,22.711,0,0,1-10.852,19.492.55.55,0,0,0-.293.68,14.036,14.036,0,0,1,.127,4.215,3.1,3.1,0,0,1-2.163,2.686.645.645,0,0,0-.49.752c.027.932.017,1.859.011,2.791-.006.734-.381,1.164-1,1.158s-.993-.451-.993-1.186c-.006-1.027-.012-2.059,0-3.09a.487.487,0,0,0-.31-.529,3.408,3.408,0,0,1-1.941-3.129c-.006-.43-.006-.861-.045-1.291a3.218,3.218,0,0,0-1.108-2.162c-.585-.52-1.214-.982-1.821-1.479a.716.716,0,0,0-.513-.133q-3.576,0-7.145.006c-.778,0-1.236.391-1.247,1.043-.011.678.458,1.092,1.252,1.1.635.01,1.27-.006,1.9.049a3.168,3.168,0,0,1,2.162,1.1.744.744,0,0,0,.646.275,5.6,5.6,0,0,1,1.445.088,3.547,3.547,0,0,1,2.753,3.615c.017,2.057.006,4.121.006,6.18,0,.826-.028,1.66,0,2.492a1.453,1.453,0,0,1-.656,1.424Zm-13.908-7.691a1.987,1.987,0,0,0,3.972-.094c0-.254-.088-.3-.319-.3-.547.016-1.1.006-1.645.006s-1.1.027-1.645-.006c-.023,0-.046,0-.067,0C11034.1,21975.918,11034.065,21976.051,11034.076,21976.311Zm7.7-2.377a1.581,1.581,0,1,0,.016-3.162c-.259-.006-.519-.006-.771-.006s-.52.006-.772,0a3.068,3.068,0,1,1,.044-6.135c1.473-.01,2.946-.006,4.425-.006h3.321a1.494,1.494,0,0,1,1.01.348c.618.508,1.247.994,1.87,1.49a5.511,5.511,0,0,1,2.02,3.283,10.333,10.333,0,0,1,.121,1.936,1.468,1.468,0,1,0,2.936-.006c0-.666.011-1.328-.006-1.99a7.167,7.167,0,0,0-2.709-5.6c-1.2-.992-2.449-1.941-3.686-2.9a3.919,3.919,0,0,0-2.461-.822q-3.193.009-6.395.006c-2.112,0-4.231.006-6.345-.006a4.613,4.613,0,0,0-1.937.4c-1.252.568-2.51,1.137-3.773,1.682a.538.538,0,0,0-.387.58q.018,3.914,0,7.824a.549.549,0,0,0,.337.578c1.269.652,2.527,1.324,3.79,1.986a4.332,4.332,0,0,0,2.059.514q1.216,0,2.433,0Zm-15.868-1.98c.342.016.4-.105.4-.42-.016-1.439-.011-2.885-.011-4.326,0-1.494,0-2.984.011-4.479.006-.311-.088-.387-.386-.375-.651.021-1.3.01-1.947,0-.193,0-.3.023-.3.26q.007,4.526,0,9.055c0,.225.077.281.286.275.36-.006.723-.014,1.085-.014C11025.339,21971.934,11025.625,21971.938,11025.91,21971.953Zm25.705-16.5v-1.3a6.028,6.028,0,0,1-1.98-.418,3.581,3.581,0,0,1-1.628-1.285,3.762,3.762,0,0,1-.606-2.1h2.378a1.74,1.74,0,0,0,.336.971,1.842,1.842,0,0,0,.806.59,2.923,2.923,0,0,0,.7.168v-2.992l-.739-.187a5.359,5.359,0,0,1-2.323-1.115,2.612,2.612,0,0,1-.85-2.053,3.061,3.061,0,0,1,.568-1.848,3.746,3.746,0,0,1,1.567-1.23,5.265,5.265,0,0,1,1.776-.428v-1.316h.933v1.311a5.111,5.111,0,0,1,1.831.434,3.531,3.531,0,0,1,1.507,1.23,3.264,3.264,0,0,1,.557,1.832h-2.355a1.445,1.445,0,0,0-.585-1.07,2.047,2.047,0,0,0-.954-.354v2.83l.568.139a7.214,7.214,0,0,1,1.4.451,4.458,4.458,0,0,1,1.1.7,2.927,2.927,0,0,1,.723.977,3.165,3.165,0,0,1,.265,1.291,3.218,3.218,0,0,1-.54,1.848,3.508,3.508,0,0,1-1.545,1.209,5.793,5.793,0,0,1-1.97.418v1.3Zm.933-3.385a2.6,2.6,0,0,0,.6-.15,1.593,1.593,0,0,0,.717-.508,1.154,1.154,0,0,0,.26-.74.974.974,0,0,0-.231-.662,1.79,1.79,0,0,0-.668-.451,5.815,5.815,0,0,0-.673-.234Zm-1.468-7.643a1.513,1.513,0,0,0-.635.463,1.124,1.124,0,0,0-.215.674.9.9,0,0,0,.132.545,1.257,1.257,0,0,0,.4.4,2.8,2.8,0,0,0,.591.291c.086.029.175.059.265.086v-2.592A2.125,2.125,0,0,0,11051.08,21944.428Zm-14.946-1.865a.974.974,0,0,1,.987-.977.982.982,0,0,1,.044,1.963.163.163,0,0,1-.031,0A.986.986,0,0,1,11036.134,21942.563Z" transform="translate(-10526 -19380.004)" fill="#071932"/>
    <circle id="Ellipse_104" data-name="Ellipse 104" cx="12" cy="12" r="12" transform="translate(492 2553)" fill="#071932" opacity="0.1"/>
  </g>
</svg>
