<svg xmlns="http://www.w3.org/2000/svg" width="64.223" height="70.2" viewBox="0 0 64.223 70.2">
  <g id="Sales_Trading" data-name="Sales &amp; Trading" transform="translate(-400.877 -1349.9)">
    <circle id="Ellipse_61" data-name="Ellipse 61" cx="12" cy="12" r="12" transform="translate(401 1350)" fill="#071932" opacity="0.1"/>
    <path id="Union_6" data-name="Union 6" d="M-6036.746,70c-.668-.335-1.426-.444-2.079-.827a6.392,6.392,0,0,1-3.021-3.909c-.45-1.6-.854-3.207-1.264-4.815-.2-.788.053-1.328.659-1.5s1.141.21,1.359,1.02c.4,1.47.778,2.945,1.163,4.419a4.36,4.36,0,0,0,5.592,3.368c1.928-.437,3.854-.877,5.784-1.3a4.576,4.576,0,0,0,3.378-6.107c-2.055-5.42-4.124-10.835-6.153-16.264-.206-.55-.433-.587-.928-.443-2.557.743-5.124,1.454-7.685,2.181a4.433,4.433,0,0,0-3.346,5.776c.309,1.188.623,2.375.923,3.565a1.057,1.057,0,0,1-.693,1.416,1.064,1.064,0,0,1-1.3-.9c-.394-1.541-.884-3.057-1.146-4.632a6.375,6.375,0,0,1,3.813-6.751,74.459,74.459,0,0,1,7.726-2.268,24.825,24.825,0,0,0,5.577-2.292.78.78,0,0,0,.46-.8q-.023-4.271,0-8.543a4.027,4.027,0,0,1,3.215-4.271,11.826,11.826,0,0,1,4.736-.008,4.077,4.077,0,0,1,3.267,4.244c.014,1.041,0,2.082,0,3.236.609-.32,1.125-.6,1.651-.862.34-.168.229-.466.23-.719.007-3.144.013-6.287,0-9.431a4.767,4.767,0,0,1,1.9-4.112,3.836,3.836,0,0,1,1.472-.72,9.215,9.215,0,0,1,4.776.085,4.671,4.671,0,0,1,3.094,4.763q.006,10.149,0,20.3c0,.893,0,.893.922.739.068-.011.136-.023.205-.028.569-.047.762-.3.761-.908q-.035-14.966-.02-29.933a4.858,4.858,0,0,1,1.853-4.138,3.721,3.721,0,0,1,1.465-.733,9.387,9.387,0,0,1,4.91.089,4.551,4.551,0,0,1,3,4.4c.032.91.02,1.823,0,2.733-.015.793-.37,1.2-1.009,1.209-.661.011-1.038-.413-1.054-1.236-.017-.865.009-1.731-.008-2.6a2.587,2.587,0,0,0-2.865-2.772c-.576,0-1.153-.015-1.729.01a2.513,2.513,0,0,0-2.417,2.133,6.074,6.074,0,0,0-.065.952q0,14.522,0,29.045c0,.767.012.785.7.389a64.445,64.445,0,0,0,6.109-4.217c.331-.245.269-.548.269-.856q0-8.509,0-17.017a5.481,5.481,0,0,1,.049-.816.925.925,0,0,1,1.017-.825.913.913,0,0,1,.956.817,5.694,5.694,0,0,1,.047.816q0,7.723,0,15.445c0,.732,0,.73.639.371,4.439-2.5,7.9.96,7.848,4.291a4.584,4.584,0,0,1-1.818,3.541c-3.773,3.1-7.574,6.168-11.373,9.237-2.059,1.663-4.547,2.3-7.065,2.9-6.661,1.582-13.31,3.212-19.968,4.8-.484.116-.6.3-.549.778a6.174,6.174,0,0,1-4.641,6.772,52.793,52.793,0,0,1-7.123,1.6c-.05.006-.09.08-.134.122Zm24.331-36.337q-8.346,4.373-16.692,8.743c-.441.23-.505.421-.33.88q2.889,7.547,5.725,15.114c.151.4.292.538.778.418,6.536-1.606,13.069-3.227,19.628-4.742a18.113,18.113,0,0,0,8.228-3.725c3.125-2.725,6.429-5.249,9.636-7.883a2.928,2.928,0,0,0,1.264-2.981,2.809,2.809,0,0,0-1.96-2.187,3.018,3.018,0,0,0-2.8.5c-2.687,1.879-5.389,3.737-8.075,5.617a13.121,13.121,0,0,1-5.963,2.345,32.691,32.691,0,0,1-4.767.066c-1.566,0-3.134.029-4.7-.011a2.041,2.041,0,0,1-1.945-1.488,2.064,2.064,0,0,1,.526-2.324c.534-.5,1.106-.964,1.688-1.409a8.124,8.124,0,0,0,3.031-4.818,2.025,2.025,0,0,0-1.564-2.488,1.665,1.665,0,0,0-.4-.048A2.847,2.847,0,0,0-6012.415,33.663Zm6.1,10.171c.511.009.663-.12.659-.641-.024-3.482-.013-6.964-.013-10.447q0-4.268,0-8.535c0-.683.03-1.368-.012-2.048a2.608,2.608,0,0,0-2.725-2.589c-.414-.01-.829,0-1.243,0-2.1,0-3.094.976-3.1,3.042,0,2.731.01,5.462-.01,8.194,0,.518.039.683.655.53a4.056,4.056,0,0,1,5.045,4.578,9.684,9.684,0,0,1-3.6,6.1c-.452.352-.9.708-1.337,1.079-.2.167-.583.285-.471.584.065.174.3.158.51.142.063,0,.125-.009.18-.009q.9,0,1.809,0h.706C-6008.278,43.814-6007.3,43.817-6006.316,43.834Zm-17.431-15.806a2.014,2.014,0,0,0-2.09,2.013c-.035,2.731-.011,5.464-.011,8.344,2.348-1.233,4.593-2.414,6.842-3.588a.414.414,0,0,0,.22-.446c0-1.412.029-2.826-.016-4.237a2.093,2.093,0,0,0-2.18-2.09q-.688-.013-1.376-.014T-6023.747,28.028Zm-9.363,37.354a4.046,4.046,0,0,1-4.062-4.032,4.09,4.09,0,0,1,4.084-4.035,4.122,4.122,0,0,1,4.077,4.055,4.077,4.077,0,0,1-4.085,4.012Zm-.008-6.014a2.008,2.008,0,0,0-1.979,1.959,1.974,1.974,0,0,0,1.986,2,1.994,1.994,0,0,0,2.024-1.976,2.035,2.035,0,0,0-2.009-1.987Zm-10.124-26.251a3.149,3.149,0,0,1-2.077-5.071,6.875,6.875,0,0,1,.553-.609q8.009-7.981,16.02-15.958c1.521-1.515,2.67-1.693,4.584-.718.858.437,1.724.858,2.571,1.315a.515.515,0,0,0,.717-.077c1.931-1.859,3.874-3.7,5.907-5.644-.417-.039-.711-.042-1-.1a2.916,2.916,0,0,1-2.52-3.288,3.084,3.084,0,0,1,2.939-2.92q4.422-.092,8.848,0a2.831,2.831,0,0,1,2.85,2.927q.062,4.3,0,8.609a3.081,3.081,0,0,1-2.874,2.976,2.885,2.885,0,0,1-3.241-2.239,7.013,7.013,0,0,1-.263-1.7c-.239.221-.417.382-.591.548q-3.636,3.459-7.273,6.917a3.3,3.3,0,0,1-4.376.645c-.818-.414-1.654-.8-2.442-1.263a.712.712,0,0,0-1.037.168q-7.144,7.143-14.312,14.263a3.544,3.544,0,0,1-2.523,1.251A3.163,3.163,0,0,1-6043.242,33.117Zm16.046-20.266L-6043.218,28.8a4.612,4.612,0,0,0-.424.448,1.082,1.082,0,0,0,.078,1.539,1.12,1.12,0,0,0,1.549-.057c.17-.153.326-.321.489-.483q7.4-7.37,14.806-14.74c.718-.715.99-.759,1.879-.308,1.084.548,2.164,1.1,3.247,1.655,1.063.542,1.258.518,2.117-.3q4.709-4.475,9.414-8.954a1.11,1.11,0,0,1,1.3-.362,1.111,1.111,0,0,1,.648,1.172q-.013,1.4,0,2.8c.008.807.425,1.3,1.088,1.315.686.014,1.124-.5,1.128-1.344.007-1.321,0-2.642,0-3.963,0-1.344.01-2.687,0-4.031-.008-.8-.329-1.119-1.139-1.122q-4.044-.015-8.088,0c-.794,0-1.3.472-1.276,1.131.02.641.5,1.049,1.272,1.061.83.013,1.659.01,2.489,0a1.153,1.153,0,0,1,1.241.662c.24.567-.058.951-.442,1.317q-4.11,3.907-8.211,7.824a1.289,1.289,0,0,1-1.678.245c-1.154-.612-2.323-1.2-3.488-1.786a2.369,2.369,0,0,0-.952-.345C-6026.487,12.18-6026.731,12.389-6027.2,12.851Z" transform="translate(6447 1350)" fill="#071932" stroke="#071932" stroke-miterlimit="10" stroke-width="0.2"/>
  </g>
</svg>
