<svg xmlns="http://www.w3.org/2000/svg" width="43.961" height="51.398" viewBox="0 0 43.961 51.398">
  <g id="client_confidentiality" data-name="client confidentiality" transform="translate(-419.799 -3226.799)">
    <circle id="Ellipse_102" data-name="Ellipse 102" cx="12" cy="12" r="12" transform="translate(420 3227)" fill="#071932" opacity="0.1"/>
    <path id="Union_33" data-name="Union 33" d="M11042.957,21983.988a2.748,2.748,0,0,1-2.745-2.4c-.053-.439-.217-.471-.579-.469-2.789.014-5.58.008-8.371.006a3.514,3.514,0,0,1-.5-.014.687.687,0,0,1-.62-.674.7.7,0,0,1,.476-.738,1.648,1.648,0,0,1,.64-.07c2.79,0,5.58-.012,8.371.014.476,0,.556-.146.552-.578-.021-2.24-.012-4.48-.01-6.721a2.768,2.768,0,0,1,2.646-3.016c.259-.031.332-.119.328-.367-.013-.6-.019-1.2.008-1.793a3.417,3.417,0,0,1,3.3-3.281c1.527-.039,3.057-.035,4.584,0a3.406,3.406,0,0,1,3.31,3.166c.046.629.035,1.262.023,1.893-.006.277.087.359.362.387a2.742,2.742,0,0,1,2.6,2.852c.011,2.324.014,4.648-.008,6.971,0,.408.122.518.5.48.175-.016.352-.014.528-.012.156,0,.313,0,.467-.006a1.285,1.285,0,0,0,1.2-1.127,3.905,3.905,0,0,0,.031-.545q0-9.735,0-19.469a2.213,2.213,0,0,0-.251-1.2,1.859,1.859,0,0,0-1.7-.928c-4.418.008-8.835.023-13.253.023a1.03,1.03,0,0,0-1.05.813c-.36,1.064-.73,2.129-1.043,3.207a2.445,2.445,0,0,1-2.3,2,11.893,11.893,0,0,1-1.491.08h-17.737c-1.269,0-1.729.463-1.729,1.74q0,6.847,0,13.693c0,1.281.45,1.727,1.74,1.727h1.794q1.793,0,3.587,0a2.176,2.176,0,0,1,.542.047.73.73,0,0,1-.122,1.438c-.265.021-.532.008-.8.008-1.743,0-3.487.006-5.231,0a2.819,2.819,0,0,1-3.007-2.982q-.022-7.1,0-14.191a2.779,2.779,0,0,1,2.229-2.9c.326-.092.3-.277.3-.506q0-7.644,0-15.287c0-3.254.033-6.506-.018-9.76a2.342,2.342,0,0,1,1.327-2.508h31.593a2.016,2.016,0,0,1,1.436,2.252c-.041.629,0,1.262-.011,1.893,0,.227.063.307.307.326a1.667,1.667,0,0,1,1.74,1.9c0,4.979.009,9.959-.012,14.938,0,.477.145.576.577.549a4.866,4.866,0,0,1,1.727.148,3.33,3.33,0,0,1,2.331,2.875c.017.166.028.332.028.5q0,9.858,0,19.717a2.86,2.86,0,0,1-2.22,2.969,6.76,6.76,0,0,1-1.59.059c-.27,0-.4.029-.434.359a2.752,2.752,0,0,1-2.748,2.5q-2.817.009-5.635.01Q11045.945,21984,11042.957,21983.988Zm.183-13.172a1.312,1.312,0,0,0-1.469,1.475q-.006,4.354,0,8.707a1.335,1.335,0,0,0,1.5,1.5q5.575.006,11.152,0a1.34,1.34,0,0,0,1.518-1.529q0-4.3,0-8.607c0-1.074-.471-1.543-1.551-1.545q-2.763-.006-5.525,0h-3.334C11044.668,21970.813,11043.9,21970.813,11043.14,21970.816Zm3.4-5.434a1.922,1.922,0,0,0-1.9,1.91c-.019.547.012,1.1-.013,1.643-.015.309.087.393.393.389,1.244-.016,2.488-.006,3.732-.006s2.488-.01,3.732.006c.3,0,.415-.072.4-.387-.025-.578.014-1.162-.025-1.74a1.911,1.911,0,0,0-1.891-1.814c-.738-.012-1.477-.02-2.215-.02S11047.281,21965.371,11046.544,21965.383Zm-21.921-4.4c.453.025.572-.1.571-.562q-.023-10.43-.01-20.861a5.107,5.107,0,0,1,.038-.744,1.539,1.539,0,0,1,1.4-1.334c1.891-.023,3.78-.02,5.671-.02q1.075,0,2.151,0a.411.411,0,0,1,.049,0,.688.688,0,0,1,.608.627.7.7,0,0,1-.417.771,1.405,1.405,0,0,1-.636.088q-.981,0-1.962,0c-1.6,0-3.209,0-4.813-.014-.479-.006-.606.125-.605.6q.023,10.453,0,20.91c0,.4.076.529.5.527,3.936-.016,7.871-.01,11.808-.01a9.6,9.6,0,0,0,1.439-.09.894.894,0,0,0,.832-.672c.269-1.078.668-2.113,1.013-3.166.551-1.676,1.232-2.162,2.993-2.166,3.222-.006,6.443-.02,9.665-.01.393,0,.5-.1.494-.494q-.021-7.444,0-14.887c0-.455-.144-.547-.568-.545q-8.271.021-16.54.008a2.663,2.663,0,0,1-.545-.027.7.7,0,0,1-.609-.783.677.677,0,0,1,.711-.68c.149-.008.3,0,.448,0,4.849,0,9.7-.006,14.547.01.425,0,.533-.121.51-.525-.034-.594-.007-1.2-.009-1.791,0-.635-.03-.662-.686-.662h-29.941c-.7,0-.708.01-.708.688v10.156q0,7.594-.009,15.188c0,.369.082.48.461.463s.735-.027,1.1-.027C11023.933,21960.959,11024.278,21960.969,11024.623,21960.986Zm23.393,19.014a1.752,1.752,0,0,1,0-.248,1.469,1.469,0,0,0-.8-1.715,2.308,2.308,0,0,1-.879-2.809,2.559,2.559,0,0,1,4.9.178,2.508,2.508,0,0,1-1.291,2.891.657.657,0,0,0-.441.752,6.759,6.759,0,0,1,0,.943c-.025.52-.3.814-.746.818h-.007C11048.314,21980.811,11048.042,21980.514,11048.016,21980Zm.726-5.008a1.07,1.07,0,0,0-1.052,1.088,1.069,1.069,0,1,0,1.067-1.088Zm-13.854-19.687a10.316,10.316,0,0,1-4.706-6.113,11.411,11.411,0,0,1-.329-3.354c.036-.762.293-1.02,1.063-1.094a5.482,5.482,0,0,0,3.813-1.8.719.719,0,0,1,1.2,0,5.58,5.58,0,0,0,3.862,1.809c.729.066.984.346,1.006,1.086.009.264,0,.531,0,.795a9.944,9.944,0,0,1-4.937,8.623,1,1,0,0,1-.547.189A.76.76,0,0,1,11034.887,21955.3Zm.191-10.631a6.432,6.432,0,0,1-3.37,1.463c-.3.041-.385.137-.38.432a8.43,8.43,0,0,0,3.78,7.074.325.325,0,0,0,.463-.01,8.462,8.462,0,0,0,3.74-6.926c.022-.473.024-.482-.733-.633a6.323,6.323,0,0,1-3.017-1.426.356.356,0,0,0-.226-.111A.431.431,0,0,0,11035.078,21944.674Zm12.953,6.77c-1.029,0-2.059,0-3.088,0-.587,0-.9-.283-.889-.764.012-.453.33-.727.884-.729q3.086-.009,6.174,0c.559,0,.917.32.9.773s-.347.715-.9.719q-.661,0-1.322,0Zm-3.115-3.615c-.544,0-.861-.295-.861-.752s.31-.736.862-.738c1.046-.006,2.091,0,3.137,0,1.028,0,2.058,0,3.087,0,.536,0,.876.3.875.738a.78.78,0,0,1-.876.752q-1.556.006-3.112,0T11044.916,21947.828Zm3.089-3.629c-1.013,0-2.024.006-3.036,0-.606-.006-.913-.266-.914-.744s.309-.75.908-.75q3.062-.009,6.124,0c.575,0,.927.293.929.744s-.347.744-.924.75q-.628,0-1.258,0Z" transform="translate(-10598 -18706)" fill="#071932" stroke="#071932" stroke-miterlimit="10" stroke-width="0.4"/>
  </g>
</svg>
