<svg xmlns="http://www.w3.org/2000/svg" width="51.001" height="45" viewBox="0 0 51.001 45">
  <g id="conflicts_of_interest" data-name="conflicts of interest" transform="translate(-985 -2952)">
    <circle id="Ellipse_100" data-name="Ellipse 100" cx="12" cy="12" r="12" transform="translate(985 2952)" fill="#071932" opacity="0.1"/>
    <path id="Union_32" data-name="Union 32" d="M11018.314,21963.924a5.774,5.774,0,0,0-.313-1.566v-3.574a3.223,3.223,0,0,0,.267-1.221c1.577-7.348,6.011-12.012,13.275-13.934a16.021,16.021,0,0,1,8.414.137.691.691,0,0,0,.806-.221q4.66-5,9.35-9.977c.713-.758,1.2-.76,1.911,0q8.235,8.769,16.469,17.545c.067.072.135.146.2.221a.958.958,0,0,1,.221,1.094.979.979,0,0,1-.988.607c-.831,0-1.661,0-2.492,0-1.857,0-3.718,0-5.574-.012-.435,0-.548.094-.543.535.023,2.648.012,5.3.011,7.945a1.718,1.718,0,0,1-.068.637.987.987,0,0,1-1.916-.221,3.4,3.4,0,0,1-.008-.346q0-4.646,0-9.289c0-.885.348-1.236,1.231-1.236q3.261-.006,6.522,0h.575c-.184-.211-.312-.371-.452-.518q-6.891-7.345-13.773-14.689c-.307-.328-.443-.32-.742,0q-3.929,4.225-7.888,8.416c-.1.107-.2.219-.311.342,5.629,2.746,9.222,7.09,10.192,13.287s-1.095,11.449-5.644,15.758c.047.131.151.119.248.107a.44.44,0,0,1,.086-.008c3.187,0,6.373,0,9.561.012.354,0,.4-.129.4-.428-.016-.83-.012-1.656,0-2.484a.971.971,0,0,1,.988-1.064.981.981,0,0,1,1,1.063q.018,1.913,0,3.824a1,1,0,0,1-1.014,1.064c-.148.014-.3.006-.448.006q-6.623,0-13.245-.006a2.13,2.13,0,0,0-1.037.258,16.989,16.989,0,0,1-8.029,2.012A17.521,17.521,0,0,1,11018.314,21963.924Zm17.129-18.762a15.486,15.486,0,1,0,.025,0Zm0,28.844a13.482,13.482,0,1,1,.035,0Zm-.007-24.865a11.495,11.495,0,1,0,.036,0Zm-4.578,18.967a2.98,2.98,0,1,1,.034-5.959,2.98,2.98,0,1,1,0,5.959Zm.016-3.973a1.008,1.008,0,0,0-1,1.016,1.039,1.039,0,0,0,1,.973,1.008,1.008,0,0,0,1.015-1,.984.984,0,0,0-1.006-.986Zm27.437,3.15a1,1,0,0,1-.969-1.037.97.97,0,0,1,1.006-.939.99.99,0,0,1,.981.977,1.023,1.023,0,0,1-1,1Zm-18.273-.775q-5.263-5.215-10.524-10.434a.981.981,0,0,1-.075-1.457,1.009,1.009,0,0,1,1.532.1q4.295,4.251,8.583,8.508c.646.643,1.3,1.281,1.937,1.932a.922.922,0,0,1,.2,1.1.979.979,0,0,1-.983.584l-.023,0A.981.981,0,0,1,11040.033,21966.51Zm0-7.5a3,3,0,1,1,.007,0Zm-1.011-2.963a1.01,1.01,0,0,0,1.035.979.981.981,0,0,0,.98-1.021,1,1,0,0,0-1-.967h0A1.033,1.033,0,0,0,11039.027,21956.051Z" transform="translate(-10033 -18981)" fill="#071932"/>
  </g>
</svg>
