<svg xmlns="http://www.w3.org/2000/svg" width="51.198" height="41.197" viewBox="0 0 51.198 41.197">
  <g id="customer_complaints" data-name="customer complaints" transform="translate(-984.901 -3226.902)">
    <circle id="Ellipse_101" data-name="Ellipse 101" cx="12" cy="12" r="12" transform="translate(985 3227)" fill="#071932" opacity="0.1"/>
    <path id="Union_34" data-name="Union 34" d="M11024.561,21973.631a1.4,1.4,0,0,1-.41-1.084c.008-1.166-.008-2.332.01-3.5,0-.322-.077-.432-.414-.424-.465.012-.932.008-1.4.006-.447,0-.895,0-1.341.006a2.746,2.746,0,0,1-2.89-1.9c-.023-.064-.039-.127-.118-.137v-24.881c.151-.086.124-.26.181-.391a2.609,2.609,0,0,1,2.4-1.719c.7-.035,1.394-.023,2.091-.008.277.006.363-.078.372-.365.05-1.557.623-2.1,2.181-2.1.365,0,.73-.012,1.095,0a.749.749,0,0,1,.782.736.734.734,0,0,1-.8.756c-.431.014-.863.02-1.294,0-.337-.016-.482.1-.478.455.014.914.017,1.83,0,2.748-.008.383.159.477.51.477q6.146-.012,12.295,0c.369,0,.494-.133.486-.5-.02-.885-.026-1.768,0-2.65.013-.43-.151-.537-.553-.533-2.339.014-4.68.006-7.019.006-.149,0-.3.006-.447-.008a.7.7,0,0,1-.689-.711.724.724,0,0,1,.684-.773c.247-.023.5-.008.746-.008q3.41,0,6.82,0a1.751,1.751,0,0,1,1.933,1.945c-.006.408.079.537.508.527,1.228-.033,2.456-.018,3.683-.008.262,0,.423,0,.428-.352a1.706,1.706,0,0,1,.555-1.191c.649-.645,1.285-1.3,1.938-1.939a1.805,1.805,0,0,1,2.731.016c.344.336.689.676,1.017,1.027a.524.524,0,0,0,.663.131c1.117-.453,1.179-.451,1.106-1.66-.116-1.939.715-2.76,2.612-2.617.438.033.879.025,1.319.016.241,0,.481-.008.722-.006a1.8,1.8,0,0,1,1.875,1.836c.016.5.018,1,0,1.5a.585.585,0,0,0,.417.643c1.079.436,1.117.482,1.9-.4,1.3-1.469,2.479-1.437,3.735.027.4.465.866.873,1.3,1.311a1.86,1.86,0,0,1,.014,2.889c-.326.332-.648.666-.987.988a.49.49,0,0,0-.127.617c.452,1.143.45,1.205,1.693,1.133,1.856-.111,2.725.7,2.585,2.6-.049.678,0,1.365-.01,2.047a1.821,1.821,0,0,1-1.91,1.908c-.5.006-1,.01-1.493,0a.469.469,0,0,0-.527.35.48.48,0,0,1-.021.045c-.466,1.092-.5,1.135.4,1.947,1.4,1.254,1.458,2.426-.021,3.711-.5.436-.938.941-1.414,1.408a1.812,1.812,0,0,1-2.731-.014c-.344-.336-.688-.676-1.019-1.025a.507.507,0,0,0-.656-.141c-1.121.479-1.124.469-1.126,1.709,0,.3.008.6-.015.9a1.705,1.705,0,0,1-1.3,1.58c-.384.084-.412.26-.409.574.012,1.531.008,3.064,0,4.6a2.676,2.676,0,0,1-2.808,2.875c-2.123.016-4.247.006-6.371,0-.6,0-.919-.264-.925-.732,0-.486.333-.764.955-.766q1.837,0,3.674,0h2.448c1.129,0,1.531-.4,1.532-1.525,0-1.512-.008-3.029.008-4.543,0-.3-.066-.414-.382-.387a9.728,9.728,0,0,1-1.094,0,1.822,1.822,0,0,1-1.836-1.887c-.007-.514-.01-1.031,0-1.547a.506.506,0,0,0-.357-.527c-1.114-.49-1.152-.529-1.983.4-1.224,1.373-2.394,1.469-3.665,0-.446-.512-.962-.965-1.437-1.453a1.822,1.822,0,0,1-.011-2.705q.539-.557,1.092-1.1a.416.416,0,0,0,.109-.574.637.637,0,0,1-.034-.092c-.456-1.078-.46-1.137-1.63-1.064-2.1.129-2.749-.914-2.624-2.623.049-.662,0-1.33.01-2a1.833,1.833,0,0,1,1.937-1.939c.48-.006.963-.01,1.443,0a.52.52,0,0,0,.587-.416,1.214,1.214,0,0,1,.052-.141c.4-1,.392-1-.4-1.742a.649.649,0,0,0-.486-.184c-1.626,0-3.252.014-4.878-.006-.331,0-.4.111-.365.4a3.22,3.22,0,0,1,0,.4,1.772,1.772,0,0,1-1.924,1.92q-5.575.006-11.15,0c-.447,0-.9,0-1.343,0a1.755,1.755,0,0,1-1.853-1.842c-.021-.867-.021-.867-.895-.867-.448,0-.9-.008-1.344,0a1.211,1.211,0,0,0-1.306,1.3c0,.066,0,.133,0,.2q0,11.514,0,23.027c0,1.082.418,1.5,1.511,1.5h1.634q1,0,2,0c.763,0,1.007.252,1.008,1.027,0,1.328,0,2.656,0,4.076.174-.162.291-.264.4-.373,1.432-1.436,2.868-2.869,4.29-4.312a1.311,1.311,0,0,1,1.012-.424q6.123.012,12.245,0a1,1,0,0,1,.863.283.736.736,0,0,1-.438,1.2,3.188,3.188,0,0,1-.547.02c-3.865,0-7.731.008-11.6-.006a1.1,1.1,0,0,0-.864.365q-2.235,2.279-4.5,4.525a1.526,1.526,0,0,1-1.064.484A1.271,1.271,0,0,1,11024.561,21973.631Zm31.353-14.449c1.153.01,1.052.043,1.052-1.055,0-2.141.1-2.293,2.053-3.111a1.841,1.841,0,0,1,2.264.451c.344.336.688.674,1.02,1.023a.4.4,0,0,0,.674,0q.9-.929,1.828-1.838a.4.4,0,0,0,0-.676c-.348-.336-.684-.682-1.021-1.025a2.884,2.884,0,0,1,1.024-4.217,2.017,2.017,0,0,1,.685-.111c.224,0,.448,0,.672,0,.273,0,.547,0,.82.006.364.012.507-.15.5-.508-.012-.684,0-1.367,0-2.049,0-.994,0-.994-1-.994-2.19,0-2.381-.131-3.182-2.16a1.817,1.817,0,0,1,.394-2.068c.344-.361.692-.717,1.057-1.059.293-.271.317-.5.011-.787-.472-.441-.919-.912-1.376-1.371-.814-.818-.7-.838-1.514.014-1.306,1.367-1.714,1.57-3.6.727a1.957,1.957,0,0,1-1.3-1.922c0-.467-.013-.934,0-1.4.013-.381-.131-.543-.525-.531-.662.023-1.327.008-1.99.006-1.106,0-1.019-.092-1.018,1.023,0,2.168-.125,2.354-2.126,3.164a1.82,1.82,0,0,1-2.105-.4c-.357-.348-.714-.7-1.055-1.062-.254-.27-.472-.3-.747-.018q-.88.92-1.795,1.8a.422.422,0,0,0,.008.713c.372.355.74.719,1.091,1.094,1.046,1.125.249,3.795-1.244,4.162a3.612,3.612,0,0,1-.741.07c-.414.01-.831.02-1.244,0-.438-.025-.589.17-.574.594.021.631.01,1.266,0,1.9-.01,1.174-.022,1.063,1.046,1.063,2.167,0,2.325.115,3.14,2.141a1.826,1.826,0,0,1-.4,2.105q-.535.56-1.091,1.1a.407.407,0,0,0-.008.678q.924.908,1.829,1.838c.259.268.472.24.711-.016s.515-.521.772-.779a1.982,1.982,0,0,1,2.788-.533c.151.064.308.119.461.182a1.885,1.885,0,0,1,1.284,1.883c0,.432,0,.865,0,1.3,0,.633.035.666.688.668h1.095l.465,0C11055.759,21959.18,11055.836,21959.18,11055.913,21959.182Zm-27.486,5.928a5.438,5.438,0,1,1,.027,0Zm.007-9.383a3.935,3.935,0,1,0,.028,0Zm-1,6.3c-.6-.592-1.2-1.191-1.792-1.8a.753.753,0,1,1,1.049-1.055c.356.346.715.693,1.052,1.059.188.207.287.172.447-.035.608-.787,1.234-1.561,1.856-2.338a.732.732,0,0,1,.892-.236.683.683,0,0,1,.443.664.885.885,0,0,1-.229.584c-.82,1.023-1.629,2.053-2.452,3.072a.875.875,0,0,1-.652.393A.908.908,0,0,1,11027.433,21962.027Zm7.931-.561a.736.736,0,0,1,.343-1.082,1.264,1.264,0,0,1,.537-.072h11.583a2.535,2.535,0,0,1,.3.006.776.776,0,0,1,.721.756.741.741,0,0,1-.778.734c-1.11.012-2.221,0-3.331,0h-2.685c-1.973,0-3.944,0-5.916,0h-.011A.809.809,0,0,1,11035.363,21961.467Zm.771-4.268a.789.789,0,0,1-.893-.738c-.014-.459.337-.756.907-.758.9,0,1.791,0,2.688,0s1.793,0,2.688,0c.56,0,.87.264.88.725.01.477-.316.77-.895.771q-1.345.006-2.688,0T11036.134,21957.2Zm19.069-3.559a6.769,6.769,0,0,1-6.325-4.344c-.217-.568-.084-1.018.348-1.178q.683-.249,1.045.641a5.3,5.3,0,1,0-.1-3.559c-.03.1-.055.193-.09.285a.743.743,0,1,1-1.414-.443,6.529,6.529,0,0,1,2.046-3.295,6.789,6.789,0,1,1,4.522,11.893Zm-20.068-1.074c-.655-.012-1.028-.529-.787-1.059a.8.8,0,0,1,.822-.443c.861,0,1.723,0,2.583,0q1.866,0,3.733,0c.607,0,.914.262.918.74s-.309.754-.9.76c-1.062.008-2.122,0-3.184,0-.633,0-1.266,0-1.9,0Q11035.777,21952.574,11035.135,21952.566Zm-9.953,0a2.59,2.59,0,0,1-.493-.031.737.737,0,0,1,.034-1.453,3.482,3.482,0,0,1,.5-.02h6.8a3.391,3.391,0,0,1,.446.016.739.739,0,0,1,.013,1.469,2.812,2.812,0,0,1-.445.02c-1.142,0-2.284,0-3.427,0h-3.428Zm26.656-5.73a3.363,3.363,0,1,1,3.38,3.383h-.013A3.354,3.354,0,0,1,11051.838,21946.84Zm1.494-.023a1.868,1.868,0,1,0,3.736.012,1.87,1.87,0,0,0-1.864-1.863h-.007A1.865,1.865,0,0,0,11053.332,21946.816Zm-28.6,1.1a.738.738,0,0,1-.2-1.412,1.542,1.542,0,0,1,.685-.078q6.416,0,12.831,0c.116,0,.233-.006.349,0a.772.772,0,0,1,.8.779.754.754,0,0,1-.842.717q-3.357.006-6.715,0h-6.465l-.215,0A1.834,1.834,0,0,1,11024.733,21947.92Zm1.642-7.3a.723.723,0,0,1,.148-.789.892.892,0,0,1,.731-.23q1.967,0,3.932,0c1.31,0,2.621,0,3.931,0,.629,0,.958.271.947.762-.011.465-.343.736-.934.738q-2.2,0-4.4,0-1.756,0-3.515,0h0A.793.793,0,0,1,11026.375,21940.615Z" transform="translate(-10033 -18706)" fill="#071932" stroke="#071932" stroke-miterlimit="10" stroke-width="0.2"/>
  </g>
</svg>
