<svg xmlns="http://www.w3.org/2000/svg" width="51.896" height="49.801" viewBox="0 0 51.896 49.801">
  <g id="hegde_funds" data-name="hegde funds" transform="translate(-787 -2552.102)">
    <path id="Union_19" data-name="Union 19" d="M11038.621,21981.953a5.709,5.709,0,0,1-5.04-5.418,1.43,1.43,0,0,1,1.329-1.623,1.414,1.414,0,0,1,1.5,1.514,2.833,2.833,0,0,0,5.664-.1c.014-1.039,0-2.078,0-3.119a1.424,1.424,0,1,1,2.832-.016c.008.57,0,1.139,0,1.709a10.956,10.956,0,0,1-.233,3.031,5.78,5.78,0,0,1-5.4,4.066A5.072,5.072,0,0,1,11038.621,21981.953Zm4.861-12.227a1.3,1.3,0,0,1-1.256-.824,1.206,1.206,0,0,0-.572-.607,3.679,3.679,0,0,1-1.929-3.107,1.405,1.405,0,0,1,1.312-1.576,1.385,1.385,0,0,1,1.509,1.381.931.931,0,0,0,.847.965.873.873,0,0,0,.98-.588.862.862,0,0,0-.293-1.049,12.57,12.57,0,0,0-1.762-1.176,4.8,4.8,0,0,1-2.5-2.975,3.711,3.711,0,0,1,1.815-4.055,1.121,1.121,0,0,0,.584-.6,1.287,1.287,0,0,1,1.295-.846,1.308,1.308,0,0,1,1.276.875.972.972,0,0,0,.493.531,3.667,3.667,0,0,1,1.985,3.133,1.418,1.418,0,1,1-2.825.207c-.076-.658-.447-1.018-1.011-.979a.933.933,0,0,0-.879.932.96.96,0,0,0,.445.785,14.772,14.772,0,0,0,1.772,1.158,4.634,4.634,0,0,1,2.439,3.086c.039.209.057.424.079.6a3.784,3.784,0,0,1-1.978,3.309,1.084,1.084,0,0,0-.533.57,1.3,1.3,0,0,1-1.285.846Zm-9.048-14.578a8.333,8.333,0,0,0-7.143-2.295,16.791,16.791,0,0,0-6.843,2.373,1.565,1.565,0,0,1-1.861.115,1.525,1.525,0,0,1-.5-1.789,27.435,27.435,0,0,1,8.866-14.961,1.44,1.44,0,0,1,1.837-.187,1.42,1.42,0,0,1,.524,1.668,2.215,2.215,0,0,1-.721.838,21.242,21.242,0,0,0-6.635,9.941,3.465,3.465,0,0,0-.077.4l-.074.057.074-.057.063.059a18.4,18.4,0,0,1,5.008-1.254c.444-.031.4-.387.46-.641a28.088,28.088,0,0,1,2.855-7.113,19.647,19.647,0,0,1,7.376-7.594,12.632,12.632,0,0,1,6.768-1.7,26.1,26.1,0,0,1,11.816,3.02,25.189,25.189,0,0,1,11.118,12.67,27.976,27.976,0,0,1,1.593,4.967,1.454,1.454,0,0,1-2.283,1.621,16.986,16.986,0,0,0-6.945-2.432,8.332,8.332,0,0,0-7.144,2.291,1.393,1.393,0,0,1-1.926.162,20.026,20.026,0,0,0-5.569-2.33,8.609,8.609,0,0,0-1.518-.2,1.405,1.405,0,0,1-1.467-1.5q-.016-3.24,0-6.475a1.414,1.414,0,1,1,2.827.01c.012,1.59.014,3.178,0,4.768,0,.395.035.594.522.672a15.59,15.59,0,0,1,5.659,2.063.443.443,0,0,0,.615-.043c2.676-2.232,5.8-2.6,9.114-2.146a19.218,19.218,0,0,1,4.472,1.275c-1.21-5.176-8.333-13.312-11.745-13.432a24.1,24.1,0,0,1,4.958,8.129,1.424,1.424,0,1,1-2.686.91,21.9,21.9,0,0,0-3.49-6.16,14.984,14.984,0,0,0-5.39-4.2,8.011,8.011,0,0,0-7.261.186,16.535,16.535,0,0,0-7.14,7.271,29.563,29.563,0,0,0-2.236,5.543c-.12.387.025.463.35.516a9.321,9.321,0,0,1,4.656,2.117.45.45,0,0,0,.651.029,11.931,11.931,0,0,1,2.091-1.072,1.376,1.376,0,0,1,1.97.686,1.355,1.355,0,0,1-.793,1.879,29.021,29.021,0,0,0-2.97,1.547,1.615,1.615,0,0,1-.826.258A1.39,1.39,0,0,1,11034.435,21955.148Z" transform="translate(-10230.5 -19380.496)" fill="#071932" stroke="#fff" stroke-miterlimit="10" stroke-width="0.8"/>
    <circle id="Ellipse_105" data-name="Ellipse 105" cx="12" cy="12" r="12" transform="translate(787 2553)" fill="#071932" opacity="0.1"/>
  </g>
</svg>
