<svg class="svg-icon" xmlns="http://www.w3.org/2000/svg" width="50" height="50" viewBox="0 0 50 50">
    <path fill="#ffffff" id="e_white" data-name="e white" d="M159.369,123.483c-.541-.017-1.083-.046-1.619-.105a25.064,25.064,0,0,1-20.057-14.23,24.517,24.517,0,0,1-2.037-6.523c-.092-.554-.164-1.11-.222-1.668a24.97,24.97,0,0,1-.088-3.7,24.239,24.239,0,0,1,.645-4.543,25.057,25.057,0,0,1,17.919-18.383,23.64,23.64,0,0,1,3.643-.679,25.4,25.4,0,0,1,2.766-.153,3.609,3.609,0,0,1,3.509,2.8,3.839,3.839,0,0,1,.09.856q0,6.452,0,12.9v12.975a3.6,3.6,0,0,1-2.641,3.519,3.352,3.352,0,0,1-1.279.123,3.6,3.6,0,0,1-3.2-2.837,3.979,3.979,0,0,1-.083-.825q0-10.93,0-21.86c0-.186,0-.186-.187-.164a6.553,6.553,0,0,0-1.4.411,24.358,24.358,0,0,0-4.977,2.434,11.6,11.6,0,0,0-1.382,1.124A27.566,27.566,0,0,0,146.55,87.2a12.606,12.606,0,0,0-1.64,2.372,25.131,25.131,0,0,0-2,4.655,6.4,6.4,0,0,0-.182,1.061c-.053.383-.087.769-.121,1.155a24.882,24.882,0,0,0-.054,3.362c.025.516.077,1.031.129,1.545.04.386.091.77.161,1.15a8.472,8.472,0,0,0,.414,1.3,24.474,24.474,0,0,0,2.387,4.856,10.884,10.884,0,0,0,1.075,1.33,27.718,27.718,0,0,0,2.243,2.233,12.862,12.862,0,0,0,2.425,1.689,25.157,25.157,0,0,0,4.656,2,6.4,6.4,0,0,0,1.061.183c.383.053.77.085,1.155.121a24.829,24.829,0,0,0,2.97.068,22.532,22.532,0,0,0,3.1-.307,7.992,7.992,0,0,0,1.395-.448,24.363,24.363,0,0,0,4.76-2.356,11.3,11.3,0,0,0,1.372-1.114,27.38,27.38,0,0,0,2.407-2.455,12.241,12.241,0,0,0,1.461-2.165,24.562,24.562,0,0,0,2-4.655,6.843,6.843,0,0,0,.193-1.147c.033-.246.062-.493.083-.74.03-.343.038-.688.066-1.03.047-.569.054-1.139.046-1.709-.007-.449-.026-.9-.055-1.348a21.42,21.42,0,0,0-.266-2.322,7.337,7.337,0,0,0-.373-1.178A23.479,23.479,0,0,0,175,88.369a17,17,0,0,0-1.558-1.957,12.08,12.08,0,0,0-1.72-1.634c-.275-.209-.584-.369-.84-.6a3.531,3.531,0,0,1-1.21-2.994,3.568,3.568,0,0,1,2.673-3.193,3.47,3.47,0,0,1,2.7.368,13.685,13.685,0,0,1,2.483,1.931,22.171,22.171,0,0,1,2.576,2.906,28.786,28.786,0,0,1,2.047,3.128,24.9,24.9,0,0,1,2.734,7.564c.132.7.24,1.409.3,2.121.031.357.053.714.077,1.071.042.623.05,1.245.045,1.867,0,.541-.04,1.082-.083,1.621A25.022,25.022,0,0,1,166.216,122.8a23.887,23.887,0,0,1-3.228.557,26.191,26.191,0,0,1-2.727.14Q159.815,123.5,159.369,123.483Z" transform="translate(-135.313 -73.496)"></path>
</svg>