<svg xmlns="http://www.w3.org/2000/svg" width="1958" height="389" viewBox="0 0 1958 389">
  <path id="ebonds_blue" data-name="ebonds blue" d="M1769.846,319.891c-5.7-16.484,7.6-33.6,24.074-37.406,17.1-3.169,29.141,8.876,37.377,24.725,8.87,16.486,16.471,19.021,31.676,19.021,17.74,0,32.308-14.582,32.308-32.967a32.457,32.457,0,0,0-32.308-32.336,94.882,94.882,0,0,1-67.152-27.9c-18.374-17.751-27.876-41.843-27.876-67.2a94.937,94.937,0,0,1,95.028-95.1c44.345,0,84.888,30.432,91.226,65.937,3.168,17.12-6.968,34.237-24.074,37.406-17.106,3.805-31.675-7.608-37.376-23.458-3.8-10.143-14.574-17.117-29.776-17.117a32.335,32.335,0,0,0,0,64.669,94.893,94.893,0,0,1,67.152,27.894A93.514,93.514,0,0,1,1958,293.264c0,52.622-42.447,95.735-95.027,95.735C1817.994,389,1781.882,356.663,1769.846,319.891Zm-355.489-90.139a159.249,159.249,0,0,1,255.47-126.888V31.086A31.125,31.125,0,0,1,1700.891,0c17.749,0,31.694,13.957,31.694,31.086V229.752c0,87.555-71.633,159.248-159.116,159.248C1485.356,389,1414.357,317.306,1414.357,229.752Zm62.757,0c0,52.66,43.107,96.436,96.355,96.436a96.354,96.354,0,0,0,96.357-96.436v-.634c0-52.657-43.108-95.8-96.357-95.8A96.352,96.352,0,0,0,1477.115,229.752ZM1316.24,357.3V229.862a96.357,96.357,0,1,0-192.715,0V357.3a31.39,31.39,0,0,1-31.7,31.7c-17.116,0-31.062-13.948-31.062-31.7V229.862c0-88.127,71.634-159.137,159.116-159.137S1379,141.735,1379,229.862V357.3A31.39,31.39,0,0,1,1347.3,389C1330.186,389,1316.24,375.051,1316.24,357.3ZM707.176,229.862c0-88.127,71.634-159.137,159.117-159.137A158.823,158.823,0,0,1,1025.41,229.862c0,87.493-71,159.137-159.116,159.137C778.81,389,707.176,317.356,707.176,229.862Zm62.76,0c0,52.622,43.108,96.369,96.357,96.369s96.356-43.747,96.356-96.369a96.357,96.357,0,1,0-192.714,0Zm-416.346-.11V31.086C353.59,13.957,367.533,0,385.285,0a31.122,31.122,0,0,1,31.061,31.086v71.777A159.25,159.25,0,0,1,671.819,229.752c0,87.555-71,159.248-159.116,159.248C425.224,389,353.59,317.306,353.59,229.752Zm62.756-.634v.634A96.354,96.354,0,0,0,512.7,326.188c53.252,0,96.356-43.776,96.356-96.436A96.353,96.353,0,0,0,512.7,133.316C459.454,133.316,416.346,176.461,416.346,229.118ZM142.806,388.179c-5.3-.535-10.624-1.346-15.827-2.4-5.134-1.047-10.272-2.364-15.269-3.91-4.941-1.532-9.864-3.329-14.63-5.34-4.723-1.991-9.4-4.241-13.915-6.686-4.48-2.427-8.891-5.1-13.119-7.957-4.206-2.837-8.324-5.913-12.242-9.146s-7.706-6.675-11.289-10.259-7.035-7.381-10.259-11.291-6.307-8.035-9.144-12.245c-2.852-4.227-5.529-8.64-7.956-13.12-2.446-4.509-4.695-9.192-6.686-13.914-2.009-4.768-3.806-9.692-5.337-14.635-1.549-5-2.863-10.134-3.91-15.271a159.932,159.932,0,0,1-2.4-15.829A163.229,163.229,0,0,1,0,229.862c0-4.774.217-9.628.65-14.431S1.737,205.774,2.6,201s1.951-9.6,3.229-14.309c1.291-4.733,2.805-9.463,4.5-14.056,1.712-4.631,3.651-9.233,5.762-13.672,2.133-4.489,4.49-8.919,7.007-13.164,2.551-4.3,5.325-8.512,8.243-12.518,2.962-4.07,6.148-8.024,9.467-11.754a151.786,151.786,0,0,1,10.674-10.849A147.544,147.544,0,0,1,90.662,84.8c2.47-1.116,5.013-2.18,7.554-3.166,2.57-1,5.209-1.936,7.844-2.8,2.666-.872,5.4-1.683,8.131-2.413,2.762-.738,5.6-1.413,8.418-2.009,2.857-.6,5.784-1.137,8.7-1.59,2.949-.459,5.976-.849,8.987-1.157,3.044-.311,6.163-.549,9.268-.706,3.138-.157,6.351-.238,9.545-.238a30.676,30.676,0,0,1,12.075,2.457,30.726,30.726,0,0,1,5.275,2.893,31.07,31.07,0,0,1,4.6,3.843,31.707,31.707,0,0,1,8.48,16.05,33.214,33.214,0,0,1,.633,6.46V245.671q.153,1.539.153,3.122a31.442,31.442,0,1,1-62.885,0c0-.834.033-1.657.1-2.474h-.125V137.929a88.9,88.9,0,0,0-28.823,14.632,86.973,86.973,0,0,0-20.147,22.062,97.667,97.667,0,0,0-11.825,26.7,106.421,106.421,0,0,0-2.907,14.213,108.469,108.469,0,0,0-.955,14.326,95.844,95.844,0,0,0,17.914,56.044,97.846,97.846,0,0,0,45.474,34.79c2.508,1.041,5.1,1.971,7.7,2.765,2.631.8,5.334,1.483,8.038,2.023,2.738.549,5.54.971,8.328,1.247,2.831.282,5.717.424,8.581.424,2.84,0,5.706-.14,8.514-.419,2.77-.273,5.552-.686,8.27-1.227,2.683-.532,5.369-1.2,7.978-1.994,2.584-.782,5.16-1.7,7.651-2.724a98.833,98.833,0,0,0,25.863-14.021A97.4,97.4,0,0,0,237.4,286.017a95.37,95.37,0,0,0,18.069-56.154c0-3.3-.055-7.75-.5-12.969-.23-2.648-.541-5.3-.934-7.884-.441-2.913-1-5.843-1.654-8.707-.721-3.16-1.586-6.34-2.572-9.454-1.07-3.381-2.314-6.782-3.7-10.111-1.486-3.579-3.171-7.178-5.016-10.692-1.968-3.753-4.168-7.518-6.54-11.193a23.949,23.949,0,0,1-2.982-6.5,24.66,24.66,0,0,1-.947-6.82,28.225,28.225,0,0,1,1.362-8.541A32.925,32.925,0,0,1,235.8,129a35.117,35.117,0,0,1,5.852-6.855,33.474,33.474,0,0,1,7.48-5.134,28.474,28.474,0,0,1,11.886-2.884,29.109,29.109,0,0,1,11.409,2.169,36.552,36.552,0,0,1,10.223,6.332,43.824,43.824,0,0,1,4.442,4.445,47.389,47.389,0,0,1,3.877,5.154c3.233,4.846,6.2,9.759,8.833,14.6,2.48,4.57,4.73,9.213,6.683,13.794,1.828,4.291,3.455,8.66,4.833,12.989,1.277,4.009,2.381,8.114,3.285,12.2a148.185,148.185,0,0,1,3.119,22.027c.468,6.779.506,13.062.506,18.917v3.114a161.257,161.257,0,0,1-.826,16.309,158.388,158.388,0,0,1-6.364,31.1c-1.54,4.942-3.347,9.864-5.371,14.635-2,4.721-4.266,9.4-6.722,13.914-2.442,4.48-5.131,8.893-8,13.12-2.848,4.207-5.937,8.326-9.183,12.245s-6.694,7.707-10.29,11.291-7.4,7.035-11.313,10.259-8.049,6.309-12.26,9.146c-4.229,2.852-8.644,5.529-13.121,7.957-4.5,2.445-9.181,4.7-13.9,6.686-4.76,2.012-9.671,3.808-14.6,5.34-4.984,1.547-10.1,2.864-15.217,3.91-5.178,1.058-10.479,1.869-15.75,2.4a160.905,160.905,0,0,1-16.2.82A162.854,162.854,0,0,1,142.806,388.179Z" fill="#071932"/>
</svg>
