<svg xmlns="http://www.w3.org/2000/svg" width="80" height="28" viewBox="0 0 80 28">
  <path id="emfi_blue" data-name="emfi blue" d="M52.362,25.715V14.2a4.584,4.584,0,1,0-9.168,0V25.715A2.235,2.235,0,0,1,40.993,28a2.273,2.273,0,0,1-2.247-2.285V14.2a4.562,4.562,0,1,0-9.123,0V25.715a2.225,2.225,0,1,1-4.449,0V14.2A9.1,9.1,0,0,1,34.207,5.06a8.831,8.831,0,0,1,6.786,3.153A8.831,8.831,0,0,1,47.778,5.06,9.1,9.1,0,0,1,56.811,14.2c0,.091,0,.137-.045.183a.417.417,0,0,1,.045.228v11.1A2.273,2.273,0,0,1,54.564,28,2.235,2.235,0,0,1,52.362,25.715Zm23.189-.046V7.253a2.225,2.225,0,1,1,4.449,0V25.669a2.225,2.225,0,1,1-4.449,0Zm-12.33-.046V15.777H60.749a2.263,2.263,0,0,1,0-4.524h2.472A11.611,11.611,0,0,1,66.5,2.844a10.673,10.673,0,0,1,4.224-2.7,2.175,2.175,0,0,1,2.831,1.371A2.267,2.267,0,0,1,72.208,4.4a6.5,6.5,0,0,0-2.562,1.645,7.161,7.161,0,0,0-1.977,5.209h3.955a2.262,2.262,0,0,1,0,4.524H67.669v9.847a2.225,2.225,0,1,1-4.449,0Zm-53.241,2a10.937,10.937,0,0,1-2.173-.449c-.345-.109-.689-.237-1.022-.38s-.657-.3-.972-.476-.621-.363-.917-.566-.582-.421-.856-.651-.538-.475-.789-.73-.492-.526-.717-.8S2.093,23,1.895,22.7s-.386-.615-.556-.934-.328-.654-.467-.99S.605,20.086.5,19.734s-.2-.721-.273-1.087S.095,17.9.057,17.521,0,16.747,0,16.36c0-.34.015-.685.045-1.027s.076-.687.136-1.027.136-.684.226-1.018.2-.673.314-1,.255-.657.4-.973.314-.635.49-.937.372-.606.576-.891.43-.571.661-.836A10.723,10.723,0,0,1,3.6,7.877a10.4,10.4,0,0,1,.83-.7A10.272,10.272,0,0,1,6.336,6.036c.173-.08.35-.155.528-.225s.364-.138.548-.2.377-.12.568-.172.391-.1.588-.143.4-.081.608-.113.417-.06.628-.082.431-.039.648-.05.444-.017.667-.017a2.126,2.126,0,0,1,.437.045,2.093,2.093,0,0,1,.407.13,2.138,2.138,0,0,1,.369.206,2.183,2.183,0,0,1,.321.274,2.239,2.239,0,0,1,.265.333,2.271,2.271,0,0,1,.2.384,2.32,2.32,0,0,1,.127.426,2.4,2.4,0,0,1,.044.46V17.484c.007.073.011.148.011.223a2.2,2.2,0,1,1-4.395,0q0-.089.007-.176H8.9V9.817a6.067,6.067,0,0,0-3.422,2.612,7.022,7.022,0,0,0-.827,1.9,7.709,7.709,0,0,0-.2,1.012,7.822,7.822,0,0,0-.067,1.02A6.9,6.9,0,0,0,7.04,21.825a6.8,6.8,0,0,0,1.776,1c.175.074.356.14.538.2s.373.105.562.144.387.069.582.089a5.943,5.943,0,0,0,1.194,0c.194-.019.388-.049.578-.087s.375-.086.558-.142.36-.121.535-.194a6.869,6.869,0,0,0,4.491-6.471c0-.235,0-.552-.035-.923-.016-.189-.038-.377-.065-.561-.031-.207-.07-.416-.116-.62-.05-.225-.111-.451-.18-.673-.075-.241-.162-.483-.258-.72-.1-.255-.222-.511-.351-.761-.137-.267-.291-.535-.457-.8a1.728,1.728,0,0,1-.208-.463,1.78,1.78,0,0,1-.066-.485,2.04,2.04,0,0,1,.1-.608,2.363,2.363,0,0,1,.267-.569,2.486,2.486,0,0,1,.409-.488,2.337,2.337,0,0,1,.523-.365,1.963,1.963,0,0,1,.831-.205,2,2,0,0,1,.8.154,2.553,2.553,0,0,1,.714.45,3.09,3.09,0,0,1,.31.316,3.409,3.409,0,0,1,.271.367c.226.345.433.695.617,1.039.173.325.331.655.467.982.128.305.242.616.338.924.089.285.167.577.23.868a10.716,10.716,0,0,1,.218,1.567c.033.482.036.93.036,1.347h0v.221c0,.387-.019.778-.058,1.161s-.095.756-.169,1.127-.166.731-.275,1.087-.234.7-.375,1.041-.3.669-.47.99-.358.633-.559.934-.415.593-.642.872-.468.548-.719.8-.517.5-.791.73-.563.449-.857.651-.6.393-.917.566-.642.334-.971.476-.676.271-1.02.38a10.927,10.927,0,0,1-3.3.508A11.144,11.144,0,0,1,9.98,27.628Z" fill="#071932"/>
</svg>
