<svg xmlns="http://www.w3.org/2000/svg" width="2124" height="389" viewBox="0 0 2124 389">
  <path id="ewealth_blue" data-name="ewealth blue" d="M2061.979,357.614V211.986c0-42.058-34.456-75.952-76.431-75.952a75.738,75.738,0,0,0-75.8,75.952V357.614A31.051,31.051,0,0,1,1878.422,389c-16.915,0-30.7-13.812-30.7-31.386V30.758a31.011,31.011,0,0,1,62.02,0V96.488a136.374,136.374,0,0,1,75.8-22.6c76.431,0,138.451,62.143,138.451,138.1V357.614A31.447,31.447,0,0,1,2092.676,389C2075.762,389,2061.979,375.187,2061.979,357.614Zm-384.155-.695V156.963h-46.2c-17.327,0-31.443-14.757-31.443-32.08a31.49,31.49,0,0,1,31.443-31.435h46.2V31.435A31.491,31.491,0,0,1,1709.268,0c17.966,0,32.083,14.114,32.083,31.435V93.447h45.558c17.967,0,32.083,14.114,32.083,31.435a32.175,32.175,0,0,1-32.083,32.08H1741.35V356.919A32.175,32.175,0,0,1,1709.268,389C1691.942,389,1677.824,374.243,1677.824,356.919Zm-170.47-.044V31.479C1507.354,14.132,1521.6,0,1539.725,0a31.654,31.654,0,0,1,31.725,31.479v325.4a32.048,32.048,0,1,1-64.1,0Zm-97.868.233c-27.426,22.961-58.04,31.891-94.4,31.891-89.932,0-161.369-66.972-161.369-156.9s71.437-161.37,161.369-161.37,156.9,71.437,156.9,161.37V357.108c0,18.5-13.4,31.891-31.891,31.891C1427.345,389,1409.486,375.6,1409.486,357.108ZM1216.227,232.095c0,53.576,45.287,94.4,98.863,94.4s94.4-40.822,94.4-94.4-40.821-98.863-94.4-98.863S1216.227,178.516,1216.227,232.095ZM625.055,368.007l-66.026-176.19-65.392,176.19C488.557,380.092,476.492,389,463.161,389a31.5,31.5,0,0,1-29.839-20.993L338.091,113.579c-6.349-16.539,1.9-34.985,18.41-40.709a30.515,30.515,0,0,1,40,18.446l66.66,177.464L529.187,92.59c3.175-8.9,9.524-16.539,19.047-19.719a25.406,25.406,0,0,1,9.524-1.907h6.983a.622.622,0,0,0,.637.634h1.267c.635,0,.635,0,1.271.637h1.27c.633.637.633.637,1.27.637A29.994,29.994,0,0,1,588.867,92.59l66.026,176.19L721.554,91.316c6.349-16.539,24.125-24.807,40.633-18.446,15.872,5.724,24.125,24.17,18.413,40.709L685.366,368.007C680.289,380.092,668.225,389,654.893,389A31.5,31.5,0,0,1,625.055,368.007ZM142.823,388.179c-5.3-.535-10.626-1.346-15.829-2.4-5.134-1.047-10.273-2.364-15.271-3.91-4.942-1.532-9.865-3.329-14.632-5.34-4.724-1.991-9.4-4.241-13.916-6.686-4.48-2.427-8.893-5.1-13.12-7.957-4.206-2.837-8.325-5.913-12.244-9.146S50.1,346.061,46.52,342.476s-7.036-7.381-10.261-11.291-6.308-8.035-9.145-12.245c-2.852-4.227-5.53-8.64-7.957-13.12-2.446-4.509-4.7-9.192-6.686-13.914-2.009-4.768-3.806-9.692-5.338-14.635-1.549-5-2.863-10.134-3.911-15.271a159.914,159.914,0,0,1-2.4-15.829A163.21,163.21,0,0,1,0,229.862c0-4.774.217-9.628.65-14.431S1.738,205.774,2.6,201s1.951-9.6,3.23-14.309c1.291-4.733,2.805-9.463,4.5-14.056,1.713-4.631,3.651-9.233,5.763-13.672,2.133-4.489,4.491-8.919,7.008-13.164,2.552-4.3,5.325-8.512,8.244-12.518,2.962-4.07,6.149-8.024,9.468-11.754A151.795,151.795,0,0,1,51.49,110.675,147.564,147.564,0,0,1,90.673,84.8c2.47-1.116,5.014-2.18,7.555-3.166,2.57-1,5.209-1.936,7.845-2.8,2.667-.872,5.4-1.683,8.132-2.413,2.762-.738,5.6-1.413,8.419-2.009,2.858-.6,5.785-1.137,8.7-1.59,2.95-.459,5.977-.849,8.988-1.157,3.044-.311,6.163-.549,9.269-.706,3.139-.157,6.352-.238,9.546-.238a30.683,30.683,0,0,1,12.077,2.457,30.732,30.732,0,0,1,5.275,2.893,31.073,31.073,0,0,1,4.6,3.843,31.706,31.706,0,0,1,8.481,16.05,33.209,33.209,0,0,1,.633,6.46V245.671q.154,1.539.154,3.122a31.446,31.446,0,1,1-62.892,0c0-.834.033-1.657.1-2.474h-.125V137.929a88.909,88.909,0,0,0-28.827,14.632,86.977,86.977,0,0,0-20.149,22.062,97.661,97.661,0,0,0-11.826,26.7,106.409,106.409,0,0,0-2.908,14.213,108.456,108.456,0,0,0-.955,14.326,95.836,95.836,0,0,0,17.916,56.044,97.856,97.856,0,0,0,45.479,34.79c2.509,1.041,5.1,1.971,7.7,2.765,2.631.8,5.334,1.483,8.039,2.023,2.738.549,5.54.971,8.329,1.247,2.832.282,5.718.424,8.582.424,2.841,0,5.706-.14,8.515-.419,2.77-.273,5.553-.686,8.271-1.227,2.684-.532,5.37-1.2,7.979-1.994,2.585-.782,5.16-1.7,7.652-2.724a98.849,98.849,0,0,0,25.866-14.021,97.4,97.4,0,0,0,20.333-20.754A95.362,95.362,0,0,0,255.5,229.862c0-3.3-.055-7.75-.5-12.969-.23-2.648-.541-5.3-.934-7.884-.441-2.913-1-5.843-1.655-8.707-.721-3.16-1.586-6.34-2.572-9.454-1.07-3.381-2.314-6.782-3.7-10.111-1.486-3.579-3.172-7.178-5.017-10.692-1.968-3.753-4.169-7.518-6.541-11.193a23.947,23.947,0,0,1-2.983-6.5,24.657,24.657,0,0,1-.947-6.82,28.222,28.222,0,0,1,1.362-8.541A32.924,32.924,0,0,1,235.827,129a35.118,35.118,0,0,1,5.853-6.855,33.478,33.478,0,0,1,7.481-5.134,28.48,28.48,0,0,1,11.888-2.884,29.115,29.115,0,0,1,11.41,2.169,36.558,36.558,0,0,1,10.224,6.332,43.828,43.828,0,0,1,4.443,4.445A47.385,47.385,0,0,1,291,132.226c3.233,4.846,6.2,9.759,8.835,14.6,2.48,4.57,4.731,9.213,6.684,13.794,1.829,4.291,3.456,8.66,4.834,12.989,1.277,4.009,2.381,8.114,3.285,12.2a148.168,148.168,0,0,1,3.119,22.027c.469,6.779.506,13.062.506,18.917v3.114a161.239,161.239,0,0,1-.826,16.309,158.371,158.371,0,0,1-6.365,31.1c-1.54,4.942-3.348,9.864-5.372,14.635-2,4.721-4.267,9.4-6.723,13.914-2.443,4.48-5.132,8.893-8,13.12-2.849,4.207-5.938,8.326-9.184,12.245s-6.694,7.707-10.291,11.291-7.4,7.035-11.315,10.259-8.05,6.309-12.262,9.146c-4.229,2.852-8.645,5.529-13.123,7.957-4.505,2.445-9.182,4.7-13.9,6.686-4.76,2.012-9.673,3.808-14.6,5.34-4.984,1.547-10.1,2.864-15.219,3.91-5.179,1.058-10.48,1.869-15.752,2.4a160.944,160.944,0,0,1-16.207.82A162.894,162.894,0,0,1,142.823,388.179Zm816.4.817c-88.126,0-159.132-71.641-159.132-159.134A158.829,158.829,0,0,1,959.225,70.725c76.716,0,159.135,55.794,159.135,159.137,0,17.117-13.948,31.066-31.7,31.066H867.93c13.314,38.04,48.819,65.3,91.295,65.3,14.582,0,40.578-1.268,71.009-20.923,14.582-9.509,34.236-.634,41.845,14.582,7.607,15.85-.634,32.333-15.216,41.845C1016.844,388.416,985.523,389,962.347,389ZM867.93,198.163h183.227c-13.315-44.381-53.892-64.669-91.932-64.669A96.924,96.924,0,0,0,867.93,198.163Z" fill="#071932"/>
</svg>
