<svg id="etW74klIxUF1" xmlns="http://www.w3.org/2000/svg" xmlns:xlink="http://www.w3.org/1999/xlink" viewBox="0 0 2142.33 603.152" shape-rendering="geometricPrecision" text-rendering="geometricPrecision"><g transform="translate(10399.315352 19245.118797)"><g transform="translate(0 340)"><path d="M-112.559,307.643C-67.9,351.16,-16.974,391.374,44.7,415.1c83.526,32.135,194.723,29.182,261.874-31.147c77.316-69.465,121.6-138.529,245.674-147.5c87.485-6.324,191.4,23.889,239.475,88.275c28.526,38.2,44.263,82.546,67.944,123.216c56.793,97.543,152.946,120.713,265.68,68.613c53.849-24.884,114.787-53.641,171.592-36.988c74.487,21.833,102.591,111.987,180.067,124.8c42.333,7,84.432-12.18,125.011-26.125c96.612-33.205,136.727,39.089,224.358,29.938c22-2.3,41.916-12.729,63.437-17.526c22.212-4.951,65.767.019,58.057,27.365" transform="translate(-10285.4-19819.6)" fill="none" stroke="#dbdee2" stroke-linecap="round" stroke-linejoin="round" stroke-dasharray="0,2"/><path d="M-110.847,324.2c44.389,43.31,96.41,81.247,158.342,102.533c44.4,15.332,95.973,20.862,144.345,13.78c42.692-6.265,83.051-22.24,114.524-49.8c57.814-50.708,98.369-101.632,166-128.66c22.441-8.985,47.92-15.28,77.924-18.218c86.618-8.483,188.847,17.6,239.583,78.86c30.376,36.679,48.08,80.3,72.534,120.92q18.781,31.32,42.273,53.136c55.879,51.709,129.726,57.959,219.748,25.645c28.5-10.232,58.7-24.36,88.842-34.785c39.137-13.512,80.483-18.616,119.4-7.37c70.3,20.562,98.578,103.813,171.8,116.644c39.943,6.983,79.73-9.794,118.058-22.091c90.778-29.123,130.021,36.817,212.475,27.7c20.741-2.3,39.59-12.083,59.883-16.843c20.962-4.918,61.317-.926,55.06,23.282" transform="translate(-10283.9-19813.9)" fill="none" stroke="#dbdee2" stroke-linecap="round" stroke-linejoin="round" stroke-dasharray="0,2"/><path d="M-109.135,340.893c44.123,43.1,97.235,78.761,159.424,97.606c44.4,13.581,95.338,17.475,142.822,9.4c41.962-7.164,81.555-23.442,113.042-50.3c57.512-49.2,99.165-99.059,165.719-126.707c22.181-9.247,47.251-15.916,76.447-19.55c85.76-10.676,186.342,11.3,239.687,69.443c32.254,35.153,51.9,78.06,77.128,118.626c12.716,20.6,26.807,38.435,42.249,53.291c54.749,52.347,125.963,61.07,216.11,35.659c34.149-9.625,69.538-26.49,104.815-39.12c45.4-16.216,94.554-21.353,140.082-8.2c66.189,19.12,94.568,95.639,163.539,108.487c37.555,6.964,75.018-7.409,111.1-18.054c84.924-25.052,123.317,34.545,200.591,25.459c19.486-2.305,37.263-11.439,56.333-16.16c19.71-4.886,56.865-1.874,52.058,19.2" transform="translate(-10282.4-19808.4)" fill="none" stroke="#dbdee2" stroke-linecap="round" stroke-linejoin="round" stroke-dasharray="0,2"/><path d="M-107.422,357.752c43.853,42.894,98.1,76.171,160.5,92.679c44.442,11.759,94.705,14.091,141.3,5.027c41.234-8.058,80.059-24.641,111.559-50.8C363.15,356.961,405.9,308.167,471.378,279.9c21.924-9.51,46.586-16.569,74.97-20.884c84.913-12.909,183.886,5,239.8,60.028c34.158,33.62,55.715,75.816,81.719,116.328c12.911,20.311,26.919,38.264,42.222,53.447c53.486,53.071,123.093,65.372,212.474,45.673c40.061-8.829,80.379-28.622,120.786-43.454c51.669-18.921,108.6-24.027,160.759-9.037c62.014,17.821,90.56,87.465,155.276,100.33c35.165,6.944,70.3-5.029,104.152-14.02c79.049-20.992,116.61,32.273,188.709,23.221c18.229-2.311,34.934-10.794,52.78-15.475c18.459-4.854,52.412-2.821,49.058,15.112" transform="translate(-10280.9-19802.9)" fill="none" stroke="#dbdee2" stroke-linecap="round" stroke-linejoin="round" stroke-dasharray="0,2"/></g><g transform="translate(0 340)"><path d="M-105.71,374.8c44.640836,43.722389,100.601741,74.113496,161.581,87.751c44.448,10,94.072,10.7,139.777.651c40.505-8.955,78.563-25.843,110.076-51.306c56.907-46.187,100.762-93.913,165.161-122.8c21.665-9.77,45.919-17.235,73.492-22.216c84.064-15.183,181.471-1.325,239.9,50.613c36.087,32.078,59.644,73.525,86.309,114.032c13.165,20,27.065,38.071,42.2,53.6c52.336,53.717,120.68,70.541,208.837,55.686c46.143-7.776,91.217-30.753,136.755-47.789c57.935-21.626,122.631-26.689,181.435-9.869c57.83,16.541,86.549,79.292,147.013,92.171c32.775,6.925,65.567-2.653,97.2-9.982c73.148-16.949,109.9,30,176.822,20.981c16.976-2.315,32.608-10.148,49.229-14.792c17.207-4.823,47.962-3.766,46.056,11.028" transform="translate(-10279.4-19797.7)" fill="none" stroke="#dbdee2" stroke-linecap="round" stroke-linejoin="round" stroke-dasharray="0,2"/><path d="M-104,392.056c43.315,42.475,99.744,71.164,162.659,82.825c44.447,8.237,93.436,7.318,138.25-3.725c39.777-9.852,77.066-27.044,108.592-51.806c56.606-44.68,101.559-91.341,164.881-120.842c21.408-10.031,45.254-17.918,72.017-23.548c83.209-17.5,179.1-7.668,240,41.2c38.042,30.522,63.468,71.276,90.9,111.734c13.367,19.717,27.215,37.877,42.171,53.76c51.2,54.359,118.457,76.337,205.2,65.7c52.318-6.415,102.053-32.885,152.723-52.122c64.2-24.332,136.661-29.344,202.109-10.7c53.638,15.278,82.538,71.118,138.749,84.014c30.385,6.9,60.822-.288,90.247-5.948c67.217-12.93,103.2,27.729,164.937,18.742c15.721-2.32,30.281-9.5,45.678-14.109c15.956-4.789,43.51-4.713,43.056,6.944" transform="translate(-10277.9-19792.7)" fill="none" stroke="#dbdee2" stroke-linecap="round" stroke-linejoin="round" stroke-dasharray="0,2"/><path d="M-102.285,409.541c43.047,42.268,100.557,68.677,163.736,77.9c44.447,6.488,92.8,3.933,136.727-8.1c39.046-10.747,75.568-28.243,107.108-52.3c56.3-43.173,102.353-88.77,164.6-118.888c22.544339-10.818611,46.195209-19.161027,70.538-24.881c82.342-19.87,176.766-14.037,240.107,31.782c40.02,28.952,67.283,69.032,95.485,109.44c13.562,19.431,27.367,37.68,42.145,53.914c50.066,54.993,116.337,68.306,201.555,75.714c58.478,5.083,112.891-35.016,168.693-56.458c70.463-27.035,150.684-31.985,222.78-11.534c49.44,14.024,78.524,62.944,130.482,75.855c27.995,6.888,56.063,2.065,83.293-1.911c61.255-8.946,96.492,25.457,153.052,16.5c14.466-2.324,27.955-8.859,42.127-13.426c14.7-4.756,39.057-5.658,40.053,2.86" transform="translate(-10276.3-19787.9)" fill="none" stroke="#dbdee2" stroke-linecap="round" stroke-linejoin="round" stroke-dasharray="0,2"/><path d="M-100.572,427.271C-57.8,469.329,0.8,493.469,64.238,500.242c44.443,4.745,92.165.547,135.2-12.477c37.96753-11.432419,73.692588-29.293088,105.621-52.805c56-41.666,103.15-86.2,164.318-116.934c22.083735-11.029119,45.21999-19.810912,69.06-26.213c81.456-22.283,174.467-20.437,240.208,22.367c42.021,27.361,71.091,66.79,100.076,107.144c13.752,19.146,27.521,37.481,42.118,54.069c48.951,55.622,114.6,77.1,197.916,85.727c64.254,6.654,123.725-37.148,184.658-60.791c76.728-29.741,164.7-34.612,243.449-12.368c45.239,12.779,74.513,54.77,122.219,67.7c25.6,6.868,51.29,4.4,76.34,2.125c55.26-5.015,89.786,23.184,141.167,14.264c13.211-2.33,25.629-8.215,38.573-12.745c13.454-4.724,34.61-6.605,37.056-1.224" transform="translate(-10274.8-19783.4)" fill="none" stroke="#dbdee2" stroke-linecap="round" stroke-linejoin="round" stroke-dasharray="0,2"/></g><g transform="translate(0 340)"><path d="M-98.86,445.254C-56.353,487.105,3.319,508.985,67.029,513.3c45.223958,2.953253,90.595518-2.767451,133.671-16.854c37.194291-12.437964,72.302578-30.408277,104.143-53.306c55.694-40.158,103.946-83.625,164.036-114.979c21.631012-11.243806,44.254469-20.46532,67.582-27.547c80.539-24.746,172.191-26.873,240.31,12.952c44.039,25.748,74.788,64.6,104.661,104.846c13.9,18.887,27.722,37.259,42.093,54.225c47.984,56.171,112.414,86.565,194.277,95.742c70.142,7.863,134.558-39.278,200.62-65.127c82.992-32.444,178.7-37.219,264.118-13.2c41.036,11.54,70.5,46.6,113.958,59.539c23.213,6.849,46.5,6.7,69.384,6.161c49.236-1.155,83.082,20.914,129.287,12.025c11.956-2.335,23.3-7.571,35.02-12.063c12.2-4.691,30.158-7.551,34.053-5.307" transform="translate(-10273.3-19779.4)" fill="none" stroke="#dbdee2" stroke-linecap="round" stroke-linejoin="round" stroke-dasharray="0,2"/><path d="M-97.147,463.5C-54.91,505.139,5.84,524.859,69.816,526.615c44.987983,1.201347,89.805378-5.999117,132.153-21.232c36.394725-13.430415,70.898548-31.513898,102.652-53.8c55.393-38.651,104.742-81.052,163.755-113.025c21.189088-11.457784,43.301945-21.117984,66.106-28.879c79.591-27.26,169.937-33.347,240.411,3.537c46.069,24.11,78.6,62.354,109.249,102.55c14.09,18.6,27.874,37.062,42.068,54.379c46.855,56.809,109.765,96.512,190.636,105.756c76.143,8.7,145.393-41.411,216.583-69.46c89.254-35.151,192.695-39.8,284.783-14.033c36.834,10.3,66.492,38.422,105.7,51.38c20.823,6.83,41.715,8.951,62.432,10.2c43.209,2.6,76.376,18.64,117.4,9.785c10.7-2.339,20.974-6.925,31.47-11.378c10.034049-4.095953,20.430277-7.241405,31.052-9.395" transform="translate(-10271.8-19775.4)" fill="none" stroke="#dbdee2" stroke-linecap="round" stroke-linejoin="round" stroke-dasharray="0,2"/><path d="M-95.435,481.991c41.97,41.435,103.809,58.877,168.041,58.192c44.731977-.574163,88.989681-9.249659,130.628-25.606c36.129-14.334,69.577-33.047,101.168-54.3c55.087-37.144,105.536-78.48,163.473-111.071c20.754738-11.67615,42.35717-21.776895,64.625-30.217c78.6-29.819,167.693-39.855,240.515-5.878c48.107,22.445,82.414,60.11,113.836,100.254c14.285,18.316,28.024,36.865,42.04,54.534c45.726,57.446,106.176,110.136,187,115.77c82.744,5.766,156.225-43.541,232.544-73.8c95.516-37.855,206.608-42.205,305.447-14.865c32.608,9.119,62.484,30.249,97.434,43.223c18.001873,6.487091,36.578362,11.252422,55.48,14.232c37.235,6.224,69.674,16.37,105.522,7.547c9.446-2.343,18.648-6.28,27.92-10.7c9.7-4.627,21.255-9.445,28.052-13.477" transform="translate(-10270.3-19771.6)" fill="none" stroke="#dbdee2" stroke-linecap="round" stroke-linejoin="round" stroke-dasharray="0,2"/><path d="M-93.722,500.736c70.436,69.639,201.454,64.914,298.218,23.282s173.216-111.555,262.876-163.923s207.217-86.8,303.767-46.838C843.847,343.349,886.976,407.82,931.575,465.9s103.108,117.347,183.359,125.784c88.448,9.3,167.056-45.671,248.5-78.129c101.779-40.56,220.619-44.829,326.113-15.7c87.7,24.215,190.925,109.185,280.763,31.067" transform="translate(-10268.8-19768.1)" fill="none" stroke="#dbdee2" stroke-linecap="round" stroke-linejoin="round" stroke-dasharray="0,2"/></g><g transform="translate(0 340)"><path d="M-92.544,503.925c78.887,73.4,220.311,68.057,323.9,20.821c92.493-42.175,166.726-109.661,254.268-159.519c90.168-51.354,206.764-79.457,300.85-37.343c71.48,32.284,115.945,95,164.526,145.92c48.092,50.4,105.254,100.133,183.063,103.806c85.291,4.026,162.345-49.8,243.062-80.307c99.285-37.529,213.672-39,315.585-10c85.3,24.352,196.572,112.21,280.7,29.871" transform="translate(-10267.7-19758.2)" fill="none" stroke="#dbdee2" stroke-linecap="round" stroke-linejoin="round" stroke-dasharray="0,2"/><path d="M-91.366,507.36c87.334,77.157,239.2,71.35,349.572,18.359C346.589,483.283,418.472,417.978,503.868,370.6c90.7-50.319,206.51-72.37,297.937-27.848c70.4,34.284,115.779,95.3,168.611,139.193c51.313,42.629,107.356,82.942,182.767,81.828c82.093-1.215,157.617-53.938,237.624-82.486c96.764-34.524,206.731-33.179,305.061-4.3c82.9,24.49,202.219,115.234,280.646,28.673" transform="translate(-10266.7-19748.5)" fill="none" stroke="#dbdee2" stroke-linecap="round" stroke-linejoin="round" stroke-dasharray="0,2"/><path d="M-90.188,510.959c95.775,80.918,258.144,74.8,375.23,15.9c84.42-42.474,153.842-105.794,237.058-150.717c91.26-49.266,206.138-65.106,295.025-18.353c69.237,36.415,115.259,95.526,172.7,132.465C1044,525.092,1099.249,556.042,1172.3,550.1c78.86-6.414,152.871-58.1,232.187-84.663c94.219-31.553,199.8-27.355,294.546,1.4c80.5,24.628,207.862,118.259,280.586,27.474" transform="translate(-10265.6-19738.9)" fill="none" stroke="#dbdee2" stroke-linecap="round" stroke-linejoin="round" stroke-dasharray="0,2"/><path d="M-89.01,514.762C15.2,599.44,188.178,593.181,311.867,528.2c80.579-42.333,147.452-103.811,228.466-146.312c91.848-48.183,205.747-57.807,292.115-8.859c68.058,38.573,114.33,95.8,176.777,125.739c56.626,27.145,111.466,48.682,182.175,37.872c75.6-11.56,148.105-62.287,226.754-86.842c91.646-28.611,192.859-21.531,284.032,7.095c78.1,24.763,213.5,121.283,280.529,26.276" transform="translate(-10264.6-19729.6)" fill="none" stroke="#dbdee2" stroke-linecap="round" stroke-linejoin="round" stroke-dasharray="0,2"/></g><g transform="translate(0 340)"><path d="M-87.832,518.774c112.648,88.438,296.35,82.209,426.512,10.976c76.849-42.056,141.093-101.8,219.874-141.91c92.462-47.073,205.336-50.481,289.206.636c66.862,40.752,113.02,96.279,180.857,119.009c58.717,19.676,113.5,31.631,181.88,15.9c72.339-16.647,143.323-66.5,221.322-89.019c89.054-25.709,185.93-15.708,273.526,12.792c75.707,24.9,219.139,124.306,280.472,25.08" transform="translate(-10263.5-19720.5)" fill="none" stroke="#dbdee2" stroke-linecap="round" stroke-linejoin="round" stroke-dasharray="0,2"/><path d="M-86.654,522.994c121.081,92.2,315.665,86.185,452.138,8.514C438.7,489.841,500.247,431.747,576.766,394c93.108-45.928,204.9-43.126,286.3,10.133c65.648,42.951,111.467,97.1,184.936,112.281c60.586,12.518,115.539,14.634,181.582-6.082c69.091-21.673,138.527-70.749,215.9-91.2c86.436-22.845,179.075-10.02,263.022,18.489c73.375,24.92,224.773,127.33,280.412,23.881" transform="translate(-10262.5-19711.8)" fill="none" stroke="#dbdee2" stroke-linecap="round" stroke-linejoin="round" stroke-dasharray="0,2"/><path d="M-85.475,527.412c129.506,95.961,335.16,90.357,477.748,6.055c69.67-41.191,128.461-97.688,202.7-133.105c93.785-44.743,204.436-35.749,283.4,19.626c64.411,45.173,109.869,98.347,189.012,105.555c62.426,5.686,117.613-2.307,181.287-28.06c65.875-26.643,133.714-75.034,210.472-93.375c83.8-20.022,172.147-4.188,252.524,24.188c70.983,25.061,230.405,130.353,280.356,22.683" transform="translate(-10261.4-19703)" fill="none" stroke="#dbdee2" stroke-linecap="round" stroke-linejoin="round" stroke-dasharray="0,2"/><path d="M-84.3,532.02c137.929,99.72,354.871,94.74,503.349,3.591c66.208-40.642,122.188-95.58,194.118-128.7c94.494-43.511,203.941-28.347,280.489,29.123c63.154,47.411,108.635,93.976,193.089,98.827c64.239,3.69,119.736-19.2,180.992-50.038c62.712-31.566,128.887-79.364,205.048-95.554c81.154-17.248,165.153,1.766,242.032,29.888c68.526,25.312,236.038,133.377,280.3,21.485" transform="translate(-10260.4-19694.5)" fill="none" stroke="#dbdee2" stroke-linecap="round" stroke-linejoin="round" stroke-dasharray="0,2"/></g><g transform="translate(0 340)"><path d="M-83.119,546.758C63.23,650.238,291.716,646.113,445.82,547.89c62.82-40.041,115.94-93.438,185.542-124.3c95.236-42.229,203.416-20.93,277.587,38.616c61.867,49.668,107.257,101.9,197.162,92.1c66.606-7.262,121.921-36.069,180.7-72.016c59.615-36.459,124.053-83.746,199.628-97.731c78.5-14.526,158.234,7.588,231.543,35.585c66.134,25.45,241.665,136.4,280.24,20.287" transform="translate(-10259.4-19696.1)" fill="none" stroke="#dbdee2" stroke-linecap="round" stroke-linejoin="round" stroke-dasharray="0,2"/><path d="M-81.941,562.086c154.764,107.24,395.09,104.217,554.517-1.33c59.507-39.4,109.715-91.257,176.97-119.9c96.013-40.884,202.718-13.391,274.685,48.113c60.432,52.024,106.409,103.99,201.233,85.372c69.078-13.562,124.171-52.913,180.4-93.995c56.584-41.338,119.214-88.185,194.211-99.909c75.839-11.854,151.32,13.413,221.059,41.284c63.743,25.586,247.29,139.426,280.181,19.088" transform="translate(-10258.3-19698.2)" fill="none" stroke="#dbdee2" stroke-linecap="round" stroke-linejoin="round" stroke-dasharray="0,2"/></g><g transform="translate(.000001 0.000001)"><path d="M-80.763,577.587c146.64,111,373.555,109.35,521.3-3.792c50.56-38.718,93.015-89.041,151.333-115.494c87.014-39.47,181.769-6.053,244.241,57.606c53.207,54.218,95.128,106.137,184.5,78.646c64.51-19.846,113.669-69.756,161.855-115.973s102.788-92.69,169.661-102.086c65.771-9.242,129.772,19.235,189.24,46.981c55.133,25.725,227.273,142.45,251.733,17.89" transform="translate(-10050.1-19382.9)" fill="none" stroke="#dbdee2" stroke-linecap="round" stroke-linejoin="round" stroke-dasharray="0,2"/><path d="M-93.816,558.975c84.582,63.292,198.981,92.063,305.725,78.865c81.229-10.042,160.309-38.508,225.077-78.4c15.567-9.588,30.412-19.844,44.985-29.951c33.655-23.342,65.493-46.706,104.932-59.744c11.608499-3.863377,23.568163-6.578057,35.707-8.105c74.333-9.22,152.55,23.974,209.38,74.48c14.741,13.017,28.866,25.636,43.114,36.785c40.208,31.466,82.006,50.913,147.33,29.914c44.812-14.534,82.859-42.611,118.359-73.925c15.978-14.094,31.446-28.844,46.8-43.316c49.214-46.416,104.005-93.5,169.941-106.863c17.83329-3.46334,36.035-4.641817,54.166-3.507c29.548,1.649,58.629,8.563,87.482,18.14c16.142214,5.471127,31.992761,11.767755,47.489,18.865c23.619,10.65,63.806,36.482,104.951,55.751c62.871,29.439,130.786,45.66,150.269-25.227" transform="translate(-10061.3-19382.8)" fill="none" stroke="#dbdee2" stroke-linecap="round" stroke-linejoin="round" stroke-dasharray="0,2"/><path d="M-106.87,541.026c85.237,63.054,203.808,93.907,310.664,77.63c82.791-12.611,163.141-41.489,229.633-72.9c15.83-7.478,30.963-15.213,45.71-22.618c33.8-16.973,64.589-33.663,102.8-41.275c11.395495-2.30801,22.975471-3.586493,34.6-3.82c72.7-1.263,151.279,32.868,211.343,78.962c15.6,11.969,30.785,23.217,45.948,33.079c42.393,27.571,85.96,43.478,150.432,21.675c45.18-15.28,84.036-43.55,120.43-74.966c16.387-14.143,32.276-28.946,48.038-43.549c50.238-46.613,105.168-94.473,170.226-111.639c17.400203-4.472306,35.256609-6.930758,53.218-7.327c29.207-.863,58.038,3.027,87.166,10.34c16.660025,4.314192,32.934276,10.000279,48.656,17c25.271,11.037,65.079,38.03,105,58.419c61.769,31.549,129.464,51.588,153.706-15.263" transform="translate(-10072.6-19383.4)" fill="none" stroke="#dbdee2" stroke-linecap="round" stroke-linejoin="round" stroke-dasharray="0,2"/><path d="M-119.924,524.086c85.893,62.815,208.624,95.7,315.6,76.394c84.354-15.22,165.808-44.5,234.185-67.4c16.054-5.38,31.439-10.572,46.439-15.28c33.757-10.6,63.65-20.629,100.681-22.808c11.159795-.703235,22.35715-.547108,33.493.467c71.12,6.741,150.134,41.673,213.3,83.444c16.481,10.9,32.68,20.806,48.778,29.374c44.52,23.7,89.862,35.94,153.529,13.432c45.517-16.093,85.213-44.486,122.5-76c16.791-14.193,33.1-29.047,49.268-43.781c51.263-46.81,106.353-95.33,170.516-116.413c17.005501-5.465286,34.519292-9.199886,52.275-11.147c28.920167-3.385363,58.179632-2.531023,86.853,2.536c17.132727,3.125033,33.850136,8.206288,49.824,15.144c26.924,11.415,66.343,39.6,105.043,61.089c60.662,33.689,128.149,57.516,157.137-5.3" transform="translate(-10083.8-19384.9)" fill="none" stroke="#dbdee2" stroke-linecap="round" stroke-linejoin="round" stroke-dasharray="0,2"/></g><g><path d="M-132.977,508.337c86.548,62.577,213.428,97.431,320.528,75.157c85.909-17.866,168.328-47.6,238.732-61.9c16.243-3.3,31.815-5.967,47.159-7.951c33.524-4.332,62.685-7.627,98.57-4.341c10.881228.942325,21.69692,2.529784,32.39,4.754c69.584,14.816,149.023,50.463,215.267,87.927c16.708585,9.510228,33.935427,18.07958,51.6,25.668c46.593,19.853,93.751,28.386,156.621,5.191c45.855-16.917,86.389-45.424,124.567-77.042c17.2-14.241,33.927-29.147,50.495-44.012c52.284-47.009,107.539-96.168,170.809-121.19c16.649841-6.45775,33.826339-11.465359,51.338-14.967c28.556-5.937,56.966-8.157,86.544-5.266c17.441,1.7,34.46,6.469,50.988,13.283c28.579,11.782,67.6,41.184,105.094,63.759c59.552,35.853,126.844,63.442,160.565,4.663" transform="translate(-10095-19387.7)" fill="none" stroke="#dbdee2" stroke-linecap="round" stroke-linejoin="round" stroke-dasharray="0,2"/><path d="M-146.031,493.571c87.206,62.337,218.218,99.119,325.458,73.92c87.455-20.549,170.742-50.842,243.271-56.406c15.930411-1.243665,31.924867-1.449433,47.882-.616c33.172,1.747,61.711,5.333,96.466,14.128c10.139,2.566,20.62,5.437,31.3,9.039c68.052,22.966,147.938,59.232,217.232,92.409c17.652808,8.472506,35.82921,15.807799,54.418,21.961c48.628,16.054,97.624,20.817,159.708-3.048c46.186-17.754,87.567-46.362,126.631-78.082c17.6-14.292,34.752-29.249,51.722-44.244c53.306-47.208,108.733-96.983,171.108-125.964c16.331416-7.45949,33.176593-13.738585,50.406-18.789c28.232-8.5,56.46-13.81,86.237-13.067c17.908.447,35.293,4.655,52.152,11.422c30.236,12.137,68.838,42.789,105.146,66.429c58.43,38.045,125.546,69.371,163.989,14.627" transform="translate(-10106.3-19391.4)" fill="none" stroke="#dbdee2" stroke-linecap="round" stroke-linejoin="round" stroke-dasharray="0,2"/><path d="M-159.085,479.376C-71.22,541.473,63.9,580.139,171.3,552.06c88.99-23.267,173.133-54.26,247.807-50.907c16.374326.734616,32.645453,2.983884,48.605,6.719c32.838,7.612,60.755,18.246,94.371,32.593c9.728,4.153,19.864,8.479,30.2,13.328c66.5,31.181,146.876,67.977,219.2,96.888c18.618996,7.435802,37.743655,13.536886,57.229,18.257c50.638,12.3,101.481,13.231,162.794-11.289c46.512-18.6,88.739-47.3,128.694-79.12c18.007-14.34,35.575-29.35,52.947-44.475c54.325-47.408,109.935-97.781,171.412-130.74c16.044987-8.477783,32.563882-16.02656,49.475-22.609c27.907-11.076,55.96-19.505,85.937-20.869c18.375-.837,36.125,2.836,53.311,9.562c31.9,12.483,70.067,44.408,105.2,69.1c57.292,40.259,124.256,75.3,167.407,24.588" transform="translate(-10117.5-19395.8)" fill="none" stroke="#dbdee2" stroke-linecap="round" stroke-linejoin="round" stroke-dasharray="0,2"/><path d="M-172.138,465.412c88.525,61.859,227.733,102.371,335.3,71.449c90.511-26.019,175.573-57.842,252.338-45.411c16.927857,2.772602,33.479743,7.487043,49.328,14.05c32.633,13.339,59.837,31.131,92.286,51.06c9.329,5.731,19.1,11.527,29.114,17.615c64.9,39.448,145.83,76.7,221.163,101.37c19.60551,6.395651,39.677303,11.261895,60.035,14.555c52.64,8.591,105.324,5.629,165.875-19.531c46.834-19.459,89.914-48.235,130.754-80.159c18.414-14.39,36.4-29.45,54.171-44.708c55.344-47.6,111.152-98.564,171.72-135.517c16.187-9.876,32.464-18.454,48.549-26.427c27.573-13.668,55.455-25.238,85.639-28.673c18.835-2.142,36.96,1.012,54.469,7.7c33.558,12.82,71.283,46.042,105.265,71.769c56.136,42.5,122.971,81.227,170.82,34.55" transform="translate(-10128.7-19400.3)" fill="none" stroke="#dbdee2" stroke-linecap="round" stroke-linejoin="round" stroke-dasharray="0,2"/></g><g><path d="M-185.192,451.593c89.185,61.621,232.456,103.943,340.216,70.214c92.013-28.8,178.118-61.549,256.863-39.913c17.550723,4.899838,34.379495,12.090362,50.052,21.386c32.582,19.014,58.96,44,90.207,69.529c8.941,7.3,18.331,14.578,28.029,21.9c63.244,47.744,144.793,85.4,223.133,105.852c20.607932,5.34554,41.623581,8.973299,62.831,10.846c54.647,4.925,109.153-1.985,168.954-27.77c47.151-20.329,91.089-49.175,132.815-81.2c18.815-14.439,37.219-29.553,55.389-44.94c56.365-47.8,112.388-99.333,172.034-140.291c15.866-10.9,31.828-20.808,47.626-30.247c27.228-16.27,54.936-31,85.344-36.474c19.286-3.47,37.8-.817,55.629,5.841c35.217,13.147,72.479,47.687,105.326,74.439c54.962,44.762,121.695,87.153,174.231,44.512" transform="translate(-10140-19405)" fill="none" stroke="#dbdee2" stroke-linecap="round" stroke-linejoin="round" stroke-dasharray="0,2"/><path d="M-198.245,437.877c89.844,61.381,237.153,105.484,345.128,68.976c93.5-31.614,180.787-65.329,261.385-34.416c17.156,6.581,33.886,15.953,50.773,28.721c32.664,24.7,58.12,56.876,88.138,88q12.845,13.319,26.948,26.187c61.538,56.05,143.761,94.078,225.1,110.335c21.62542,4.285843,43.583867,6.674587,65.625,7.139c56.666,1.293,112.966-9.612,172.03-36.011c47.457-21.211,92.261-50.111,134.873-82.237c19.218-14.487,38.036-29.653,56.608-45.171c57.381-48,113.637-100.1,172.348-145.067c15.554-11.914,31.185-23.163,46.709-34.068c26.871-18.876,54.4-36.791,85.051-44.276c19.722-4.815,38.632-2.648,56.785,3.98c36.88,13.465,73.662,49.344,105.392,77.109c53.763,47.043,120.425,93.081,177.637,54.476" transform="translate(-10151.2-19409.8)" fill="none" stroke="#dbdee2" stroke-linecap="round" stroke-linejoin="round" stroke-dasharray="0,2"/><path d="M-211.3,424.232c90.506,61.145,241.748,106.824,350.038,67.739c94.894-34.606,183.574-69.14,265.9-28.916c17.4,8.5,34.47,20.281,51.494,36.054c32.835,30.424,57.39,69.707,86.075,106.463c8.218,10.442,16.776,20.685,25.87,30.474C627.871,700.4,710.826,738.684,795.151,750.862c22.654907,3.200616,45.552491,4.349612,68.414,3.433c58.705-2.311,116.724-17.319,175.1-44.25c47.727-22.16,93.433-51.049,136.929-83.277c19.623-14.537,38.856-29.754,57.827-45.4c58.4-48.2,114.966-100.789,172.668-149.844q22.893-19.369,45.794-37.887c26.461-21.528,53.837-42.6,84.762-52.078c20.142-6.175,39.478-4.507,57.94,2.119c38.56,13.73,74.826,51.008,105.462,79.777c52.537,49.339,119.16,99.009,181.038,64.44" transform="translate(-10162.4-19414.7)" fill="none" stroke="#dbdee2" stroke-linecap="round" stroke-linejoin="round" stroke-dasharray="0,2"/><path d="M-224.353,410.634c91.169,60.9,246.474,108.489,354.945,66.5c116.706-45.173,224.1-87.882,322.628,19.969C495.7,543.6,522.311,607.05,562.038,656.8c73.69,92.275,188.8,129.843,300.238,119.027s219.559-65.713,317.152-136.808s186.319-158.406,276.917-241.961c26.125-24.1,53.252-48.416,84.476-59.881c64.5-23.682,121.248,39.023,164.626,82.708c51.288,51.65,117.9,104.935,184.437,74.4" transform="translate(-10173.7-19419.6)" fill="none" stroke="#dbdee2" stroke-linecap="round" stroke-linejoin="round" stroke-dasharray="0,2"/></g><g><circle r="25.5" transform="translate(-9527.35562-18816.999794)" fill="#dbdee2"/><circle r="4" transform="translate(-9150-19004)" fill="#dbdee2"/><circle r="4" transform="translate(-9032-18974)" fill="#dbdee2"/><circle r="4" transform="translate(-8924-18901)" fill="#dbdee2"/><circle r="4" transform="translate(-8821.425497-18884.844198)" fill="#dbdee2"/><circle r="4" transform="translate(-8734-18887)" fill="#dbdee2"/><circle r="25.5" transform="translate(-9208.513499-18786.487207)" fill="#dbdee2"/><circle r="8" transform="matrix(1 0 0 0.786859-8646.195454-18936.729127)" fill="#dbdee2"/><path d="M2.344,13.657v0c-3.124275-3.124275-3.124275-8.189725,0-11.314s8.189725-3.124275,11.314,0v0c3.124275,3.124275,3.124275,8.189725,0,11.314s-8.189725,3.124275-11.314,0Z" transform="translate(-8996-18833)" fill="#dbdee2"/></g></g></svg>
