<svg xmlns="http://www.w3.org/2000/svg" width="19" height="20" viewBox="0 0 19 20">
  <path id="search" d="M669.443,361.054c.3.051.6.1.893.154a7.673,7.673,0,0,1,3.644,1.805,7.961,7.961,0,0,1,2.671,4.825,8.051,8.051,0,0,1-.572,4.54,7.46,7.46,0,0,1-1.076,1.79c-.1.124-.084.186.019.3q2.243,2.36,4.478,4.727a1.074,1.074,0,0,1,.213,1.349,1.013,1.013,0,0,1-1.543.267c-.073-.063-.141-.133-.207-.2q-2.233-2.357-4.46-4.718c-.112-.119-.177-.122-.309-.034a7.8,7.8,0,0,1-9.631-.68,8.129,8.129,0,0,1,.744-12.682,7.691,7.691,0,0,1,3.449-1.364.867.867,0,0,0,.382-.072Zm-.626,2.109a5.967,5.967,0,1,0,5.861,5.978A5.931,5.931,0,0,0,668.817,363.163Z" transform="translate(-660.864 -361.054)" fill="#fff"/>
</svg>
