<svg xmlns="http://www.w3.org/2000/svg" width="1921.393" height="626.164" viewBox="0 0 1921.393 626.164">
  <g id="Group_8503" data-name="Group 8503" transform="translate(225.164 -235.049)" opacity="0.1">
    <path id="Path_1037" data-name="Path 1037" d="M-112.559,307.643c35.3,43.517,75.552,83.731,124.3,107.458,66.02,32.135,153.911,29.182,206.988-31.147,61.111-69.465,96.112-138.529,194.183-147.5C482.062,230.13,564.2,260.343,602.2,324.729c22.547,38.2,34.986,82.546,53.7,123.216,44.89,97.543,120.89,120.713,210,68.613,42.562-24.884,90.729-53.641,135.628-36.988,58.875,21.833,81.089,111.987,142.327,124.8,33.46,7,66.736-12.18,98.81-26.125,76.363-33.205,108.07,39.089,177.335,29.938,17.386-2.3,33.131-12.729,50.141-17.526,17.557-4.951,51.983.019,45.889,27.365" transform="translate(96.215 0)" fill="none" stroke="#020305" stroke-linecap="round" stroke-linejoin="round" stroke-width="1.007" stroke-dasharray="0 2.015"/>
    <path id="Path_1038" data-name="Path 1038" d="M-110.847,324.2c35.086,43.31,76.2,81.247,125.157,102.533,35.1,15.332,75.859,20.862,114.093,13.78,33.745-6.265,65.646-22.24,90.522-49.8,45.7-50.708,77.753-101.632,131.207-128.66,17.738-8.985,37.877-15.28,61.593-18.218,68.464-8.483,149.269,17.6,189.371,78.86,24.01,36.679,38,80.3,57.332,120.92q14.845,31.32,33.414,53.136c44.168,51.709,102.538,57.959,173.693,25.645,22.531-10.232,46.4-24.36,70.223-34.785,30.935-13.512,63.616-18.616,94.379-7.37,55.563,20.562,77.918,103.813,135.8,116.644,31.572,6.983,63.02-9.794,93.315-22.091,71.752-29.123,102.771,36.817,167.944,27.7,16.394-2.3,31.292-12.083,47.333-16.843,16.569-4.918,48.466-.926,43.521,23.282" transform="translate(97.689 5.711)" fill="none" stroke="#020305" stroke-linecap="round" stroke-linejoin="round" stroke-width="1.007" stroke-dasharray="0 2.015"/>
    <path id="Path_1039" data-name="Path 1039" d="M-109.135,340.893c34.876,43.1,76.858,78.761,126.014,97.606,35.1,13.581,75.358,17.475,112.891,9.4,33.168-7.164,64.464-23.442,89.352-50.3,45.459-49.2,78.384-99.059,130.99-126.707,17.533-9.247,37.349-15.916,60.426-19.55,67.787-10.676,147.291,11.3,189.457,69.443,25.495,35.153,41.022,78.06,60.964,118.626,10.051,20.6,21.189,38.435,33.395,53.291,43.275,52.347,99.565,61.07,170.821,35.659,26.992-9.625,54.965-26.49,82.849-39.12,35.888-16.216,74.738-21.353,110.725-8.2,52.318,19.12,74.75,95.639,129.267,108.487,29.685,6.964,59.3-7.409,87.821-18.054,67.127-25.052,97.474,34.545,158.553,25.459,15.4-2.305,29.454-11.439,44.527-16.16,15.579-4.886,44.948-1.874,41.148,19.2" transform="translate(99.162 11.281)" fill="none" stroke="#020305" stroke-linecap="round" stroke-linejoin="round" stroke-width="1.007" stroke-dasharray="0 2.015"/>
    <path id="Path_1040" data-name="Path 1040" d="M-107.422,357.752c34.664,42.894,77.544,76.171,126.868,92.679,35.129,11.759,74.859,14.091,111.689,5.027a180.4,180.4,0,0,0,88.182-50.8c45.223-47.694,79.016-96.488,130.772-124.751,17.33-9.51,36.824-16.569,59.26-20.884,67.119-12.909,145.352,5,189.546,60.028,27,33.62,44.04,75.816,64.594,116.328,10.206,20.311,21.278,38.264,33.375,53.447,42.278,53.071,97.3,65.372,167.95,45.673,31.666-8.829,63.536-28.622,95.475-43.454,40.841-18.921,85.839-24.027,127.072-9.037,49.019,17.821,71.583,87.465,122.737,100.33,27.8,6.944,55.567-5.029,82.327-14.02,62.484-20.992,92.175,32.273,149.164,23.221,14.409-2.311,27.614-10.794,41.719-15.475,14.591-4.854,41.429-2.821,38.778,15.112" transform="translate(100.637 16.687)" fill="none" stroke="#020305" stroke-linecap="round" stroke-linejoin="round" stroke-width="1.007" stroke-dasharray="0 2.015"/>
    <path id="Path_1041" data-name="Path 1041" d="M-105.71,374.8c34.452,42.685,78.2,73.663,127.724,87.752,35.135,10,74.361,10.7,110.489.651A194.043,194.043,0,0,0,219.515,411.9c44.983-46.187,79.649-93.913,130.554-122.8a210.9,210.9,0,0,1,58.093-22.216C474.612,251.7,551.609,265.56,597.8,317.5c28.526,32.078,47.147,73.525,68.224,114.032,10.407,20,21.394,38.071,33.354,53.6,41.37,53.717,95.394,70.541,165.079,55.686,36.474-7.776,72.1-30.753,108.1-47.789,45.8-21.626,96.936-26.689,143.419-9.869,45.713,16.541,68.414,79.292,116.209,92.171,25.908,6.925,51.828-2.653,76.834-9.982,57.821-16.949,86.875,30,139.772,20.981,13.419-2.315,25.776-10.148,38.914-14.792,13.6-4.823,37.912-3.766,36.405,11.028" transform="translate(102.11 21.906)" fill="none" stroke="#020305" stroke-linecap="round" stroke-linejoin="round" stroke-width="1.007" stroke-dasharray="0 2.015"/>
    <path id="Path_1042" data-name="Path 1042" d="M-104,392.056c34.24,42.475,78.847,71.164,128.58,82.825a210.556,210.556,0,0,0,109.285-3.725,210.655,210.655,0,0,0,85.841-51.806c44.747-44.68,80.281-91.341,130.337-120.842a223.469,223.469,0,0,1,56.928-23.548c65.776-17.5,141.577-7.668,189.721,41.2,30.072,30.522,50.171,71.276,71.853,111.734,10.567,19.717,21.513,37.877,33.336,53.76,40.471,54.359,93.639,76.337,162.208,65.7,41.357-6.415,80.672-32.885,120.726-52.122,50.749-24.332,108.029-29.344,159.765-10.7,42.4,15.278,65.246,71.118,109.68,84.014,24.019,6.9,48.079-.288,71.339-5.948,53.135-12.93,81.577,27.729,130.381,18.742,12.427-2.32,23.937-9.5,36.108-14.109,12.613-4.789,34.394-4.713,34.035,6.944" transform="translate(103.584 26.915)" fill="none" stroke="#020305" stroke-linecap="round" stroke-linejoin="round" stroke-width="1.007" stroke-dasharray="0 2.015"/>
    <path id="Path_1043" data-name="Path 1043" d="M-102.285,409.541c34.029,42.268,79.493,68.677,129.436,77.9a215.115,215.115,0,0,0,108.085-8.1,231.208,231.208,0,0,0,84.671-52.3c44.507-43.173,80.912-88.77,130.119-118.888a238.486,238.486,0,0,1,55.762-24.881c65.093-19.87,139.737-14.037,189.809,31.782,31.637,28.952,53.188,69.032,75.483,109.44,10.721,19.431,21.634,37.68,33.317,53.914,39.578,54.993,91.966,68.306,159.333,75.714,46.228,5.083,89.242-35.016,133.355-56.458,55.7-27.035,119.119-31.985,176.112-11.534,39.083,14.024,62.075,62.944,103.149,75.855,22.13,6.888,44.318,2.065,65.844-1.911,48.423-8.946,76.279,25.457,120.991,16.5,11.436-2.324,22.1-8.859,33.3-13.426,11.624-4.756,30.876-5.658,31.663,2.86" transform="translate(105.058 31.695)" fill="none" stroke="#020305" stroke-linecap="round" stroke-linejoin="round" stroke-width="1.007" stroke-dasharray="0 2.015"/>
    <path id="Path_1044" data-name="Path 1044" d="M-100.572,427.271c33.815,42.058,80.136,66.2,130.29,72.971A220.446,220.446,0,0,0,136.6,487.764a257.309,257.309,0,0,0,83.5-52.805c44.27-41.666,81.545-86.2,129.9-116.934a257.2,257.2,0,0,1,54.6-26.213c64.4-22.283,137.924-20.437,189.9,22.367,33.22,27.361,56.2,66.79,79.115,107.144,10.872,19.146,21.757,37.481,33.3,54.069,38.7,55.622,90.6,77.1,156.462,85.727,50.8,6.654,97.811-37.148,145.981-60.791,60.657-29.741,130.2-34.612,192.458-12.368,35.763,12.779,58.906,54.77,96.62,67.7,20.242,6.868,40.547,4.4,60.35,2.125,43.686-5.015,70.98,23.184,111.6,14.264,10.444-2.33,20.261-8.215,30.494-12.745,10.636-4.724,27.361-6.605,29.294-1.224" transform="translate(106.532 36.231)" fill="none" stroke="#020305" stroke-linecap="round" stroke-linejoin="round" stroke-width="1.007" stroke-dasharray="0 2.015"/>
    <path id="Path_1045" data-name="Path 1045" d="M-98.86,445.254c33.605,41.852,80.78,63.731,131.148,68.046a226.5,226.5,0,0,0,105.681-16.854C167.685,483.9,195.344,465.8,220.3,443.14c44.03-40.158,82.177-83.625,129.684-114.979a280.1,280.1,0,0,1,53.428-27.547c63.675-24.747,136.131-26.873,189.983,12.952,34.817,25.748,59.126,64.6,82.743,104.846,10.985,18.887,21.917,37.259,33.278,54.225,37.935,56.171,88.872,86.565,153.591,95.742,55.453,7.863,106.379-39.278,158.605-65.127,65.612-32.444,141.279-37.219,208.806-13.2,32.442,11.54,55.738,46.6,90.093,59.539,18.351,6.849,36.763,6.7,54.854,6.161,38.925-1.155,65.683,20.914,102.211,12.025,9.452-2.335,18.42-7.571,27.686-12.063,9.648-4.691,23.842-7.551,26.922-5.307" transform="translate(108.005 40.513)" fill="none" stroke="#020305" stroke-linecap="round" stroke-linejoin="round" stroke-width="1.007" stroke-dasharray="0 2.015"/>
    <path id="Path_1046" data-name="Path 1046" d="M-97.147,463.5c33.393,41.643,81.422,61.362,132,63.119,35.131,1.342,71.862-6.226,104.481-21.232,29.14-13.438,56.192-31.845,81.158-53.8,43.794-38.651,82.81-81.052,129.466-113.025a309.241,309.241,0,0,1,52.264-28.879c62.925-27.26,134.354-33.347,190.071,3.537,36.422,24.11,62.144,62.354,86.373,102.55,11.14,18.6,22.038,37.062,33.259,54.379C748.97,526.95,798.707,566.652,862.645,575.9c60.2,8.7,114.949-41.411,171.232-69.46A289.786,289.786,0,0,1,1259.028,492.4c29.121,10.3,52.569,38.422,83.564,51.38,16.463,6.83,32.98,8.951,49.359,10.2,34.161,2.6,60.384,18.64,92.82,9.785,8.46-2.339,16.582-6.925,24.881-11.378A116.423,116.423,0,0,1,1534.2,543" transform="translate(109.48 44.537)" fill="none" stroke="#020305" stroke-linecap="round" stroke-linejoin="round" stroke-width="1.007" stroke-dasharray="0 2.015"/>
    <path id="Path_1047" data-name="Path 1047" d="M-95.435,481.991c33.183,41.435,82.075,58.877,132.86,58.192,35.135-.406,71.361-9.61,103.279-25.606,28.565-14.334,55.01-33.047,79.987-54.3,43.554-37.144,83.441-78.48,129.248-111.071a346.715,346.715,0,0,1,51.1-30.211c62.144-29.819,132.584-39.855,190.16-5.878,38.035,22.445,65.16,60.11,90,100.254,11.294,18.316,22.157,36.865,33.239,54.534,36.152,57.446,83.947,110.136,147.847,115.77,65.42,5.766,123.517-43.541,183.858-73.8,75.518-37.855,163.352-42.205,241.5-14.865,25.781,9.119,49.4,30.249,77.035,43.223a199.985,199.985,0,0,0,43.865,14.232c29.439,6.224,55.086,16.37,83.43,7.547,7.469-2.343,14.744-6.28,22.075-10.7,7.67-4.627,16.805-9.445,22.179-13.477" transform="translate(110.953 48.307)" fill="none" stroke="#020305" stroke-linecap="round" stroke-linejoin="round" stroke-width="1.007" stroke-dasharray="0 2.015"/>
    <path id="Path_1048" data-name="Path 1048" d="M-93.722,500.736c55.691,69.639,159.283,64.914,235.791,23.282S279.026,412.463,349.916,360.095s163.839-86.8,240.178-46.838c57.488,30.092,91.589,94.564,126.852,152.648S798.47,583.252,861.922,591.688c69.933,9.3,132.086-45.671,196.483-78.129,80.473-40.56,174.436-44.829,257.847-15.7,69.339,24.215,150.958,109.185,221.99,31.067" transform="translate(112.427 51.828)" fill="none" stroke="#020305" stroke-linecap="round" stroke-linejoin="round" stroke-width="1.007" stroke-dasharray="0 2.015"/>
    <path id="Path_1049" data-name="Path 1049" d="M-92.544,503.925c62.388,73.4,174.233,68.057,256.156,20.821C236.759,482.571,295.466,415.085,364.7,365.227c71.309-51.354,163.519-79.457,237.927-37.343,56.53,32.284,91.695,95,130.115,145.92,38.034,50.4,83.24,100.133,144.775,103.806,67.452,4.026,128.39-49.8,192.225-80.307,78.52-37.529,168.982-39,249.58-10,67.458,24.352,155.459,112.21,221.994,29.871" transform="translate(113.441 61.795)" fill="none" stroke="#020305" stroke-linecap="round" stroke-linejoin="round" stroke-width="1.007" stroke-dasharray="0 2.015"/>
    <path id="Path_1050" data-name="Path 1050" d="M-91.366,507.36c69.084,77.157,189.211,71.35,276.522,18.359C255.07,483.283,311.932,417.978,379.482,370.6c71.747-50.319,163.356-72.37,235.677-27.848,55.689,34.284,91.585,95.3,133.377,139.193,40.59,42.629,84.922,82.942,144.574,81.828,64.938-1.215,124.68-53.938,187.968-82.486,76.543-34.524,163.531-33.179,241.313-4.3,65.575,24.49,159.962,115.234,222,28.673" transform="translate(114.455 71.519)" fill="none" stroke="#020305" stroke-linecap="round" stroke-linejoin="round" stroke-width="1.007" stroke-dasharray="0 2.015"/>
    <path id="Path_1051" data-name="Path 1051" d="M-90.188,510.959c75.779,80.918,204.247,74.8,296.887,15.9,66.794-42.471,121.722-105.791,187.566-150.715,72.206-49.266,163.1-65.106,233.428-18.353,54.781,36.415,91.194,95.526,136.639,132.465,42.862,34.839,86.578,65.789,144.373,59.85,62.4-6.414,120.953-58.1,183.709-84.663,74.547-31.553,158.081-27.355,233.048,1.4,63.692,24.628,164.463,118.259,222,27.474" transform="translate(115.469 81.077)" fill="none" stroke="#020305" stroke-linecap="round" stroke-linejoin="round" stroke-width="1.007" stroke-dasharray="0 2.015"/>
    <path id="Path_1052" data-name="Path 1052" d="M-89.01,514.762C-6.535,599.44,130.355,593.181,228.242,528.2c63.77-42.333,116.692-103.811,180.807-146.312,72.688-48.183,162.827-57.807,231.178-8.859,53.86,38.573,90.48,95.8,139.9,125.739,44.814,27.145,88.213,48.682,144.172,37.872,59.831-11.56,117.21-62.287,179.452-86.842,72.528-28.611,152.627-21.531,224.781,7.095,61.809,24.763,168.964,121.283,222.009,26.276" transform="translate(116.483 90.431)" fill="none" stroke="#020305" stroke-linecap="round" stroke-linejoin="round" stroke-width="1.007" stroke-dasharray="0 2.015"/>
    <path id="Path_1053" data-name="Path 1053" d="M-87.832,518.774c89.17,88.438,234.583,82.209,337.617,10.976,60.832-42.056,111.685-101.8,174.047-141.91,73.19-47.073,162.539-50.481,228.929.636,52.926,40.752,89.464,96.279,143.162,119.009,46.479,19.676,89.841,31.631,143.971,15.9,57.261-16.647,113.451-66.5,175.193-89.019,70.493-25.709,147.177-15.708,216.516,12.792,59.928,24.9,173.465,124.306,222.015,25.08" transform="translate(117.497 99.575)" fill="none" stroke="#020305" stroke-linecap="round" stroke-linejoin="round" stroke-width="1.007" stroke-dasharray="0 2.015"/>
    <path id="Path_1054" data-name="Path 1054" d="M-86.654,522.994c95.866,92.2,249.93,86.185,357.983,8.514C329.3,489.841,378.028,431.747,438.613,394c73.719-45.928,162.23-43.126,226.681,10.133,51.977,42.951,88.254,97.1,146.424,112.281,47.969,12.518,91.479,14.634,143.769-6.082,54.7-21.673,109.68-70.749,170.938-91.2,68.437-22.845,141.783-10.02,208.25,18.489,58.095,24.92,177.965,127.33,222.018,23.881" transform="translate(118.511 108.512)" fill="none" stroke="#020305" stroke-linecap="round" stroke-linejoin="round" stroke-width="1.007" stroke-dasharray="0 2.015"/>
    <path id="Path_1055" data-name="Path 1055" d="M-85.475,527.412c102.561,95.961,265.425,90.357,378.346,6.055C348.045,492.276,394.6,435.779,453.4,400.362c74.271-44.743,161.9-35.749,224.431,19.626,51.01,45.173,87.01,98.347,149.685,105.555,49.438,5.686,93.142-2.307,143.568-28.06,52.169-26.643,105.893-75.034,166.681-93.375,66.366-20.022,136.33-4.188,199.983,24.188,56.214,25.061,182.466,130.353,222.024,22.683" transform="translate(119.525 117.25)" fill="none" stroke="#020305" stroke-linecap="round" stroke-linejoin="round" stroke-width="1.007" stroke-dasharray="0 2.015"/>
    <path id="Path_1056" data-name="Path 1056" d="M-84.3,532.02c109.255,99.72,281.1,94.74,398.711,3.591,52.444-40.642,96.787-95.58,153.764-128.7,74.85-43.511,161.545-28.347,222.18,29.123,50.025,47.411,86.051,93.976,152.949,98.827,50.885,3.69,94.845-19.2,143.367-50.038,49.676-31.566,102.094-79.364,162.422-95.554,64.283-17.248,130.82,1.766,191.717,29.888,54.281,25.312,186.969,133.377,222.028,21.485" transform="translate(120.539 125.801)" fill="none" stroke="#020305" stroke-linecap="round" stroke-linejoin="round" stroke-width="1.007" stroke-dasharray="0 2.015"/>
    <path id="Path_1057" data-name="Path 1057" d="M-83.119,546.758c115.952,103.48,296.98,99.355,419.076,1.131,49.772-40.041,91.858-93.438,147-124.3,75.455-42.229,161.166-20.93,219.931,38.616,49.017,49.668,84.98,101.9,156.211,92.1,52.772-7.262,96.6-36.069,143.166-72.016,47.232-36.459,98.287-83.746,158.164-97.731,62.194-14.526,125.369,7.588,183.451,35.585,52.4,25.45,191.47,136.4,222.033,20.287" transform="translate(121.553 124.219)" fill="none" stroke="#020305" stroke-linecap="round" stroke-linejoin="round" stroke-width="1.007" stroke-dasharray="0 2.015"/>
    <path id="Path_1058" data-name="Path 1058" d="M-81.941,562.086c122.647,107.24,313.1,104.217,439.441-1.33,47.158-39.4,86.946-91.257,140.245-119.9,76.088-40.884,160.649-13.391,217.681,48.113,47.891,52.024,84.327,103.99,159.472,85.372,54.742-13.562,98.4-52.913,142.965-93.995,44.842-41.338,94.474-88.185,153.907-99.909,60.1-11.854,119.917,13.413,175.184,41.284,50.515,25.586,195.971,139.426,222.037,19.088" transform="translate(122.567 122.048)" fill="none" stroke="#020305" stroke-linecap="round" stroke-linejoin="round" stroke-width="1.007" stroke-dasharray="0 2.015"/>
    <path id="Path_1059" data-name="Path 1059" d="M-80.763,577.587c129.343,111,329.493,109.35,459.807-3.792,44.6-38.718,82.043-89.041,133.483-115.494,76.75-39.47,160.328-6.053,215.432,57.606,46.931,54.218,83.908,106.137,162.734,78.646,56.9-19.846,100.261-69.756,142.764-115.973s90.664-92.69,149.648-102.086c58.013-9.242,114.465,19.235,166.919,46.981,48.632,25.724,200.472,142.449,222.042,17.89" transform="translate(123.581 119.704)" fill="none" stroke="#020305" stroke-linecap="round" stroke-linejoin="round" stroke-width="1.007" stroke-dasharray="0 2.015"/>
    <path id="Path_1060" data-name="Path 1060" d="M-93.816,558.975c74.72,63.292,175.781,92.063,270.079,78.865,71.758-10.042,141.618-38.508,198.835-78.4,13.752-9.588,26.866-19.844,39.74-29.951,29.731-23.342,57.857-46.706,92.7-59.744a149.026,149.026,0,0,1,31.544-8.105c65.666-9.22,134.763,23.974,184.967,74.48,13.023,13.017,25.5,25.636,38.088,36.785,35.52,31.466,72.444,50.913,130.152,29.914,39.587-14.534,73.2-42.611,104.559-73.925,14.115-14.094,27.779-28.844,41.347-43.316,43.476-46.416,91.879-93.5,150.126-106.863a167.488,167.488,0,0,1,47.85-3.507c26.1,1.649,51.793,8.563,77.282,18.14a411.056,411.056,0,0,1,41.952,18.865c20.865,10.65,56.366,36.482,92.714,55.751,55.541,29.439,115.537,45.66,132.748-25.227" transform="translate(112.347 119.797)" fill="none" stroke="#020305" stroke-linecap="round" stroke-linejoin="round" stroke-width="1.021" stroke-dasharray="0 2.042"/>
    <path id="Path_1061" data-name="Path 1061" d="M-106.87,541.026c75.412,63.054,180.315,93.907,274.855,77.63,73.248-12.611,144.336-41.489,203.164-72.9,14.005-7.478,27.394-15.213,40.441-22.618,29.9-16.973,57.144-33.663,90.954-41.275a152.638,152.638,0,0,1,30.608-3.82c64.317-1.263,133.842,32.868,186.982,78.962,13.8,11.969,27.236,23.217,40.651,33.079,37.507,27.571,76.052,43.478,133.092,21.675,39.972-15.28,74.35-43.55,106.548-74.966,14.5-14.143,28.555-28.946,42.5-43.549,44.447-46.613,93.046-94.473,150.6-111.639a185.183,185.183,0,0,1,47.084-7.327c25.841-.863,51.349,3.027,77.118,10.34a255.29,255.29,0,0,1,43.048,17c22.358,11.037,57.578,38.03,92.893,58.419,54.649,31.549,114.541,51.588,135.989-15.263" transform="translate(101.112 119.225)" fill="none" stroke="#020305" stroke-linecap="round" stroke-linejoin="round" stroke-width="1.035" stroke-dasharray="0 2.07"/>
    <path id="Path_1062" data-name="Path 1062" d="M-119.924,524.086c76.1,62.815,184.848,95.7,279.631,76.394,74.74-15.22,146.911-44.5,207.5-67.4,14.225-5.377,27.852-10.57,41.143-15.284,29.91-10.6,56.4-20.629,89.207-22.808a171.286,171.286,0,0,1,29.675.467c63.015,6.741,133.023,41.673,188.994,83.444,14.6,10.9,28.955,20.806,43.219,29.374,39.446,23.7,79.621,35.94,136.032,13.432,40.329-16.093,75.5-44.486,108.537-76,14.878-14.193,29.329-29.047,43.653-43.781,45.42-46.81,94.233-95.33,151.083-116.413a212.2,212.2,0,0,1,46.317-11.147,235.31,235.31,0,0,1,76.955,2.536,185.027,185.027,0,0,1,44.146,15.144c23.856,11.415,58.782,39.6,93.072,61.089,53.749,33.689,113.544,57.516,139.229-5.3" transform="translate(89.877 117.644)" fill="none" stroke="#020305" stroke-linecap="round" stroke-linejoin="round" stroke-width="1.049" stroke-dasharray="0 2.098"/>
    <path id="Path_1063" data-name="Path 1063" d="M-132.977,508.337c76.795,62.577,189.375,97.431,284.406,75.157,76.227-17.866,149.358-47.6,211.827-61.9,14.413-3.3,28.23-5.967,41.844-7.951,29.746-4.332,55.62-7.627,87.462-4.341a219.171,219.171,0,0,1,28.74,4.754c61.742,14.816,132.229,50.463,191.007,87.927A439.507,439.507,0,0,0,758.1,627.649c41.342,19.853,83.186,28.386,138.97,5.191,40.687-16.917,76.653-45.424,110.528-77.042,15.259-14.241,30.1-29.147,44.8-44.012,46.391-47.009,95.42-96.168,151.559-121.19a252.042,252.042,0,0,1,45.552-14.967c25.338-5.937,50.546-8.157,76.791-5.266,15.475,1.7,30.576,6.469,45.242,13.283,25.359,11.782,59.978,41.184,93.25,63.759,52.841,35.853,112.549,63.442,142.47,4.663" transform="translate(78.643 114.872)" fill="none" stroke="#020305" stroke-linecap="round" stroke-linejoin="round" stroke-width="1.063" stroke-dasharray="0 2.126"/>
    <path id="Path_1064" data-name="Path 1064" d="M-146.031,493.571c77.487,62.337,193.9,99.119,289.184,73.92,77.708-20.549,151.712-50.842,216.157-56.406a290.918,290.918,0,0,1,42.546-.616c29.475,1.747,54.833,5.333,85.715,14.128,9.009,2.566,18.322,5.437,27.807,9.039,60.467,22.966,131.449,59.232,193.02,92.409a383.254,383.254,0,0,0,48.353,21.961c43.208,16.054,86.744,20.817,141.908-3.048C939.7,627.2,976.465,598.6,1011.176,566.876c15.642-14.292,30.879-29.249,45.958-44.244,47.365-47.208,96.614-96.983,152.037-125.964a311.219,311.219,0,0,1,44.788-18.789c25.085-8.5,50.167-13.81,76.625-13.067,15.912.447,31.359,4.655,46.34,11.422,26.866,12.137,61.165,42.789,93.427,66.429,51.918,38.045,111.553,69.371,145.711,14.627" transform="translate(67.408 111.119)" fill="none" stroke="#020305" stroke-linecap="round" stroke-linejoin="round" stroke-width="1.077" stroke-dasharray="0 2.153"/>
    <path id="Path_1065" data-name="Path 1065" d="M-159.085,479.376c78.179,62.1,198.4,100.763,293.96,72.684,79.18-23.267,154.047-54.26,220.489-50.907a211.871,211.871,0,0,1,43.247,6.719c29.218,7.612,54.057,18.246,83.967,32.593,8.656,4.153,17.674,8.479,26.873,13.328,59.169,31.181,130.685,67.977,195.033,96.888a346.808,346.808,0,0,0,50.92,18.257c45.056,12.3,90.294,13.231,144.848-11.289,41.385-18.6,78.957-47.3,114.506-79.12,16.022-14.34,31.653-29.35,47.11-44.475,48.336-47.408,97.816-97.781,152.515-130.74a400.9,400.9,0,0,1,44.021-22.609c24.831-11.076,49.791-19.505,76.463-20.869,16.35-.837,32.143,2.836,47.434,9.562,28.38,12.483,62.343,44.408,93.605,69.1,50.976,40.259,110.558,75.3,148.952,24.588" transform="translate(56.173 106.794)" fill="none" stroke="#020305" stroke-linecap="round" stroke-linejoin="round" stroke-width="1.091" stroke-dasharray="0 2.181"/>
    <path id="Path_1066" data-name="Path 1066" d="M-172.138,465.412c78.871,61.859,202.9,102.371,298.735,71.449,80.641-26.019,156.427-57.842,224.82-45.411A182.52,182.52,0,0,1,395.366,505.5c29.074,13.339,53.311,31.131,82.222,51.06,8.311,5.731,17.018,11.527,25.939,17.615,57.82,39.448,129.927,76.7,197.045,101.37A323.726,323.726,0,0,0,754.06,690.1c46.9,8.591,93.838,5.629,147.786-19.531,41.727-19.459,80.108-48.235,116.5-80.159,16.405-14.39,32.429-29.45,48.264-44.708,49.309-47.6,99.031-98.564,152.994-135.517,14.422-9.876,28.924-18.454,43.255-26.427,24.566-13.668,49.408-25.238,76.3-28.673,16.781-2.142,32.93,1.012,48.53,7.7,29.9,12.82,63.51,46.042,93.786,71.769,50.014,42.5,109.561,81.227,152.192,34.55" transform="translate(44.939 102.236)" fill="none" stroke="#020305" stroke-linecap="round" stroke-linejoin="round" stroke-width="1.104" stroke-dasharray="0 2.209"/>
    <path id="Path_1067" data-name="Path 1067" d="M-185.192,451.593c79.563,61.621,207.377,103.943,303.511,70.214,82.086-28.8,158.9-61.549,229.15-39.913a175.1,175.1,0,0,1,44.652,21.386c29.067,19.014,52.6,44,80.475,69.529,7.977,7.3,16.353,14.578,25.005,21.9,56.42,47.744,129.172,85.4,199.06,105.852a310.088,310.088,0,0,0,56.052,10.846c48.751,4.925,97.377-1.985,150.726-27.77,42.064-20.329,81.262-49.175,118.486-81.2,16.785-14.439,33.2-29.553,49.413-44.94,50.284-47.8,100.263-99.333,153.474-140.291,14.154-10.9,28.394-20.808,42.488-30.247,24.291-16.27,49.009-31,76.136-36.474,17.206-3.47,33.719-.817,49.627,5.841,31.417,13.147,64.659,47.687,93.963,74.439,49.032,44.762,108.565,87.153,155.433,44.512" transform="translate(33.704 97.534)" fill="none" stroke="#020305" stroke-linecap="round" stroke-linejoin="round" stroke-width="1.118" stroke-dasharray="0 2.237"/>
    <path id="Path_1068" data-name="Path 1068" d="M-198.245,437.877c80.253,61.381,211.837,105.484,308.285,68.976,83.517-31.614,161.488-65.329,233.482-34.416,15.324,6.581,30.269,15.953,45.353,28.721,29.177,24.7,51.916,56.876,78.73,88q11.474,13.319,24.071,26.187c54.969,56.05,128.415,94.078,201.071,110.335a303.56,303.56,0,0,0,58.62,7.139c50.617,1.293,100.907-9.612,153.665-36.011,42.391-21.211,82.412-50.111,120.475-82.237,17.166-14.487,33.975-29.653,50.565-45.171,51.255-48,101.506-100.1,153.95-145.067,13.894-11.914,27.856-23.163,41.723-34.068,24-18.876,48.591-36.791,75.972-44.276,17.617-4.815,34.508-2.648,50.723,3.98,32.943,13.465,65.8,49.344,94.141,77.109,48.023,47.043,107.57,93.081,158.674,54.476" transform="translate(22.47 92.732)" fill="none" stroke="#020305" stroke-linecap="round" stroke-linejoin="round" stroke-width="1.132" stroke-dasharray="0 2.265"/>
    <path id="Path_1069" data-name="Path 1069" d="M-211.3,424.232c80.946,61.145,216.211,106.824,313.062,67.739,84.87-34.606,164.182-69.14,237.813-28.916,15.566,8.5,30.829,20.281,46.055,36.054,29.367,30.424,51.328,69.707,76.983,106.463,7.35,10.442,15,20.685,23.137,30.474C539.225,700.4,613.417,738.684,688.835,750.862a304.545,304.545,0,0,0,61.187,3.433c52.5-2.311,104.394-17.319,156.6-44.25,42.685-22.16,83.564-51.049,122.464-83.277,17.55-14.537,34.751-29.754,51.719-45.4,52.228-48.2,102.821-100.789,154.428-149.844q20.475-19.369,40.957-37.887c23.666-21.528,48.15-42.6,75.808-52.078,18.015-6.175,35.308-4.507,51.819,2.119,34.487,13.73,66.922,51.008,94.322,79.777,46.987,49.339,106.572,99.009,161.914,64.44" transform="translate(11.235 87.855)" fill="none" stroke="#020305" stroke-linecap="round" stroke-linejoin="round" stroke-width="1.146" stroke-dasharray="0 2.292"/>
    <path id="Path_1070" data-name="Path 1070" d="M-224.353,410.634c81.638,60.9,220.706,108.489,317.838,66.5,104.505-45.173,200.673-87.882,288.9,19.969C420.42,543.6,444.253,607.05,479.826,656.8c65.986,92.275,169.06,129.843,268.851,119.027s196.605-65.713,284-136.808,166.841-158.406,247.967-241.961c23.394-24.1,47.685-48.416,75.645-59.881,57.755-23.682,108.572,39.023,147.416,82.708,45.926,51.65,105.577,104.935,165.155,74.4" transform="translate(0 82.932)" fill="none" stroke="#020305" stroke-linecap="round" stroke-linejoin="round" stroke-width="1.16" stroke-dasharray="0 2.32"/>
    <path id="Path_1071" data-name="Path 1071" d="M660.527,322.316l-36.009,36.009a25.462,25.462,0,0,0,36.009-36.009Z" transform="translate(730.58 74.605)" fill="#071932"/>
    <path id="Path_1072" data-name="Path 1072" d="M627.967,361.775l36.009-36.009a25.462,25.462,0,0,0-36.009,36.009Z" transform="translate(727.131 71.155)" fill="#071932"/>
    <path id="Path_1073" data-name="Path 1073" d="M385.257,402.657l-36.009,36.009a25.462,25.462,0,1,0,36.009-36.009Z" transform="translate(493.669 143.75)" fill="#071932"/>
    <path id="Path_1074" data-name="Path 1074" d="M352.7,442.116l36.009-36.009A25.462,25.462,0,0,0,352.7,442.116Z" transform="translate(490.22 140.301)" fill="#071932"/>
    <path id="Path_1075" data-name="Path 1075" d="M547.991,335.49,537.2,346.28a7.629,7.629,0,0,0,10.788-10.79Z" transform="translate(655.433 85.943)" fill="#071932"/>
    <path id="Path_1076" data-name="Path 1076" d="M538.236,347.313l10.788-10.79a7.629,7.629,0,1,0-10.788,10.79Z" transform="translate(654.399 84.909)" fill="#071932"/>
    <path id="Path_1077" data-name="Path 1077" d="M507.165,469.673l-10.788,10.788a7.628,7.628,0,1,0,10.788-10.788Z" transform="translate(620.296 201.427)" fill="#e4585d"/>
    <path id="Path_1078" data-name="Path 1078" d="M497.41,481.494,508.2,470.706a7.628,7.628,0,1,0-10.788,10.788Z" transform="translate(619.262 200.394)" fill="#e4585d"/>
    <path id="Path_1079" data-name="Path 1079" d="M480.415,390.978l-5.394,5.394a3.814,3.814,0,0,0,5.394-5.394Z" transform="translate(601.916 133.699)" fill="#071932"/>
    <path id="Path_1080" data-name="Path 1080" d="M475.537,396.889l5.394-5.394a3.814,3.814,0,0,0-5.394,5.394Z" transform="translate(601.399 133.182)" fill="#071932"/>
    <path id="Path_1081" data-name="Path 1081" d="M577.665,367.374l-5.394,5.4a3.815,3.815,0,0,0,5.394-5.4Z" transform="translate(685.614 113.384)" fill="#071932"/>
    <path id="Path_1082" data-name="Path 1082" d="M572.788,373.286l5.394-5.4a3.815,3.815,0,0,0-5.394,5.4Z" transform="translate(685.097 112.867)" fill="#071932"/>
    <path id="Path_1083" data-name="Path 1083" d="M417.337,374.181l-5.394,5.394a3.814,3.814,0,1,0,5.394-5.394Z" transform="translate(547.628 119.242)" fill="#071932"/>
    <path id="Path_1084" data-name="Path 1084" d="M412.46,380.092l5.394-5.394a3.814,3.814,0,0,0-5.394,5.394Z" transform="translate(547.111 118.725)" fill="#071932"/>
    <path id="Path_1085" data-name="Path 1085" d="M640.143,437.648l-5.394,5.394a3.814,3.814,0,0,0,5.394-5.394Z" transform="translate(739.385 173.865)" fill="#071932"/>
    <path id="Path_1086" data-name="Path 1086" d="M635.266,443.559l5.394-5.394a3.814,3.814,0,0,0-5.394,5.394Z" transform="translate(738.869 173.348)" fill="#071932"/>
    <path id="Path_1087" data-name="Path 1087" d="M538.133,430.937l-5.394,5.394a3.814,3.814,0,0,0,5.394-5.394Z" transform="translate(651.591 168.089)" fill="#071932"/>
    <path id="Path_1088" data-name="Path 1088" d="M533.256,436.848l5.394-5.394a3.814,3.814,0,1,0-5.394,5.394Z" transform="translate(651.074 167.572)" fill="#071932"/>
  </g>
</svg>
