<svg xmlns="http://www.w3.org/2000/svg" width="2142.448" height="543.26" viewBox="0 0 2142.448 543.26">
  <g id="with_two_group" data-name="with two group" transform="translate(10398.826 20079.605)">
    <g id="line_2" data-name="line 2" transform="translate(-271.032 82.975)">
      <path id="Path_1037" data-name="Path 1037" d="M-112.559,307.643C-67.9,351.16-16.972,391.374,44.7,415.1c83.527,32.135,194.726,29.182,261.878-31.147,77.317-69.465,121.6-138.529,245.677-147.5,87.486-6.324,191.4,23.889,239.479,88.275,28.526,38.2,44.263,82.546,67.945,123.216,56.794,97.543,152.948,120.713,265.684,68.613,53.849-24.884,114.789-53.641,171.595-36.988,74.488,21.833,102.593,111.987,180.069,124.8,42.333,7,84.433-12.18,125.013-26.125,96.613-33.205,136.729,39.089,224.361,29.938,22-2.3,41.917-12.729,63.438-17.526,22.213-4.951,65.768.019,58.058,27.365" transform="translate(-10014.431 -20397.633)" fill="none" stroke="#dbdee2" stroke-linecap="round" stroke-linejoin="round" stroke-width="1" stroke-dasharray="0 2.015"/>
      <path id="Path_1038" data-name="Path 1038" d="M-110.847,324.2c44.39,43.31,96.412,81.247,158.344,102.533,44.4,15.332,95.974,20.862,144.347,13.78,42.693-6.265,83.053-22.24,114.526-49.8,57.815-50.708,98.37-101.632,166-128.66,22.441-8.985,47.921-15.28,77.926-18.218,86.619-8.483,188.85,17.6,239.586,78.86,30.376,36.679,48.081,80.3,72.535,120.92q18.782,31.32,42.274,53.136c55.88,51.709,129.728,57.959,219.751,25.645,28.5-10.232,58.7-24.36,88.844-34.785,39.138-13.512,80.484-18.616,119.406-7.37,70.3,20.562,98.58,103.813,171.8,116.644,39.943,6.983,79.731-9.794,118.059-22.091,90.779-29.123,130.023,36.817,212.478,27.7,20.741-2.3,39.59-12.083,59.884-16.843,20.963-4.918,61.318-.926,55.061,23.282" transform="translate(-10012.915 -20391.922)" fill="none" stroke="#dbdee2" stroke-linecap="round" stroke-linejoin="round" stroke-width="1" stroke-dasharray="0 2.015"/>
      <path id="Path_1039" data-name="Path 1039" d="M-109.135,340.893c44.123,43.1,97.236,78.761,159.427,97.606,44.4,13.581,95.339,17.475,142.824,9.4,41.962-7.164,81.557-23.442,113.044-50.3,57.513-49.2,99.167-99.059,165.721-126.707,22.182-9.247,47.252-15.916,76.448-19.55,85.761-10.676,186.345,11.3,239.691,69.443,32.255,35.153,51.9,78.06,77.129,118.626,12.716,20.6,26.807,38.435,42.249,53.291,54.749,52.347,125.965,61.07,216.113,35.659,34.149-9.625,69.539-26.49,104.816-39.12,45.4-16.216,94.555-21.353,140.084-8.2,66.19,19.12,94.57,95.639,163.542,108.487,37.556,6.964,75.019-7.409,111.106-18.054,84.925-25.052,123.319,34.545,200.594,25.459,19.486-2.305,37.264-11.439,56.333-16.16,19.71-4.886,56.865-1.874,52.058,19.2" transform="translate(-10011.398 -20386.352)" fill="none" stroke="#dbdee2" stroke-linecap="round" stroke-linejoin="round" stroke-width="1" stroke-dasharray="0 2.015"/>
      <path id="Path_1040" data-name="Path 1040" d="M-107.422,357.752c43.854,42.894,98.1,76.171,160.5,92.679,44.443,11.759,94.707,14.091,141.3,5.027,41.234-8.058,80.06-24.641,111.561-50.8,57.213-47.694,99.965-96.488,165.443-124.751,21.925-9.51,46.587-16.569,74.971-20.884,84.914-12.909,183.888,5,239.8,60.028,34.158,33.62,55.716,75.816,81.72,116.328,12.911,20.311,26.92,38.264,42.223,53.447,53.487,53.071,123.1,65.372,212.477,45.673,40.062-8.829,80.38-28.622,120.788-43.454,51.669-18.921,108.6-24.027,160.761-9.037,62.015,17.821,90.561,87.465,155.278,100.33,35.166,6.944,70.3-5.029,104.153-14.02,79.05-20.992,116.612,32.273,188.711,23.221,18.229-2.311,34.935-10.794,52.78-15.475,18.46-4.854,52.413-2.821,49.059,15.112" transform="translate(-10009.88 -20380.945)" fill="none" stroke="#dbdee2" stroke-linecap="round" stroke-linejoin="round" stroke-width="1" stroke-dasharray="0 2.015"/>
      <path id="Path_1041" data-name="Path 1041" d="M-105.71,374.8A335.605,335.605,0,0,0,55.873,462.551c44.449,10,94.073,10.7,139.779.651,40.506-8.955,78.564-25.843,110.078-51.306,56.908-46.187,100.763-93.913,165.163-122.8,21.665-9.77,45.92-17.235,73.493-22.216,84.065-15.183,181.474-1.325,239.9,50.613,36.088,32.078,59.645,73.525,86.31,114.032,13.165,20,27.065,38.071,42.2,53.6,52.337,53.717,120.682,70.541,208.84,55.686,46.143-7.776,91.218-30.753,136.757-47.789,57.936-21.626,122.633-26.689,181.438-9.869,57.831,16.541,86.55,79.292,147.015,92.171,32.775,6.925,65.568-2.653,97.2-9.982,73.149-16.949,109.906,30,176.825,20.981,16.976-2.315,32.608-10.148,49.229-14.792,17.207-4.823,47.963-3.766,46.056,11.028" transform="translate(-10008.363 -20375.727)" fill="none" stroke="#dbdee2" stroke-linecap="round" stroke-linejoin="round" stroke-width="1" stroke-dasharray="0 2.015"/>
      <path id="Path_1042" data-name="Path 1042" d="M-104,392.056c43.315,42.475,99.746,71.164,162.661,82.825,44.447,8.237,93.437,7.318,138.252-3.725,39.777-9.852,77.067-27.044,108.594-51.806,56.607-44.68,101.56-91.341,164.883-120.842,21.408-10.031,45.255-17.918,72.018-23.548,83.21-17.5,179.1-7.668,240.008,41.2,38.042,30.522,63.469,71.276,90.9,111.734,13.367,19.717,27.215,37.877,42.171,53.76,51.2,54.359,118.458,76.337,205.2,65.7,52.318-6.415,102.055-32.885,152.725-52.122,64.2-24.332,136.663-29.344,202.111-10.7,53.639,15.278,82.539,71.118,138.751,84.014,30.385,6.9,60.823-.288,90.248-5.948,67.218-12.93,103.2,27.729,164.94,18.742,15.721-2.32,30.282-9.5,45.678-14.109,15.956-4.789,43.51-4.713,43.056,6.944" transform="translate(-10006.847 -20370.719)" fill="none" stroke="#dbdee2" stroke-linecap="round" stroke-linejoin="round" stroke-width="1" stroke-dasharray="0 2.015"/>
      <path id="Path_1043" data-name="Path 1043" d="M-102.285,409.541c43.048,42.268,100.559,68.677,163.738,77.9,44.448,6.488,92.8,3.933,136.729-8.1,39.046-10.747,75.569-28.243,107.109-52.3,56.3-43.173,102.355-88.77,164.6-118.888a345.955,345.955,0,0,1,70.539-24.881c82.343-19.87,176.768-14.037,240.11,31.782,40.02,28.952,67.284,69.032,95.486,109.44,13.562,19.431,27.367,37.68,42.146,53.914,50.066,54.993,116.338,68.306,201.558,75.714,58.479,5.083,112.892-35.016,168.7-56.458,70.464-27.035,150.686-31.985,222.784-11.534,49.44,14.024,78.525,62.944,130.484,75.855,28,6.888,56.063,2.065,83.294-1.911,61.256-8.946,96.494,25.457,153.054,16.5,14.466-2.324,27.955-8.859,42.127-13.426,14.7-4.756,39.058-5.658,40.054,2.86" transform="translate(-10005.33 -20365.938)" fill="none" stroke="#dbdee2" stroke-linecap="round" stroke-linejoin="round" stroke-width="1" stroke-dasharray="0 2.015"/>
      <path id="Path_1044" data-name="Path 1044" d="M-100.572,427.271C-57.8,469.329.8,493.469,64.24,500.242c44.444,4.745,92.167.547,135.205-12.477a346.712,346.712,0,0,0,105.622-52.805c56-41.666,103.151-86.2,164.32-116.934a368.435,368.435,0,0,1,69.061-26.213c81.458-22.283,174.469-20.437,240.211,22.367,42.022,27.361,71.092,66.79,100.077,107.144,13.752,19.146,27.521,37.481,42.119,54.069,48.951,55.622,114.6,77.1,197.919,85.727,64.255,6.654,123.727-37.148,184.661-60.791,76.729-29.741,164.7-34.612,243.452-12.368,45.239,12.779,74.514,54.77,122.22,67.7,25.605,6.868,51.291,4.4,76.341,2.125,55.261-5.015,89.787,23.184,141.169,14.264,13.211-2.33,25.629-8.215,38.574-12.745,13.454-4.724,34.611-6.605,37.056-1.224" transform="translate(-10003.812 -20361.402)" fill="none" stroke="#dbdee2" stroke-linecap="round" stroke-linejoin="round" stroke-width="1" stroke-dasharray="0 2.015"/>
      <path id="Path_1045" data-name="Path 1045" d="M-98.86,445.254C-56.352,487.105,3.32,508.985,67.031,513.3a355.53,355.53,0,0,0,133.678-16.854,390.492,390.492,0,0,0,104.14-53.306c55.695-40.158,103.947-83.625,164.039-114.979a395.855,395.855,0,0,1,67.583-27.547c80.544-24.747,172.194-26.873,240.313,12.952,44.04,25.748,74.789,64.6,104.663,104.846,13.9,18.887,27.723,37.259,42.094,54.225,47.985,56.171,112.416,86.565,194.28,95.742,70.143,7.863,134.56-39.278,200.622-65.127,82.994-32.444,178.706-37.219,264.121-13.2,41.037,11.54,70.5,46.6,113.96,59.539,23.213,6.849,46.5,6.7,69.385,6.161,49.237-1.155,83.083,20.914,129.289,12.025,11.956-2.335,23.3-7.571,35.021-12.063,12.2-4.691,30.158-7.551,34.054-5.307" transform="translate(-10002.295 -20357.119)" fill="none" stroke="#dbdee2" stroke-linecap="round" stroke-linejoin="round" stroke-width="1" stroke-dasharray="0 2.015"/>
      <path id="Path_1046" data-name="Path 1046" d="M-97.147,463.5c42.238,41.643,102.988,61.362,166.965,63.119a361.9,361.9,0,0,0,132.155-21.232,449.692,449.692,0,0,0,102.654-53.8c55.394-38.651,104.744-81.052,163.757-113.025a430.761,430.761,0,0,1,66.107-28.879c79.592-27.26,169.94-33.347,240.415,3.537,46.069,24.11,78.6,62.354,109.251,102.55,14.09,18.6,27.875,37.062,42.068,54.379,46.855,56.809,109.766,96.512,190.638,105.756,76.144,8.7,145.4-41.411,216.586-69.46,89.256-35.151,192.7-39.8,284.787-14.033,36.834,10.3,66.493,38.422,105.7,51.38,20.823,6.83,41.715,8.951,62.433,10.2,43.21,2.6,76.377,18.64,117.405,9.785,10.7-2.339,20.974-6.925,31.471-11.378A173.265,173.265,0,0,1,1966.3,543" transform="translate(-10000.778 -20353.076)" fill="none" stroke="#dbdee2" stroke-linecap="round" stroke-linejoin="round" stroke-width="1" stroke-dasharray="0 2.015"/>
      <path id="Path_1047" data-name="Path 1047" d="M-95.435,481.991c41.97,41.435,103.81,58.877,168.044,58.192a370.284,370.284,0,0,0,130.629-25.606c36.129-14.334,69.578-33.047,101.17-54.3C359.5,423.127,409.945,381.791,467.883,349.2a475.579,475.579,0,0,1,64.626-30.211c78.6-29.819,167.7-39.855,240.518-5.878,48.108,22.445,82.416,60.11,113.838,100.254,14.285,18.316,28.024,36.865,42.041,54.534,45.726,57.446,106.178,110.136,187,115.77,82.745,5.766,156.227-43.541,232.547-73.8,95.517-37.855,206.611-42.205,305.451-14.865,32.608,9.119,62.485,30.249,97.435,43.223a302.675,302.675,0,0,0,55.481,14.232c37.235,6.224,69.675,16.37,105.524,7.547,9.446-2.343,18.648-6.28,27.92-10.7,9.7-4.627,21.256-9.445,28.052-13.477" transform="translate(-9999.261 -20349.305)" fill="none" stroke="#dbdee2" stroke-linecap="round" stroke-linejoin="round" stroke-width="1" stroke-dasharray="0 2.015"/>
      <path id="Path_1048" data-name="Path 1048" d="M-93.722,500.736c70.437,69.639,201.457,64.914,298.222,23.282S377.719,412.463,467.38,360.095s207.22-86.8,303.771-46.838C843.861,343.349,886.99,407.82,931.589,465.9s103.11,117.347,183.362,125.784c88.449,9.3,167.058-45.671,248.506-78.129,101.78-40.56,220.622-44.829,326.118-15.7,87.7,24.215,190.928,109.185,280.767,31.067" transform="translate(-9997.743 -20345.779)" fill="none" stroke="#dbdee2" stroke-linecap="round" stroke-linejoin="round" stroke-width="1" stroke-dasharray="0 2.015"/>
      <path id="Path_1049" data-name="Path 1049" d="M-92.544,503.925c78.888,73.4,220.314,68.057,323.9,20.821,92.494-42.175,166.728-109.661,254.272-159.519C575.8,313.873,692.4,285.77,786.486,327.884c71.481,32.284,115.946,95,164.528,145.92,48.093,50.4,105.255,100.133,183.066,103.806,85.292,4.026,162.347-49.8,243.065-80.307,99.286-37.529,213.675-39,315.589-10,85.3,24.352,196.575,112.21,280.708,29.871" transform="translate(-9996.7 -20335.811)" fill="none" stroke="#dbdee2" stroke-linecap="round" stroke-linejoin="round" stroke-width="1" stroke-dasharray="0 2.015"/>
      <path id="Path_1050" data-name="Path 1050" d="M-91.366,507.36c87.335,77.157,239.2,71.35,349.577,18.359C346.6,483.283,418.479,417.978,503.876,370.6c90.7-50.319,206.513-72.37,297.941-27.848,70.4,34.284,115.781,95.3,168.614,139.193,51.314,42.629,107.358,82.942,182.77,81.828,82.095-1.215,157.62-53.938,237.628-82.486,96.765-34.524,206.734-33.179,305.066-4.3,82.9,24.49,202.222,115.234,280.65,28.673" transform="translate(-9995.656 -20326.084)" fill="none" stroke="#dbdee2" stroke-linecap="round" stroke-linejoin="round" stroke-width="1" stroke-dasharray="0 2.015"/>
      <path id="Path_1051" data-name="Path 1051" d="M-90.188,510.959c95.777,80.918,258.148,74.8,375.236,15.9,84.42-42.471,153.844-105.791,237.065-150.715,91.262-49.266,206.141-65.106,295.029-18.353C886.38,394.2,932.4,453.314,989.84,490.253c54.173,34.839,109.426,65.789,182.473,59.85,78.861-6.414,152.873-58.1,232.19-84.663,94.22-31.553,199.8-27.355,294.55,1.4,80.5,24.628,207.865,118.259,280.59,27.474" transform="translate(-9994.613 -20316.523)" fill="none" stroke="#dbdee2" stroke-linecap="round" stroke-linejoin="round" stroke-width="1" stroke-dasharray="0 2.015"/>
      <path id="Path_1052" data-name="Path 1052" d="M-89.01,514.762C15.206,599.44,188.182,593.181,311.873,528.2c80.58-42.333,147.454-103.811,228.469-146.312,91.85-48.183,205.75-57.807,292.119-8.859,68.058,38.573,114.331,95.8,176.78,125.739,56.627,27.145,111.467,48.682,182.177,37.872,75.6-11.56,148.107-62.287,226.758-86.842,91.647-28.611,192.861-21.531,284.036,7.095,78.1,24.763,213.5,121.283,280.533,26.276" transform="translate(-9993.569 -20307.166)" fill="none" stroke="#dbdee2" stroke-linecap="round" stroke-linejoin="round" stroke-width="1" stroke-dasharray="0 2.015"/>
      <path id="Path_1053" data-name="Path 1053" d="M-87.832,518.774c112.65,88.438,296.354,82.209,426.518,10.976,76.85-42.056,141.095-101.8,219.877-141.91,92.463-47.073,205.339-50.481,289.211.636,66.863,40.752,113.021,96.279,180.86,119.009,58.718,19.676,113.5,31.631,181.882,15.9,72.34-16.647,143.325-66.5,221.325-89.019,89.055-25.709,185.932-15.708,273.53,12.792,75.708,24.9,219.142,124.306,280.476,25.08" transform="translate(-9992.525 -20298.02)" fill="none" stroke="#dbdee2" stroke-linecap="round" stroke-linejoin="round" stroke-width="1" stroke-dasharray="0 2.015"/>
      <path id="Path_1054" data-name="Path 1054" d="M-86.654,522.994c121.082,92.2,315.67,86.185,452.145,8.514C438.7,489.841,500.255,431.747,576.775,394c93.109-45.928,204.9-43.126,286.306,10.133,65.649,42.951,111.468,97.1,184.938,112.281,60.587,12.518,115.541,14.634,181.585-6.082,69.092-21.673,138.529-70.749,215.9-91.2,86.438-22.845,179.077-10.02,263.026,18.489,73.376,24.92,224.776,127.33,280.416,23.881" transform="translate(-9991.482 -20289.078)" fill="none" stroke="#dbdee2" stroke-linecap="round" stroke-linejoin="round" stroke-width="1" stroke-dasharray="0 2.015"/>
      <path id="Path_1055" data-name="Path 1055" d="M-85.475,527.412c129.508,95.961,335.165,90.357,477.755,6.055,69.671-41.191,128.463-97.688,202.7-133.105,93.786-44.743,204.439-35.749,283.4,19.626,64.412,45.173,109.871,98.347,189.015,105.555,62.427,5.686,117.615-2.307,181.29-28.06,65.876-26.643,133.716-75.034,210.475-93.375,83.8-20.022,172.15-4.188,252.527,24.188,70.984,25.061,230.409,130.353,280.36,22.683" transform="translate(-9990.438 -20280.338)" fill="none" stroke="#dbdee2" stroke-linecap="round" stroke-linejoin="round" stroke-width="1" stroke-dasharray="0 2.015"/>
      <path id="Path_1056" data-name="Path 1056" d="M-84.3,532.02c137.931,99.72,354.876,94.74,503.356,3.591,66.209-40.642,122.19-95.58,194.121-128.7,94.5-43.511,203.944-28.347,280.493,29.123,63.155,47.411,108.636,93.976,193.092,98.827,64.24,3.69,119.738-19.2,180.995-50.038,62.713-31.566,128.889-79.364,205.051-95.554,81.155-17.248,165.155,1.766,242.035,29.888,68.527,25.312,236.041,133.377,280.3,21.485" transform="translate(-9989.395 -20271.783)" fill="none" stroke="#dbdee2" stroke-linecap="round" stroke-linejoin="round" stroke-width="1" stroke-dasharray="0 2.015"/>
      <path id="Path_1057" data-name="Path 1057" d="M-83.119,546.758c146.351,103.48,374.84,99.355,528.946,1.131,62.821-40.041,115.941-93.438,185.545-124.3,95.237-42.229,203.419-20.93,277.59,38.616,61.868,49.668,107.259,101.9,197.165,92.1,66.607-7.262,121.923-36.069,180.7-72.016,59.615-36.459,124.055-83.746,199.631-97.731,78.5-14.526,158.237,7.588,231.546,35.585,66.135,25.45,241.668,136.4,280.244,20.287" transform="translate(-9988.351 -20273.363)" fill="none" stroke="#dbdee2" stroke-linecap="round" stroke-linejoin="round" stroke-width="1" stroke-dasharray="0 2.015"/>
      <path id="Path_1058" data-name="Path 1058" d="M-81.941,562.086c154.766,107.24,395.1,104.217,554.524-1.33,59.508-39.4,109.716-91.257,176.973-119.9,96.014-40.884,202.72-13.391,274.689,48.113,60.433,52.024,106.411,103.99,201.236,85.372,69.078-13.562,124.172-52.913,180.405-93.995,56.585-41.338,119.216-88.185,194.214-99.909,75.841-11.854,151.322,13.413,221.062,41.284,63.744,25.586,247.293,139.426,280.185,19.088" transform="translate(-9987.308 -20275.533)" fill="none" stroke="#dbdee2" stroke-linecap="round" stroke-linejoin="round" stroke-width="1" stroke-dasharray="0 2.015"/>
    </g>
    <g id="line_1" data-name="line 1" transform="translate(-63.022)">
      <path id="Path_1059" data-name="Path 1059" d="M-80.763,577.587c146.64,111,373.555,109.35,521.3-3.792,50.56-38.718,93.015-89.041,151.333-115.494,87.014-39.47,181.769-6.053,244.241,57.606,53.207,54.218,95.128,106.137,184.5,78.646,64.51-19.846,113.669-69.756,161.855-115.973s102.788-92.69,169.661-102.086c65.771-9.242,129.772,19.235,189.24,46.981C1596.5,449.2,1768.64,565.925,1793.1,441.365" transform="translate(-9987.065 -20277.857)" fill="none" stroke="#dbdee2" stroke-linecap="round" stroke-linejoin="round" stroke-width="1.007" stroke-dasharray="0 2.015"/>
      <path id="Path_1060" data-name="Path 1060" d="M-93.816,558.975c84.582,63.292,198.981,92.063,305.725,78.865,81.229-10.042,160.309-38.508,225.077-78.4,15.567-9.588,30.412-19.844,44.985-29.951,33.655-23.342,65.493-46.706,104.932-59.744a186.976,186.976,0,0,1,35.707-8.105c74.333-9.22,152.55,23.974,209.38,74.48,14.741,13.017,28.866,25.636,43.114,36.785,40.208,31.466,82.006,50.913,147.33,29.914,44.812-14.534,82.859-42.611,118.359-73.925,15.978-14.094,31.446-28.844,46.8-43.316,49.214-46.416,104.005-93.5,169.941-106.863a214,214,0,0,1,54.166-3.507c29.548,1.649,58.629,8.563,87.482,18.14a497.757,497.757,0,0,1,47.489,18.865c23.619,10.65,63.806,36.482,104.951,55.751,62.871,29.439,130.786,45.66,150.269-25.227" transform="translate(-9998.3 -20277.785)" fill="none" stroke="#dbdee2" stroke-linecap="round" stroke-linejoin="round" stroke-width="1.021" stroke-dasharray="0 2.042"/>
      <path id="Path_1061" data-name="Path 1061" d="M-106.87,541.026c85.237,63.054,203.808,93.907,310.664,77.63,82.791-12.611,163.141-41.489,229.633-72.9,15.83-7.478,30.963-15.213,45.71-22.618,33.8-16.973,64.589-33.663,102.8-41.275a193.921,193.921,0,0,1,34.6-3.82c72.7-1.263,151.279,32.868,211.343,78.962,15.6,11.969,30.785,23.217,45.948,33.079,42.393,27.571,85.96,43.478,150.432,21.675,45.18-15.28,84.036-43.55,120.43-74.966,16.387-14.143,32.276-28.946,48.038-43.549,50.238-46.613,105.168-94.473,170.226-111.639a234.565,234.565,0,0,1,53.218-7.327c29.207-.863,58.038,3.027,87.166,10.34a311.8,311.8,0,0,1,48.656,17c25.271,11.037,65.079,38.03,105,58.419,61.769,31.549,129.464,51.588,153.706-15.263" transform="translate(-10009.535 -20278.359)" fill="none" stroke="#dbdee2" stroke-linecap="round" stroke-linejoin="round" stroke-width="1.035" stroke-dasharray="0 2.07"/>
      <path id="Path_1062" data-name="Path 1062" d="M-119.924,524.086c85.893,62.815,208.624,95.7,315.6,76.394,84.354-15.22,165.808-44.5,234.185-67.4C445.915,527.7,461.3,522.508,476.3,517.8c33.757-10.6,63.65-20.629,100.681-22.808a218.079,218.079,0,0,1,33.493.467c71.12,6.741,150.134,41.673,213.3,83.444,16.481,10.9,32.68,20.806,48.778,29.374,44.52,23.7,89.862,35.94,153.529,13.432,45.517-16.093,85.213-44.486,122.5-76,16.791-14.193,33.1-29.047,49.268-43.781,51.263-46.81,106.353-95.33,170.516-116.413a265.406,265.406,0,0,1,52.275-11.147,299.2,299.2,0,0,1,86.853,2.536,227.584,227.584,0,0,1,49.824,15.144c26.924,11.415,66.343,39.6,105.043,61.089,60.662,33.689,128.149,57.516,157.137-5.3" transform="translate(-10020.77 -20279.939)" fill="none" stroke="#dbdee2" stroke-linecap="round" stroke-linejoin="round" stroke-width="1.049" stroke-dasharray="0 2.098"/>
      <path id="Path_1063" data-name="Path 1063" d="M-132.977,508.337c86.548,62.577,213.428,97.431,320.528,75.157,85.909-17.866,168.328-47.6,238.732-61.9,16.243-3.3,31.815-5.967,47.159-7.951,33.524-4.332,62.685-7.627,98.57-4.341a275.969,275.969,0,0,1,32.39,4.754c69.584,14.816,149.023,50.463,215.267,87.927a516.2,516.2,0,0,0,51.6,25.668c46.593,19.853,93.751,28.386,156.621,5.191,45.855-16.917,86.389-45.424,124.567-77.042,17.2-14.241,33.927-29.147,50.495-44.012,52.284-47.009,107.539-96.168,170.809-121.19a310.141,310.141,0,0,1,51.338-14.967c28.556-5.937,56.966-8.157,86.544-5.266,17.441,1.7,34.46,6.469,50.988,13.283,28.579,11.782,67.6,41.184,105.094,63.759,59.552,35.853,126.844,63.442,160.565,4.663" transform="translate(-10032.004 -20282.709)" fill="none" stroke="#dbdee2" stroke-linecap="round" stroke-linejoin="round" stroke-width="1.063" stroke-dasharray="0 2.126"/>
      <path id="Path_1064" data-name="Path 1064" d="M-146.031,493.571c87.206,62.337,218.218,99.119,325.458,73.92,87.455-20.549,170.742-50.842,243.271-56.406a368.351,368.351,0,0,1,47.882-.616c33.172,1.747,61.711,5.333,96.466,14.128,10.139,2.566,20.62,5.437,31.3,9.039,68.052,22.966,147.938,59.232,217.232,92.409a459.424,459.424,0,0,0,54.418,21.961c48.628,16.054,97.624,20.817,159.708-3.048,46.186-17.754,87.567-46.362,126.631-78.082,17.6-14.292,34.752-29.249,51.722-44.244,53.306-47.208,108.733-96.983,171.108-125.964a375.666,375.666,0,0,1,50.406-18.789c28.232-8.5,56.46-13.81,86.237-13.067,17.908.447,35.293,4.655,52.152,11.422,30.236,12.137,68.838,42.789,105.146,66.429,58.43,38.045,125.546,69.371,163.989,14.627" transform="translate(-10043.238 -20286.441)" fill="none" stroke="#dbdee2" stroke-linecap="round" stroke-linejoin="round" stroke-width="1.077" stroke-dasharray="0 2.153"/>
      <path id="Path_1065" data-name="Path 1065" d="M-159.085,479.376C-71.22,541.473,63.9,580.139,171.3,552.06c88.99-23.267,173.133-54.26,247.807-50.907a265.514,265.514,0,0,1,48.605,6.719c32.838,7.612,60.755,18.246,94.371,32.593,9.728,4.153,19.864,8.479,30.2,13.328,66.5,31.181,146.876,67.977,219.2,96.888a422.5,422.5,0,0,0,57.229,18.257c50.638,12.3,101.481,13.231,162.794-11.289,46.512-18.6,88.739-47.3,128.694-79.12,18.007-14.34,35.575-29.35,52.947-44.475,54.325-47.408,109.935-97.781,171.412-130.74a473.7,473.7,0,0,1,49.475-22.609c27.907-11.076,55.96-19.505,85.937-20.869,18.375-.837,36.125,2.836,53.311,9.562,31.9,12.483,70.067,44.408,105.2,69.1,57.292,40.259,124.256,75.3,167.407,24.588" transform="translate(-10054.474 -20290.768)" fill="none" stroke="#dbdee2" stroke-linecap="round" stroke-linejoin="round" stroke-width="1.091" stroke-dasharray="0 2.181"/>
      <path id="Path_1066" data-name="Path 1066" d="M-172.138,465.412c88.525,61.859,227.733,102.371,335.3,71.449,90.511-26.019,175.573-57.842,252.338-45.411A223.236,223.236,0,0,1,464.828,505.5c32.633,13.339,59.837,31.131,92.286,51.06,9.329,5.731,19.1,11.527,29.114,17.615,64.9,39.448,145.83,76.7,221.163,101.37A399.047,399.047,0,0,0,867.426,690.1c52.64,8.591,105.324,5.629,165.875-19.531,46.834-19.459,89.914-48.235,130.754-80.159,18.414-14.39,36.4-29.45,54.171-44.708,55.344-47.6,111.152-98.564,171.72-135.517,16.187-9.876,32.464-18.454,48.549-26.427,27.573-13.668,55.455-25.238,85.639-28.673,18.835-2.142,36.96,1.012,54.469,7.7,33.558,12.82,71.283,46.042,105.265,71.769,56.136,42.5,122.971,81.227,170.82,34.55" transform="translate(-10065.708 -20295.326)" fill="none" stroke="#dbdee2" stroke-linecap="round" stroke-linejoin="round" stroke-width="1.104" stroke-dasharray="0 2.209"/>
      <path id="Path_1067" data-name="Path 1067" d="M-185.192,451.593c89.185,61.621,232.456,103.943,340.216,70.214,92.013-28.8,178.118-61.549,256.863-39.913a207.48,207.48,0,0,1,50.052,21.386c32.582,19.014,58.96,44,90.207,69.529,8.941,7.3,18.331,14.578,28.029,21.9,63.244,47.744,144.793,85.4,223.133,105.852a385.18,385.18,0,0,0,62.831,10.846c54.647,4.925,109.153-1.985,168.954-27.77,47.151-20.329,91.089-49.175,132.815-81.2,18.815-14.439,37.219-29.553,55.389-44.94,56.365-47.8,112.388-99.333,172.034-140.291,15.866-10.9,31.828-20.808,47.626-30.247,27.228-16.27,54.936-31,85.344-36.474,19.286-3.47,37.8-.817,55.629,5.841,35.217,13.147,72.479,47.687,105.326,74.439,54.962,44.762,121.695,87.153,174.231,44.512" transform="translate(-10076.942 -20300.027)" fill="none" stroke="#dbdee2" stroke-linecap="round" stroke-linejoin="round" stroke-width="1.118" stroke-dasharray="0 2.237"/>
      <path id="Path_1068" data-name="Path 1068" d="M-198.245,437.877c89.844,61.381,237.153,105.484,345.128,68.976,93.5-31.614,180.787-65.329,261.385-34.416,17.156,6.581,33.886,15.953,50.773,28.721,32.664,24.7,58.12,56.876,88.138,88q12.845,13.319,26.948,26.187c61.538,56.05,143.761,94.078,225.1,110.335a378.594,378.594,0,0,0,65.625,7.139c56.666,1.293,112.966-9.612,172.03-36.011,47.457-21.211,92.261-50.111,134.873-82.237,19.218-14.487,38.036-29.653,56.608-45.171,57.381-48,113.637-100.1,172.348-145.067,15.554-11.914,31.185-23.163,46.709-34.068,26.871-18.876,54.4-36.791,85.051-44.276,19.722-4.815,38.632-2.648,56.785,3.98,36.88,13.465,73.662,49.344,105.392,77.109,53.763,47.043,120.425,93.081,177.637,54.476" transform="translate(-10088.177 -20304.83)" fill="none" stroke="#dbdee2" stroke-linecap="round" stroke-linejoin="round" stroke-width="1.132" stroke-dasharray="0 2.265"/>
      <path id="Path_1069" data-name="Path 1069" d="M-211.3,424.232c90.506,61.145,241.748,106.824,350.038,67.739,94.894-34.606,183.574-69.14,265.9-28.916,17.4,8.5,34.47,20.281,51.494,36.054,32.835,30.424,57.39,69.707,86.075,106.463,8.218,10.442,16.776,20.685,25.87,30.474C627.871,700.4,710.826,738.684,795.151,750.862a380.184,380.184,0,0,0,68.414,3.433c58.705-2.311,116.724-17.319,175.1-44.25,47.727-22.16,93.433-51.049,136.929-83.277,19.623-14.537,38.856-29.754,57.827-45.4,58.4-48.2,114.966-100.789,172.668-149.844q22.893-19.369,45.794-37.887c26.461-21.528,53.837-42.6,84.762-52.078,20.142-6.175,39.478-4.507,57.94,2.119,38.56,13.73,74.826,51.008,105.462,79.777,52.537,49.339,119.16,99.009,181.038,64.44" transform="translate(-10099.411 -20309.707)" fill="none" stroke="#dbdee2" stroke-linecap="round" stroke-linejoin="round" stroke-width="1.146" stroke-dasharray="0 2.292"/>
      <path id="Path_1070" data-name="Path 1070" d="M-224.353,410.634c91.169,60.9,246.474,108.489,354.945,66.5,116.706-45.173,224.1-87.882,322.628,19.969C495.7,543.6,522.311,607.05,562.038,656.8c73.69,92.275,188.8,129.843,300.238,119.027s219.559-65.713,317.152-136.808,186.319-158.406,276.917-241.961c26.125-24.1,53.252-48.416,84.476-59.881,64.5-23.682,121.248,39.023,164.626,82.708,51.288,51.65,117.9,104.935,184.437,74.4" transform="translate(-10110.646 -20314.629)" fill="none" stroke="#dbdee2" stroke-linecap="round" stroke-linejoin="round" stroke-width="1.16" stroke-dasharray="0 2.32"/>
    </g>
    <path id="Union_62" data-name="Union 62" d="M2.344,13.657h0A8,8,0,0,1,13.658,2.343h0A8,8,0,0,1,2.344,13.657Z" transform="translate(-8996 -19728)" fill="#dbdee2"/>
    <circle id="Ellipse_114" data-name="Ellipse 114" cx="25.5" cy="25.5" r="25.5" transform="translate(-9275 -19859)" fill="#dbdee2"/>
    <circle id="Ellipse_115" data-name="Ellipse 115" cx="4" cy="4" r="4" transform="translate(-9154 -19903)" fill="#dbdee2"/>
    <circle id="Ellipse_116" data-name="Ellipse 116" cx="4" cy="4" r="4" transform="translate(-9036 -19873)" fill="#dbdee2"/>
    <circle id="Ellipse_117" data-name="Ellipse 117" cx="4" cy="4" r="4" transform="translate(-8928 -19800)" fill="#dbdee2"/>
    <circle id="Ellipse_118" data-name="Ellipse 118" cx="4" cy="4" r="4" transform="translate(-8857 -19916)" fill="#dbdee2"/>
    <circle id="Ellipse_119" data-name="Ellipse 119" cx="4" cy="4" r="4" transform="translate(-8738 -19786)" fill="#dbdee2"/>
    <circle id="Ellipse_120" data-name="Ellipse 120" cx="8" cy="8" r="8" transform="translate(-8921 -19980)" fill="#dbdee2"/>
    <circle id="Ellipse_121" data-name="Ellipse 121" cx="25.5" cy="25.5" r="25.5" transform="translate(-8769 -20005)" fill="#dbdee2"/>
  </g>
</svg>
