<svg xmlns="http://www.w3.org/2000/svg" width="70.201" height="70.28" viewBox="0 0 70.201 70.28">
  <g id="Asset_Management" data-name="Asset Management" transform="translate(-5411.4 -1695.82)">
    <circle id="Ellipse_63" data-name="Ellipse 63" cx="12" cy="12" r="12" transform="translate(5411.5 1696)" fill="#071932" opacity="0.1"/>
    <path id="Union_7" data-name="Union 7" d="M-5980.1,70c-.017-.146-.149-.155-.247-.2a3.115,3.115,0,0,1-2.1-2.915,3.041,3.041,0,0,1,1.885-3.046c.292-.138.314-.328.313-.592q-.011-2.119,0-4.238a.841.841,0,0,0-.262-.662c-1.987-1.972-3.965-3.954-5.989-5.978a28.882,28.882,0,0,1-2.246,2.771c-.274.289-.236.448.032.7.774.739,1.524,1.5,2.276,2.267.659.668.664,1.157-.007,1.81a34.64,34.64,0,0,1-19.444,9.7,16.348,16.348,0,0,0-2.649.38h-2.188l.035-.029-.035.029h-.547l-.007,0,.007,0h-2.6c-.038-.145-.141-.144-.243-.143a.646.646,0,0,1-.09,0c-1.037-.142-2.081-.244-3.111-.426A35.06,35.06,0,0,1-6045.627,40.1,8.1,8.1,0,0,0-6046,37.87V32.264a7.8,7.8,0,0,0,.315-1.966,34.758,34.758,0,0,1,8.852-18.884c.335-.368.279-.542-.04-.853q-2.052-2-4.056-4.053a.721.721,0,0,0-.874-.2,3.19,3.19,0,0,1-3.941-1.813c-.078-.178-.053-.412-.256-.531v-1.5c.212-.107.194-.341.274-.517a3.236,3.236,0,0,1,4.108-1.719,3.164,3.164,0,0,1,1.908,4,.711.711,0,0,0,.244.866c1.343,1.331,2.691,2.658,4,4.018.343.355.533.392.906.033a29.338,29.338,0,0,1,3.842-3.06c.675-.462,1.244-.424,1.621.1s.226,1.116-.426,1.568a39.15,39.15,0,0,0-3.7,2.914c-.286.254-.3.4-.018.67q1.285,1.226,2.517,2.507a.965.965,0,0,0,.785.3c.843-.013,1.687-.015,2.529,0,.8.013,1.248.408,1.23,1.056-.017.619-.447.982-1.221.991-.538.006-1.076,0-1.614,0s-1.066,0-1.6,0a1.478,1.478,0,0,1-1.147-.492c-1.058-1.1-2.137-2.171-3.229-3.277a32.076,32.076,0,0,0-5.33,7.541,31.518,31.518,0,0,0-3.577,16.543c.763,12,6.4,21.115,16.768,27.179a31.48,31.48,0,0,0,19.917,4.01,32.495,32.495,0,0,0,18.288-8.247c.389-.345.43-.519.037-.908q-4.523-4.467-8.989-8.991c-.39-.395-.586-.335-.968-.01-10.921,9.288-28.128,3.184-30.776-10.91a18.946,18.946,0,0,1,13.868-22,14.2,14.2,0,0,1,3.157-.523c.433-.014.576-.161.574-.612q-.026-6.425,0-12.85c0-.476-.111-.614-.6-.586a33.356,33.356,0,0,0-12.24,3.027c-.953.442-1.535.367-1.834-.245-.312-.636.005-1.158.989-1.616A34.413,34.413,0,0,1-6011.375,0c1.064-.011,1.4.312,1.4,1.366.006,2.392.028,4.785-.014,7.177-.012.671.116.885.848.938a24.853,24.853,0,0,1,13.249,4.885c.46.341.637.3.963-.152,2.72-3.735,5.479-7.441,8.2-11.176a1.737,1.737,0,0,1,1.655-.84c.38.026.763.02,1.146.014.347-.005.694-.011,1.041.008a.756.756,0,0,0,.821-.5,3.15,3.15,0,0,1,3.573-1.611A3.228,3.228,0,0,1-5976,3.149a3.225,3.225,0,0,1-2.311,3.185,3.183,3.183,0,0,1-3.8-1.646c-.175-.345-.373-.388-.716-.443a3.286,3.286,0,0,0-3.56,1.733c-2.229,3.27-4.653,6.408-7.013,9.589-.261.352-.35.545.037.919a25.245,25.245,0,0,1,7.913,17.029c.027.405.171.481.531.472.888-.022,1.777-.015,2.665,0,.936.011,1.3.373,1.278,1.287a33.913,33.913,0,0,1-.379,4.557c-.122.784-.576,1.208-1.189,1.125-.638-.087-.945-.566-.847-1.381.119-.994.269-1.984.313-2.988.017-.387-.019-.563-.484-.559-2.666.023-5.332.019-8,0-.381,0-.516.118-.545.493a18.5,18.5,0,0,1-4.511,10.828c-.2.236-.229.376.005.609q2.937,2.91,5.85,5.844c.184.185.294.207.48,0,.74-.836,1.432-1.71,2.1-2.608a.355.355,0,0,0-.057-.567c-.384-.356-.756-.727-1.112-1.111a1.02,1.02,0,0,1-.07-1.466,1,1,0,0,1,1.513.019c.347.327.653.7,1.015,1.089a25.816,25.816,0,0,0,2.073-4.3c.072-.191.136-.386.217-.573a1.039,1.039,0,0,1,1.376-.655,1.023,1.023,0,0,1,.542,1.364,24.286,24.286,0,0,1-2.29,4.935.822.822,0,0,0,.15,1.244c2.043,1.984,4.035,4.021,6.061,6.022a1.784,1.784,0,0,1,.573,1.393c-.024,1.549,0,3.1-.013,4.648a.583.583,0,0,0,.354.635,3.048,3.048,0,0,1,1.819,3.224,3.061,3.061,0,0,1-2.488,2.813c-.031.008-.05.066-.075.1Zm-32.119-.009a.815.815,0,0,1,.44-.154A.815.815,0,0,0-6012.217,69.991Zm.913-.012-.009-.005Zm1.226-.01-.011-.009Zm-.6-.009a.5.5,0,0,1,.273-.11A.5.5,0,0,0-6010.677,69.961Zm.3-.111h0Zm-1.363-.013h0Zm31.338-3.019a1.166,1.166,0,0,0,1.2,1.127,1.205,1.205,0,0,0,1.146-1.2,1.169,1.169,0,0,0-1.184-1.148A1.139,1.139,0,0,0-5980.4,66.819Zm-47.531-31.851A16.988,16.988,0,0,0-6011,51.936a16.988,16.988,0,0,0,16.936-16.9A16.988,16.988,0,0,0-6011,18.071,16.985,16.985,0,0,0-6027.933,34.968Zm39.685-.975c.707.093.808-.189.749-.825a23.625,23.625,0,0,0-6.693-14.647c-.755-.782-.761-.776-1.439.09-.056.072-.108.147-.171.213a1.039,1.039,0,0,1-1.411.157,1.008,1.008,0,0,1-.2-1.4,7.477,7.477,0,0,1,.606-.824c.2-.241.206-.391-.069-.594a23.63,23.63,0,0,0-12.606-4.671c-.379-.028-.51.065-.5.467.026,1.16.037,2.323,0,3.483-.018.513.158.641.646.685a18.514,18.514,0,0,1,13.061,6.936,18.126,18.126,0,0,1,4.162,10.328c.036.464.188.633.658.6.567-.039,1.138-.009,1.708-.009.309,0,.62-.02.929-.02A4.392,4.392,0,0,1-5988.249,33.993Zm-55.695-30.737a1.167,1.167,0,0,0,1.179,1.153,1.142,1.142,0,0,0,1.169-1.152,1.17,1.17,0,0,0-1.132-1.2h-.035A1.2,1.2,0,0,0-6043.943,3.256Zm63.542-.082a1.14,1.14,0,0,0,1.151,1.235,1.168,1.168,0,0,0,1.195-1.137,1.207,1.207,0,0,0-1.132-1.214h-.055A1.169,1.169,0,0,0-5980.4,3.174Zm-42.043,40.813a1.171,1.171,0,0,1-.338-1.181.977.977,0,0,1,.778-.685,1.085,1.085,0,0,1,1.109.513,12.458,12.458,0,0,0,4.706,3.747,12.528,12.528,0,0,0,17.68-11.972,12.523,12.523,0,0,0-11.251-11.845,12.494,12.494,0,0,0-13.505,10,12.315,12.315,0,0,0,.159,5.553c.039.154.08.308.109.464a1.018,1.018,0,0,1-.714,1.278.993.993,0,0,1-1.245-.766,14.006,14.006,0,0,1-.3-6.955,14.561,14.561,0,0,1,12.572-11.6,14.6,14.6,0,0,1,16.066,12.237,14.557,14.557,0,0,1-12.614,16.686c-.608.08-1.227.081-1.755.113A14.482,14.482,0,0,1-6022.444,43.987Zm11.444,1.42a.96.96,0,0,1-1.01-.907c-.072-.394.179-.906-.147-1.161-.269-.209-.737-.156-1.114-.233a6.089,6.089,0,0,1-2.161-.974,1.032,1.032,0,0,1-.4-1.412,1.008,1.008,0,0,1,1.476-.326,4.767,4.767,0,0,0,1.94.782c.3.025.4-.054.4-.361q-.015-2.732,0-5.465a.505.505,0,0,0-.332-.524c-.47-.226-.926-.482-1.376-.745a3.721,3.721,0,0,1-2.041-4.094,3.874,3.874,0,0,1,2.992-3.275c.592-.168.807-.358.773-.982a.969.969,0,0,1,.986-1.136.97.97,0,0,1,1.03,1.16c-.036.642.163.925.793,1.062a4.187,4.187,0,0,1,1.675.886,1,1,0,0,1,.262,1.444,1.025,1.025,0,0,1-1.454.216,2.672,2.672,0,0,0-1.256-.584c0,1.528,0,3.028,0,4.528a.4.4,0,0,0,.311.457c.152.044.3.1.449.16a4.448,4.448,0,0,1,3.193,4.289,4.982,4.982,0,0,1-3.276,4.733c-.573.2-.752.467-.68,1.015a2,2,0,0,1-.019.544.937.937,0,0,1-1.005.9Zm1.017-9.184c.014,1.566.006,3.133.006,4.783a3,3,0,0,0,1.686-1.645,2.516,2.516,0,0,0-1.275-3.379.783.783,0,0,0-.25-.067C-6009.923,35.914-6009.986,35.987-6009.984,36.222Zm-2.5-7.463a1.969,1.969,0,0,0-1.272,1.631c-.123,1.087.332,1.685,1.74,2.236,0-1.224-.011-2.382.006-3.54,0-.274-.054-.4-.208-.4A.685.685,0,0,0-6012.485,28.759Z" transform="translate(11457.5 1696)" fill="#071932" stroke="#071932" stroke-miterlimit="10" stroke-width="0.2"/>
  </g>
</svg>
