<svg xmlns="http://www.w3.org/2000/svg" width="200" height="40" viewBox="0 0 200 40">
  <path id="ebonds_blue" data-name="ebonds blue" d="M180.781,32.894a3.15,3.15,0,0,1,2.459-3.846c1.747-.326,2.977.913,3.818,2.542a3,3,0,0,0,3.236,1.956,3.358,3.358,0,0,0,0-6.715,9.659,9.659,0,0,1-6.859-2.869,9.538,9.538,0,0,1-2.847-6.91,9.8,9.8,0,0,1,2.838-6.917,9.665,9.665,0,0,1,6.869-2.862c4.53,0,8.671,3.129,9.318,6.78a3.231,3.231,0,0,1-2.459,3.846,3.353,3.353,0,0,1-3.818-2.412,3.024,3.024,0,0,0-3.041-1.76,3.325,3.325,0,0,0,0,6.65A9.757,9.757,0,0,1,200,30.156,9.786,9.786,0,0,1,190.293,40,10.257,10.257,0,0,1,180.781,32.894ZM144.47,23.625A16.386,16.386,0,0,1,153.5,8.96a16.178,16.178,0,0,1,17.065,1.618V3.2a3.2,3.2,0,0,1,6.41,0V23.625a16.253,16.253,0,1,1-32.5,0Zm6.41,0a9.843,9.843,0,1,0,19.685,0V23.56a9.843,9.843,0,1,0-19.685.066ZM134.447,36.74v-13.1a9.843,9.843,0,1,0-19.685,0v13.1a3.239,3.239,0,0,1-.939,2.314,3.2,3.2,0,0,1-5.472-2.314v-13.1a16.254,16.254,0,1,1,32.506,0v13.1a3.239,3.239,0,0,1-.939,2.314,3.2,3.2,0,0,1-5.472-2.314Zm-62.213-13.1A16.253,16.253,0,1,1,88.488,40,16.319,16.319,0,0,1,72.234,23.636Zm6.411,0a9.843,9.843,0,1,0,9.842-9.908,9.914,9.914,0,0,0-9.842,9.908Zm-42.528-.011V3.2a3.205,3.205,0,0,1,6.41,0v7.381A16.177,16.177,0,0,1,59.592,8.959,16.34,16.34,0,1,1,36.117,23.625Zm6.41-.065v.065a9.883,9.883,0,1,0,0-.065ZM14.587,39.915c-.541-.055-1.085-.138-1.617-.247s-1.049-.243-1.56-.4-1.008-.342-1.494-.549-.96-.436-1.421-.688-.908-.524-1.34-.818-.85-.608-1.25-.94-.787-.686-1.153-1.055-.719-.759-1.048-1.161-.644-.826-.934-1.259-.565-.888-.813-1.349-.48-.945-.683-1.431-.389-1-.545-1.5-.292-1.042-.4-1.57S.139,25.86.084,25.314,0,24.2,0,23.636c0-.491.022-.99.066-1.484s.111-.993.2-1.484.2-.987.33-1.471.287-.973.46-1.445.373-.949.589-1.406.459-.917.716-1.354S2.9,14.117,3.2,13.7s.628-.825.967-1.209a15.558,15.558,0,0,1,1.09-1.116,15.063,15.063,0,0,1,4-2.661c.252-.115.512-.224.772-.326s.532-.2.8-.288.552-.173.831-.248.572-.145.86-.207.591-.117.889-.163.61-.087.918-.119.63-.056.947-.073.649-.024.975-.024a3.115,3.115,0,0,1,1.772.55,3.178,3.178,0,0,1,.47.4,3.267,3.267,0,0,1,.866,1.65,3.437,3.437,0,0,1,.065.664v14.73q.016.158.016.321a3.212,3.212,0,1,1-6.423,0c0-.086,0-.17.01-.254h-.013V14.183a9.058,9.058,0,0,0-2.944,1.5,8.922,8.922,0,0,0-2.058,2.269A10.076,10.076,0,0,0,6.8,20.7a11.007,11.007,0,0,0-.3,1.461,11.227,11.227,0,0,0-.1,1.473A9.9,9.9,0,0,0,8.24,29.4a10,10,0,0,0,4.645,3.577c.256.107.521.2.787.284s.545.152.821.208.566.1.851.128.584.044.877.044.583-.014.87-.043.567-.071.845-.126.548-.123.815-.205.527-.175.782-.28a10.035,10.035,0,0,0,4.718-3.576,9.851,9.851,0,0,0,1.846-5.774c0-.339-.006-.8-.051-1.334-.023-.272-.055-.545-.1-.811-.045-.3-.1-.6-.169-.9-.074-.325-.162-.652-.263-.972-.109-.348-.236-.7-.378-1.04-.152-.368-.324-.738-.512-1.1-.2-.386-.426-.773-.668-1.151a2.47,2.47,0,0,1-.3-.668,2.552,2.552,0,0,1-.1-.7,2.92,2.92,0,0,1,.139-.878,3.4,3.4,0,0,1,.39-.822,3.6,3.6,0,0,1,.6-.7,3.419,3.419,0,0,1,.764-.528,2.893,2.893,0,0,1,1.214-.3,2.956,2.956,0,0,1,1.165.223,3.73,3.73,0,0,1,1.044.651,4.491,4.491,0,0,1,.454.457,4.869,4.869,0,0,1,.4.53c.33.5.633,1,.9,1.5.253.47.483.947.683,1.418.187.441.353.89.494,1.336.13.412.243.834.336,1.254a15.334,15.334,0,0,1,.319,2.265c.048.7.052,1.343.052,1.945v.32a16.7,16.7,0,0,1-.084,1.678,16.382,16.382,0,0,1-.65,3.2c-.157.508-.342,1.014-.549,1.5s-.436.967-.687,1.431-.524.914-.817,1.349-.606.856-.938,1.259-.684.792-1.051,1.161-.756.723-1.156,1.055-.822.649-1.252.94-.883.569-1.34.818-.938.483-1.42.688-.988.392-1.491.549-1.032.295-1.554.4a16.063,16.063,0,0,1-1.609.247A16.325,16.325,0,0,1,16.252,40a16.511,16.511,0,0,1-1.663-.084Z" fill="#071932"/>
</svg>
