<svg xmlns="http://www.w3.org/2000/svg" width="150" height="40" viewBox="0 0 150 40">
  <path id="eintel_blue" data-name="eintel blue" d="M123.287,40a16.364,16.364,0,1,1,0-32.727c7.925,0,16.439,5.737,16.439,16.364a3.222,3.222,0,0,1-3.275,3.194H113.857a9.979,9.979,0,0,0,9.431,6.715,12.893,12.893,0,0,0,7.335-2.151c1.506-.978,3.537-.065,4.322,1.5.786,1.63-.065,3.325-1.572,4.3a15.865,15.865,0,0,1-9.765,2.8Zm-9.431-19.623h18.927c-1.375-4.564-5.567-6.65-9.5-6.65a10.01,10.01,0,0,0-9.43,6.65ZM143.379,36.7V3.237a3.312,3.312,0,0,1,6.621,0V36.7a3.311,3.311,0,0,1-6.621,0Zm-53.4,0V16.14H85.212a3.3,3.3,0,0,1-3.248-3.3,3.245,3.245,0,0,1,3.248-3.232h4.772V3.232a3.281,3.281,0,0,1,6.562,0V9.609h4.706a3.26,3.26,0,0,1,3.314,3.232,3.316,3.316,0,0,1-3.314,3.3H96.546V36.7a3.281,3.281,0,1,1-6.562,0ZM73.2,36.74v-13.1a9.955,9.955,0,0,0-19.91,0v13.1a3.242,3.242,0,1,1-6.484,0v-13.1a16.439,16.439,0,0,1,32.877,0v13.1a3.241,3.241,0,1,1-6.482,0Zm-36.667,0V10.468a3.313,3.313,0,0,1,6.621,0V36.74a3.31,3.31,0,0,1-6.62,0ZM14.752,39.916c-.548-.055-1.1-.138-1.635-.247s-1.061-.243-1.577-.4-1.019-.342-1.511-.549-.971-.436-1.438-.688-.919-.524-1.355-.818-.86-.608-1.265-.94-.8-.686-1.166-1.055-.727-.759-1.06-1.161S3.092,33.229,2.8,32.8s-.571-.888-.822-1.349-.485-.945-.691-1.431-.393-1-.551-1.5-.3-1.042-.4-1.57a16.373,16.373,0,0,1-.248-1.628A16.707,16.707,0,0,1,0,23.636c0-.491.022-.99.067-1.484s.112-.993.2-1.484S.47,19.681.6,19.2s.29-.973.465-1.445.377-.949.6-1.406.464-.917.724-1.354.55-.875.852-1.287.635-.825.978-1.209a15.643,15.643,0,0,1,1.1-1.116A15.249,15.249,0,0,1,9.366,8.72c.255-.115.518-.224.78-.326s.538-.2.81-.288.558-.173.84-.248.579-.145.87-.207.6-.117.9-.163.617-.087.928-.119.637-.056.957-.073.656-.024.986-.024a3.187,3.187,0,0,1,2.268.946,3.256,3.256,0,0,1,.876,1.65,3.4,3.4,0,0,1,.065.664V25.262q.016.158.016.321a3.248,3.248,0,0,1-6.5,0c0-.086,0-.17.01-.254h-.013V14.183a9.2,9.2,0,0,0-2.978,1.5A8.959,8.959,0,0,0,8.1,17.956,10.019,10.019,0,0,0,6.883,20.7a10.9,10.9,0,0,0-.3,1.461,11.1,11.1,0,0,0-.1,1.473A9.824,9.824,0,0,0,8.335,29.4a10.1,10.1,0,0,0,4.7,3.577c.259.107.527.2.8.284s.551.152.83.208.572.1.86.128.591.044.886.044.589-.014.88-.043.574-.071.854-.126.555-.123.824-.205.533-.175.79-.28a10.226,10.226,0,0,0,2.672-1.442,10.037,10.037,0,0,0,2.1-2.134,9.775,9.775,0,0,0,1.867-5.774c0-.339-.006-.8-.052-1.334-.024-.272-.056-.545-.1-.811-.046-.3-.1-.6-.171-.9-.074-.325-.164-.652-.266-.972-.111-.348-.239-.7-.382-1.04-.154-.368-.328-.738-.518-1.1-.2-.386-.431-.773-.676-1.151a2.457,2.457,0,0,1-.308-.668,2.525,2.525,0,0,1-.1-.7,2.89,2.89,0,0,1,.141-.878,3.379,3.379,0,0,1,.394-.822,3.616,3.616,0,0,1,.6-.7,3.459,3.459,0,0,1,.773-.528,2.953,2.953,0,0,1,1.228-.3,3.02,3.02,0,0,1,1.179.223,3.779,3.779,0,0,1,1.056.651,4.517,4.517,0,0,1,.459.457,4.874,4.874,0,0,1,.4.53c.334.5.64,1,.913,1.5.256.47.489.947.69,1.418.189.441.357.89.5,1.336.132.412.246.834.339,1.254a15.172,15.172,0,0,1,.322,2.265c.048.7.052,1.343.052,1.945v.32a16.509,16.509,0,0,1-.085,1.678,16.22,16.22,0,0,1-.657,3.2c-.159.508-.346,1.014-.555,1.5s-.441.967-.694,1.431-.53.914-.826,1.349-.613.856-.949,1.259-.692.792-1.063,1.161-.764.723-1.169,1.055-.832.649-1.267.94-.893.569-1.356.818-.949.483-1.436.688-1,.392-1.508.549-1.043.294-1.572.4a16.416,16.416,0,0,1-1.627.247A16.7,16.7,0,0,1,16.438,40c-.559,0-1.121-.028-1.681-.084Z" transform="translate(0 0)" fill="#071932"/>
</svg>
