<svg xmlns="http://www.w3.org/2000/svg" width="220" height="40" viewBox="0 0 220 40">
  <path id="ewealth_blue" data-name="ewealth blue" d="M213.577,36.522V21.557a7.914,7.914,0,0,0-13.476-5.52,7.752,7.752,0,0,0-2.292,5.52V36.522a3.178,3.178,0,0,1-.94,2.289,3.229,3.229,0,0,1-2.305.936,3.19,3.19,0,0,1-3.18-3.225V2.934a3.212,3.212,0,0,1,6.424,0V9.688A14.362,14.362,0,0,1,220,21.557V36.522a3.244,3.244,0,0,1-3.243,3.225A3.19,3.19,0,0,1,213.577,36.522Zm-39.79-.071V15.9H169a3.306,3.306,0,0,1-3.257-3.3A3.249,3.249,0,0,1,169,9.376h4.785V3a3.291,3.291,0,0,1,6.58,0V9.376h4.719a3.264,3.264,0,0,1,3.323,3.23,3.32,3.32,0,0,1-3.323,3.3h-4.719V36.45a3.29,3.29,0,1,1-6.58,0Zm-17.657,0V3.008a3.32,3.32,0,0,1,6.638,0V36.446a3.32,3.32,0,0,1-6.639,0Zm-10.137.024a14.478,14.478,0,0,1-9.778,3.277c-9.315,0-16.714-6.882-16.714-16.123A16.543,16.543,0,0,1,136.215,7.041c9.315,0,16.251,7.341,16.251,16.582V36.47a3.18,3.18,0,0,1-3.3,3.277,3.465,3.465,0,0,1-3.17-3.277ZM125.975,23.623a9.952,9.952,0,0,0,10.24,9.7,9.555,9.555,0,0,0,9.778-9.7,9.944,9.944,0,0,0-9.778-10.159A10.338,10.338,0,0,0,125.975,23.623ZM64.742,37.59,57.9,19.484,51.13,37.59a3.515,3.515,0,0,1-3.157,2.157,3.261,3.261,0,0,1-3.091-2.157L35.019,11.444A3.262,3.262,0,0,1,39.4,7.332a3.145,3.145,0,0,1,1.664,1.824l6.9,18.236L54.812,9.288a3.191,3.191,0,0,1,1.973-2.026,2.65,2.65,0,0,1,.986-.2H58.5a.064.064,0,0,0,.019.047.065.065,0,0,0,.047.019h.131c.066,0,.066,0,.132.065h.132c.066.065.066.065.132.065a3.092,3.092,0,0,1,1.907,2.026l6.839,18.105,6.9-18.236a3.238,3.238,0,0,1,4.209-1.9,3.291,3.291,0,0,1,1.907,4.183L70.989,37.59a3.514,3.514,0,0,1-3.156,2.157,3.261,3.261,0,0,1-3.091-2.157ZM14.793,39.662c-.549-.055-1.1-.138-1.64-.247s-1.064-.243-1.582-.4-1.022-.342-1.516-.549-.974-.436-1.441-.687-.921-.524-1.359-.818-.862-.608-1.268-.94-.8-.686-1.17-1.055-.729-.758-1.063-1.16-.653-.826-.947-1.258-.573-.888-.824-1.348-.487-.945-.693-1.43-.394-1-.553-1.5S.442,27.224.334,26.7A16.313,16.313,0,0,1,.085,25.07,16.64,16.64,0,0,1,0,23.394c0-.491.022-.989.067-1.483s.113-.992.2-1.483.2-.986.335-1.47.291-.972.466-1.444.378-.949.6-1.4.465-.917.726-1.353.552-.875.854-1.286.637-.825.981-1.208a15.657,15.657,0,0,1,1.106-1.115A15.3,15.3,0,0,1,9.392,8.487c.256-.115.519-.224.783-.325s.54-.2.813-.288.559-.173.842-.248.58-.145.872-.206.6-.117.9-.163.619-.087.931-.119.638-.056.96-.073.658-.024.989-.024a3.2,3.2,0,0,1,2.274.945,3.25,3.25,0,0,1,.878,1.649,3.387,3.387,0,0,1,.066.664v14.72a3.194,3.194,0,0,1,.016.321,3.257,3.257,0,0,1-6.514,0c0-.086,0-.17.01-.254H13.2V13.947a9.237,9.237,0,0,0-2.986,1.5,8.964,8.964,0,0,0-2.087,2.267A10,10,0,0,0,6.9,20.461a10.859,10.859,0,0,0-.3,1.461,11.058,11.058,0,0,0-.1,1.472,9.8,9.8,0,0,0,1.856,5.759,10.127,10.127,0,0,0,4.711,3.575c.26.107.528.2.8.284s.552.152.833.208.574.1.863.128.592.044.889.044.591-.014.882-.043.575-.07.857-.126.556-.123.826-.2.534-.175.793-.28A10.264,10.264,0,0,0,22.486,31.3a10.047,10.047,0,0,0,2.106-2.133,9.747,9.747,0,0,0,1.872-5.77c0-.339-.006-.8-.052-1.333-.024-.272-.056-.545-.1-.81-.046-.3-.1-.6-.171-.895-.075-.325-.164-.652-.266-.971-.111-.347-.24-.7-.383-1.039-.154-.368-.329-.738-.52-1.1-.2-.386-.432-.773-.678-1.15a2.452,2.452,0,0,1-.309-.668,2.515,2.515,0,0,1-.1-.7,2.879,2.879,0,0,1,.141-.878,3.372,3.372,0,0,1,.4-.821,3.616,3.616,0,0,1,.606-.7,3.469,3.469,0,0,1,.775-.528,2.969,2.969,0,0,1,1.231-.3,3.037,3.037,0,0,1,1.182.223,3.792,3.792,0,0,1,1.059.651,4.521,4.521,0,0,1,.46.457,4.873,4.873,0,0,1,.4.53c.335.5.642,1,.915,1.5.257.47.49.947.692,1.417.189.441.358.89.5,1.335.132.412.247.834.34,1.254a15.113,15.113,0,0,1,.323,2.264c.049.7.052,1.342.052,1.944v.32a16.444,16.444,0,0,1-.086,1.677,16.162,16.162,0,0,1-.659,3.195c-.16.508-.347,1.014-.556,1.5s-.442.966-.7,1.43-.532.914-.829,1.348-.615.856-.951,1.258-.693.792-1.066,1.16-.766.723-1.172,1.054-.834.648-1.27.94-.9.568-1.359.818-.951.483-1.44.687-1,.391-1.512.549-1.046.294-1.576.4-1.086.192-1.632.247a16.8,16.8,0,0,1-1.679.084c-.561,0-1.125-.028-1.686-.084Zm84.562.084A16.428,16.428,0,0,1,82.872,23.394a16.256,16.256,0,0,1,4.818-11.573,16.518,16.518,0,0,1,11.665-4.78c7.946,0,16.483,5.733,16.483,16.353a3.225,3.225,0,0,1-3.283,3.192H89.9a10,10,0,0,0,9.456,6.71,12.963,12.963,0,0,0,7.355-2.15c1.51-.977,3.546-.065,4.334,1.5.788,1.629-.066,3.323-1.576,4.3a15.947,15.947,0,0,1-9.79,2.8ZM89.9,20.136h18.978c-1.379-4.561-5.582-6.645-9.522-6.645A10.035,10.035,0,0,0,89.9,20.136Z" transform="translate(0 0.253)" fill="#071932"/>
</svg>
