<svg xmlns="http://www.w3.org/2000/svg" width="70" height="70" viewBox="0 0 70 70">
  <g id="Fintech_As-A-Service" data-name="Fintech As-A-Service" transform="translate(-5753 -1696)">
    <circle id="Ellipse_64" data-name="Ellipse 64" cx="12" cy="12" r="12" transform="translate(5753 1696)" fill="#071932" opacity="0.1"/>
    <path id="Union_8" data-name="Union 8" d="M-6028.834,70c-.931,0-1.369-.409-1.352-1.316a39.506,39.506,0,0,1,.12-5.634,8.565,8.565,0,0,1,5.613-7.014c2.355-.916,4.784-1.647,7.192-2.424.492-.159.588-.4.638-.887a3.794,3.794,0,0,0-1.539-3.85,7.734,7.734,0,0,1-2.59-4.346c-.1-.374-.242-.54-.662-.508a5.8,5.8,0,0,1-1.475-.05,3.38,3.38,0,0,1-2.779-3.613,3.409,3.409,0,0,1,3.348-3.1c.182-.005.364,0,.593,0-.446-1.366-1.11-2.589-1.439-3.935a8.69,8.69,0,0,1,8.287-10.735c2.563-.031,5.127-.027,7.689,0A8.687,8.687,0,0,1-5999.1,34.2c-.36,1.01-.777,2-1.177,3.023a12.923,12.923,0,0,1,1.429.152,3.412,3.412,0,0,1,2.507,3.621,3.239,3.239,0,0,1-3.192,2.991c-1.23-.066-1.626.378-1.961,1.478a8.8,8.8,0,0,1-3.465,4.586.808.808,0,0,0-.4.8c.06.837-.325,1.88.149,2.459.442.54,1.473.6,2.248.866,1.688.57,3.386,1.113,5.067,1.7a8.972,8.972,0,0,1,6.084,8.47c.017,1.434.01,2.869,0,4.3,0,.924-.415,1.346-1.327,1.346l-18.237,0Zm26.828-2.235a1.58,1.58,0,0,0,1.058-.126c.34-.285.1-1.012.1-1.544.012-1.794,0-1.777,1.792-1.752.435.006.489.165.478.531-.023.8.007,1.6-.014,2.4-.009.347.06.491.454.482,1.2-.028,2.4-.031,3.595,0,.435.012.49-.16.48-.528-.023-.916,0-1.833-.009-2.749a6.724,6.724,0,0,0-4.62-6.483c-1.392-.49-2.807-.913-4.19-1.422-.49-.18-.632-.031-.794.4-.542,1.422-1.114,2.832-1.692,4.24a1.153,1.153,0,0,1-1.8.682c-.212-.1-.417-.214-.628-.315-.1-.049-.209-.1-.321,0a3.985,3.985,0,0,0-.394,2c.49,1.242.994,2.478,1.471,3.725a.58.58,0,0,0,.653.455c.821-.033,1.645-.01,2.467-.01.47,0,.94.006,1.41,0h.043C-6002.319,67.739-6002.163,67.751-6002.006,67.763Zm-13.579-.014a.544.544,0,0,0,.61-.415c.424-1.116.836-2.24,1.329-3.326a2,2,0,0,0,.039-1.675c-.338-.877-.31-.888-1.132-.491-.988.477-1.521.282-1.932-.731q-.859-2.115-1.693-4.24c-.126-.321-.23-.476-.651-.325-1.454.524-2.944.947-4.4,1.478a6.577,6.577,0,0,0-4.315,4.741,21.719,21.719,0,0,0-.209,4.7c-.012.3.165.287.334.275.034,0,.068,0,.1,0,.823.006,1.645,0,2.467,0,1.614,0,1.614,0,1.614-1.631,0-1.852,0-1.84,1.841-1.766.344.014.433.11.425.441-.021.845.009,1.692-.015,2.537-.01.347.1.435.437.427.845-.022,1.691-.007,2.537-.007.5,0,1-.006,1.5-.006C-6016.325,67.735-6015.955,67.738-6015.585,67.749Zm4.147-3.211c-.41,1.054-.835,2.1-1.271,3.193h3.424c-.431-1.076-.838-2.069-1.222-3.071-.091-.237-.214-.345-.461-.306a.708.708,0,0,1-.137,0l-.062,0A.251.251,0,0,0-6011.438,64.538Zm-.379-3.965c-.067.493.54,1.526.818,1.525s.878-1.051.817-1.531c-.053-.417-.511-.525-.787-.529h-.02C-6011.3,60.037-6011.759,60.138-6011.818,60.572Zm-4.4-4.955c-.327.156-.062.365-.006.527.17.485.367.96.565,1.434.251.6.514,1.2.771,1.8q.883-.43,1.763-.862a1.3,1.3,0,0,0,.184-.167c-.9-.889-1.789-1.753-2.655-2.64a.469.469,0,0,0-.342-.166A.659.659,0,0,0-6016.213,55.617Zm9.833.064c-.87.906-1.763,1.791-2.687,2.723.555.281,1.085.522,1.586.811.341.2.46.087.583-.239.362-.96.757-1.907,1.128-2.863.058-.149.276-.34.016-.477a.71.71,0,0,0-.32-.1A.415.415,0,0,0-6006.38,55.681Zm-8.012-2.25a.688.688,0,0,0,.257.541c.949.941,1.9,1.883,2.83,2.843.239.246.384.237.616,0a28.154,28.154,0,0,1,2.147-2.13,2.455,2.455,0,0,0,.946-2.313c-.084-.895-.018-.9-.857-.711q-.377.084-.758.148a10.725,10.725,0,0,1-5.175-.463C-6014.386,52.079-6014.376,52.755-6014.392,53.431Zm-4.515-14.733a22.8,22.8,0,0,0,.3,5.187,7.993,7.993,0,0,0,7.84,5.791,7.61,7.61,0,0,0,7.459-5.9,26.253,26.253,0,0,0,.214-5.2c.009-.237-.1-.3-.317-.354a6.648,6.648,0,0,1-4.193-2.98,6.819,6.819,0,0,1-6.246,3.154c-1.526-.046-3.055-.01-4.583-.006-.035,0-.072,0-.109-.005s-.072-.005-.106-.005C-6018.8,38.38-6018.917,38.424-6018.906,38.7Zm18.042,1.907c.206.411-.455,1.283.731,1.187,1.008-.081,1.534-.39,1.548-1.125.015-.757-.53-1.086-1.573-1.17-.057,0-.108-.007-.156-.007C-6001.171,39.49-6000.726,40.187-6000.864,40.6Zm-20.955-1.1c-1.065.067-1.6.386-1.6,1.144s.534,1.071,1.6,1.147c1.088.078.51-.7.688-1.122-.219-.373.41-1.174-.557-1.174C-6021.729,39.5-6021.772,39.5-6021.819,39.5Zm2.567-3.373c2.021,0,4.042.028,6.063-.009a4.212,4.212,0,0,0,3.74-2.243c.224-.384.412-.789.6-1.192.25-.535.562-1,1.224-1.011s.989.437,1.243.979a13.782,13.782,0,0,0,.747,1.432,4.174,4.174,0,0,0,2.95,1.967c.22.039.413.092.513-.185.539-1.491,1.362-2.9,1.332-4.556a6.427,6.427,0,0,0-6.358-6.465c-2.561-.024-5.124-.033-7.685,0a6.423,6.423,0,0,0-6.174,7.524,23.4,23.4,0,0,0,1.234,3.5c.094.27.281.261.471.253l.094,0Zm25.873-9.134c-.738-.321-.7-.974-.689-1.619.009-.752-.023-1.506.013-2.256.02-.425-.084-.555-.534-.549-2,.028-4,.016-5.995.011a4.517,4.517,0,0,1-4.77-4.775q-.007-6.524,0-13.048A4.513,4.513,0,0,1-6000.566,0q4.937-.005,9.873,0t9.874,0A4.517,4.517,0,0,1-5976,4.8q.007,6.489,0,12.977a4.522,4.522,0,0,1-4.814,4.8c-2.21,0-4.42.009-6.629-.008a1.081,1.081,0,0,0-.859.354c-1.135,1.159-2.292,2.3-3.435,3.447-.353.354-.695.725-1.176.725A1.151,1.151,0,0,1-5993.379,26.994Zm.228-6.668c.922,0,1.328.414,1.342,1.331.007.469,0,.939,0,1.585.818-.819,1.55-1.506,2.226-2.244a2.053,2.053,0,0,1,1.681-.687c2.351.032,4.7.014,7.053.012a2.293,2.293,0,0,0,2.585-2.544q0-6.49,0-12.979a2.289,2.289,0,0,0-2.521-2.538q-9.911,0-19.821,0a2.268,2.268,0,0,0-2.492,2.491q-.005,6.525,0,13.05a2.29,2.29,0,0,0,2.539,2.52q1.574,0,3.148,0h1.505Q-5994.527,20.322-5993.151,20.326Zm-36.817,6.336c-1.164-1.163-2.344-2.312-3.482-3.5a1.719,1.719,0,0,0-1.4-.6c-2.139.04-4.278.021-6.417.015A4.511,4.511,0,0,1-6046,17.837q-.009-6.559,0-13.118A4.507,4.507,0,0,1-6041.24,0q4.972-.006,9.944,0,4.937,0,9.874,0a4.513,4.513,0,0,1,4.777,4.767q.008,6.523,0,13.047a4.518,4.518,0,0,1-4.781,4.764c-1.9,0-3.81.041-5.712-.02-.713-.023-.859.2-.81.851.061.795.009,1.6.017,2.4a1.153,1.153,0,0,1-.7,1.189,1.112,1.112,0,0,1-.45.1A1.264,1.264,0,0,1-6029.968,26.661Zm-2.624-5.829c.747.778,1.509,1.54,2.4,2.446,0-.644,0-1.086,0-1.527.007-1.048.39-1.425,1.458-1.426q1.657,0,3.313,0,2.011,0,4.022,0a2.274,2.274,0,0,0,2.494-2.494q.006-6.525,0-13.05a2.29,2.29,0,0,0-2.541-2.518q-9.874,0-19.75,0a2.278,2.278,0,0,0-2.543,2.511q-.005,6.525,0,13.049a2.281,2.281,0,0,0,2.487,2.5c2.469,0,4.938.01,7.406-.006h.015A1.6,1.6,0,0,1-6032.592,20.832Zm51.67-2.757a.971.971,0,0,0-.154-.018c-2.751.012-5.5.008-8.252.008h-.988q-4.515,0-9.029,0c-1.117,0-1.493-.367-1.494-1.464,0-3.832.01-7.665-.014-11.5,0-.516.157-.6.629-.6,1.642.021,1.643,0,1.643,1.616,0,3.01.018,6.019-.016,9.029-.007.582.18.687.7.668,1.08-.038,2.164-.043,3.243,0,.519.022.647-.155.595-.629-.039-.348.029-.709-.017-1.056-.068-.522.155-.6.625-.6,1.636.021,1.668,0,1.624,1.616-.016.591.193.674.707.665,1.569-.028,1.569-.008,1.569-1.547,0-.118-.008-.236,0-.353.04-.485-.21-1.267.094-1.393a3.212,3.212,0,0,1,1.364-.118c.192.009.384.019.571.017.315,0,.222.243.224.407.007.823.021,1.647,0,2.469-.012.38.071.515.489.52,1.777.022,1.777.039,1.777-1.764,0-.729.025-1.459-.009-2.186-.021-.439.079-.6.563-.592,1.7.013,1.7-.009,1.7,1.7,0,.8.014,1.6-.007,2.4-.008.325.066.494.421.437a.935.935,0,0,1,.211,0,3.555,3.555,0,0,0,.595-.031c.411-.044.81-.088.935.141a4.4,4.4,0,0,1,.1,1.857c.005.261-.1.319-.239.319A1.044,1.044,0,0,1-5980.922,18.075Zm-49.888,0a4.6,4.6,0,0,0-.634,0c-.952,0-.974,0-.995-.969a.566.566,0,0,0-.4-.56,3.362,3.362,0,0,1-1.837-2.514c-.069-.347,0-.527.411-.481a4.432,4.432,0,0,0,.616.012c.1,0,.2-.005.3,0,.058,0,.115,0,.171,0,.4-.01.77-.02.945.594a.918.918,0,0,0,1.253.474,1.05,1.05,0,0,0,.778-1.126,1.08,1.08,0,0,0-.962-1.054c-.32-.062-.657-.054-.973-.132a3.358,3.358,0,0,1-2.551-2.864,3.343,3.343,0,0,1,1.748-3.349c.354-.185.577-.363.49-.779-.147-.711.185-.911.83-.8a2.074,2.074,0,0,0,.353,0,2.336,2.336,0,0,0,.422,0c.585-.11.734.174.656.69a.767.767,0,0,0,.513.912,3.243,3.243,0,0,1,1.714,2.443c.067.348,0,.527-.411.481a4.435,4.435,0,0,0-.613-.012c-.1,0-.2.005-.3,0-.058,0-.115,0-.172,0-.4.01-.77.02-.945-.594a.918.918,0,0,0-1.253-.476,1.051,1.051,0,0,0-.779,1.126,1.082,1.082,0,0,0,.961,1.055c.343.067.706.055,1.041.15a3.277,3.277,0,0,1,2.47,2.777,3.226,3.226,0,0,1-1.622,3.333.907.907,0,0,0-.6,1.077c.079.443-.084.6-.417.6A1.477,1.477,0,0,1-6030.81,18.071Zm34.883-4.123c-.341-.435-1.083-.738-1.043-1.224.034-.417.669-.79,1.048-1.173.994-1,2.009-1.982,2.984-3a1.878,1.878,0,0,1,1.551-.657c.346.018.695.008,1.043,0a9.67,9.67,0,0,1,1.422.031,2.111,2.111,0,0,0,2.185-1.13c-1.859-.061-1.852-.061-1.694-1.928.023-.274.1-.356.366-.354.586,0,1.172,0,1.758,0,.8,0,1.6,0,2.4.011a1.071,1.071,0,0,1,1.118,1.117c.024,1.386,0,2.774.014,4.161,0,.268-.071.4-.354.36a.786.786,0,0,0-.135,0h-.076a5.076,5.076,0,0,0-.52.028,1.652,1.652,0,0,1-1.055-.11c-.383-.281-.034-1.008-.182-1.643-.416.414-.812.785-1.18,1.183a1.618,1.618,0,0,1-1.311.549c-.526-.013-1.053-.011-1.579-.008s-1.063,0-1.594-.008a1.2,1.2,0,0,0-.981.4c-1.112,1.148-2.27,2.252-3.377,3.4a.651.651,0,0,1-.423.257C-5995.664,14.216-5995.786,14.128-5995.927,13.948Z" transform="translate(11799 1696)" fill="#071932"/>
  </g>
</svg>
