<svg xmlns="http://www.w3.org/2000/svg" width="70" height="70" viewBox="0 0 70 70">
  <g id="Wealth_Management" data-name="Wealth Management" transform="translate(-5069 -1696)">
    <path id="Union_5" data-name="Union 5" d="M-5993.979,69.8c-.283-.32-.089-1.062-.092-1.618,0-2.214.01-4.428-.012-6.642,0-.44.09-.651.568-.573a1.378,1.378,0,0,0,.491,0,1.327,1.327,0,0,1,.45.018c.3.044.588.089.732-.227a1.684,1.684,0,0,0-.607-1.936c-.545-.4-1.1-.8-1.632-1.219a5.567,5.567,0,0,1-2.248-4.529c-.012-1.222,0-2.445,0-3.784a17.134,17.134,0,0,1-29.343-.007c0,1.248-.016,2.378,0,3.506a5.749,5.749,0,0,1-2.526,5.028c-.551.4-1.091.81-1.64,1.21a.73.73,0,0,0-.363.618c-.048,1.328-.064,1.328,1.283,1.328.984,0,.984,0,.984.983,0,2.471-.013,4.941.013,7.412,0,.463-.127.569-.581.567q-8.465-.023-16.927,0c-.464,0-.579-.121-.575-.573q.033-3.916,0-7.831c0-.459.119-.6.579-.569.6.04,1.209.01,1.944.01-.311-.518-.557-.954-.826-1.375a10.828,10.828,0,0,1-1.7-6.026q.039-11.082,0-22.165a12.563,12.563,0,0,1,3.969-9.516c1.448-1.4,2.859-2.834,4.294-4.248a4.413,4.413,0,0,1,6.3-.211,4.325,4.325,0,0,1-.169,6.25c-.147.148-.316.275-.435.378.047.311.263.273.4.332a4.138,4.138,0,0,1,1.092,7.029c-1.974,1.726-3.987,3.408-6,5.093a.993.993,0,0,0-.417.88c.031.744.042,1.493,0,2.237a3.739,3.739,0,0,0,1.325,3.167c.291.256.538.561.939.986,0-1.035,0-1.862,0-2.689a4.5,4.5,0,0,1,6.947-4.019c.059.034.123.061.188.093a17.117,17.117,0,0,1,16.5-13.136,17.128,17.128,0,0,1,16.641,13.139,4.469,4.469,0,0,1,5.439.186,4.192,4.192,0,0,1,1.681,3.321c.034.954.006,1.911.006,2.988,1.186-1.048,2.309-2,2.265-3.685-.027-1.025.283-2.184-.108-3.037s-1.455-1.4-2.235-2.063c-1.209-1.036-2.364-2.148-3.653-3.076a4.257,4.257,0,0,1,1.124-7.617c-.322-.337-.607-.613-.866-.911a4.291,4.291,0,0,1,.208-5.839,4.3,4.3,0,0,1,5.88-.174c1.986,1.849,3.963,3.721,5.756,5.758a11.474,11.474,0,0,1,2.91,7.749c.022,7.761.011,15.523.007,23.284a9.983,9.983,0,0,1-1.466,5.177c-.321.538-.646,1.074-1.007,1.672a10.694,10.694,0,0,0,2.044.058c.328,0,.44.077.438.423-.015,2.7-.022,5.408,0,8.111.005.575-.349.424-.642.424q-7.829.007-15.658,0a4.58,4.58,0,0,0-.538.044,4.7,4.7,0,0,1-.539.044A.766.766,0,0,1-5993.979,69.8Zm2.156-6.1c.027,1.141.034,2.284,0,3.425-.015.461.121.576.579.57,2.068-.025,4.136-.011,6.2-.011,2.092,0,4.185-.01,6.276.009.4,0,.513-.1.5-.5q-.04-1.747,0-3.495c.009-.4-.109-.5-.505-.5q-6.276.021-12.552,0h-.007C-5991.718,63.2-5991.833,63.3-5991.823,63.7Zm-38.862,3.993c.4,0,.516-.1.506-.5-.026-1.141-.033-2.284,0-3.425.014-.458-.116-.578-.576-.572-2.045.026-4.089.011-6.135.011-2.115,0-4.231.01-6.347-.009-.4,0-.515.1-.505.5q.041,1.747,0,3.495c-.009.4.106.5.5.5q3.121-.011,6.245-.011Q-6033.837,67.678-6030.685,67.689Zm49.027-6.711a.752.752,0,0,0,.763-.448c.411-.731.853-1.446,1.3-2.155a8.583,8.583,0,0,0,1.331-4.77c-.028-3.729-.009-7.459-.009-11.188,0-3.846.012-7.692,0-11.538a9.34,9.34,0,0,0-2.471-6.515c-1.717-1.851-3.559-3.591-5.359-5.366a1.96,1.96,0,0,0-1.958-.482,2.019,2.019,0,0,0-.85,3.449c1.442,1.471,2.922,2.906,4.383,4.356a5.674,5.674,0,0,1,1.748,4.205q-.014,4.72,0,9.44a5.627,5.627,0,0,1-1.717,4.147c-.827.827-1.662,1.648-2.493,2.472a.833.833,0,0,0-.317.585c-.027.494.263,1.172-.144,1.433a1.691,1.691,0,0,1-1.021.088c-.169-.016-.34-.033-.5-.032H-5989a.18.18,0,0,0-.046,0c-.466.093-.525-.142-.522-.543.018-2.354.013-4.708.008-7.063a2.273,2.273,0,0,0-2.29-2.464,2.264,2.264,0,0,0-2.221,2.46c0,3.963.005,7.925-.006,11.888a3.484,3.484,0,0,0,1.455,2.952,8.2,8.2,0,0,0,1.076.786c1.563.814,2.389,1.981,1.991,3.8-.085.388.088.5.49.5q1.844-.014,3.689-.014T-5981.658,60.978Zm-51.332,0c.409,0,.591-.06.556-.521-.047-.6.008-1.212-.02-1.817a.786.786,0,0,1,.377-.753c.912-.656,1.812-1.331,2.71-2.006a3.427,3.427,0,0,0,1.437-2.89c-.006-3.986,0-7.972,0-11.958a2.269,2.269,0,0,0-2.243-2.44A2.256,2.256,0,0,0-6032.444,41c-.006,2,0,4.009,0,6.014,0,1.653,0,1.631-1.662,1.655-.5.007-.692-.13-.6-.613a2.021,2.021,0,0,0-.858-2.044c-.656-.563-1.235-1.215-1.855-1.818a5.737,5.737,0,0,1-1.807-4.321c.015-3.077.021-6.154,0-9.23a5.865,5.865,0,0,1,1.861-4.441c1.377-1.338,2.729-2.7,4.094-4.05a2.867,2.867,0,0,0,.644-.823,2.064,2.064,0,0,0-.635-2.507,2.091,2.091,0,0,0-2.7.23c-1.577,1.535-3.128,3.1-4.694,4.643a9.985,9.985,0,0,0-3.075,7.406q.01,5.664,0,11.328c0,3.8.007,7.6,0,11.4a8.082,8.082,0,0,0,1.193,4.315c.484.8.991,1.582,1.443,2.4a.748.748,0,0,0,.773.43q1.849-.012,3.7-.013Q-6034.809,60.963-6032.99,60.976Zm21.972-34.695a14.632,14.632,0,0,0-14.655,14.526,14.636,14.636,0,0,0,14.687,14.565,14.638,14.638,0,0,0,14.657-14.527A14.636,14.636,0,0,0-6011,26.281Zm22.271,0a1.964,1.964,0,0,0-1.794,1.245,1.817,1.817,0,0,0,.527,2.157c1.6,1.395,3.235,2.761,4.964,4.231,0-1.351.025-2.558-.008-3.764a3.065,3.065,0,0,0-.906-2.067,15.479,15.479,0,0,1-1.181-1.2,1.509,1.509,0,0,0-1.314-.614C-5988.553,26.266-5988.648,26.27-5988.747,26.278Zm-46.116.628q-.573.568-1.145,1.139a2.909,2.909,0,0,0-.918,1.916c-.055,1.27-.015,2.544-.015,3.94,1.676-1.425,3.282-2.769,4.863-4.141a1.9,1.9,0,0,0,.186-2.893,2.03,2.03,0,0,0-1.446-.6A2.165,2.165,0,0,0-6034.863,26.906Zm23.933,24.019a2.83,2.83,0,0,0-.639-.022c-.47.06-.6-.119-.57-.57a3.085,3.085,0,0,0-.042-1.513c-.2-.387-.881-.213-1.331-.376a4.526,4.526,0,0,1-3.109-3.717c-.072-.405.011-.628.484-.547a1.711,1.711,0,0,0,.422,0c.752-.061,1.348-.074,1.588.938a1.874,1.874,0,0,0,1.908,1.292c.8.03,1.6.027,2.4,0a2.248,2.248,0,0,0,2.205-2.262,2.247,2.247,0,0,0-2.2-2.2c-.449-.015-.9-.012-1.347-.008-.3,0-.6,0-.908,0a4.512,4.512,0,0,1-4.567-4.153,4.473,4.473,0,0,1,3.991-4.758c.424-.055.541-.151.527-.568-.019-.55-.254-1.292.092-1.606a1.363,1.363,0,0,1,1.048-.135,3.43,3.43,0,0,0,.649.027c.379-.036.482.106.463.465a3.546,3.546,0,0,0,.041,1.586c.225.471.95.249,1.436.438a4.546,4.546,0,0,1,3.011,3.722c.066.383-.023.572-.454.512a2.669,2.669,0,0,0-.562,0c-.714.054-1.258.057-1.469-.909a1.863,1.863,0,0,0-1.886-1.32c-.82-.037-1.646-.032-2.467,0a2.234,2.234,0,0,0-2.169,2.223,2.252,2.252,0,0,0,2.159,2.238c.444.022.891,0,1.337,0h.317a6.55,6.55,0,0,1,2.057.211,4.511,4.511,0,0,1,3.143,4.678,4.483,4.483,0,0,1-3.951,4.022c-.449.059-.585.171-.559.61.032.529.192,1.24-.077,1.55a.668.668,0,0,1-.532.184A4.176,4.176,0,0,1-6010.931,50.925Zm10.088-10.1c0-1.113,0-1.113,1.133-1.113s1.123,0,1.123,1.125,0,1.113-1.134,1.113S-6000.843,41.945-6000.843,40.821Zm-22.573.039c0-1.152,0-1.152,1.166-1.152,1.091,0,1.091,0,1.091,1.086,0,1.151,0,1.151-1.165,1.151C-6023.416,41.945-6023.416,41.945-6023.416,40.86Zm24.83-18.016c0-1.038,0-1.038,1.069-1.038,1.188,0,1.188,0,1.188,1.2,0,1.038,0,1.038-1.069,1.038C-5998.586,24.043-5998.586,24.043-5998.586,22.844Zm-5.042-1.026c-1.73,0-1.73.016-1.73-1.723,0-1.118-.021-2.237.011-3.354.012-.425-.092-.549-.536-.541-1.681.029-3.362.012-5.167.012,1.47-1.873,2.863-3.647,4.254-5.421l5.575-7.114c.2-.249.325-.569.692-.1q4.883,6.272,9.806,12.518a.346.346,0,0,1-.388.12.962.962,0,0,0-.129-.012c-1.5.009-3.008.021-4.511,0-.438-.007-.619.076-.59.559.046.766-.007,1.537.021,2.305.014.378-.074.509-.49.515-1.777.022-1.776.038-1.776-1.747,0-1.048.034-2.1-.014-3.144-.025-.556.085-.778.7-.732.832.063,1.672.016,2.643.016-1.106-1.411-2.138-2.723-3.167-4.037-.691-.882-1.389-1.759-2.068-2.651-.233-.3-.39-.411-.679-.038-1.715,2.211-3.449,4.408-5.266,6.725,1.009,0,1.909.027,2.806-.011.444-.019.542.113.538.54q-.034,3.389,0,6.779c0,.428-.1.539-.535.539Zm-15.82-1.117c-1.711-.013-1.711.01-1.711-1.674,0-2.586.021-5.172-.015-7.757-.008-.57.168-.692.7-.665.836.042,1.676.011,2.646.011-.8-1.02-1.521-1.949-2.246-2.875-.994-1.269-2-2.532-2.981-3.806-.225-.291-.381-.435-.679-.051-1.716,2.213-3.45,4.411-5.271,6.732,1,0,1.9.023,2.8-.01.426-.016.557.087.547.531-.031,1.537-.021,3.075,0,4.612,0,.351-.076.466-.459.474-1.808.04-1.8.053-1.81-1.716,0-.53.169-1.226-.1-1.544-.2-.235-.618-.188-1.032-.141a4.377,4.377,0,0,1-.513.038c-1.306-.014-2.612,0-4.042,0,1.468-1.87,2.861-3.643,4.251-5.417q2.789-3.557,5.571-7.118c.25-.323.39-.5.742-.045,3.238,4.166,6.5,8.311,9.853,12.58-1.746,0-3.361.026-4.974-.014-.562-.014-.751.09-.738.7.043,2.189.007,4.379.024,6.569,0,.418-.058.593-.54.593Zm-8.483-1.1c0-1.147,0-1.147,1.171-1.147,1.087,0,1.087,0,1.087,1.09,0,1.147,0,1.147-1.17,1.147C-6027.931,20.686-6027.931,20.686-6027.931,19.6Z" transform="translate(11115 1696)" fill="#071932"/>
    <circle id="Ellipse_62" data-name="Ellipse 62" cx="12" cy="12" r="12" transform="translate(5069 1696)" fill="#071932" opacity="0.1"/>
  </g>
</svg>
